<?xml version="1.0" standalone="no"?>
<!DOCTYPE svg PUBLIC "-//W3C//DTD SVG 20010904//EN"
 "http://www.w3.org/TR/2001/REC-SVG-20010904/DTD/svg10.dtd">
<svg version="1.0" xmlns="http://www.w3.org/2000/svg"
 width="2000.000000pt" height="2000.000000pt" viewBox="0 0 2000.000000 2000.000000"
 preserveAspectRatio="xMidYMid meet">
<metadata>
Created by potrace 1.14, written by Peter Selinger 2001-2017
</metadata>
<g transform="translate(0.000000,2000.000000) scale(0.100000,-0.100000)"
fill="#000000" stroke="none">
<path d="M7779 17019 c-20 -5 -53 -29 -91 -65 -431 -427 -1595 -1599 -1605
-1616 -10 -18 -12 -616 -13 -3041 0 -2763 1 -3021 16 -3050 9 -18 22 -39 29
-47 12 -13 -3 -15 -133 -13 -81 1 -155 -1 -164 -3 -15 -5 -17 -20 -17 -125 1
-82 5 -119 13 -120 6 0 317 -1 691 -1 374 0 683 -2 687 -5 6 -3 -92 -133 -181
-238 -9 -11 -30 -38 -46 -60 -16 -22 -33 -42 -36 -45 -3 -3 -113 -140 -245
-305 l-239 -300 -1 -100 c-1 -58 3 -103 8 -106 6 -4 79 -7 162 -8 83 -1 165
-3 181 -5 300 -32 482 -151 558 -363 47 -131 29 -334 -40 -451 -70 -119 -212
-215 -368 -248 -200 -43 -389 -37 -634 20 -144 33 -347 137 -446 228 -16 15
-35 28 -40 28 -6 0 -39 -48 -74 -106 l-64 -106 39 -36 c54 -49 147 -112 229
-154 81 -42 240 -100 249 -91 3 4 6 1 6 -5 0 -7 9 -12 21 -12 12 0 47 -7 78
-15 31 -8 77 -17 101 -19 25 -3 59 -8 75 -12 40 -9 316 -9 380 -1 123 17 197
34 275 64 77 29 202 97 220 118 7 8 16 15 21 15 5 0 36 26 68 58 80 78 133
159 181 277 5 11 11 34 15 50 4 17 9 39 13 50 14 53 13 269 -3 348 -55 278
-274 489 -588 567 -49 12 -112 23 -140 26 -71 5 -118 12 -124 18 -3 3 30 49
73 103 44 55 93 116 109 137 17 21 59 75 95 120 36 45 139 176 230 290 91 115
170 214 175 220 6 6 27 33 48 60 36 48 37 51 37 135 l0 86 2313 0 c1271 -1
2326 3 2344 7 23 6 239 216 854 831 492 493 827 835 835 854 12 27 14 537 14
3044 l0 3011 -21 38 c-11 20 -35 45 -52 56 -31 18 -109 19 -3039 19 -1654 0
-3021 -3 -3039 -6z m5641 -294 c0 -3 -293 -297 -651 -653 l-651 -649 -2062 -1
c-1133 0 -2068 1 -2076 4 -13 3 -15 82 -14 651 1 357 2 649 3 651 2 4 5451 2
5451 -3z m-5747 -717 c-1 -277 -2 -522 -2 -544 l-1 -42 -545 1 c-300 0 -545 2
-545 4 0 9 1076 1082 1085 1082 7 1 9 -172 8 -501z m5962 -2225 l0 -2718 -653
-3 c-616 -2 -652 -1 -653 15 0 10 0 944 -1 2077 l0 2059 648 648 c356 356 650
646 653 644 3 -2 6 -1226 6 -2722z m-5964 1330 c0 -10 0 -945 1 -2078 l0
-2060 -605 -605 c-333 -333 -627 -626 -654 -652 l-48 -47 1 2727 c1 1500 2
2728 3 2730 0 1 294 2 651 2 612 0 650 -1 651 -17z m4364 -2018 l0 -2030
-2035 -3 -2035 -2 1 2027 c1 1116 2 2031 3 2036 0 4 916 6 2033 5 l2033 -3 0
-2030z m0 -2982 l0 -653 -35 -1 c-209 -3 -5427 -3 -5424 1 3 3 298 298 656
656 l651 652 2076 -2 2076 -1 0 -652z m1385 649 c0 -9 -1084 -1092 -1088
-1087 -3 3 -5 804 -3 1032 l1 61 545 0 c300 0 545 -3 545 -6z"/>
<path d="M14517 9352 c-16 -3 -17 -51 -18 -615 l0 -612 -32 39 c-46 58 -125
136 -177 178 -84 66 -249 135 -395 165 -45 9 -315 9 -360 -1 -16 -3 -46 -9
-65 -13 -19 -3 -37 -7 -40 -8 -3 -1 -24 -7 -48 -14 -134 -38 -281 -127 -401
-241 -69 -66 -143 -173 -193 -281 -111 -237 -130 -566 -47 -837 47 -151 165
-335 285 -442 132 -117 305 -199 499 -237 53 -10 317 -10 375 0 135 24 301 95
396 168 61 47 144 134 181 190 14 22 29 37 32 33 3 -3 6 -90 7 -192 1 -103 2
-189 3 -192 1 -7 246 -4 257 3 11 6 11 2893 1 2904 -8 7 -226 11 -260 5z
m-621 -1092 c237 -47 413 -179 520 -391 99 -198 116 -460 44 -690 -46 -148
-165 -306 -293 -390 -58 -37 -181 -93 -227 -103 -14 -3 -36 -8 -50 -11 -30 -8
-265 -8 -299 -1 -210 46 -383 160 -487 321 -36 57 -79 148 -82 175 0 3 -6 19
-12 35 -31 78 -46 329 -26 430 3 17 8 39 10 51 2 12 16 53 29 93 82 235 285
422 507 468 14 2 32 7 40 10 8 3 38 8 65 10 28 3 51 6 53 7 6 7 156 -3 208
-14z"/>
<path d="M2914 9183 c-15 -10 -16 -2731 -1 -2740 8 -5 166 -7 257 -4 l25 1 0
1105 c-1 608 3 1105 7 1105 4 0 35 -35 69 -77 33 -43 73 -94 89 -113 45 -56
388 -488 452 -570 32 -41 64 -82 71 -90 7 -8 46 -58 87 -110 41 -52 77 -97 80
-100 4 -3 37 -45 75 -95 38 -49 71 -92 75 -95 3 -3 19 -23 36 -45 16 -22 37
-49 46 -60 51 -60 657 -827 669 -846 7 -11 226 -17 242 -7 16 10 17 2726 1
2739 -7 5 -71 8 -145 7 l-133 -3 -2 -1095 c0 -602 -2 -1101 -3 -1109 -1 -16
-33 15 -72 71 -13 18 -33 44 -45 58 -12 14 -70 86 -128 160 -59 74 -119 151
-135 170 -25 31 -196 247 -269 339 -15 19 -101 128 -192 241 -91 114 -176 222
-190 240 -22 29 -243 307 -303 382 -12 15 -85 106 -162 204 -77 97 -170 213
-206 258 l-65 81 -110 3 c-60 1 -114 -1 -120 -5z"/>
<path d="M9010 8514 c-8 -1 -55 -8 -105 -15 -170 -23 -395 -123 -496 -220 -14
-13 -36 -33 -50 -45 -68 -59 -143 -161 -200 -272 -29 -55 -77 -190 -84 -236
-3 -14 -10 -53 -15 -86 -14 -79 -11 -277 5 -370 59 -333 257 -599 552 -744
162 -79 295 -105 513 -101 182 4 183 4 290 34 80 22 235 95 285 133 82 64 167
155 208 225 5 7 -31 37 -97 82 l-104 70 -28 -37 c-132 -174 -328 -264 -574
-264 -227 0 -403 69 -552 215 -70 67 -112 130 -155 229 -48 111 -65 194 -68
339 -5 257 69 455 230 613 93 92 231 166 355 190 14 3 39 8 55 12 63 13 259 8
324 -10 163 -44 284 -122 386 -250 l30 -37 102 71 102 71 -22 37 c-37 64 -177
194 -261 241 -88 50 -215 95 -313 112 -61 10 -275 19 -313 13z"/>
<path d="M11080 8503 c-514 -86 -862 -512 -854 -1043 2 -104 4 -126 23 -227
49 -252 206 -493 412 -628 123 -81 265 -143 370 -160 24 -4 53 -10 64 -12 37
-10 315 -10 363 -1 347 67 607 251 750 531 14 28 27 54 28 57 0 3 6 18 12 33
7 16 12 34 12 40 0 7 6 24 14 39 8 14 17 46 21 70 4 24 9 52 12 63 16 75 21
249 10 347 -44 400 -298 718 -677 850 -141 49 -399 68 -560 41z m335 -238 c50
-10 66 -15 131 -35 240 -74 440 -318 482 -590 9 -60 9 -295 -1 -344 -64 -332
-296 -568 -612 -621 -47 -8 -238 -8 -280 0 -55 11 -170 48 -210 68 -99 50
-217 153 -271 237 -16 25 -31 47 -34 50 -21 19 -81 184 -97 265 -10 51 -10
298 0 350 21 112 77 247 134 325 48 66 171 176 235 211 80 43 194 78 278 86
36 3 66 7 68 8 5 4 151 -4 177 -10z"/>
<path d="M16165 8500 c-114 -20 -296 -87 -349 -131 -6 -5 -39 -30 -73 -55
-175 -128 -325 -369 -362 -582 -6 -31 -14 -73 -17 -92 -9 -42 -9 -269 -1 -325
36 -248 130 -438 297 -603 127 -125 345 -238 516 -267 21 -3 61 -10 89 -14 54
-9 325 -7 365 3 13 3 42 8 65 12 93 13 257 82 362 151 77 51 176 150 166 167
-7 12 -35 45 -121 144 -25 28 -28 28 -60 -6 -104 -108 -266 -193 -425 -223
-62 -11 -270 -15 -317 -5 -13 3 -42 8 -63 12 -55 8 -203 62 -218 80 -6 8 -16
14 -22 14 -15 0 -116 78 -161 125 -54 56 -120 160 -150 236 -25 61 -52 182
-51 224 0 20 8 20 855 20 470 0 860 3 865 7 10 6 11 101 1 203 -6 57 -9 79
-21 135 -3 14 -7 34 -9 45 -15 74 -128 325 -147 325 -5 0 -9 6 -9 14 0 21
-168 188 -235 233 -55 37 -123 76 -135 78 -3 0 -14 6 -25 12 -34 18 -147 51
-215 64 -104 18 -283 18 -395 -1z m345 -234 c61 -12 84 -18 134 -37 107 -40
243 -144 302 -232 16 -23 32 -44 35 -47 32 -25 109 -256 109 -326 l0 -33 -724
0 c-588 0 -725 2 -729 13 -3 7 1 44 8 82 57 298 274 520 565 579 61 12 239 13
300 1z"/>
<path d="M6045 4685 c-14 -13 -25 -36 -25 -50 0 -33 41 -75 73 -75 34 0 66 29
73 67 5 26 1 37 -19 57 -33 33 -71 33 -102 1z"/>
<path d="M9249 4506 c-1 -34 0 -73 1 -88 l2 -28 -71 0 -71 0 0 -45 0 -45 70 0
69 0 -1 -258 c-1 -241 0 -260 20 -302 43 -92 94 -122 210 -121 59 0 152 31
152 50 0 8 -18 57 -26 69 -1 2 -17 -4 -34 -13 -18 -9 -56 -17 -86 -17 -43 -1
-60 5 -89 26 -19 15 -33 31 -30 36 3 5 1 11 -5 15 -6 4 -10 99 -10 260 l0 254
117 3 118 3 0 43 0 42 -117 0 -117 0 -3 87 -3 87 -47 1 -48 1 -1 -60z"/>
<path d="M11102 4556 c-4 -6 -7 -40 -8 -76 -1 -36 -2 -71 -3 -77 -1 -9 -21
-13 -66 -13 -36 0 -65 -3 -66 -7 -1 -5 -2 -24 -3 -43 l-1 -35 70 -5 70 -5 1
-260 c0 -246 2 -263 22 -308 28 -59 78 -93 153 -105 68 -10 162 6 190 34 18
19 18 22 4 51 l-15 31 -48 -17 c-26 -10 -53 -17 -59 -15 -7 1 -27 2 -44 3 -22
1 -42 12 -64 35 -33 35 -51 86 -31 86 7 0 8 3 1 8 -12 8 -14 141 -2 160 5 6 5
12 0 12 -4 0 -8 65 -8 145 l0 145 118 0 117 0 0 35 c0 19 1 38 3 43 1 4 -52 9
-118 12 l-119 5 -2 75 c0 41 -2 80 -2 85 -3 14 -81 15 -90 1z"/>
<path d="M16119 4566 c-1 -1 -3 -37 -5 -81 -1 -44 -3 -83 -3 -87 -1 -5 -30 -8
-66 -8 -36 0 -66 -4 -66 -10 -1 -5 -2 -25 -3 -42 l-1 -33 69 -5 69 -5 1 -265
c2 -248 3 -268 23 -305 11 -22 29 -48 40 -57 58 -53 197 -67 275 -27 23 12 45
23 46 24 4 3 -28 75 -33 75 -1 0 -17 -7 -35 -16 -38 -20 -107 -22 -148 -5 -15
7 -37 26 -47 44 -17 29 -19 55 -20 285 l0 252 117 0 118 0 0 45 0 44 -117 3
-118 3 0 85 0 84 -48 1 c-26 1 -48 1 -48 1z"/>
<path d="M3960 4392 c-97 -9 -227 -58 -259 -96 -10 -12 -8 -20 10 -45 13 -17
24 -31 26 -31 2 0 20 11 41 24 77 50 198 72 287 51 102 -23 142 -77 148 -199
l2 -31 -180 -6 c-213 -7 -261 -19 -314 -78 -70 -78 -68 -213 4 -286 106 -106
356 -102 457 6 15 16 29 29 31 29 2 0 3 -25 3 -55 l-1 -55 50 0 50 0 -1 267
c-2 292 -2 299 -33 366 -44 96 -177 154 -321 139z m254 -474 c-2 -78 -13 -105
-56 -148 -82 -83 -242 -101 -335 -37 -39 27 -53 56 -52 110 1 54 8 70 42 98
41 32 74 37 248 38 l155 1 -2 -62z"/>
<path d="M4800 4393 c-205 -15 -317 -135 -265 -284 31 -87 91 -116 329 -160
62 -11 125 -38 143 -61 34 -42 15 -121 -36 -151 -85 -50 -273 -37 -387 27
l-43 24 -21 -35 c-11 -19 -20 -38 -20 -42 0 -11 68 -47 120 -64 125 -42 301
-38 390 8 68 35 111 95 115 162 7 127 -56 181 -265 223 -155 31 -173 37 -204
69 -40 41 -40 100 -2 140 64 66 246 72 364 12 l40 -20 20 39 c22 44 19 49 -38
72 -70 29 -168 46 -240 41z"/>
<path d="M5484 4388 c-80 -9 -154 -41 -193 -84 -18 -19 -29 -34 -27 -34 3 0
-1 -15 -9 -33 -15 -37 -12 -116 7 -150 32 -61 109 -97 268 -128 112 -21 175
-44 197 -71 30 -38 18 -112 -25 -144 -52 -41 -221 -49 -317 -15 -31 11 -72 29
-90 40 l-33 19 -24 -37 -25 -38 31 -21 c97 -65 268 -92 408 -63 68 14 140 60
169 108 25 39 33 123 16 163 -16 38 -58 80 -97 97 -19 8 -95 28 -167 43 -157
34 -196 51 -216 92 -41 85 33 165 160 170 84 3 161 -10 213 -37 l45 -23 23 41
c12 22 21 41 20 42 -13 8 -87 39 -112 47 -53 16 -158 24 -222 16z"/>
<path d="M6715 4392 c-137 -14 -252 -90 -309 -205 -34 -68 -44 -119 -40 -203
8 -191 140 -337 326 -361 181 -24 341 53 411 197 32 64 37 84 42 160 11 164
-68 304 -209 373 -57 28 -156 45 -221 39z m136 -102 c49 -13 113 -62 143 -107
43 -67 63 -181 44 -248 -5 -16 -11 -39 -13 -49 -7 -31 -52 -93 -88 -120 -54
-42 -106 -58 -183 -59 -59 0 -81 5 -130 29 -143 71 -200 257 -124 410 65 133
193 185 351 144z"/>
<path d="M8572 4388 c-92 -10 -189 -46 -234 -85 -16 -14 -16 -18 -3 -44 21
-40 31 -43 65 -19 77 55 223 79 313 53 51 -15 102 -62 116 -107 14 -43 21
-115 12 -120 -4 -3 -81 -6 -170 -7 -168 -2 -227 -12 -282 -47 -35 -22 -79 -80
-79 -103 0 -10 -3 -20 -8 -23 -10 -6 -7 -61 7 -112 16 -58 79 -117 148 -139
62 -20 169 -22 230 -6 46 13 131 65 139 86 11 28 22 15 22 -27 -1 -69 -2 -68
50 -68 l47 0 -1 262 c-1 145 -5 281 -9 303 -30 149 -167 226 -363 203z m272
-468 c0 -30 -5 -68 -11 -85 -15 -42 -67 -94 -119 -116 -80 -36 -213 -29 -258
13 -11 10 -23 18 -28 18 -4 0 -14 21 -21 47 -16 56 -6 101 31 139 37 36 71 42
247 40 l160 -1 -1 -55z"/>
<path d="M10108 4394 c-2 -1 -25 -4 -53 -5 -197 -11 -339 -186 -329 -405 9
-218 170 -365 399 -365 120 1 201 29 276 98 l26 24 -27 29 c-33 36 -35 36 -63
9 -47 -45 -123 -71 -208 -71 -69 0 -88 4 -144 31 -86 42 -137 109 -155 203
l-7 38 326 2 326 3 -2 45 c-3 68 -11 99 -44 167 -33 68 -104 136 -174 166 -36
16 -141 38 -147 31z m114 -116 c26 -11 63 -38 82 -59 35 -37 72 -99 61 -99 -4
0 -3 -6 1 -12 5 -7 9 -21 9 -30 2 -17 -17 -18 -276 -18 l-278 0 9 30 c5 17 7
30 4 30 -9 0 28 61 58 95 76 87 213 113 330 63z"/>
<path d="M13215 4389 c-158 -21 -282 -127 -321 -271 -15 -58 -12 -189 6 -242
26 -80 64 -132 132 -182 132 -98 334 -103 465 -13 23 16 51 42 62 58 l20 28
-24 13 c-14 7 -25 17 -25 22 0 16 -30 8 -48 -13 -47 -56 -165 -94 -252 -80
-64 10 -130 43 -168 83 -110 116 -103 335 14 438 116 101 295 99 396 -5 l34
-35 37 26 38 25 -27 32 c-78 93 -199 134 -339 116z"/>
<path d="M13794 4393 c-7 -2 -10 -567 -5 -750 1 -21 6 -23 50 -23 l49 0 1 228
c0 125 5 242 10 260 34 114 119 183 229 186 l48 1 0 49 -1 48 -55 -5 c-31 -2
-76 -13 -101 -24 -46 -21 -119 -88 -119 -110 0 -7 -4 -13 -8 -13 -4 0 -7 34
-7 75 1 41 -1 76 -4 76 -15 3 -79 5 -87 2z"/>
<path d="M14614 4389 c-185 -18 -317 -156 -331 -347 -17 -247 148 -423 397
-424 116 0 210 32 273 95 l28 27 -27 34 -27 34 -26 -24 c-131 -122 -382 -94
-474 54 -19 30 -47 111 -47 136 0 3 147 6 326 6 l327 0 -6 68 c-17 222 -187
362 -413 341z m138 -100 c58 -15 120 -68 151 -128 15 -30 27 -65 27 -78 l0
-23 -275 0 c-170 0 -275 4 -275 10 0 20 32 104 45 117 7 7 15 16 17 21 1 4 22
23 45 41 67 54 161 68 265 40z"/>
<path d="M15425 4388 c-80 -11 -150 -37 -200 -72 -40 -29 -44 -35 -30 -46 8
-7 15 -18 15 -26 0 -26 20 -24 74 6 119 67 281 71 361 9 37 -30 56 -72 62
-139 l5 -58 -184 -5 c-111 -3 -198 -10 -221 -18 -154 -52 -194 -256 -70 -358
116 -96 348 -82 443 25 l30 35 0 -61 0 -61 48 3 47 3 2 269 c1 319 -3 343 -77
417 -35 35 -62 52 -101 63 -67 19 -139 24 -204 14z m282 -480 c-3 -81 -20
-117 -81 -163 -96 -73 -289 -61 -343 21 -23 35 -22 113 1 149 34 51 82 63 262
65 l163 1 -2 -73z"/>
<path d="M16925 4392 c-64 -7 -135 -34 -184 -71 -108 -80 -152 -179 -147 -326
4 -107 6 -116 41 -180 72 -129 194 -196 361 -196 112 0 212 36 271 98 l23 24
-25 27 c-14 15 -25 31 -25 36 0 5 -12 -2 -27 -16 -82 -77 -220 -103 -335 -62
-93 33 -169 122 -185 217 l-6 37 327 0 327 0 -6 72 c-3 40 -11 78 -17 85 -6 7
-7 13 -3 13 10 0 -51 106 -75 130 -81 81 -201 124 -315 112z m120 -98 c90 -18
173 -105 191 -198 l6 -36 -276 0 c-152 0 -276 4 -276 8 0 23 32 112 40 112 6
0 10 5 10 10 0 6 10 21 23 34 68 69 168 94 282 70z"/>
<path d="M2739 4358 c-1 -40 -1 -998 0 -1015 1 -9 18 -13 50 -13 l49 0 0 198
c0 108 1 205 1 216 1 15 7 12 34 -16 73 -78 153 -111 266 -109 135 1 219 42
310 150 40 46 64 130 66 226 1 50 0 95 -4 100 -3 6 -7 19 -8 29 -6 38 -48 110
-89 152 -147 151 -426 147 -544 -6 -13 -16 -26 -28 -29 -25 -4 2 -7 36 -6 74
l1 71 -48 0 c-47 0 -48 0 -49 -32z m509 -83 c109 -51 164 -140 165 -265 0 -82
-4 -102 -27 -152 -60 -126 -222 -184 -369 -132 -129 46 -204 197 -172 349 19
91 100 183 184 209 68 21 162 17 219 -9z"/>
<path d="M6044 4005 l0 -386 51 3 50 3 0 370 c1 204 -1 376 -3 383 -3 7 -22
12 -51 12 l-47 0 0 -385z"/>
<path d="M7369 4388 c-1 -2 -2 -175 -2 -386 l-2 -383 50 3 50 3 1 235 c1 221
3 238 24 288 38 88 114 140 222 149 105 9 194 -32 233 -107 26 -49 29 -86 29
-342 l1 -228 50 0 50 0 0 263 c-1 295 -8 331 -71 405 -96 113 -306 134 -444
46 -43 -27 -80 -62 -80 -74 0 -6 -4 -10 -8 -10 -5 0 -8 30 -8 68 l-1 67 -46 3
c-26 2 -47 2 -48 0z"/>
<path d="M11823 4371 c-80 -30 -183 -109 -183 -141 0 -6 -3 -10 -8 -10 -21 0
-58 -126 -61 -208 -8 -222 162 -394 389 -394 123 1 218 41 295 123 136 146
130 400 -11 543 -22 21 -68 53 -104 70 -57 27 -77 31 -165 33 -79 3 -111 -1
-152 -16z m222 -77 c123 -25 213 -159 202 -302 -6 -87 -11 -105 -41 -156 -86
-147 -318 -174 -444 -53 -113 108 -118 309 -12 431 69 78 168 105 295 80z"/>
</g>
</svg>
