<?xml version="1.0" standalone="no"?><svg xmlns:xlink="http://www.w3.org/1999/xlink" xmlns="http://www.w3.org/2000/svg" viewBox="0 0 1000 650.0046628741957" preserveAspectRatio="xMaxYMax slice"><g transform="scale(0.9325748391308403)"><rect x="0" y="0" width="1072.3076923076924" height="697" fill="#ffffff"/><rect x="268.0769230769231" y="53.61538461538461" width="53.61538461538461" height="53.61538461538461" fill="#ffffff"/><path d="M 268.08 107.23 A 26.81 26.81 0 0 1  294.89 80.42 L 268.08 107.23 A 26.81 26.81 0 0 0 294.89 80.42" fill="#de9ddf"/><rect x="214.46153846153845" y="107.23076923076923" width="53.61538461538461" height="53.61538461538461" fill="#ffffff"/><path d="M 214.46 134.04 A 26.81 26.81 0 0 1  241.27 160.85 L 214.46 134.04 A 26.81 26.81 0 0 0 241.27 160.85" fill="#fefdfe"/><rect x="375.30769230769226" y="107.23076923076923" width="53.61538461538461" height="53.61538461538461" fill="#ffffff"/><rect x="750.6153846153845" y="107.23076923076923" width="53.61538461538461" height="53.61538461538461" fill="#ffffff"/><path d="M 911.46 107.23 A 53.62 53.62 0 0 1  965.08 160.85 L 911.46 107.23 A 53.62 53.62 0 0 0 965.08 160.85" fill="#d277d3"/><path d="M 1018.69 160.85 A 53.62 53.62 0 0 1  1072.31 107.23 L 1018.69 160.85 A 53.62 53.62 0 0 0 1072.31 107.23" fill="#eecdef"/><path d="M 321.69 214.47 A 53.62 53.62 0 0 1  375.31 160.85 L 321.69 214.47 A 53.62 53.62 0 0 0 375.31 160.85" fill="#c99ff0"/><rect x="536.1538461538462" y="160.84615384615384" width="53.61538461538461" height="53.61538461538461" fill="#ffffff"/><path d="M 53.62 214.46 A 53.62 53.62 0 0 1  107.24 268.08 L 53.62 214.46 A 53.62 53.62 0 0 0 107.24 268.08" fill="#e3aae3"/><path d="M 107.23 214.46 A 53.62 53.62 0 0 1  160.85 268.08 L 107.23 214.46 A 53.62 53.62 0 0 0 160.85 268.08" fill="#bb87ec"/><path d="M 160.85 268.08 A 53.62 53.62 0 0 1  214.47 214.46 L 160.85 268.08 A 53.62 53.62 0 0 0 214.47 214.46" fill="#d278d3"/><path d="M 214.46 214.46 A 53.62 53.62 0 0 1  268.08 268.08 L 214.46 214.46 A 53.62 53.62 0 0 0 268.08 268.08" fill="#e8b9e8"/><path d="M 268.08 268.08 A 53.62 53.62 0 0 1  321.7 214.46 L 268.08 268.08 A 53.62 53.62 0 0 0 321.7 214.46" fill="#f4ecfc"/><rect x="536.1538461538462" y="214.46153846153845" width="53.61538461538461" height="53.61538461538461" fill="#ffffff"/><path d="M 562.96 214.46 A 26.81 26.81 0 0 1  589.77 241.27 L 562.96 214.46 A 26.81 26.81 0 0 0 589.77 241.27" fill="#d683d6"/><path d="M 562.96 241.27 A 26.81 26.81 0 0 1  589.77 268.08 L 562.96 241.27 A 26.81 26.81 0 0 0 589.77 268.08" fill="#b47bea"/><rect x="589.7692307692307" y="214.46153846153845" width="53.61538461538461" height="53.61538461538461" fill="#ffffff"/><path d="M 616.58 214.46 A 26.81 26.81 0 0 1  643.39 241.27 L 616.58 214.46 A 26.81 26.81 0 0 0 643.39 241.27" fill="#d071d1"/><path d="M 616.58 268.08 A 26.81 26.81 0 0 1  643.39 241.27 L 616.58 268.08 A 26.81 26.81 0 0 0 643.39 241.27" fill="#d4b4f3"/><rect x="857.8461538461538" y="214.46153846153845" width="53.61538461538461" height="53.61538461538461" fill="#ffffff"/><path d="M 857.85 241.27 A 26.81 26.81 0 0 1  884.66 214.46 L 857.85 241.27 A 26.81 26.81 0 0 0 884.66 214.46" fill="#f7e8f8"/><path d="M 857.85 268.08 A 26.81 26.81 0 0 1  884.66 241.27 L 857.85 268.08 A 26.81 26.81 0 0 0 884.66 241.27" fill="#e1caf7"/><path d="M 884.65 268.08 A 26.81 26.81 0 0 1  911.4599999999999 241.27 L 884.65 268.08 A 26.81 26.81 0 0 0 911.4599999999999 241.27" fill="#9e54e4"/><rect x="911.4615384615385" y="214.46153846153845" width="53.61538461538461" height="53.61538461538461" fill="#ffffff"/><rect x="1018.6923076923076" y="214.46153846153845" width="53.61538461538461" height="53.61538461538461" fill="#ffffff"/><path d="M 1018.69 214.46 A 26.81 26.81 0 0 1  1045.5 241.27 L 1018.69 214.46 A 26.81 26.81 0 0 0 1045.5 241.27" fill="#d683d7"/><path d="M 107.23 321.7 A 53.62 53.62 0 0 1  160.85 268.08 L 107.23 321.7 A 53.62 53.62 0 0 0 160.85 268.08" fill="#d8baf4"/><path d="M 160.85 268.08 A 53.62 53.62 0 0 1  214.47 321.7 L 160.85 268.08 A 53.62 53.62 0 0 0 214.47 321.7" fill="#b175e9"/><rect x="214.46153846153845" y="268.0769230769231" width="53.61538461538461" height="53.61538461538461" fill="#ffffff"/><path d="M 214.46 268.08 A 26.81 26.81 0 0 1  241.27 294.89 L 214.46 268.08 A 26.81 26.81 0 0 0 241.27 294.89" fill="#d786d7"/><rect x="268.0769230769231" y="268.0769230769231" width="53.61538461538461" height="53.61538461538461" fill="#ffffff"/><path d="M 268.08 294.89 A 26.81 26.81 0 0 1  294.89 268.08 L 268.08 294.89 A 26.81 26.81 0 0 0 294.89 268.08" fill="#d8baf4"/><path d="M 294.88 294.89 A 26.81 26.81 0 0 1  321.69 268.08 L 294.88 294.89 A 26.81 26.81 0 0 0 321.69 268.08" fill="#e1caf6"/><path d="M 268.08 321.69 A 26.81 26.81 0 0 1  294.89 294.88 L 268.08 321.69 A 26.81 26.81 0 0 0 294.89 294.88" fill="#ddc4f5"/><path d="M 294.88 321.69 A 26.81 26.81 0 0 1  321.69 294.88 L 294.88 321.69 A 26.81 26.81 0 0 0 321.69 294.88" fill="#fefdff"/><path d="M 428.92 321.7 A 53.62 53.62 0 0 1  482.54 268.08 L 428.92 321.7 A 53.62 53.62 0 0 0 482.54 268.08" fill="#d37ad3"/><path d="M 482.54 321.7 A 53.62 53.62 0 0 1  536.16 268.08 L 482.54 321.7 A 53.62 53.62 0 0 0 536.16 268.08" fill="#bb88ec"/><rect x="536.1538461538462" y="268.0769230769231" width="53.61538461538461" height="53.61538461538461" fill="#ffffff"/><path d="M 562.96 321.69 A 26.81 26.81 0 0 1  589.77 294.88 L 562.96 321.69 A 26.81 26.81 0 0 0 589.77 294.88" fill="#ecddfa"/><rect x="697" y="268.0769230769231" width="53.61538461538461" height="53.61538461538461" fill="#ffffff"/><path d="M 697 321.69 A 26.81 26.81 0 0 1  723.81 294.88 L 697 321.69 A 26.81 26.81 0 0 0 723.81 294.88" fill="#faf1fa"/><path d="M 804.23 268.08 A 53.62 53.62 0 0 1  857.85 321.7 L 804.23 268.08 A 53.62 53.62 0 0 0 857.85 321.7" fill="#eecdef"/><rect x="857.8461538461538" y="268.0769230769231" width="53.61538461538461" height="53.61538461538461" fill="#ffffff"/><path d="M 965.08 321.7 A 53.62 53.62 0 0 1  1018.7 268.08 L 965.08 321.7 A 53.62 53.62 0 0 0 1018.7 268.08" fill="#f3dbf3"/><rect x="1018.6923076923076" y="268.0769230769231" width="53.61538461538461" height="53.61538461538461" fill="#ffffff"/><path d="M 1018.69 294.88 A 26.81 26.81 0 0 1  1045.5 321.69 L 1018.69 294.88 A 26.81 26.81 0 0 0 1045.5 321.69" fill="#d7b9f4"/><path d="M 1045.5 294.88 A 26.81 26.81 0 0 1  1072.31 321.69 L 1045.5 294.88 A 26.81 26.81 0 0 0 1072.31 321.69" fill="#e4cff7"/><rect x="107.23076923076923" y="321.6923076923077" width="53.61538461538461" height="53.61538461538461" fill="#ffffff"/><path d="M 107.23 321.69 A 26.81 26.81 0 0 1  134.04 348.5 L 107.23 321.69 A 26.81 26.81 0 0 0 134.04 348.5" fill="#eabfea"/><path d="M 134.04 321.69 A 26.81 26.81 0 0 1  160.85 348.5 L 134.04 321.69 A 26.81 26.81 0 0 0 160.85 348.5" fill="#aa69e7"/><rect x="214.46153846153845" y="321.6923076923077" width="53.61538461538461" height="53.61538461538461" fill="#ffffff"/><path d="M 241.27 321.69 A 26.81 26.81 0 0 1  268.08 348.5 L 241.27 321.69 A 26.81 26.81 0 0 0 268.08 348.5" fill="#e3cdf7"/><path d="M 241.27 348.5 A 26.81 26.81 0 0 1  268.08 375.31 L 241.27 348.5 A 26.81 26.81 0 0 0 268.08 375.31" fill="#a764e6"/><path d="M 268.08 321.69 A 53.62 53.62 0 0 1  321.7 375.31 L 268.08 321.69 A 53.62 53.62 0 0 0 321.7 375.31" fill="#a968e7"/><path d="M 321.69 375.31 A 53.62 53.62 0 0 1  375.31 321.69 L 321.69 375.31 A 53.62 53.62 0 0 0 375.31 321.69" fill="#a159e4"/><rect x="375.30769230769226" y="321.6923076923077" width="53.61538461538461" height="53.61538461538461" fill="#ffffff"/><path d="M 375.31 321.69 A 26.81 26.81 0 0 1  402.12 348.5 L 375.31 321.69 A 26.81 26.81 0 0 0 402.12 348.5" fill="#e6b5e7"/><path d="M 402.12 321.69 A 26.81 26.81 0 0 1  428.93 348.5 L 402.12 321.69 A 26.81 26.81 0 0 0 428.93 348.5" fill="#fcf5fc"/><path d="M 375.31 375.31 A 26.81 26.81 0 0 1  402.12 348.5 L 375.31 375.31 A 26.81 26.81 0 0 0 402.12 348.5" fill="#ae71e8"/><path d="M 402.12 375.31 A 26.81 26.81 0 0 1  428.93 348.5 L 402.12 375.31 A 26.81 26.81 0 0 0 428.93 348.5" fill="#f4dff4"/><path d="M 536.15 375.31 A 53.62 53.62 0 0 1  589.77 321.69 L 536.15 375.31 A 53.62 53.62 0 0 0 589.77 321.69" fill="#f1d4f1"/><rect x="643.3846153846154" y="321.6923076923077" width="53.61538461538461" height="53.61538461538461" fill="#ffffff"/><path d="M 643.38 348.5 A 26.81 26.81 0 0 1  670.1899999999999 321.69 L 643.38 348.5 A 26.81 26.81 0 0 0 670.1899999999999 321.69" fill="#8f3adf"/><path d="M 670.19 348.5 A 26.81 26.81 0 0 1  697 321.69 L 670.19 348.5 A 26.81 26.81 0 0 0 697 321.69" fill="#ecc6ec"/><path d="M 643.38 375.31 A 26.81 26.81 0 0 1  670.1899999999999 348.5 L 643.38 375.31 A 26.81 26.81 0 0 0 670.1899999999999 348.5" fill="#994ce2"/><path d="M 697 321.69 A 53.62 53.62 0 0 1  750.62 375.31 L 697 321.69 A 53.62 53.62 0 0 0 750.62 375.31" fill="#d174d2"/><rect x="857.8461538461538" y="321.6923076923077" width="53.61538461538461" height="53.61538461538461" fill="#ffffff"/><path d="M 857.85 321.69 A 26.81 26.81 0 0 1  884.66 348.5 L 857.85 321.69 A 26.81 26.81 0 0 0 884.66 348.5" fill="#e4afe5"/><path d="M 884.65 321.69 A 26.81 26.81 0 0 1  911.4599999999999 348.5 L 884.65 321.69 A 26.81 26.81 0 0 0 911.4599999999999 348.5" fill="#dcc1f5"/><rect x="965.0769230769231" y="321.6923076923077" width="53.61538461538461" height="53.61538461538461" fill="#ffffff"/><path d="M 991.88 348.5 A 26.81 26.81 0 0 1  1018.6899999999999 375.31 L 991.88 348.5 A 26.81 26.81 0 0 0 1018.6899999999999 375.31" fill="#fefcfe"/><rect x="1018.6923076923076" y="321.6923076923077" width="53.61538461538461" height="53.61538461538461" fill="#ffffff"/><path d="M 1018.69 348.5 A 26.81 26.81 0 0 1  1045.5 321.69 L 1018.69 348.5 A 26.81 26.81 0 0 0 1045.5 321.69" fill="#e8bae8"/><path d="M 1045.5 321.69 A 26.81 26.81 0 0 1  1072.31 348.5 L 1045.5 321.69 A 26.81 26.81 0 0 0 1072.31 348.5" fill="#d47dd4"/><path d="M 1018.69 375.31 A 26.81 26.81 0 0 1  1045.5 348.5 L 1018.69 375.31 A 26.81 26.81 0 0 0 1045.5 348.5" fill="#ecddfa"/><rect x="0" y="375.30769230769226" width="53.61538461538461" height="53.61538461538461" fill="#ffffff"/><path d="M 0 375.31 A 26.81 26.81 0 0 1  26.81 402.12 L 0 375.31 A 26.81 26.81 0 0 0 26.81 402.12" fill="#b67eea"/><path d="M 26.81 402.12 A 26.81 26.81 0 0 1  53.62 375.31 L 26.81 402.12 A 26.81 26.81 0 0 0 53.62 375.31" fill="#d7b9f4"/><path d="M 0 428.93 A 26.81 26.81 0 0 1  26.81 402.12 L 0 428.93 A 26.81 26.81 0 0 0 26.81 402.12" fill="#f8e9f8"/><path d="M 26.81 402.12 A 26.81 26.81 0 0 1  53.62 428.93 L 26.81 402.12 A 26.81 26.81 0 0 0 53.62 428.93" fill="#ab6ae7"/><path d="M 53.62 375.31 A 53.62 53.62 0 0 1  107.24 428.93 L 53.62 375.31 A 53.62 53.62 0 0 0 107.24 428.93" fill="#edc9ed"/><rect x="160.84615384615384" y="375.30769230769226" width="53.61538461538461" height="53.61538461538461" fill="#ffffff"/><path d="M 160.85 375.31 A 26.81 26.81 0 0 1  187.66 402.12 L 160.85 375.31 A 26.81 26.81 0 0 0 187.66 402.12" fill="#da90db"/><path d="M 187.65 402.12 A 26.81 26.81 0 0 1  214.46 375.31 L 187.65 402.12 A 26.81 26.81 0 0 0 214.46 375.31" fill="#da8fda"/><path d="M 160.85 428.93 A 26.81 26.81 0 0 1  187.66 402.12 L 160.85 428.93 A 26.81 26.81 0 0 0 187.66 402.12" fill="#ebdbf9"/><rect x="321.6923076923077" y="375.30769230769226" width="53.61538461538461" height="53.61538461538461" fill="#ffffff"/><path d="M 321.69 375.31 A 26.81 26.81 0 0 1  348.5 402.12 L 321.69 375.31 A 26.81 26.81 0 0 0 348.5 402.12" fill="#d88bd9"/><path d="M 348.5 402.12 A 26.81 26.81 0 0 1  375.31 375.31 L 348.5 402.12 A 26.81 26.81 0 0 0 375.31 375.31" fill="#d6b6f3"/><path d="M 321.69 402.12 A 26.81 26.81 0 0 1  348.5 428.93 L 321.69 402.12 A 26.81 26.81 0 0 0 348.5 428.93" fill="#ebc3eb"/><path d="M 348.5 428.93 A 26.81 26.81 0 0 1  375.31 402.12 L 348.5 428.93 A 26.81 26.81 0 0 0 375.31 402.12" fill="#d072d1"/><path d="M 536.15 375.31 A 53.62 53.62 0 0 1  589.77 428.93 L 536.15 375.31 A 53.62 53.62 0 0 0 589.77 428.93" fill="#cba4f0"/><rect x="589.7692307692307" y="375.30769230769226" width="53.61538461538461" height="53.61538461538461" fill="#ffffff"/><path d="M 589.77 402.12 A 26.81 26.81 0 0 1  616.5799999999999 428.93 L 589.77 402.12 A 26.81 26.81 0 0 0 616.5799999999999 428.93" fill="#9647e1"/><path d="M 616.58 428.93 A 26.81 26.81 0 0 1  643.39 402.12 L 616.58 428.93 A 26.81 26.81 0 0 0 643.39 402.12" fill="#f7e7f7"/><path d="M 643.38 428.93 A 53.62 53.62 0 0 1  697 375.31 L 643.38 428.93 A 53.62 53.62 0 0 0 697 375.31" fill="#e4aee4"/><rect x="697" y="375.30769230769226" width="53.61538461538461" height="53.61538461538461" fill="#ffffff"/><path d="M 697 375.31 A 26.81 26.81 0 0 1  723.81 402.12 L 697 375.31 A 26.81 26.81 0 0 0 723.81 402.12" fill="#eee2fa"/><path d="M 697 428.93 A 26.81 26.81 0 0 1  723.81 402.12 L 697 428.93 A 26.81 26.81 0 0 0 723.81 402.12" fill="#a25ce5"/><path d="M 750.62 428.93 A 53.62 53.62 0 0 1  804.24 375.31 L 750.62 428.93 A 53.62 53.62 0 0 0 804.24 375.31" fill="#e3ace4"/><path d="M 804.23 375.31 A 53.62 53.62 0 0 1  857.85 428.93 L 804.23 375.31 A 53.62 53.62 0 0 0 857.85 428.93" fill="#cf6ed0"/><rect x="857.8461538461538" y="375.30769230769226" width="53.61538461538461" height="53.61538461538461" fill="#ffffff"/><path d="M 857.85 402.12 A 26.81 26.81 0 0 1  884.66 375.31 L 857.85 402.12 A 26.81 26.81 0 0 0 884.66 375.31" fill="#e4cff7"/><path d="M 884.65 402.12 A 26.81 26.81 0 0 1  911.4599999999999 375.31 L 884.65 402.12 A 26.81 26.81 0 0 0 911.4599999999999 375.31" fill="#e6b3e6"/><path d="M 857.85 428.93 A 26.81 26.81 0 0 1  884.66 402.12 L 857.85 428.93 A 26.81 26.81 0 0 0 884.66 402.12" fill="#bc89ec"/><path d="M 911.46 375.31 A 53.62 53.62 0 0 1  965.08 428.93 L 911.46 375.31 A 53.62 53.62 0 0 0 965.08 428.93" fill="#d277d3"/><rect x="1018.6923076923076" y="375.30769230769226" width="53.61538461538461" height="53.61538461538461" fill="#ffffff"/><path d="M 1018.69 402.12 A 26.81 26.81 0 0 1  1045.5 375.31 L 1018.69 402.12 A 26.81 26.81 0 0 0 1045.5 375.31" fill="#f5e2f5"/><path d="M 1045.5 402.12 A 26.81 26.81 0 0 1  1072.31 375.31 L 1045.5 402.12 A 26.81 26.81 0 0 0 1072.31 375.31" fill="#edc9ed"/><path d="M 1018.69 402.12 A 26.81 26.81 0 0 1  1045.5 428.93 L 1018.69 402.12 A 26.81 26.81 0 0 0 1045.5 428.93" fill="#d4b4f3"/><path d="M 1045.5 428.93 A 26.81 26.81 0 0 1  1072.31 402.12 L 1045.5 428.93 A 26.81 26.81 0 0 0 1072.31 402.12" fill="#fdf8fd"/><path d="M 107.23 482.54 A 53.62 53.62 0 0 1  160.85 428.92 L 107.23 482.54 A 53.62 53.62 0 0 0 160.85 428.92" fill="#fefeff"/><path d="M 160.85 428.92 A 53.62 53.62 0 0 1  214.47 482.54 L 160.85 428.92 A 53.62 53.62 0 0 0 214.47 482.54" fill="#f6e4f6"/><rect x="268.0769230769231" y="428.9230769230769" width="53.61538461538461" height="53.61538461538461" fill="#ffffff"/><path d="M 268.08 455.73 A 26.81 26.81 0 0 1  294.89 428.92 L 268.08 455.73 A 26.81 26.81 0 0 0 294.89 428.92" fill="#caa2f0"/><path d="M 294.88 455.73 A 26.81 26.81 0 0 1  321.69 428.92 L 294.88 455.73 A 26.81 26.81 0 0 0 321.69 428.92" fill="#f6e3f6"/><rect x="375.30769230769226" y="428.9230769230769" width="53.61538461538461" height="53.61538461538461" fill="#ffffff"/><path d="M 402.12 428.92 A 26.81 26.81 0 0 1  428.93 455.73 L 402.12 428.92 A 26.81 26.81 0 0 0 428.93 455.73" fill="#e0c9f6"/><path d="M 375.31 482.54 A 26.81 26.81 0 0 1  402.12 455.73 L 375.31 482.54 A 26.81 26.81 0 0 0 402.12 455.73" fill="#eac0ea"/><path d="M 428.92 482.54 A 53.62 53.62 0 0 1  482.54 428.92 L 428.92 482.54 A 53.62 53.62 0 0 0 482.54 428.92" fill="#faf0fa"/><rect x="482.53846153846155" y="428.9230769230769" width="53.61538461538461" height="53.61538461538461" fill="#ffffff"/><path d="M 482.54 428.92 A 26.81 26.81 0 0 1  509.35 455.73 L 482.54 428.92 A 26.81 26.81 0 0 0 509.35 455.73" fill="#cba3f0"/><path d="M 509.35 428.92 A 26.81 26.81 0 0 1  536.16 455.73 L 509.35 428.92 A 26.81 26.81 0 0 0 536.16 455.73" fill="#d073d1"/><path d="M 482.54 482.54 A 26.81 26.81 0 0 1  509.35 455.73 L 482.54 482.54 A 26.81 26.81 0 0 0 509.35 455.73" fill="#f1e6fb"/><rect x="536.1538461538462" y="428.9230769230769" width="53.61538461538461" height="53.61538461538461" fill="#ffffff"/><path d="M 536.15 428.92 A 26.81 26.81 0 0 1  562.9599999999999 455.73 L 536.15 428.92 A 26.81 26.81 0 0 0 562.9599999999999 455.73" fill="#ecc7ed"/><path d="M 562.96 455.73 A 26.81 26.81 0 0 1  589.77 428.92 L 562.96 455.73 A 26.81 26.81 0 0 0 589.77 428.92" fill="#d88bd9"/><path d="M 536.15 455.73 A 26.81 26.81 0 0 1  562.9599999999999 482.54 L 536.15 455.73 A 26.81 26.81 0 0 0 562.9599999999999 482.54" fill="#b47aea"/><path d="M 562.96 482.54 A 26.81 26.81 0 0 1  589.77 455.73 L 562.96 482.54 A 26.81 26.81 0 0 0 589.77 455.73" fill="#c9a0f0"/><rect x="643.3846153846154" y="428.9230769230769" width="53.61538461538461" height="53.61538461538461" fill="#ffffff"/><path d="M 643.38 455.73 A 26.81 26.81 0 0 1  670.1899999999999 428.92 L 643.38 455.73 A 26.81 26.81 0 0 0 670.1899999999999 428.92" fill="#e4afe5"/><path d="M 643.38 482.54 A 26.81 26.81 0 0 1  670.1899999999999 455.73 L 643.38 482.54 A 26.81 26.81 0 0 0 670.1899999999999 455.73" fill="#edc9ed"/><path d="M 670.19 482.54 A 26.81 26.81 0 0 1  697 455.73 L 670.19 482.54 A 26.81 26.81 0 0 0 697 455.73" fill="#a764e6"/><rect x="697" y="428.9230769230769" width="53.61538461538461" height="53.61538461538461" fill="#ffffff"/><path d="M 697 428.92 A 26.81 26.81 0 0 1  723.81 455.73 L 697 428.92 A 26.81 26.81 0 0 0 723.81 455.73" fill="#da90db"/><path d="M 697 455.73 A 26.81 26.81 0 0 1  723.81 482.54 L 697 455.73 A 26.81 26.81 0 0 0 723.81 482.54" fill="#dabef5"/><path d="M 723.81 455.73 A 26.81 26.81 0 0 1  750.6199999999999 482.54 L 723.81 455.73 A 26.81 26.81 0 0 0 750.6199999999999 482.54" fill="#f5e0f5"/><path d="M 750.62 482.54 A 53.62 53.62 0 0 1  804.24 428.92 L 750.62 482.54 A 53.62 53.62 0 0 0 804.24 428.92" fill="#ab6be7"/><path d="M 857.85 482.54 A 53.62 53.62 0 0 1  911.47 428.92 L 857.85 482.54 A 53.62 53.62 0 0 0 911.47 428.92" fill="#f7e8f7"/><rect x="911.4615384615385" y="428.9230769230769" width="53.61538461538461" height="53.61538461538461" fill="#ffffff"/><path d="M 911.46 455.73 A 26.81 26.81 0 0 1  938.27 428.92 L 911.46 455.73 A 26.81 26.81 0 0 0 938.27 428.92" fill="#d176d2"/><path d="M 938.27 428.92 A 26.81 26.81 0 0 1  965.0799999999999 455.73 L 938.27 428.92 A 26.81 26.81 0 0 0 965.0799999999999 455.73" fill="#d581d6"/><path d="M 911.46 482.54 A 26.81 26.81 0 0 1  938.27 455.73 L 911.46 482.54 A 26.81 26.81 0 0 0 938.27 455.73" fill="#d580d5"/><path d="M 938.27 482.54 A 26.81 26.81 0 0 1  965.0799999999999 455.73 L 938.27 482.54 A 26.81 26.81 0 0 0 965.0799999999999 455.73" fill="#ddc2f5"/><rect x="965.0769230769231" y="428.9230769230769" width="53.61538461538461" height="53.61538461538461" fill="#ffffff"/><path d="M 965.08 428.92 A 26.81 26.81 0 0 1  991.89 455.73 L 965.08 428.92 A 26.81 26.81 0 0 0 991.89 455.73" fill="#faf0fa"/><path d="M 991.88 428.92 A 26.81 26.81 0 0 1  1018.6899999999999 455.73 L 991.88 428.92 A 26.81 26.81 0 0 0 1018.6899999999999 455.73" fill="#a662e6"/><path d="M 965.08 455.73 A 26.81 26.81 0 0 1  991.89 482.54 L 965.08 455.73 A 26.81 26.81 0 0 0 991.89 482.54" fill="#a058e4"/><rect x="1018.6923076923076" y="428.9230769230769" width="53.61538461538461" height="53.61538461538461" fill="#ffffff"/><path d="M 1018.69 428.92 A 26.81 26.81 0 0 1  1045.5 455.73 L 1018.69 428.92 A 26.81 26.81 0 0 0 1045.5 455.73" fill="#d47ed5"/><path d="M 1045.5 455.73 A 26.81 26.81 0 0 1  1072.31 428.92 L 1045.5 455.73 A 26.81 26.81 0 0 0 1072.31 428.92" fill="#f1d5f1"/><path d="M 1018.69 455.73 A 26.81 26.81 0 0 1  1045.5 482.54 L 1018.69 455.73 A 26.81 26.81 0 0 0 1045.5 482.54" fill="#d582d6"/><path d="M 1045.5 455.73 A 26.81 26.81 0 0 1  1072.31 482.54 L 1045.5 455.73 A 26.81 26.81 0 0 0 1072.31 482.54" fill="#d4b2f3"/><rect x="0" y="482.53846153846155" width="53.61538461538461" height="53.61538461538461" fill="#ffffff"/><path d="M 0 509.35 A 26.81 26.81 0 0 1  26.81 482.54 L 0 509.35 A 26.81 26.81 0 0 0 26.81 482.54" fill="#9c51e3"/><path d="M 26.81 509.35 A 26.81 26.81 0 0 1  53.62 482.54 L 26.81 509.35 A 26.81 26.81 0 0 0 53.62 482.54" fill="#e0c8f6"/><path d="M 0 509.35 A 26.81 26.81 0 0 1  26.81 536.16 L 0 509.35 A 26.81 26.81 0 0 0 26.81 536.16" fill="#e4aee5"/><path d="M 26.81 536.16 A 26.81 26.81 0 0 1  53.62 509.35 L 26.81 536.16 A 26.81 26.81 0 0 0 53.62 509.35" fill="#c091ed"/><path d="M 53.62 536.16 A 53.62 53.62 0 0 1  107.24 482.54 L 53.62 536.16 A 53.62 53.62 0 0 0 107.24 482.54" fill="#cca5f1"/><path d="M 214.46 536.16 A 53.62 53.62 0 0 1  268.08 482.54 L 214.46 536.16 A 53.62 53.62 0 0 0 268.08 482.54" fill="#efceef"/><rect x="321.6923076923077" y="482.53846153846155" width="53.61538461538461" height="53.61538461538461" fill="#ffffff"/><path d="M 348.5 509.35 A 26.81 26.81 0 0 1  375.31 482.54 L 348.5 509.35 A 26.81 26.81 0 0 0 375.31 482.54" fill="#a561e6"/><path d="M 321.69 536.16 A 26.81 26.81 0 0 1  348.5 509.35 L 321.69 536.16 A 26.81 26.81 0 0 0 348.5 509.35" fill="#f6f0fd"/><path d="M 348.5 536.16 A 26.81 26.81 0 0 1  375.31 509.35 L 348.5 536.16 A 26.81 26.81 0 0 0 375.31 509.35" fill="#df9edf"/><path d="M 375.31 482.54 A 53.62 53.62 0 0 1  428.93 536.16 L 375.31 482.54 A 53.62 53.62 0 0 0 428.93 536.16" fill="#c599ef"/><rect x="428.9230769230769" y="482.53846153846155" width="53.61538461538461" height="53.61538461538461" fill="#ffffff"/><path d="M 428.92 482.54 A 26.81 26.81 0 0 1  455.73 509.35 L 428.92 482.54 A 26.81 26.81 0 0 0 455.73 509.35" fill="#d174d2"/><path d="M 455.73 482.54 A 26.81 26.81 0 0 1  482.54 509.35 L 455.73 482.54 A 26.81 26.81 0 0 0 482.54 509.35" fill="#cba3f0"/><path d="M 428.92 509.35 A 26.81 26.81 0 0 1  455.73 536.16 L 428.92 509.35 A 26.81 26.81 0 0 0 455.73 536.16" fill="#d47fd5"/><path d="M 455.73 536.16 A 26.81 26.81 0 0 1  482.54 509.35 L 455.73 536.16 A 26.81 26.81 0 0 0 482.54 509.35" fill="#e2a9e3"/><path d="M 482.54 536.16 A 53.62 53.62 0 0 1  536.16 482.54 L 482.54 536.16 A 53.62 53.62 0 0 0 536.16 482.54" fill="#fbf2fb"/><rect x="536.1538461538462" y="482.53846153846155" width="53.61538461538461" height="53.61538461538461" fill="#ffffff"/><path d="M 562.96 509.35 A 26.81 26.81 0 0 1  589.77 482.54 L 562.96 509.35 A 26.81 26.81 0 0 0 589.77 482.54" fill="#dc95dc"/><path d="M 536.15 509.35 A 26.81 26.81 0 0 1  562.9599999999999 536.16 L 536.15 509.35 A 26.81 26.81 0 0 0 562.9599999999999 536.16" fill="#f2d8f2"/><path d="M 562.96 509.35 A 26.81 26.81 0 0 1  589.77 536.16 L 562.96 509.35 A 26.81 26.81 0 0 0 589.77 536.16" fill="#df9fe0"/><rect x="643.3846153846154" y="482.53846153846155" width="53.61538461538461" height="53.61538461538461" fill="#ffffff"/><path d="M 643.38 509.35 A 26.81 26.81 0 0 1  670.1899999999999 482.54 L 643.38 509.35 A 26.81 26.81 0 0 0 670.1899999999999 482.54" fill="#f9f5fd"/><path d="M 643.38 536.16 A 26.81 26.81 0 0 1  670.1899999999999 509.35 L 643.38 536.16 A 26.81 26.81 0 0 0 670.1899999999999 509.35" fill="#de9cdf"/><path d="M 670.19 509.35 A 26.81 26.81 0 0 1  697 536.16 L 670.19 509.35 A 26.81 26.81 0 0 0 697 536.16" fill="#ecc6ed"/><rect x="857.8461538461538" y="482.53846153846155" width="53.61538461538461" height="53.61538461538461" fill="#ffffff"/><path d="M 857.85 509.35 A 26.81 26.81 0 0 1  884.66 482.54 L 857.85 509.35 A 26.81 26.81 0 0 0 884.66 482.54" fill="#a35de5"/><path d="M 884.65 509.35 A 26.81 26.81 0 0 1  911.4599999999999 482.54 L 884.65 509.35 A 26.81 26.81 0 0 0 911.4599999999999 482.54" fill="#fdfcff"/><path d="M 884.65 536.16 A 26.81 26.81 0 0 1  911.4599999999999 509.35 L 884.65 536.16 A 26.81 26.81 0 0 0 911.4599999999999 509.35" fill="#e4ade4"/><path d="M 911.46 536.16 A 53.62 53.62 0 0 1  965.08 482.54 L 911.46 536.16 A 53.62 53.62 0 0 0 965.08 482.54" fill="#e8bbe9"/><path d="M 965.08 482.54 A 53.62 53.62 0 0 1  1018.7 536.16 L 965.08 482.54 A 53.62 53.62 0 0 0 1018.7 536.16" fill="#edcaee"/><path d="M 1018.69 482.54 A 53.62 53.62 0 0 1  1072.31 536.16 L 1018.69 482.54 A 53.62 53.62 0 0 0 1072.31 536.16" fill="#e0a2e1"/><path d="M 0 589.77 A 53.62 53.62 0 0 1  53.62 536.15 L 0 589.77 A 53.62 53.62 0 0 0 53.62 536.15" fill="#d889d8"/><rect x="53.61538461538461" y="536.1538461538462" width="53.61538461538461" height="53.61538461538461" fill="#ffffff"/><path d="M 53.62 536.15 A 26.81 26.81 0 0 1  80.42999999999999 562.9599999999999 L 53.62 536.15 A 26.81 26.81 0 0 0 80.42999999999999 562.9599999999999" fill="#a15ae4"/><path d="M 80.42 536.15 A 26.81 26.81 0 0 1  107.23 562.9599999999999 L 80.42 536.15 A 26.81 26.81 0 0 0 107.23 562.9599999999999" fill="#edc9ed"/><path d="M 53.62 589.77 A 26.81 26.81 0 0 1  80.42999999999999 562.96 L 53.62 589.77 A 26.81 26.81 0 0 0 80.42999999999999 562.96" fill="#d3b1f2"/><path d="M 80.42 589.77 A 26.81 26.81 0 0 1  107.23 562.96 L 80.42 589.77 A 26.81 26.81 0 0 0 107.23 562.96" fill="#edcaee"/><path d="M 107.23 536.15 A 53.62 53.62 0 0 1  160.85 589.77 L 107.23 536.15 A 53.62 53.62 0 0 0 160.85 589.77" fill="#9544e1"/><rect x="160.84615384615384" y="536.1538461538462" width="53.61538461538461" height="53.61538461538461" fill="#ffffff"/><path d="M 160.85 536.15 A 26.81 26.81 0 0 1  187.66 562.9599999999999 L 160.85 536.15 A 26.81 26.81 0 0 0 187.66 562.9599999999999" fill="#e1a4e1"/><path d="M 187.65 562.9599999999999 A 26.81 26.81 0 0 1  214.46 536.15 L 187.65 562.9599999999999 A 26.81 26.81 0 0 0 214.46 536.15" fill="#fefcfe"/><path d="M 160.85 562.96 A 26.81 26.81 0 0 1  187.66 589.77 L 160.85 562.96 A 26.81 26.81 0 0 0 187.66 589.77" fill="#f7e8f8"/><path d="M 187.65 562.96 A 26.81 26.81 0 0 1  214.46 589.77 L 187.65 562.96 A 26.81 26.81 0 0 0 214.46 589.77" fill="#e7b7e8"/><path d="M 214.46 589.77 A 53.62 53.62 0 0 1  268.08 536.15 L 214.46 589.77 A 53.62 53.62 0 0 0 268.08 536.15" fill="#cf6fd0"/><rect x="268.0769230769231" y="536.1538461538462" width="53.61538461538461" height="53.61538461538461" fill="#ffffff"/><path d="M 268.08 562.9599999999999 A 26.81 26.81 0 0 1  294.89 536.15 L 268.08 562.9599999999999 A 26.81 26.81 0 0 0 294.89 536.15" fill="#f8f3fd"/><path d="M 294.88 562.9599999999999 A 26.81 26.81 0 0 1  321.69 536.15 L 294.88 562.9599999999999 A 26.81 26.81 0 0 0 321.69 536.15" fill="#eabfea"/><path d="M 268.08 562.96 A 26.81 26.81 0 0 1  294.89 589.77 L 268.08 562.96 A 26.81 26.81 0 0 0 294.89 589.77" fill="#a764e6"/><rect x="321.6923076923077" y="536.1538461538462" width="53.61538461538461" height="53.61538461538461" fill="#ffffff"/><path d="M 321.69 562.9599999999999 A 26.81 26.81 0 0 1  348.5 536.15 L 321.69 562.9599999999999 A 26.81 26.81 0 0 0 348.5 536.15" fill="#a560e5"/><path d="M 348.5 562.9599999999999 A 26.81 26.81 0 0 1  375.31 536.15 L 348.5 562.9599999999999 A 26.81 26.81 0 0 0 375.31 536.15" fill="#f8ebf8"/><path d="M 321.69 562.96 A 26.81 26.81 0 0 1  348.5 589.77 L 321.69 562.96 A 26.81 26.81 0 0 0 348.5 589.77" fill="#913de0"/><path d="M 348.5 589.77 A 26.81 26.81 0 0 1  375.31 562.96 L 348.5 589.77 A 26.81 26.81 0 0 0 375.31 562.96" fill="#ebc2eb"/><path d="M 375.31 536.15 A 53.62 53.62 0 0 1  428.93 589.77 L 375.31 536.15 A 53.62 53.62 0 0 0 428.93 589.77" fill="#c99ff0"/><path d="M 428.92 536.15 A 53.62 53.62 0 0 1  482.54 589.77 L 428.92 536.15 A 53.62 53.62 0 0 0 482.54 589.77" fill="#e7d4f8"/><rect x="482.53846153846155" y="536.1538461538462" width="53.61538461538461" height="53.61538461538461" fill="#ffffff"/><path d="M 482.54 562.9599999999999 A 26.81 26.81 0 0 1  509.35 536.15 L 482.54 562.9599999999999 A 26.81 26.81 0 0 0 509.35 536.15" fill="#e5b1e5"/><path d="M 509.35 562.9599999999999 A 26.81 26.81 0 0 1  536.16 536.15 L 509.35 562.9599999999999 A 26.81 26.81 0 0 0 536.16 536.15" fill="#cea9f1"/><path d="M 482.54 562.96 A 26.81 26.81 0 0 1  509.35 589.77 L 482.54 562.96 A 26.81 26.81 0 0 0 509.35 589.77" fill="#dd98dd"/><path d="M 509.35 562.96 A 26.81 26.81 0 0 1  536.16 589.77 L 509.35 562.96 A 26.81 26.81 0 0 0 536.16 589.77" fill="#fcf5fc"/><path d="M 536.15 589.77 A 53.62 53.62 0 0 1  589.77 536.15 L 536.15 589.77 A 53.62 53.62 0 0 0 589.77 536.15" fill="#f4dff5"/><rect x="589.7692307692307" y="536.1538461538462" width="53.61538461538461" height="53.61538461538461" fill="#ffffff"/><path d="M 616.58 536.15 A 26.81 26.81 0 0 1  643.39 562.9599999999999 L 616.58 536.15 A 26.81 26.81 0 0 0 643.39 562.9599999999999" fill="#9646e1"/><path d="M 589.77 562.96 A 26.81 26.81 0 0 1  616.5799999999999 589.77 L 589.77 562.96 A 26.81 26.81 0 0 0 616.5799999999999 589.77" fill="#d277d3"/><path d="M 616.58 589.77 A 26.81 26.81 0 0 1  643.39 562.96 L 616.58 589.77 A 26.81 26.81 0 0 0 643.39 562.96" fill="#db92dc"/><path d="M 750.62 589.77 A 53.62 53.62 0 0 1  804.24 536.15 L 750.62 589.77 A 53.62 53.62 0 0 0 804.24 536.15" fill="#f7f1fd"/><rect x="804.2307692307692" y="536.1538461538462" width="53.61538461538461" height="53.61538461538461" fill="#ffffff"/><path d="M 804.23 536.15 A 26.81 26.81 0 0 1  831.04 562.9599999999999 L 804.23 536.15 A 26.81 26.81 0 0 0 831.04 562.9599999999999" fill="#9f55e4"/><path d="M 831.04 536.15 A 26.81 26.81 0 0 1  857.8499999999999 562.9599999999999 L 831.04 536.15 A 26.81 26.81 0 0 0 857.8499999999999 562.9599999999999" fill="#d889d9"/><path d="M 804.23 562.96 A 26.81 26.81 0 0 1  831.04 589.77 L 804.23 562.96 A 26.81 26.81 0 0 0 831.04 589.77" fill="#eabfea"/><path d="M 831.04 589.77 A 26.81 26.81 0 0 1  857.8499999999999 562.96 L 831.04 589.77 A 26.81 26.81 0 0 0 857.8499999999999 562.96" fill="#b882eb"/><rect x="857.8461538461538" y="536.1538461538462" width="53.61538461538461" height="53.61538461538461" fill="#ffffff"/><path d="M 857.85 562.9599999999999 A 26.81 26.81 0 0 1  884.66 536.15 L 857.85 562.9599999999999 A 26.81 26.81 0 0 0 884.66 536.15" fill="#9f55e4"/><path d="M 884.65 562.9599999999999 A 26.81 26.81 0 0 1  911.4599999999999 536.15 L 884.65 562.9599999999999 A 26.81 26.81 0 0 0 911.4599999999999 536.15" fill="#9a4ee2"/><path d="M 857.85 589.77 A 26.81 26.81 0 0 1  884.66 562.96 L 857.85 589.77 A 26.81 26.81 0 0 0 884.66 562.96" fill="#f0d2f0"/><rect x="911.4615384615385" y="536.1538461538462" width="53.61538461538461" height="53.61538461538461" fill="#ffffff"/><path d="M 911.46 536.15 A 26.81 26.81 0 0 1  938.27 562.9599999999999 L 911.46 536.15 A 26.81 26.81 0 0 0 938.27 562.9599999999999" fill="#cda7f1"/><path d="M 938.27 536.15 A 26.81 26.81 0 0 1  965.0799999999999 562.9599999999999 L 938.27 536.15 A 26.81 26.81 0 0 0 965.0799999999999 562.9599999999999" fill="#e2ccf7"/><path d="M 938.27 589.77 A 26.81 26.81 0 0 1  965.0799999999999 562.96 L 938.27 589.77 A 26.81 26.81 0 0 0 965.0799999999999 562.96" fill="#bf8eed"/><rect x="965.0769230769231" y="536.1538461538462" width="53.61538461538461" height="53.61538461538461" fill="#ffffff"/><path d="M 965.08 562.9599999999999 A 26.81 26.81 0 0 1  991.89 536.15 L 965.08 562.9599999999999 A 26.81 26.81 0 0 0 991.89 536.15" fill="#ab6be7"/><path d="M 991.88 536.15 A 26.81 26.81 0 0 1  1018.6899999999999 562.9599999999999 L 991.88 536.15 A 26.81 26.81 0 0 0 1018.6899999999999 562.9599999999999" fill="#a25ae5"/><path d="M 965.08 562.96 A 26.81 26.81 0 0 1  991.89 589.77 L 965.08 562.96 A 26.81 26.81 0 0 0 991.89 589.77" fill="#e0c8f6"/><path d="M 991.88 562.96 A 26.81 26.81 0 0 1  1018.6899999999999 589.77 L 991.88 562.96 A 26.81 26.81 0 0 0 1018.6899999999999 589.77" fill="#f8ebf9"/><path d="M 0 643.39 A 53.62 53.62 0 0 1  53.62 589.77 L 0 643.39 A 53.62 53.62 0 0 0 53.62 589.77" fill="#dd99de"/><rect x="53.61538461538461" y="589.7692307692307" width="53.61538461538461" height="53.61538461538461" fill="#ffffff"/><path d="M 53.62 616.5799999999999 A 26.81 26.81 0 0 1  80.42999999999999 589.77 L 53.62 616.5799999999999 A 26.81 26.81 0 0 0 80.42999999999999 589.77" fill="#c090ed"/><path d="M 80.42 589.77 A 26.81 26.81 0 0 1  107.23 616.5799999999999 L 80.42 589.77 A 26.81 26.81 0 0 0 107.23 616.5799999999999" fill="#bc89ec"/><path d="M 53.62 643.39 A 26.81 26.81 0 0 1  80.42999999999999 616.58 L 53.62 643.39 A 26.81 26.81 0 0 0 80.42999999999999 616.58" fill="#a35de5"/><path d="M 80.42 643.39 A 26.81 26.81 0 0 1  107.23 616.58 L 80.42 643.39 A 26.81 26.81 0 0 0 107.23 616.58" fill="#a25ae5"/><rect x="107.23076923076923" y="589.7692307692307" width="53.61538461538461" height="53.61538461538461" fill="#ffffff"/><path d="M 107.23 589.77 A 26.81 26.81 0 0 1  134.04 616.5799999999999 L 107.23 589.77 A 26.81 26.81 0 0 0 134.04 616.5799999999999" fill="#cea8f1"/><path d="M 134.04 616.5799999999999 A 26.81 26.81 0 0 1  160.85 589.77 L 134.04 616.5799999999999 A 26.81 26.81 0 0 0 160.85 589.77" fill="#dfa0e0"/><path d="M 107.23 643.39 A 26.81 26.81 0 0 1  134.04 616.58 L 107.23 643.39 A 26.81 26.81 0 0 0 134.04 616.58" fill="#d0acf2"/><path d="M 134.04 643.39 A 26.81 26.81 0 0 1  160.85 616.58 L 134.04 643.39 A 26.81 26.81 0 0 0 160.85 616.58" fill="#cf6ed0"/><path d="M 160.85 589.77 A 53.62 53.62 0 0 1  214.47 643.39 L 160.85 589.77 A 53.62 53.62 0 0 0 214.47 643.39" fill="#bd8bec"/><path d="M 214.46 589.77 A 53.62 53.62 0 0 1  268.08 643.39 L 214.46 589.77 A 53.62 53.62 0 0 0 268.08 643.39" fill="#9e54e4"/><rect x="268.0769230769231" y="589.7692307692307" width="53.61538461538461" height="53.61538461538461" fill="#ffffff"/><path d="M 268.08 616.5799999999999 A 26.81 26.81 0 0 1  294.89 589.77 L 268.08 616.5799999999999 A 26.81 26.81 0 0 0 294.89 589.77" fill="#e1c9f6"/><path d="M 294.88 616.5799999999999 A 26.81 26.81 0 0 1  321.69 589.77 L 294.88 616.5799999999999 A 26.81 26.81 0 0 0 321.69 589.77" fill="#e5b2e6"/><path d="M 268.08 616.58 A 26.81 26.81 0 0 1  294.89 643.39 L 268.08 616.58 A 26.81 26.81 0 0 0 294.89 643.39" fill="#f3dbf3"/><path d="M 294.88 643.39 A 26.81 26.81 0 0 1  321.69 616.58 L 294.88 643.39 A 26.81 26.81 0 0 0 321.69 616.58" fill="#d5b5f3"/><rect x="321.6923076923077" y="589.7692307692307" width="53.61538461538461" height="53.61538461538461" fill="#ffffff"/><path d="M 321.69 616.5799999999999 A 26.81 26.81 0 0 1  348.5 589.77 L 321.69 616.5799999999999 A 26.81 26.81 0 0 0 348.5 589.77" fill="#dfa0e0"/><path d="M 348.5 589.77 A 26.81 26.81 0 0 1  375.31 616.5799999999999 L 348.5 589.77 A 26.81 26.81 0 0 0 375.31 616.5799999999999" fill="#e3aae3"/><path d="M 321.69 616.58 A 26.81 26.81 0 0 1  348.5 643.39 L 321.69 616.58 A 26.81 26.81 0 0 0 348.5 643.39" fill="#d0acf2"/><path d="M 348.5 643.39 A 26.81 26.81 0 0 1  375.31 616.58 L 348.5 643.39 A 26.81 26.81 0 0 0 375.31 616.58" fill="#f5e0f5"/><rect x="375.30769230769226" y="589.7692307692307" width="53.61538461538461" height="53.61538461538461" fill="#ffffff"/><path d="M 375.31 616.5799999999999 A 26.81 26.81 0 0 1  402.12 589.77 L 375.31 616.5799999999999 A 26.81 26.81 0 0 0 402.12 589.77" fill="#e7b7e8"/><path d="M 402.12 616.5799999999999 A 26.81 26.81 0 0 1  428.93 589.77 L 402.12 616.5799999999999 A 26.81 26.81 0 0 0 428.93 589.77" fill="#e3ace4"/><path d="M 375.31 616.58 A 26.81 26.81 0 0 1  402.12 643.39 L 375.31 616.58 A 26.81 26.81 0 0 0 402.12 643.39" fill="#fefbfe"/><path d="M 402.12 643.39 A 26.81 26.81 0 0 1  428.93 616.58 L 402.12 643.39 A 26.81 26.81 0 0 0 428.93 616.58" fill="#8f3bdf"/><path d="M 428.92 643.39 A 53.62 53.62 0 0 1  482.54 589.77 L 428.92 643.39 A 53.62 53.62 0 0 0 482.54 589.77" fill="#f5e1f5"/><path d="M 482.54 643.39 A 53.62 53.62 0 0 1  536.16 589.77 L 482.54 643.39 A 53.62 53.62 0 0 0 536.16 589.77" fill="#dcc1f5"/><path d="M 536.15 589.77 A 53.62 53.62 0 0 1  589.77 643.39 L 536.15 589.77 A 53.62 53.62 0 0 0 589.77 643.39" fill="#e9d9f9"/><path d="M 589.77 589.77 A 53.62 53.62 0 0 1  643.39 643.39 L 589.77 589.77 A 53.62 53.62 0 0 0 643.39 643.39" fill="#d0adf2"/><path d="M 643.38 643.39 A 53.62 53.62 0 0 1  697 589.77 L 643.38 643.39 A 53.62 53.62 0 0 0 697 589.77" fill="#d6b7f3"/><path d="M 697 589.77 A 53.62 53.62 0 0 1  750.62 643.39 L 697 589.77 A 53.62 53.62 0 0 0 750.62 643.39" fill="#d37ad4"/><rect x="750.6153846153845" y="589.7692307692307" width="53.61538461538461" height="53.61538461538461" fill="#ffffff"/><path d="M 750.62 589.77 A 26.81 26.81 0 0 1  777.43 616.5799999999999 L 750.62 589.77 A 26.81 26.81 0 0 0 777.43 616.5799999999999" fill="#c89eef"/><path d="M 777.42 589.77 A 26.81 26.81 0 0 1  804.2299999999999 616.5799999999999 L 777.42 589.77 A 26.81 26.81 0 0 0 804.2299999999999 616.5799999999999" fill="#cf6fd0"/><path d="M 750.62 616.58 A 26.81 26.81 0 0 1  777.43 643.39 L 750.62 616.58 A 26.81 26.81 0 0 0 777.43 643.39" fill="#8e39df"/><path d="M 777.42 616.58 A 26.81 26.81 0 0 1  804.2299999999999 643.39 L 777.42 616.58 A 26.81 26.81 0 0 0 804.2299999999999 643.39" fill="#de9ddf"/><path d="M 804.23 589.77 A 53.62 53.62 0 0 1  857.85 643.39 L 804.23 589.77 A 53.62 53.62 0 0 0 857.85 643.39" fill="#984ae2"/><path d="M 857.85 589.77 A 53.62 53.62 0 0 1  911.47 643.39 L 857.85 589.77 A 53.62 53.62 0 0 0 911.47 643.39" fill="#8f3adf"/><path d="M 911.46 643.39 A 53.62 53.62 0 0 1  965.08 589.77 L 911.46 643.39 A 53.62 53.62 0 0 0 965.08 589.77" fill="#ddc3f5"/><path d="M 965.08 589.77 A 53.62 53.62 0 0 1  1018.7 643.39 L 965.08 589.77 A 53.62 53.62 0 0 0 1018.7 643.39" fill="#cda7f1"/><rect x="1018.6923076923076" y="589.7692307692307" width="53.61538461538461" height="53.61538461538461" fill="#ffffff"/><path d="M 1018.69 589.77 A 26.81 26.81 0 0 1  1045.5 616.5799999999999 L 1018.69 589.77 A 26.81 26.81 0 0 0 1045.5 616.5799999999999" fill="#de9cdf"/><path d="M 1045.5 616.5799999999999 A 26.81 26.81 0 0 1  1072.31 589.77 L 1045.5 616.5799999999999 A 26.81 26.81 0 0 0 1072.31 589.77" fill="#923ee0"/><path d="M 1018.69 616.58 A 26.81 26.81 0 0 1  1045.5 643.39 L 1018.69 616.58 A 26.81 26.81 0 0 0 1045.5 643.39" fill="#f8f3fd"/><path d="M 1045.5 643.39 A 26.81 26.81 0 0 1  1072.31 616.58 L 1045.5 643.39 A 26.81 26.81 0 0 0 1072.31 616.58" fill="#da90db"/><rect x="0" y="643.3846153846154" width="53.61538461538461" height="53.61538461538461" fill="#ffffff"/><path d="M 0 670.1899999999999 A 26.81 26.81 0 0 1  26.81 643.38 L 0 670.1899999999999 A 26.81 26.81 0 0 0 26.81 643.38" fill="#b67eea"/><path d="M 26.81 643.38 A 26.81 26.81 0 0 1  53.62 670.1899999999999 L 26.81 643.38 A 26.81 26.81 0 0 0 53.62 670.1899999999999" fill="#de9cdf"/><path d="M 0 670.19 A 26.81 26.81 0 0 1  26.81 697 L 0 670.19 A 26.81 26.81 0 0 0 26.81 697" fill="#e4afe5"/><path d="M 26.81 697 A 26.81 26.81 0 0 1  53.62 670.19 L 26.81 697 A 26.81 26.81 0 0 0 53.62 670.19" fill="#d88bd9"/><path d="M 53.62 697 A 53.62 53.62 0 0 1  107.24 643.38 L 53.62 697 A 53.62 53.62 0 0 0 107.24 643.38" fill="#e8bbe9"/><path d="M 107.23 643.38 A 53.62 53.62 0 0 1  160.85 697 L 107.23 643.38 A 53.62 53.62 0 0 0 160.85 697" fill="#f6f0fd"/><rect x="160.84615384615384" y="643.3846153846154" width="53.61538461538461" height="53.61538461538461" fill="#ffffff"/><path d="M 160.85 670.1899999999999 A 26.81 26.81 0 0 1  187.66 643.38 L 160.85 670.1899999999999 A 26.81 26.81 0 0 0 187.66 643.38" fill="#a25be5"/><path d="M 187.65 643.38 A 26.81 26.81 0 0 1  214.46 670.1899999999999 L 187.65 643.38 A 26.81 26.81 0 0 0 214.46 670.1899999999999" fill="#e3abe4"/><path d="M 160.85 697 A 26.81 26.81 0 0 1  187.66 670.19 L 160.85 697 A 26.81 26.81 0 0 0 187.66 670.19" fill="#dd98dd"/><path d="M 187.65 670.19 A 26.81 26.81 0 0 1  214.46 697 L 187.65 670.19 A 26.81 26.81 0 0 0 214.46 697" fill="#9c50e3"/><rect x="214.46153846153845" y="643.3846153846154" width="53.61538461538461" height="53.61538461538461" fill="#ffffff"/><path d="M 214.46 643.38 A 26.81 26.81 0 0 1  241.27 670.1899999999999 L 214.46 643.38 A 26.81 26.81 0 0 0 241.27 670.1899999999999" fill="#e9bce9"/><path d="M 241.27 643.38 A 26.81 26.81 0 0 1  268.08 670.1899999999999 L 241.27 643.38 A 26.81 26.81 0 0 0 268.08 670.1899999999999" fill="#f1d6f2"/><path d="M 214.46 670.19 A 26.81 26.81 0 0 1  241.27 697 L 214.46 670.19 A 26.81 26.81 0 0 0 241.27 697" fill="#ebc3eb"/><path d="M 241.27 697 A 26.81 26.81 0 0 1  268.08 670.19 L 241.27 697 A 26.81 26.81 0 0 0 268.08 670.19" fill="#e7d6f8"/><path d="M 268.08 697 A 53.62 53.62 0 0 1  321.7 643.38 L 268.08 697 A 53.62 53.62 0 0 0 321.7 643.38" fill="#994be2"/><rect x="321.6923076923077" y="643.3846153846154" width="53.61538461538461" height="53.61538461538461" fill="#ffffff"/><path d="M 321.69 670.1899999999999 A 26.81 26.81 0 0 1  348.5 643.38 L 321.69 670.1899999999999 A 26.81 26.81 0 0 0 348.5 643.38" fill="#9a4de2"/><path d="M 348.5 643.38 A 26.81 26.81 0 0 1  375.31 670.1899999999999 L 348.5 643.38 A 26.81 26.81 0 0 0 375.31 670.1899999999999" fill="#aa69e7"/><path d="M 321.69 670.19 A 26.81 26.81 0 0 1  348.5 697 L 321.69 670.19 A 26.81 26.81 0 0 0 348.5 697" fill="#9240e0"/><path d="M 348.5 697 A 26.81 26.81 0 0 1  375.31 670.19 L 348.5 697 A 26.81 26.81 0 0 0 375.31 670.19" fill="#ce6dcf"/><path d="M 375.31 643.38 A 53.62 53.62 0 0 1  428.93 697 L 375.31 643.38 A 53.62 53.62 0 0 0 428.93 697" fill="#eddffa"/><rect x="428.9230769230769" y="643.3846153846154" width="53.61538461538461" height="53.61538461538461" fill="#ffffff"/><path d="M 428.92 670.1899999999999 A 26.81 26.81 0 0 1  455.73 643.38 L 428.92 670.1899999999999 A 26.81 26.81 0 0 0 455.73 643.38" fill="#f8f3fd"/><path d="M 455.73 670.1899999999999 A 26.81 26.81 0 0 1  482.54 643.38 L 455.73 670.1899999999999 A 26.81 26.81 0 0 0 482.54 643.38" fill="#c090ed"/><path d="M 428.92 697 A 26.81 26.81 0 0 1  455.73 670.19 L 428.92 697 A 26.81 26.81 0 0 0 455.73 670.19" fill="#fbf7fe"/><path d="M 455.73 697 A 26.81 26.81 0 0 1  482.54 670.19 L 455.73 697 A 26.81 26.81 0 0 0 482.54 670.19" fill="#f8e9f8"/><path d="M 482.54 697 A 53.62 53.62 0 0 1  536.16 643.38 L 482.54 697 A 53.62 53.62 0 0 0 536.16 643.38" fill="#b47bea"/><rect x="536.1538461538462" y="643.3846153846154" width="53.61538461538461" height="53.61538461538461" fill="#ffffff"/><path d="M 536.15 670.1899999999999 A 26.81 26.81 0 0 1  562.9599999999999 643.38 L 536.15 670.1899999999999 A 26.81 26.81 0 0 0 562.9599999999999 643.38" fill="#f6e3f6"/><path d="M 562.96 670.1899999999999 A 26.81 26.81 0 0 1  589.77 643.38 L 562.96 670.1899999999999 A 26.81 26.81 0 0 0 589.77 643.38" fill="#9c51e3"/><path d="M 536.15 670.19 A 26.81 26.81 0 0 1  562.9599999999999 697 L 536.15 670.19 A 26.81 26.81 0 0 0 562.9599999999999 697" fill="#913ee0"/><path d="M 562.96 670.19 A 26.81 26.81 0 0 1  589.77 697 L 562.96 670.19 A 26.81 26.81 0 0 0 589.77 697" fill="#d277d3"/><rect x="589.7692307692307" y="643.3846153846154" width="53.61538461538461" height="53.61538461538461" fill="#ffffff"/><path d="M 589.77 643.38 A 26.81 26.81 0 0 1  616.5799999999999 670.1899999999999 L 589.77 643.38 A 26.81 26.81 0 0 0 616.5799999999999 670.1899999999999" fill="#b57dea"/><path d="M 616.58 670.1899999999999 A 26.81 26.81 0 0 1  643.39 643.38 L 616.58 670.1899999999999 A 26.81 26.81 0 0 0 643.39 643.38" fill="#9646e1"/><path d="M 589.77 670.19 A 26.81 26.81 0 0 1  616.5799999999999 697 L 589.77 670.19 A 26.81 26.81 0 0 0 616.5799999999999 697" fill="#f0d3f1"/><path d="M 616.58 697 A 26.81 26.81 0 0 1  643.39 670.19 L 616.58 697 A 26.81 26.81 0 0 0 643.39 670.19" fill="#f0d2f0"/><path d="M 643.38 643.38 A 53.62 53.62 0 0 1  697 697 L 643.38 643.38 A 53.62 53.62 0 0 0 697 697" fill="#d278d3"/><rect x="697" y="643.3846153846154" width="53.61538461538461" height="53.61538461538461" fill="#ffffff"/><path d="M 697 670.1899999999999 A 26.81 26.81 0 0 1  723.81 643.38 L 697 670.1899999999999 A 26.81 26.81 0 0 0 723.81 643.38" fill="#d174d1"/><path d="M 723.81 670.1899999999999 A 26.81 26.81 0 0 1  750.6199999999999 643.38 L 723.81 670.1899999999999 A 26.81 26.81 0 0 0 750.6199999999999 643.38" fill="#e4d0f7"/><path d="M 697 697 A 26.81 26.81 0 0 1  723.81 670.19 L 697 697 A 26.81 26.81 0 0 0 723.81 670.19" fill="#e4aee5"/><path d="M 723.81 670.19 A 26.81 26.81 0 0 1  750.6199999999999 697 L 723.81 670.19 A 26.81 26.81 0 0 0 750.6199999999999 697" fill="#d8baf4"/><rect x="750.6153846153845" y="643.3846153846154" width="53.61538461538461" height="53.61538461538461" fill="#ffffff"/><path d="M 750.62 643.38 A 26.81 26.81 0 0 1  777.43 670.1899999999999 L 750.62 643.38 A 26.81 26.81 0 0 0 777.43 670.1899999999999" fill="#edcaee"/><path d="M 777.42 643.38 A 26.81 26.81 0 0 1  804.2299999999999 670.1899999999999 L 777.42 643.38 A 26.81 26.81 0 0 0 804.2299999999999 670.1899999999999" fill="#8f3adf"/><path d="M 750.62 697 A 26.81 26.81 0 0 1  777.43 670.19 L 750.62 697 A 26.81 26.81 0 0 0 777.43 670.19" fill="#c69bef"/><path d="M 777.42 670.19 A 26.81 26.81 0 0 1  804.2299999999999 697 L 777.42 670.19 A 26.81 26.81 0 0 0 804.2299999999999 697" fill="#ab6be7"/><path d="M 804.23 697 A 53.62 53.62 0 0 1  857.85 643.38 L 804.23 697 A 53.62 53.62 0 0 0 857.85 643.38" fill="#dc96dd"/><rect x="857.8461538461538" y="643.3846153846154" width="53.61538461538461" height="53.61538461538461" fill="#ffffff"/><path d="M 857.85 670.1899999999999 A 26.81 26.81 0 0 1  884.66 643.38 L 857.85 670.1899999999999 A 26.81 26.81 0 0 0 884.66 643.38" fill="#fdfcff"/><path d="M 884.65 643.38 A 26.81 26.81 0 0 1  911.4599999999999 670.1899999999999 L 884.65 643.38 A 26.81 26.81 0 0 0 911.4599999999999 670.1899999999999" fill="#df9fe0"/><path d="M 857.85 697 A 26.81 26.81 0 0 1  884.66 670.19 L 857.85 697 A 26.81 26.81 0 0 0 884.66 670.19" fill="#d1aef2"/><path d="M 884.65 697 A 26.81 26.81 0 0 1  911.4599999999999 670.19 L 884.65 697 A 26.81 26.81 0 0 0 911.4599999999999 670.19" fill="#eeccee"/><rect x="911.4615384615385" y="643.3846153846154" width="53.61538461538461" height="53.61538461538461" fill="#ffffff"/><path d="M 911.46 670.1899999999999 A 26.81 26.81 0 0 1  938.27 643.38 L 911.46 670.1899999999999 A 26.81 26.81 0 0 0 938.27 643.38" fill="#a764e6"/><path d="M 938.27 670.1899999999999 A 26.81 26.81 0 0 1  965.0799999999999 643.38 L 938.27 670.1899999999999 A 26.81 26.81 0 0 0 965.0799999999999 643.38" fill="#be8ced"/><path d="M 911.46 670.19 A 26.81 26.81 0 0 1  938.27 697 L 911.46 670.19 A 26.81 26.81 0 0 0 938.27 697" fill="#ac6de7"/><path d="M 938.27 697 A 26.81 26.81 0 0 1  965.0799999999999 670.19 L 938.27 697 A 26.81 26.81 0 0 0 965.0799999999999 670.19" fill="#e6b3e6"/><path d="M 965.08 697 A 53.62 53.62 0 0 1  1018.7 643.38 L 965.08 697 A 53.62 53.62 0 0 0 1018.7 643.38" fill="#ecdefa"/><path d="M 1018.69 697 A 53.62 53.62 0 0 1  1072.31 643.38 L 1018.69 697 A 53.62 53.62 0 0 0 1072.31 643.38" fill="#ecdefa"/></g></svg>