<svg xmlns="http://www.w3.org/2000/svg" xmlns:xlink="http://www.w3.org/1999/xlink" preserveAspectRatio="xMaxYMax slice" viewBox="0 0 1000 650.005"><g transform="scale(0.9325748391308403)"><rect width="1072.308" height="697" x="0" y="0" fill="#fff"/><rect width="53.615" height="53.615" x="268.077" y="53.615" fill="#fff"/><path fill="#de9ddf" d="M 268.08 107.23 A 26.81 26.81 0 0 1 294.89 80.42 L 268.08 107.23 A 26.81 26.81 0 0 0 294.89 80.42"/><rect width="53.615" height="53.615" x="214.462" y="107.231" fill="#fff"/><path fill="#fefdfe" d="M 214.46 134.04 A 26.81 26.81 0 0 1 241.27 160.85 L 214.46 134.04 A 26.81 26.81 0 0 0 241.27 160.85"/><rect width="53.615" height="53.615" x="375.308" y="107.231" fill="#fff"/><rect width="53.615" height="53.615" x="750.615" y="107.231" fill="#fff"/><path fill="#d277d3" d="M 911.46 107.23 A 53.62 53.62 0 0 1 965.08 160.85 L 911.46 107.23 A 53.62 53.62 0 0 0 965.08 160.85"/><path fill="#eecdef" d="M 1018.69 160.85 A 53.62 53.62 0 0 1 1072.31 107.23 L 1018.69 160.85 A 53.62 53.62 0 0 0 1072.31 107.23"/><path fill="#c99ff0" d="M 321.69 214.47 A 53.62 53.62 0 0 1 375.31 160.85 L 321.69 214.47 A 53.62 53.62 0 0 0 375.31 160.85"/><rect width="53.615" height="53.615" x="536.154" y="160.846" fill="#fff"/><path fill="#e3aae3" d="M 53.62 214.46 A 53.62 53.62 0 0 1 107.24 268.08 L 53.62 214.46 A 53.62 53.62 0 0 0 107.24 268.08"/><path fill="#bb87ec" d="M 107.23 214.46 A 53.62 53.62 0 0 1 160.85 268.08 L 107.23 214.46 A 53.62 53.62 0 0 0 160.85 268.08"/><path fill="#d278d3" d="M 160.85 268.08 A 53.62 53.62 0 0 1 214.47 214.46 L 160.85 268.08 A 53.62 53.62 0 0 0 214.47 214.46"/><path fill="#e8b9e8" d="M 214.46 214.46 A 53.62 53.62 0 0 1 268.08 268.08 L 214.46 214.46 A 53.62 53.62 0 0 0 268.08 268.08"/><path fill="#f4ecfc" d="M 268.08 268.08 A 53.62 53.62 0 0 1 321.7 214.46 L 268.08 268.08 A 53.62 53.62 0 0 0 321.7 214.46"/><rect width="53.615" height="53.615" x="536.154" y="214.462" fill="#fff"/><path fill="#d683d6" d="M 562.96 214.46 A 26.81 26.81 0 0 1 589.77 241.27 L 562.96 214.46 A 26.81 26.81 0 0 0 589.77 241.27"/><path fill="#b47bea" d="M 562.96 241.27 A 26.81 26.81 0 0 1 589.77 268.08 L 562.96 241.27 A 26.81 26.81 0 0 0 589.77 268.08"/><rect width="53.615" height="53.615" x="589.769" y="214.462" fill="#fff"/><path fill="#d071d1" d="M 616.58 214.46 A 26.81 26.81 0 0 1 643.39 241.27 L 616.58 214.46 A 26.81 26.81 0 0 0 643.39 241.27"/><path fill="#d4b4f3" d="M 616.58 268.08 A 26.81 26.81 0 0 1 643.39 241.27 L 616.58 268.08 A 26.81 26.81 0 0 0 643.39 241.27"/><rect width="53.615" height="53.615" x="857.846" y="214.462" fill="#fff"/><path fill="#f7e8f8" d="M 857.85 241.27 A 26.81 26.81 0 0 1 884.66 214.46 L 857.85 241.27 A 26.81 26.81 0 0 0 884.66 214.46"/><path fill="#e1caf7" d="M 857.85 268.08 A 26.81 26.81 0 0 1 884.66 241.27 L 857.85 268.08 A 26.81 26.81 0 0 0 884.66 241.27"/><path fill="#9e54e4" d="M 884.65 268.08 A 26.81 26.81 0 0 1 911.4599999999999 241.27 L 884.65 268.08 A 26.81 26.81 0 0 0 911.4599999999999 241.27"/><rect width="53.615" height="53.615" x="911.462" y="214.462" fill="#fff"/><rect width="53.615" height="53.615" x="1018.692" y="214.462" fill="#fff"/><path fill="#d683d7" d="M 1018.69 214.46 A 26.81 26.81 0 0 1 1045.5 241.27 L 1018.69 214.46 A 26.81 26.81 0 0 0 1045.5 241.27"/><path fill="#d8baf4" d="M 107.23 321.7 A 53.62 53.62 0 0 1 160.85 268.08 L 107.23 321.7 A 53.62 53.62 0 0 0 160.85 268.08"/><path fill="#b175e9" d="M 160.85 268.08 A 53.62 53.62 0 0 1 214.47 321.7 L 160.85 268.08 A 53.62 53.62 0 0 0 214.47 321.7"/><rect width="53.615" height="53.615" x="214.462" y="268.077" fill="#fff"/><path fill="#d786d7" d="M 214.46 268.08 A 26.81 26.81 0 0 1 241.27 294.89 L 214.46 268.08 A 26.81 26.81 0 0 0 241.27 294.89"/><rect width="53.615" height="53.615" x="268.077" y="268.077" fill="#fff"/><path fill="#d8baf4" d="M 268.08 294.89 A 26.81 26.81 0 0 1 294.89 268.08 L 268.08 294.89 A 26.81 26.81 0 0 0 294.89 268.08"/><path fill="#e1caf6" d="M 294.88 294.89 A 26.81 26.81 0 0 1 321.69 268.08 L 294.88 294.89 A 26.81 26.81 0 0 0 321.69 268.08"/><path fill="#ddc4f5" d="M 268.08 321.69 A 26.81 26.81 0 0 1 294.89 294.88 L 268.08 321.69 A 26.81 26.81 0 0 0 294.89 294.88"/><path fill="#fefdff" d="M 294.88 321.69 A 26.81 26.81 0 0 1 321.69 294.88 L 294.88 321.69 A 26.81 26.81 0 0 0 321.69 294.88"/><path fill="#d37ad3" d="M 428.92 321.7 A 53.62 53.62 0 0 1 482.54 268.08 L 428.92 321.7 A 53.62 53.62 0 0 0 482.54 268.08"/><path fill="#bb88ec" d="M 482.54 321.7 A 53.62 53.62 0 0 1 536.16 268.08 L 482.54 321.7 A 53.62 53.62 0 0 0 536.16 268.08"/><rect width="53.615" height="53.615" x="536.154" y="268.077" fill="#fff"/><path fill="#ecddfa" d="M 562.96 321.69 A 26.81 26.81 0 0 1 589.77 294.88 L 562.96 321.69 A 26.81 26.81 0 0 0 589.77 294.88"/><rect width="53.615" height="53.615" x="697" y="268.077" fill="#fff"/><path fill="#faf1fa" d="M 697 321.69 A 26.81 26.81 0 0 1 723.81 294.88 L 697 321.69 A 26.81 26.81 0 0 0 723.81 294.88"/><path fill="#eecdef" d="M 804.23 268.08 A 53.62 53.62 0 0 1 857.85 321.7 L 804.23 268.08 A 53.62 53.62 0 0 0 857.85 321.7"/><rect width="53.615" height="53.615" x="857.846" y="268.077" fill="#fff"/><path fill="#f3dbf3" d="M 965.08 321.7 A 53.62 53.62 0 0 1 1018.7 268.08 L 965.08 321.7 A 53.62 53.62 0 0 0 1018.7 268.08"/><rect width="53.615" height="53.615" x="1018.692" y="268.077" fill="#fff"/><path fill="#d7b9f4" d="M 1018.69 294.88 A 26.81 26.81 0 0 1 1045.5 321.69 L 1018.69 294.88 A 26.81 26.81 0 0 0 1045.5 321.69"/><path fill="#e4cff7" d="M 1045.5 294.88 A 26.81 26.81 0 0 1 1072.31 321.69 L 1045.5 294.88 A 26.81 26.81 0 0 0 1072.31 321.69"/><rect width="53.615" height="53.615" x="107.231" y="321.692" fill="#fff"/><path fill="#eabfea" d="M 107.23 321.69 A 26.81 26.81 0 0 1 134.04 348.5 L 107.23 321.69 A 26.81 26.81 0 0 0 134.04 348.5"/><path fill="#aa69e7" d="M 134.04 321.69 A 26.81 26.81 0 0 1 160.85 348.5 L 134.04 321.69 A 26.81 26.81 0 0 0 160.85 348.5"/><rect width="53.615" height="53.615" x="214.462" y="321.692" fill="#fff"/><path fill="#e3cdf7" d="M 241.27 321.69 A 26.81 26.81 0 0 1 268.08 348.5 L 241.27 321.69 A 26.81 26.81 0 0 0 268.08 348.5"/><path fill="#a764e6" d="M 241.27 348.5 A 26.81 26.81 0 0 1 268.08 375.31 L 241.27 348.5 A 26.81 26.81 0 0 0 268.08 375.31"/><path fill="#a968e7" d="M 268.08 321.69 A 53.62 53.62 0 0 1 321.7 375.31 L 268.08 321.69 A 53.62 53.62 0 0 0 321.7 375.31"/><path fill="#a159e4" d="M 321.69 375.31 A 53.62 53.62 0 0 1 375.31 321.69 L 321.69 375.31 A 53.62 53.62 0 0 0 375.31 321.69"/><rect width="53.615" height="53.615" x="375.308" y="321.692" fill="#fff"/><path fill="#e6b5e7" d="M 375.31 321.69 A 26.81 26.81 0 0 1 402.12 348.5 L 375.31 321.69 A 26.81 26.81 0 0 0 402.12 348.5"/><path fill="#fcf5fc" d="M 402.12 321.69 A 26.81 26.81 0 0 1 428.93 348.5 L 402.12 321.69 A 26.81 26.81 0 0 0 428.93 348.5"/><path fill="#ae71e8" d="M 375.31 375.31 A 26.81 26.81 0 0 1 402.12 348.5 L 375.31 375.31 A 26.81 26.81 0 0 0 402.12 348.5"/><path fill="#f4dff4" d="M 402.12 375.31 A 26.81 26.81 0 0 1 428.93 348.5 L 402.12 375.31 A 26.81 26.81 0 0 0 428.93 348.5"/><path fill="#f1d4f1" d="M 536.15 375.31 A 53.62 53.62 0 0 1 589.77 321.69 L 536.15 375.31 A 53.62 53.62 0 0 0 589.77 321.69"/><rect width="53.615" height="53.615" x="643.385" y="321.692" fill="#fff"/><path fill="#8f3adf" d="M 643.38 348.5 A 26.81 26.81 0 0 1 670.1899999999999 321.69 L 643.38 348.5 A 26.81 26.81 0 0 0 670.1899999999999 321.69"/><path fill="#ecc6ec" d="M 670.19 348.5 A 26.81 26.81 0 0 1 697 321.69 L 670.19 348.5 A 26.81 26.81 0 0 0 697 321.69"/><path fill="#994ce2" d="M 643.38 375.31 A 26.81 26.81 0 0 1 670.1899999999999 348.5 L 643.38 375.31 A 26.81 26.81 0 0 0 670.1899999999999 348.5"/><path fill="#d174d2" d="M 697 321.69 A 53.62 53.62 0 0 1 750.62 375.31 L 697 321.69 A 53.62 53.62 0 0 0 750.62 375.31"/><rect width="53.615" height="53.615" x="857.846" y="321.692" fill="#fff"/><path fill="#e4afe5" d="M 857.85 321.69 A 26.81 26.81 0 0 1 884.66 348.5 L 857.85 321.69 A 26.81 26.81 0 0 0 884.66 348.5"/><path fill="#dcc1f5" d="M 884.65 321.69 A 26.81 26.81 0 0 1 911.4599999999999 348.5 L 884.65 321.69 A 26.81 26.81 0 0 0 911.4599999999999 348.5"/><rect width="53.615" height="53.615" x="965.077" y="321.692" fill="#fff"/><path fill="#fefcfe" d="M 991.88 348.5 A 26.81 26.81 0 0 1 1018.6899999999999 375.31 L 991.88 348.5 A 26.81 26.81 0 0 0 1018.6899999999999 375.31"/><rect width="53.615" height="53.615" x="1018.692" y="321.692" fill="#fff"/><path fill="#e8bae8" d="M 1018.69 348.5 A 26.81 26.81 0 0 1 1045.5 321.69 L 1018.69 348.5 A 26.81 26.81 0 0 0 1045.5 321.69"/><path fill="#d47dd4" d="M 1045.5 321.69 A 26.81 26.81 0 0 1 1072.31 348.5 L 1045.5 321.69 A 26.81 26.81 0 0 0 1072.31 348.5"/><path fill="#ecddfa" d="M 1018.69 375.31 A 26.81 26.81 0 0 1 1045.5 348.5 L 1018.69 375.31 A 26.81 26.81 0 0 0 1045.5 348.5"/><rect width="53.615" height="53.615" x="0" y="375.308" fill="#fff"/><path fill="#b67eea" d="M 0 375.31 A 26.81 26.81 0 0 1 26.81 402.12 L 0 375.31 A 26.81 26.81 0 0 0 26.81 402.12"/><path fill="#d7b9f4" d="M 26.81 402.12 A 26.81 26.81 0 0 1 53.62 375.31 L 26.81 402.12 A 26.81 26.81 0 0 0 53.62 375.31"/><path fill="#f8e9f8" d="M 0 428.93 A 26.81 26.81 0 0 1 26.81 402.12 L 0 428.93 A 26.81 26.81 0 0 0 26.81 402.12"/><path fill="#ab6ae7" d="M 26.81 402.12 A 26.81 26.81 0 0 1 53.62 428.93 L 26.81 402.12 A 26.81 26.81 0 0 0 53.62 428.93"/><path fill="#edc9ed" d="M 53.62 375.31 A 53.62 53.62 0 0 1 107.24 428.93 L 53.62 375.31 A 53.62 53.62 0 0 0 107.24 428.93"/><rect width="53.615" height="53.615" x="160.846" y="375.308" fill="#fff"/><path fill="#da90db" d="M 160.85 375.31 A 26.81 26.81 0 0 1 187.66 402.12 L 160.85 375.31 A 26.81 26.81 0 0 0 187.66 402.12"/><path fill="#da8fda" d="M 187.65 402.12 A 26.81 26.81 0 0 1 214.46 375.31 L 187.65 402.12 A 26.81 26.81 0 0 0 214.46 375.31"/><path fill="#ebdbf9" d="M 160.85 428.93 A 26.81 26.81 0 0 1 187.66 402.12 L 160.85 428.93 A 26.81 26.81 0 0 0 187.66 402.12"/><rect width="53.615" height="53.615" x="321.692" y="375.308" fill="#fff"/><path fill="#d88bd9" d="M 321.69 375.31 A 26.81 26.81 0 0 1 348.5 402.12 L 321.69 375.31 A 26.81 26.81 0 0 0 348.5 402.12"/><path fill="#d6b6f3" d="M 348.5 402.12 A 26.81 26.81 0 0 1 375.31 375.31 L 348.5 402.12 A 26.81 26.81 0 0 0 375.31 375.31"/><path fill="#ebc3eb" d="M 321.69 402.12 A 26.81 26.81 0 0 1 348.5 428.93 L 321.69 402.12 A 26.81 26.81 0 0 0 348.5 428.93"/><path fill="#d072d1" d="M 348.5 428.93 A 26.81 26.81 0 0 1 375.31 402.12 L 348.5 428.93 A 26.81 26.81 0 0 0 375.31 402.12"/><path fill="#cba4f0" d="M 536.15 375.31 A 53.62 53.62 0 0 1 589.77 428.93 L 536.15 375.31 A 53.62 53.62 0 0 0 589.77 428.93"/><rect width="53.615" height="53.615" x="589.769" y="375.308" fill="#fff"/><path fill="#9647e1" d="M 589.77 402.12 A 26.81 26.81 0 0 1 616.5799999999999 428.93 L 589.77 402.12 A 26.81 26.81 0 0 0 616.5799999999999 428.93"/><path fill="#f7e7f7" d="M 616.58 428.93 A 26.81 26.81 0 0 1 643.39 402.12 L 616.58 428.93 A 26.81 26.81 0 0 0 643.39 402.12"/><path fill="#e4aee4" d="M 643.38 428.93 A 53.62 53.62 0 0 1 697 375.31 L 643.38 428.93 A 53.62 53.62 0 0 0 697 375.31"/><rect width="53.615" height="53.615" x="697" y="375.308" fill="#fff"/><path fill="#eee2fa" d="M 697 375.31 A 26.81 26.81 0 0 1 723.81 402.12 L 697 375.31 A 26.81 26.81 0 0 0 723.81 402.12"/><path fill="#a25ce5" d="M 697 428.93 A 26.81 26.81 0 0 1 723.81 402.12 L 697 428.93 A 26.81 26.81 0 0 0 723.81 402.12"/><path fill="#e3ace4" d="M 750.62 428.93 A 53.62 53.62 0 0 1 804.24 375.31 L 750.62 428.93 A 53.62 53.62 0 0 0 804.24 375.31"/><path fill="#cf6ed0" d="M 804.23 375.31 A 53.62 53.62 0 0 1 857.85 428.93 L 804.23 375.31 A 53.62 53.62 0 0 0 857.85 428.93"/><rect width="53.615" height="53.615" x="857.846" y="375.308" fill="#fff"/><path fill="#e4cff7" d="M 857.85 402.12 A 26.81 26.81 0 0 1 884.66 375.31 L 857.85 402.12 A 26.81 26.81 0 0 0 884.66 375.31"/><path fill="#e6b3e6" d="M 884.65 402.12 A 26.81 26.81 0 0 1 911.4599999999999 375.31 L 884.65 402.12 A 26.81 26.81 0 0 0 911.4599999999999 375.31"/><path fill="#bc89ec" d="M 857.85 428.93 A 26.81 26.81 0 0 1 884.66 402.12 L 857.85 428.93 A 26.81 26.81 0 0 0 884.66 402.12"/><path fill="#d277d3" d="M 911.46 375.31 A 53.62 53.62 0 0 1 965.08 428.93 L 911.46 375.31 A 53.62 53.62 0 0 0 965.08 428.93"/><rect width="53.615" height="53.615" x="1018.692" y="375.308" fill="#fff"/><path fill="#f5e2f5" d="M 1018.69 402.12 A 26.81 26.81 0 0 1 1045.5 375.31 L 1018.69 402.12 A 26.81 26.81 0 0 0 1045.5 375.31"/><path fill="#edc9ed" d="M 1045.5 402.12 A 26.81 26.81 0 0 1 1072.31 375.31 L 1045.5 402.12 A 26.81 26.81 0 0 0 1072.31 375.31"/><path fill="#d4b4f3" d="M 1018.69 402.12 A 26.81 26.81 0 0 1 1045.5 428.93 L 1018.69 402.12 A 26.81 26.81 0 0 0 1045.5 428.93"/><path fill="#fdf8fd" d="M 1045.5 428.93 A 26.81 26.81 0 0 1 1072.31 402.12 L 1045.5 428.93 A 26.81 26.81 0 0 0 1072.31 402.12"/><path fill="#fefeff" d="M 107.23 482.54 A 53.62 53.62 0 0 1 160.85 428.92 L 107.23 482.54 A 53.62 53.62 0 0 0 160.85 428.92"/><path fill="#f6e4f6" d="M 160.85 428.92 A 53.62 53.62 0 0 1 214.47 482.54 L 160.85 428.92 A 53.62 53.62 0 0 0 214.47 482.54"/><rect width="53.615" height="53.615" x="268.077" y="428.923" fill="#fff"/><path fill="#caa2f0" d="M 268.08 455.73 A 26.81 26.81 0 0 1 294.89 428.92 L 268.08 455.73 A 26.81 26.81 0 0 0 294.89 428.92"/><path fill="#f6e3f6" d="M 294.88 455.73 A 26.81 26.81 0 0 1 321.69 428.92 L 294.88 455.73 A 26.81 26.81 0 0 0 321.69 428.92"/><rect width="53.615" height="53.615" x="375.308" y="428.923" fill="#fff"/><path fill="#e0c9f6" d="M 402.12 428.92 A 26.81 26.81 0 0 1 428.93 455.73 L 402.12 428.92 A 26.81 26.81 0 0 0 428.93 455.73"/><path fill="#eac0ea" d="M 375.31 482.54 A 26.81 26.81 0 0 1 402.12 455.73 L 375.31 482.54 A 26.81 26.81 0 0 0 402.12 455.73"/><path fill="#faf0fa" d="M 428.92 482.54 A 53.62 53.62 0 0 1 482.54 428.92 L 428.92 482.54 A 53.62 53.62 0 0 0 482.54 428.92"/><rect width="53.615" height="53.615" x="482.538" y="428.923" fill="#fff"/><path fill="#cba3f0" d="M 482.54 428.92 A 26.81 26.81 0 0 1 509.35 455.73 L 482.54 428.92 A 26.81 26.81 0 0 0 509.35 455.73"/><path fill="#d073d1" d="M 509.35 428.92 A 26.81 26.81 0 0 1 536.16 455.73 L 509.35 428.92 A 26.81 26.81 0 0 0 536.16 455.73"/><path fill="#f1e6fb" d="M 482.54 482.54 A 26.81 26.81 0 0 1 509.35 455.73 L 482.54 482.54 A 26.81 26.81 0 0 0 509.35 455.73"/><rect width="53.615" height="53.615" x="536.154" y="428.923" fill="#fff"/><path fill="#ecc7ed" d="M 536.15 428.92 A 26.81 26.81 0 0 1 562.9599999999999 455.73 L 536.15 428.92 A 26.81 26.81 0 0 0 562.9599999999999 455.73"/><path fill="#d88bd9" d="M 562.96 455.73 A 26.81 26.81 0 0 1 589.77 428.92 L 562.96 455.73 A 26.81 26.81 0 0 0 589.77 428.92"/><path fill="#b47aea" d="M 536.15 455.73 A 26.81 26.81 0 0 1 562.9599999999999 482.54 L 536.15 455.73 A 26.81 26.81 0 0 0 562.9599999999999 482.54"/><path fill="#c9a0f0" d="M 562.96 482.54 A 26.81 26.81 0 0 1 589.77 455.73 L 562.96 482.54 A 26.81 26.81 0 0 0 589.77 455.73"/><rect width="53.615" height="53.615" x="643.385" y="428.923" fill="#fff"/><path fill="#e4afe5" d="M 643.38 455.73 A 26.81 26.81 0 0 1 670.1899999999999 428.92 L 643.38 455.73 A 26.81 26.81 0 0 0 670.1899999999999 428.92"/><path fill="#edc9ed" d="M 643.38 482.54 A 26.81 26.81 0 0 1 670.1899999999999 455.73 L 643.38 482.54 A 26.81 26.81 0 0 0 670.1899999999999 455.73"/><path fill="#a764e6" d="M 670.19 482.54 A 26.81 26.81 0 0 1 697 455.73 L 670.19 482.54 A 26.81 26.81 0 0 0 697 455.73"/><rect width="53.615" height="53.615" x="697" y="428.923" fill="#fff"/><path fill="#da90db" d="M 697 428.92 A 26.81 26.81 0 0 1 723.81 455.73 L 697 428.92 A 26.81 26.81 0 0 0 723.81 455.73"/><path fill="#dabef5" d="M 697 455.73 A 26.81 26.81 0 0 1 723.81 482.54 L 697 455.73 A 26.81 26.81 0 0 0 723.81 482.54"/><path fill="#f5e0f5" d="M 723.81 455.73 A 26.81 26.81 0 0 1 750.6199999999999 482.54 L 723.81 455.73 A 26.81 26.81 0 0 0 750.6199999999999 482.54"/><path fill="#ab6be7" d="M 750.62 482.54 A 53.62 53.62 0 0 1 804.24 428.92 L 750.62 482.54 A 53.62 53.62 0 0 0 804.24 428.92"/><path fill="#f7e8f7" d="M 857.85 482.54 A 53.62 53.62 0 0 1 911.47 428.92 L 857.85 482.54 A 53.62 53.62 0 0 0 911.47 428.92"/><rect width="53.615" height="53.615" x="911.462" y="428.923" fill="#fff"/><path fill="#d176d2" d="M 911.46 455.73 A 26.81 26.81 0 0 1 938.27 428.92 L 911.46 455.73 A 26.81 26.81 0 0 0 938.27 428.92"/><path fill="#d581d6" d="M 938.27 428.92 A 26.81 26.81 0 0 1 965.0799999999999 455.73 L 938.27 428.92 A 26.81 26.81 0 0 0 965.0799999999999 455.73"/><path fill="#d580d5" d="M 911.46 482.54 A 26.81 26.81 0 0 1 938.27 455.73 L 911.46 482.54 A 26.81 26.81 0 0 0 938.27 455.73"/><path fill="#ddc2f5" d="M 938.27 482.54 A 26.81 26.81 0 0 1 965.0799999999999 455.73 L 938.27 482.54 A 26.81 26.81 0 0 0 965.0799999999999 455.73"/><rect width="53.615" height="53.615" x="965.077" y="428.923" fill="#fff"/><path fill="#faf0fa" d="M 965.08 428.92 A 26.81 26.81 0 0 1 991.89 455.73 L 965.08 428.92 A 26.81 26.81 0 0 0 991.89 455.73"/><path fill="#a662e6" d="M 991.88 428.92 A 26.81 26.81 0 0 1 1018.6899999999999 455.73 L 991.88 428.92 A 26.81 26.81 0 0 0 1018.6899999999999 455.73"/><path fill="#a058e4" d="M 965.08 455.73 A 26.81 26.81 0 0 1 991.89 482.54 L 965.08 455.73 A 26.81 26.81 0 0 0 991.89 482.54"/><rect width="53.615" height="53.615" x="1018.692" y="428.923" fill="#fff"/><path fill="#d47ed5" d="M 1018.69 428.92 A 26.81 26.81 0 0 1 1045.5 455.73 L 1018.69 428.92 A 26.81 26.81 0 0 0 1045.5 455.73"/><path fill="#f1d5f1" d="M 1045.5 455.73 A 26.81 26.81 0 0 1 1072.31 428.92 L 1045.5 455.73 A 26.81 26.81 0 0 0 1072.31 428.92"/><path fill="#d582d6" d="M 1018.69 455.73 A 26.81 26.81 0 0 1 1045.5 482.54 L 1018.69 455.73 A 26.81 26.81 0 0 0 1045.5 482.54"/><path fill="#d4b2f3" d="M 1045.5 455.73 A 26.81 26.81 0 0 1 1072.31 482.54 L 1045.5 455.73 A 26.81 26.81 0 0 0 1072.31 482.54"/><rect width="53.615" height="53.615" x="0" y="482.538" fill="#fff"/><path fill="#9c51e3" d="M 0 509.35 A 26.81 26.81 0 0 1 26.81 482.54 L 0 509.35 A 26.81 26.81 0 0 0 26.81 482.54"/><path fill="#e0c8f6" d="M 26.81 509.35 A 26.81 26.81 0 0 1 53.62 482.54 L 26.81 509.35 A 26.81 26.81 0 0 0 53.62 482.54"/><path fill="#e4aee5" d="M 0 509.35 A 26.81 26.81 0 0 1 26.81 536.16 L 0 509.35 A 26.81 26.81 0 0 0 26.81 536.16"/><path fill="#c091ed" d="M 26.81 536.16 A 26.81 26.81 0 0 1 53.62 509.35 L 26.81 536.16 A 26.81 26.81 0 0 0 53.62 509.35"/><path fill="#cca5f1" d="M 53.62 536.16 A 53.62 53.62 0 0 1 107.24 482.54 L 53.62 536.16 A 53.62 53.62 0 0 0 107.24 482.54"/><path fill="#efceef" d="M 214.46 536.16 A 53.62 53.62 0 0 1 268.08 482.54 L 214.46 536.16 A 53.62 53.62 0 0 0 268.08 482.54"/><rect width="53.615" height="53.615" x="321.692" y="482.538" fill="#fff"/><path fill="#a561e6" d="M 348.5 509.35 A 26.81 26.81 0 0 1 375.31 482.54 L 348.5 509.35 A 26.81 26.81 0 0 0 375.31 482.54"/><path fill="#f6f0fd" d="M 321.69 536.16 A 26.81 26.81 0 0 1 348.5 509.35 L 321.69 536.16 A 26.81 26.81 0 0 0 348.5 509.35"/><path fill="#df9edf" d="M 348.5 536.16 A 26.81 26.81 0 0 1 375.31 509.35 L 348.5 536.16 A 26.81 26.81 0 0 0 375.31 509.35"/><path fill="#c599ef" d="M 375.31 482.54 A 53.62 53.62 0 0 1 428.93 536.16 L 375.31 482.54 A 53.62 53.62 0 0 0 428.93 536.16"/><rect width="53.615" height="53.615" x="428.923" y="482.538" fill="#fff"/><path fill="#d174d2" d="M 428.92 482.54 A 26.81 26.81 0 0 1 455.73 509.35 L 428.92 482.54 A 26.81 26.81 0 0 0 455.73 509.35"/><path fill="#cba3f0" d="M 455.73 482.54 A 26.81 26.81 0 0 1 482.54 509.35 L 455.73 482.54 A 26.81 26.81 0 0 0 482.54 509.35"/><path fill="#d47fd5" d="M 428.92 509.35 A 26.81 26.81 0 0 1 455.73 536.16 L 428.92 509.35 A 26.81 26.81 0 0 0 455.73 536.16"/><path fill="#e2a9e3" d="M 455.73 536.16 A 26.81 26.81 0 0 1 482.54 509.35 L 455.73 536.16 A 26.81 26.81 0 0 0 482.54 509.35"/><path fill="#fbf2fb" d="M 482.54 536.16 A 53.62 53.62 0 0 1 536.16 482.54 L 482.54 536.16 A 53.62 53.62 0 0 0 536.16 482.54"/><rect width="53.615" height="53.615" x="536.154" y="482.538" fill="#fff"/><path fill="#dc95dc" d="M 562.96 509.35 A 26.81 26.81 0 0 1 589.77 482.54 L 562.96 509.35 A 26.81 26.81 0 0 0 589.77 482.54"/><path fill="#f2d8f2" d="M 536.15 509.35 A 26.81 26.81 0 0 1 562.9599999999999 536.16 L 536.15 509.35 A 26.81 26.81 0 0 0 562.9599999999999 536.16"/><path fill="#df9fe0" d="M 562.96 509.35 A 26.81 26.81 0 0 1 589.77 536.16 L 562.96 509.35 A 26.81 26.81 0 0 0 589.77 536.16"/><rect width="53.615" height="53.615" x="643.385" y="482.538" fill="#fff"/><path fill="#f9f5fd" d="M 643.38 509.35 A 26.81 26.81 0 0 1 670.1899999999999 482.54 L 643.38 509.35 A 26.81 26.81 0 0 0 670.1899999999999 482.54"/><path fill="#de9cdf" d="M 643.38 536.16 A 26.81 26.81 0 0 1 670.1899999999999 509.35 L 643.38 536.16 A 26.81 26.81 0 0 0 670.1899999999999 509.35"/><path fill="#ecc6ed" d="M 670.19 509.35 A 26.81 26.81 0 0 1 697 536.16 L 670.19 509.35 A 26.81 26.81 0 0 0 697 536.16"/><rect width="53.615" height="53.615" x="857.846" y="482.538" fill="#fff"/><path fill="#a35de5" d="M 857.85 509.35 A 26.81 26.81 0 0 1 884.66 482.54 L 857.85 509.35 A 26.81 26.81 0 0 0 884.66 482.54"/><path fill="#fdfcff" d="M 884.65 509.35 A 26.81 26.81 0 0 1 911.4599999999999 482.54 L 884.65 509.35 A 26.81 26.81 0 0 0 911.4599999999999 482.54"/><path fill="#e4ade4" d="M 884.65 536.16 A 26.81 26.81 0 0 1 911.4599999999999 509.35 L 884.65 536.16 A 26.81 26.81 0 0 0 911.4599999999999 509.35"/><path fill="#e8bbe9" d="M 911.46 536.16 A 53.62 53.62 0 0 1 965.08 482.54 L 911.46 536.16 A 53.62 53.62 0 0 0 965.08 482.54"/><path fill="#edcaee" d="M 965.08 482.54 A 53.62 53.62 0 0 1 1018.7 536.16 L 965.08 482.54 A 53.62 53.62 0 0 0 1018.7 536.16"/><path fill="#e0a2e1" d="M 1018.69 482.54 A 53.62 53.62 0 0 1 1072.31 536.16 L 1018.69 482.54 A 53.62 53.62 0 0 0 1072.31 536.16"/><path fill="#d889d8" d="M 0 589.77 A 53.62 53.62 0 0 1 53.62 536.15 L 0 589.77 A 53.62 53.62 0 0 0 53.62 536.15"/><rect width="53.615" height="53.615" x="53.615" y="536.154" fill="#fff"/><path fill="#a15ae4" d="M 53.62 536.15 A 26.81 26.81 0 0 1 80.42999999999999 562.9599999999999 L 53.62 536.15 A 26.81 26.81 0 0 0 80.42999999999999 562.9599999999999"/><path fill="#edc9ed" d="M 80.42 536.15 A 26.81 26.81 0 0 1 107.23 562.9599999999999 L 80.42 536.15 A 26.81 26.81 0 0 0 107.23 562.9599999999999"/><path fill="#d3b1f2" d="M 53.62 589.77 A 26.81 26.81 0 0 1 80.42999999999999 562.96 L 53.62 589.77 A 26.81 26.81 0 0 0 80.42999999999999 562.96"/><path fill="#edcaee" d="M 80.42 589.77 A 26.81 26.81 0 0 1 107.23 562.96 L 80.42 589.77 A 26.81 26.81 0 0 0 107.23 562.96"/><path fill="#9544e1" d="M 107.23 536.15 A 53.62 53.62 0 0 1 160.85 589.77 L 107.23 536.15 A 53.62 53.62 0 0 0 160.85 589.77"/><rect width="53.615" height="53.615" x="160.846" y="536.154" fill="#fff"/><path fill="#e1a4e1" d="M 160.85 536.15 A 26.81 26.81 0 0 1 187.66 562.9599999999999 L 160.85 536.15 A 26.81 26.81 0 0 0 187.66 562.9599999999999"/><path fill="#fefcfe" d="M 187.65 562.9599999999999 A 26.81 26.81 0 0 1 214.46 536.15 L 187.65 562.9599999999999 A 26.81 26.81 0 0 0 214.46 536.15"/><path fill="#f7e8f8" d="M 160.85 562.96 A 26.81 26.81 0 0 1 187.66 589.77 L 160.85 562.96 A 26.81 26.81 0 0 0 187.66 589.77"/><path fill="#e7b7e8" d="M 187.65 562.96 A 26.81 26.81 0 0 1 214.46 589.77 L 187.65 562.96 A 26.81 26.81 0 0 0 214.46 589.77"/><path fill="#cf6fd0" d="M 214.46 589.77 A 53.62 53.62 0 0 1 268.08 536.15 L 214.46 589.77 A 53.62 53.62 0 0 0 268.08 536.15"/><rect width="53.615" height="53.615" x="268.077" y="536.154" fill="#fff"/><path fill="#f8f3fd" d="M 268.08 562.9599999999999 A 26.81 26.81 0 0 1 294.89 536.15 L 268.08 562.9599999999999 A 26.81 26.81 0 0 0 294.89 536.15"/><path fill="#eabfea" d="M 294.88 562.9599999999999 A 26.81 26.81 0 0 1 321.69 536.15 L 294.88 562.9599999999999 A 26.81 26.81 0 0 0 321.69 536.15"/><path fill="#a764e6" d="M 268.08 562.96 A 26.81 26.81 0 0 1 294.89 589.77 L 268.08 562.96 A 26.81 26.81 0 0 0 294.89 589.77"/><rect width="53.615" height="53.615" x="321.692" y="536.154" fill="#fff"/><path fill="#a560e5" d="M 321.69 562.9599999999999 A 26.81 26.81 0 0 1 348.5 536.15 L 321.69 562.9599999999999 A 26.81 26.81 0 0 0 348.5 536.15"/><path fill="#f8ebf8" d="M 348.5 562.9599999999999 A 26.81 26.81 0 0 1 375.31 536.15 L 348.5 562.9599999999999 A 26.81 26.81 0 0 0 375.31 536.15"/><path fill="#913de0" d="M 321.69 562.96 A 26.81 26.81 0 0 1 348.5 589.77 L 321.69 562.96 A 26.81 26.81 0 0 0 348.5 589.77"/><path fill="#ebc2eb" d="M 348.5 589.77 A 26.81 26.81 0 0 1 375.31 562.96 L 348.5 589.77 A 26.81 26.81 0 0 0 375.31 562.96"/><path fill="#c99ff0" d="M 375.31 536.15 A 53.62 53.62 0 0 1 428.93 589.77 L 375.31 536.15 A 53.62 53.62 0 0 0 428.93 589.77"/><path fill="#e7d4f8" d="M 428.92 536.15 A 53.62 53.62 0 0 1 482.54 589.77 L 428.92 536.15 A 53.62 53.62 0 0 0 482.54 589.77"/><rect width="53.615" height="53.615" x="482.538" y="536.154" fill="#fff"/><path fill="#e5b1e5" d="M 482.54 562.9599999999999 A 26.81 26.81 0 0 1 509.35 536.15 L 482.54 562.9599999999999 A 26.81 26.81 0 0 0 509.35 536.15"/><path fill="#cea9f1" d="M 509.35 562.9599999999999 A 26.81 26.81 0 0 1 536.16 536.15 L 509.35 562.9599999999999 A 26.81 26.81 0 0 0 536.16 536.15"/><path fill="#dd98dd" d="M 482.54 562.96 A 26.81 26.81 0 0 1 509.35 589.77 L 482.54 562.96 A 26.81 26.81 0 0 0 509.35 589.77"/><path fill="#fcf5fc" d="M 509.35 562.96 A 26.81 26.81 0 0 1 536.16 589.77 L 509.35 562.96 A 26.81 26.81 0 0 0 536.16 589.77"/><path fill="#f4dff5" d="M 536.15 589.77 A 53.62 53.62 0 0 1 589.77 536.15 L 536.15 589.77 A 53.62 53.62 0 0 0 589.77 536.15"/><rect width="53.615" height="53.615" x="589.769" y="536.154" fill="#fff"/><path fill="#9646e1" d="M 616.58 536.15 A 26.81 26.81 0 0 1 643.39 562.9599999999999 L 616.58 536.15 A 26.81 26.81 0 0 0 643.39 562.9599999999999"/><path fill="#d277d3" d="M 589.77 562.96 A 26.81 26.81 0 0 1 616.5799999999999 589.77 L 589.77 562.96 A 26.81 26.81 0 0 0 616.5799999999999 589.77"/><path fill="#db92dc" d="M 616.58 589.77 A 26.81 26.81 0 0 1 643.39 562.96 L 616.58 589.77 A 26.81 26.81 0 0 0 643.39 562.96"/><path fill="#f7f1fd" d="M 750.62 589.77 A 53.62 53.62 0 0 1 804.24 536.15 L 750.62 589.77 A 53.62 53.62 0 0 0 804.24 536.15"/><rect width="53.615" height="53.615" x="804.231" y="536.154" fill="#fff"/><path fill="#9f55e4" d="M 804.23 536.15 A 26.81 26.81 0 0 1 831.04 562.9599999999999 L 804.23 536.15 A 26.81 26.81 0 0 0 831.04 562.9599999999999"/><path fill="#d889d9" d="M 831.04 536.15 A 26.81 26.81 0 0 1 857.8499999999999 562.9599999999999 L 831.04 536.15 A 26.81 26.81 0 0 0 857.8499999999999 562.9599999999999"/><path fill="#eabfea" d="M 804.23 562.96 A 26.81 26.81 0 0 1 831.04 589.77 L 804.23 562.96 A 26.81 26.81 0 0 0 831.04 589.77"/><path fill="#b882eb" d="M 831.04 589.77 A 26.81 26.81 0 0 1 857.8499999999999 562.96 L 831.04 589.77 A 26.81 26.81 0 0 0 857.8499999999999 562.96"/><rect width="53.615" height="53.615" x="857.846" y="536.154" fill="#fff"/><path fill="#9f55e4" d="M 857.85 562.9599999999999 A 26.81 26.81 0 0 1 884.66 536.15 L 857.85 562.9599999999999 A 26.81 26.81 0 0 0 884.66 536.15"/><path fill="#9a4ee2" d="M 884.65 562.9599999999999 A 26.81 26.81 0 0 1 911.4599999999999 536.15 L 884.65 562.9599999999999 A 26.81 26.81 0 0 0 911.4599999999999 536.15"/><path fill="#f0d2f0" d="M 857.85 589.77 A 26.81 26.81 0 0 1 884.66 562.96 L 857.85 589.77 A 26.81 26.81 0 0 0 884.66 562.96"/><rect width="53.615" height="53.615" x="911.462" y="536.154" fill="#fff"/><path fill="#cda7f1" d="M 911.46 536.15 A 26.81 26.81 0 0 1 938.27 562.9599999999999 L 911.46 536.15 A 26.81 26.81 0 0 0 938.27 562.9599999999999"/><path fill="#e2ccf7" d="M 938.27 536.15 A 26.81 26.81 0 0 1 965.0799999999999 562.9599999999999 L 938.27 536.15 A 26.81 26.81 0 0 0 965.0799999999999 562.9599999999999"/><path fill="#bf8eed" d="M 938.27 589.77 A 26.81 26.81 0 0 1 965.0799999999999 562.96 L 938.27 589.77 A 26.81 26.81 0 0 0 965.0799999999999 562.96"/><rect width="53.615" height="53.615" x="965.077" y="536.154" fill="#fff"/><path fill="#ab6be7" d="M 965.08 562.9599999999999 A 26.81 26.81 0 0 1 991.89 536.15 L 965.08 562.9599999999999 A 26.81 26.81 0 0 0 991.89 536.15"/><path fill="#a25ae5" d="M 991.88 536.15 A 26.81 26.81 0 0 1 1018.6899999999999 562.9599999999999 L 991.88 536.15 A 26.81 26.81 0 0 0 1018.6899999999999 562.9599999999999"/><path fill="#e0c8f6" d="M 965.08 562.96 A 26.81 26.81 0 0 1 991.89 589.77 L 965.08 562.96 A 26.81 26.81 0 0 0 991.89 589.77"/><path fill="#f8ebf9" d="M 991.88 562.96 A 26.81 26.81 0 0 1 1018.6899999999999 589.77 L 991.88 562.96 A 26.81 26.81 0 0 0 1018.6899999999999 589.77"/><path fill="#dd99de" d="M 0 643.39 A 53.62 53.62 0 0 1 53.62 589.77 L 0 643.39 A 53.62 53.62 0 0 0 53.62 589.77"/><rect width="53.615" height="53.615" x="53.615" y="589.769" fill="#fff"/><path fill="#c090ed" d="M 53.62 616.5799999999999 A 26.81 26.81 0 0 1 80.42999999999999 589.77 L 53.62 616.5799999999999 A 26.81 26.81 0 0 0 80.42999999999999 589.77"/><path fill="#bc89ec" d="M 80.42 589.77 A 26.81 26.81 0 0 1 107.23 616.5799999999999 L 80.42 589.77 A 26.81 26.81 0 0 0 107.23 616.5799999999999"/><path fill="#a35de5" d="M 53.62 643.39 A 26.81 26.81 0 0 1 80.42999999999999 616.58 L 53.62 643.39 A 26.81 26.81 0 0 0 80.42999999999999 616.58"/><path fill="#a25ae5" d="M 80.42 643.39 A 26.81 26.81 0 0 1 107.23 616.58 L 80.42 643.39 A 26.81 26.81 0 0 0 107.23 616.58"/><rect width="53.615" height="53.615" x="107.231" y="589.769" fill="#fff"/><path fill="#cea8f1" d="M 107.23 589.77 A 26.81 26.81 0 0 1 134.04 616.5799999999999 L 107.23 589.77 A 26.81 26.81 0 0 0 134.04 616.5799999999999"/><path fill="#dfa0e0" d="M 134.04 616.5799999999999 A 26.81 26.81 0 0 1 160.85 589.77 L 134.04 616.5799999999999 A 26.81 26.81 0 0 0 160.85 589.77"/><path fill="#d0acf2" d="M 107.23 643.39 A 26.81 26.81 0 0 1 134.04 616.58 L 107.23 643.39 A 26.81 26.81 0 0 0 134.04 616.58"/><path fill="#cf6ed0" d="M 134.04 643.39 A 26.81 26.81 0 0 1 160.85 616.58 L 134.04 643.39 A 26.81 26.81 0 0 0 160.85 616.58"/><path fill="#bd8bec" d="M 160.85 589.77 A 53.62 53.62 0 0 1 214.47 643.39 L 160.85 589.77 A 53.62 53.62 0 0 0 214.47 643.39"/><path fill="#9e54e4" d="M 214.46 589.77 A 53.62 53.62 0 0 1 268.08 643.39 L 214.46 589.77 A 53.62 53.62 0 0 0 268.08 643.39"/><rect width="53.615" height="53.615" x="268.077" y="589.769" fill="#fff"/><path fill="#e1c9f6" d="M 268.08 616.5799999999999 A 26.81 26.81 0 0 1 294.89 589.77 L 268.08 616.5799999999999 A 26.81 26.81 0 0 0 294.89 589.77"/><path fill="#e5b2e6" d="M 294.88 616.5799999999999 A 26.81 26.81 0 0 1 321.69 589.77 L 294.88 616.5799999999999 A 26.81 26.81 0 0 0 321.69 589.77"/><path fill="#f3dbf3" d="M 268.08 616.58 A 26.81 26.81 0 0 1 294.89 643.39 L 268.08 616.58 A 26.81 26.81 0 0 0 294.89 643.39"/><path fill="#d5b5f3" d="M 294.88 643.39 A 26.81 26.81 0 0 1 321.69 616.58 L 294.88 643.39 A 26.81 26.81 0 0 0 321.69 616.58"/><rect width="53.615" height="53.615" x="321.692" y="589.769" fill="#fff"/><path fill="#dfa0e0" d="M 321.69 616.5799999999999 A 26.81 26.81 0 0 1 348.5 589.77 L 321.69 616.5799999999999 A 26.81 26.81 0 0 0 348.5 589.77"/><path fill="#e3aae3" d="M 348.5 589.77 A 26.81 26.81 0 0 1 375.31 616.5799999999999 L 348.5 589.77 A 26.81 26.81 0 0 0 375.31 616.5799999999999"/><path fill="#d0acf2" d="M 321.69 616.58 A 26.81 26.81 0 0 1 348.5 643.39 L 321.69 616.58 A 26.81 26.81 0 0 0 348.5 643.39"/><path fill="#f5e0f5" d="M 348.5 643.39 A 26.81 26.81 0 0 1 375.31 616.58 L 348.5 643.39 A 26.81 26.81 0 0 0 375.31 616.58"/><rect width="53.615" height="53.615" x="375.308" y="589.769" fill="#fff"/><path fill="#e7b7e8" d="M 375.31 616.5799999999999 A 26.81 26.81 0 0 1 402.12 589.77 L 375.31 616.5799999999999 A 26.81 26.81 0 0 0 402.12 589.77"/><path fill="#e3ace4" d="M 402.12 616.5799999999999 A 26.81 26.81 0 0 1 428.93 589.77 L 402.12 616.5799999999999 A 26.81 26.81 0 0 0 428.93 589.77"/><path fill="#fefbfe" d="M 375.31 616.58 A 26.81 26.81 0 0 1 402.12 643.39 L 375.31 616.58 A 26.81 26.81 0 0 0 402.12 643.39"/><path fill="#8f3bdf" d="M 402.12 643.39 A 26.81 26.81 0 0 1 428.93 616.58 L 402.12 643.39 A 26.81 26.81 0 0 0 428.93 616.58"/><path fill="#f5e1f5" d="M 428.92 643.39 A 53.62 53.62 0 0 1 482.54 589.77 L 428.92 643.39 A 53.62 53.62 0 0 0 482.54 589.77"/><path fill="#dcc1f5" d="M 482.54 643.39 A 53.62 53.62 0 0 1 536.16 589.77 L 482.54 643.39 A 53.62 53.62 0 0 0 536.16 589.77"/><path fill="#e9d9f9" d="M 536.15 589.77 A 53.62 53.62 0 0 1 589.77 643.39 L 536.15 589.77 A 53.62 53.62 0 0 0 589.77 643.39"/><path fill="#d0adf2" d="M 589.77 589.77 A 53.62 53.62 0 0 1 643.39 643.39 L 589.77 589.77 A 53.62 53.62 0 0 0 643.39 643.39"/><path fill="#d6b7f3" d="M 643.38 643.39 A 53.62 53.62 0 0 1 697 589.77 L 643.38 643.39 A 53.62 53.62 0 0 0 697 589.77"/><path fill="#d37ad4" d="M 697 589.77 A 53.62 53.62 0 0 1 750.62 643.39 L 697 589.77 A 53.62 53.62 0 0 0 750.62 643.39"/><rect width="53.615" height="53.615" x="750.615" y="589.769" fill="#fff"/><path fill="#c89eef" d="M 750.62 589.77 A 26.81 26.81 0 0 1 777.43 616.5799999999999 L 750.62 589.77 A 26.81 26.81 0 0 0 777.43 616.5799999999999"/><path fill="#cf6fd0" d="M 777.42 589.77 A 26.81 26.81 0 0 1 804.2299999999999 616.5799999999999 L 777.42 589.77 A 26.81 26.81 0 0 0 804.2299999999999 616.5799999999999"/><path fill="#8e39df" d="M 750.62 616.58 A 26.81 26.81 0 0 1 777.43 643.39 L 750.62 616.58 A 26.81 26.81 0 0 0 777.43 643.39"/><path fill="#de9ddf" d="M 777.42 616.58 A 26.81 26.81 0 0 1 804.2299999999999 643.39 L 777.42 616.58 A 26.81 26.81 0 0 0 804.2299999999999 643.39"/><path fill="#984ae2" d="M 804.23 589.77 A 53.62 53.62 0 0 1 857.85 643.39 L 804.23 589.77 A 53.62 53.62 0 0 0 857.85 643.39"/><path fill="#8f3adf" d="M 857.85 589.77 A 53.62 53.62 0 0 1 911.47 643.39 L 857.85 589.77 A 53.62 53.62 0 0 0 911.47 643.39"/><path fill="#ddc3f5" d="M 911.46 643.39 A 53.62 53.62 0 0 1 965.08 589.77 L 911.46 643.39 A 53.62 53.62 0 0 0 965.08 589.77"/><path fill="#cda7f1" d="M 965.08 589.77 A 53.62 53.62 0 0 1 1018.7 643.39 L 965.08 589.77 A 53.62 53.62 0 0 0 1018.7 643.39"/><rect width="53.615" height="53.615" x="1018.692" y="589.769" fill="#fff"/><path fill="#de9cdf" d="M 1018.69 589.77 A 26.81 26.81 0 0 1 1045.5 616.5799999999999 L 1018.69 589.77 A 26.81 26.81 0 0 0 1045.5 616.5799999999999"/><path fill="#923ee0" d="M 1045.5 616.5799999999999 A 26.81 26.81 0 0 1 1072.31 589.77 L 1045.5 616.5799999999999 A 26.81 26.81 0 0 0 1072.31 589.77"/><path fill="#f8f3fd" d="M 1018.69 616.58 A 26.81 26.81 0 0 1 1045.5 643.39 L 1018.69 616.58 A 26.81 26.81 0 0 0 1045.5 643.39"/><path fill="#da90db" d="M 1045.5 643.39 A 26.81 26.81 0 0 1 1072.31 616.58 L 1045.5 643.39 A 26.81 26.81 0 0 0 1072.31 616.58"/><rect width="53.615" height="53.615" x="0" y="643.385" fill="#fff"/><path fill="#b67eea" d="M 0 670.1899999999999 A 26.81 26.81 0 0 1 26.81 643.38 L 0 670.1899999999999 A 26.81 26.81 0 0 0 26.81 643.38"/><path fill="#de9cdf" d="M 26.81 643.38 A 26.81 26.81 0 0 1 53.62 670.1899999999999 L 26.81 643.38 A 26.81 26.81 0 0 0 53.62 670.1899999999999"/><path fill="#e4afe5" d="M 0 670.19 A 26.81 26.81 0 0 1 26.81 697 L 0 670.19 A 26.81 26.81 0 0 0 26.81 697"/><path fill="#d88bd9" d="M 26.81 697 A 26.81 26.81 0 0 1 53.62 670.19 L 26.81 697 A 26.81 26.81 0 0 0 53.62 670.19"/><path fill="#e8bbe9" d="M 53.62 697 A 53.62 53.62 0 0 1 107.24 643.38 L 53.62 697 A 53.62 53.62 0 0 0 107.24 643.38"/><path fill="#f6f0fd" d="M 107.23 643.38 A 53.62 53.62 0 0 1 160.85 697 L 107.23 643.38 A 53.62 53.62 0 0 0 160.85 697"/><rect width="53.615" height="53.615" x="160.846" y="643.385" fill="#fff"/><path fill="#a25be5" d="M 160.85 670.1899999999999 A 26.81 26.81 0 0 1 187.66 643.38 L 160.85 670.1899999999999 A 26.81 26.81 0 0 0 187.66 643.38"/><path fill="#e3abe4" d="M 187.65 643.38 A 26.81 26.81 0 0 1 214.46 670.1899999999999 L 187.65 643.38 A 26.81 26.81 0 0 0 214.46 670.1899999999999"/><path fill="#dd98dd" d="M 160.85 697 A 26.81 26.81 0 0 1 187.66 670.19 L 160.85 697 A 26.81 26.81 0 0 0 187.66 670.19"/><path fill="#9c50e3" d="M 187.65 670.19 A 26.81 26.81 0 0 1 214.46 697 L 187.65 670.19 A 26.81 26.81 0 0 0 214.46 697"/><rect width="53.615" height="53.615" x="214.462" y="643.385" fill="#fff"/><path fill="#e9bce9" d="M 214.46 643.38 A 26.81 26.81 0 0 1 241.27 670.1899999999999 L 214.46 643.38 A 26.81 26.81 0 0 0 241.27 670.1899999999999"/><path fill="#f1d6f2" d="M 241.27 643.38 A 26.81 26.81 0 0 1 268.08 670.1899999999999 L 241.27 643.38 A 26.81 26.81 0 0 0 268.08 670.1899999999999"/><path fill="#ebc3eb" d="M 214.46 670.19 A 26.81 26.81 0 0 1 241.27 697 L 214.46 670.19 A 26.81 26.81 0 0 0 241.27 697"/><path fill="#e7d6f8" d="M 241.27 697 A 26.81 26.81 0 0 1 268.08 670.19 L 241.27 697 A 26.81 26.81 0 0 0 268.08 670.19"/><path fill="#994be2" d="M 268.08 697 A 53.62 53.62 0 0 1 321.7 643.38 L 268.08 697 A 53.62 53.62 0 0 0 321.7 643.38"/><rect width="53.615" height="53.615" x="321.692" y="643.385" fill="#fff"/><path fill="#9a4de2" d="M 321.69 670.1899999999999 A 26.81 26.81 0 0 1 348.5 643.38 L 321.69 670.1899999999999 A 26.81 26.81 0 0 0 348.5 643.38"/><path fill="#aa69e7" d="M 348.5 643.38 A 26.81 26.81 0 0 1 375.31 670.1899999999999 L 348.5 643.38 A 26.81 26.81 0 0 0 375.31 670.1899999999999"/><path fill="#9240e0" d="M 321.69 670.19 A 26.81 26.81 0 0 1 348.5 697 L 321.69 670.19 A 26.81 26.81 0 0 0 348.5 697"/><path fill="#ce6dcf" d="M 348.5 697 A 26.81 26.81 0 0 1 375.31 670.19 L 348.5 697 A 26.81 26.81 0 0 0 375.31 670.19"/><path fill="#eddffa" d="M 375.31 643.38 A 53.62 53.62 0 0 1 428.93 697 L 375.31 643.38 A 53.62 53.62 0 0 0 428.93 697"/><rect width="53.615" height="53.615" x="428.923" y="643.385" fill="#fff"/><path fill="#f8f3fd" d="M 428.92 670.1899999999999 A 26.81 26.81 0 0 1 455.73 643.38 L 428.92 670.1899999999999 A 26.81 26.81 0 0 0 455.73 643.38"/><path fill="#c090ed" d="M 455.73 670.1899999999999 A 26.81 26.81 0 0 1 482.54 643.38 L 455.73 670.1899999999999 A 26.81 26.81 0 0 0 482.54 643.38"/><path fill="#fbf7fe" d="M 428.92 697 A 26.81 26.81 0 0 1 455.73 670.19 L 428.92 697 A 26.81 26.81 0 0 0 455.73 670.19"/><path fill="#f8e9f8" d="M 455.73 697 A 26.81 26.81 0 0 1 482.54 670.19 L 455.73 697 A 26.81 26.81 0 0 0 482.54 670.19"/><path fill="#b47bea" d="M 482.54 697 A 53.62 53.62 0 0 1 536.16 643.38 L 482.54 697 A 53.62 53.62 0 0 0 536.16 643.38"/><rect width="53.615" height="53.615" x="536.154" y="643.385" fill="#fff"/><path fill="#f6e3f6" d="M 536.15 670.1899999999999 A 26.81 26.81 0 0 1 562.9599999999999 643.38 L 536.15 670.1899999999999 A 26.81 26.81 0 0 0 562.9599999999999 643.38"/><path fill="#9c51e3" d="M 562.96 670.1899999999999 A 26.81 26.81 0 0 1 589.77 643.38 L 562.96 670.1899999999999 A 26.81 26.81 0 0 0 589.77 643.38"/><path fill="#913ee0" d="M 536.15 670.19 A 26.81 26.81 0 0 1 562.9599999999999 697 L 536.15 670.19 A 26.81 26.81 0 0 0 562.9599999999999 697"/><path fill="#d277d3" d="M 562.96 670.19 A 26.81 26.81 0 0 1 589.77 697 L 562.96 670.19 A 26.81 26.81 0 0 0 589.77 697"/><rect width="53.615" height="53.615" x="589.769" y="643.385" fill="#fff"/><path fill="#b57dea" d="M 589.77 643.38 A 26.81 26.81 0 0 1 616.5799999999999 670.1899999999999 L 589.77 643.38 A 26.81 26.81 0 0 0 616.5799999999999 670.1899999999999"/><path fill="#9646e1" d="M 616.58 670.1899999999999 A 26.81 26.81 0 0 1 643.39 643.38 L 616.58 670.1899999999999 A 26.81 26.81 0 0 0 643.39 643.38"/><path fill="#f0d3f1" d="M 589.77 670.19 A 26.81 26.81 0 0 1 616.5799999999999 697 L 589.77 670.19 A 26.81 26.81 0 0 0 616.5799999999999 697"/><path fill="#f0d2f0" d="M 616.58 697 A 26.81 26.81 0 0 1 643.39 670.19 L 616.58 697 A 26.81 26.81 0 0 0 643.39 670.19"/><path fill="#d278d3" d="M 643.38 643.38 A 53.62 53.62 0 0 1 697 697 L 643.38 643.38 A 53.62 53.62 0 0 0 697 697"/><rect width="53.615" height="53.615" x="697" y="643.385" fill="#fff"/><path fill="#d174d1" d="M 697 670.1899999999999 A 26.81 26.81 0 0 1 723.81 643.38 L 697 670.1899999999999 A 26.81 26.81 0 0 0 723.81 643.38"/><path fill="#e4d0f7" d="M 723.81 670.1899999999999 A 26.81 26.81 0 0 1 750.6199999999999 643.38 L 723.81 670.1899999999999 A 26.81 26.81 0 0 0 750.6199999999999 643.38"/><path fill="#e4aee5" d="M 697 697 A 26.81 26.81 0 0 1 723.81 670.19 L 697 697 A 26.81 26.81 0 0 0 723.81 670.19"/><path fill="#d8baf4" d="M 723.81 670.19 A 26.81 26.81 0 0 1 750.6199999999999 697 L 723.81 670.19 A 26.81 26.81 0 0 0 750.6199999999999 697"/><rect width="53.615" height="53.615" x="750.615" y="643.385" fill="#fff"/><path fill="#edcaee" d="M 750.62 643.38 A 26.81 26.81 0 0 1 777.43 670.1899999999999 L 750.62 643.38 A 26.81 26.81 0 0 0 777.43 670.1899999999999"/><path fill="#8f3adf" d="M 777.42 643.38 A 26.81 26.81 0 0 1 804.2299999999999 670.1899999999999 L 777.42 643.38 A 26.81 26.81 0 0 0 804.2299999999999 670.1899999999999"/><path fill="#c69bef" d="M 750.62 697 A 26.81 26.81 0 0 1 777.43 670.19 L 750.62 697 A 26.81 26.81 0 0 0 777.43 670.19"/><path fill="#ab6be7" d="M 777.42 670.19 A 26.81 26.81 0 0 1 804.2299999999999 697 L 777.42 670.19 A 26.81 26.81 0 0 0 804.2299999999999 697"/><path fill="#dc96dd" d="M 804.23 697 A 53.62 53.62 0 0 1 857.85 643.38 L 804.23 697 A 53.62 53.62 0 0 0 857.85 643.38"/><rect width="53.615" height="53.615" x="857.846" y="643.385" fill="#fff"/><path fill="#fdfcff" d="M 857.85 670.1899999999999 A 26.81 26.81 0 0 1 884.66 643.38 L 857.85 670.1899999999999 A 26.81 26.81 0 0 0 884.66 643.38"/><path fill="#df9fe0" d="M 884.65 643.38 A 26.81 26.81 0 0 1 911.4599999999999 670.1899999999999 L 884.65 643.38 A 26.81 26.81 0 0 0 911.4599999999999 670.1899999999999"/><path fill="#d1aef2" d="M 857.85 697 A 26.81 26.81 0 0 1 884.66 670.19 L 857.85 697 A 26.81 26.81 0 0 0 884.66 670.19"/><path fill="#ece" d="M 884.65 697 A 26.81 26.81 0 0 1 911.4599999999999 670.19 L 884.65 697 A 26.81 26.81 0 0 0 911.4599999999999 670.19"/><rect width="53.615" height="53.615" x="911.462" y="643.385" fill="#fff"/><path fill="#a764e6" d="M 911.46 670.1899999999999 A 26.81 26.81 0 0 1 938.27 643.38 L 911.46 670.1899999999999 A 26.81 26.81 0 0 0 938.27 643.38"/><path fill="#be8ced" d="M 938.27 670.1899999999999 A 26.81 26.81 0 0 1 965.0799999999999 643.38 L 938.27 670.1899999999999 A 26.81 26.81 0 0 0 965.0799999999999 643.38"/><path fill="#ac6de7" d="M 911.46 670.19 A 26.81 26.81 0 0 1 938.27 697 L 911.46 670.19 A 26.81 26.81 0 0 0 938.27 697"/><path fill="#e6b3e6" d="M 938.27 697 A 26.81 26.81 0 0 1 965.0799999999999 670.19 L 938.27 697 A 26.81 26.81 0 0 0 965.0799999999999 670.19"/><path fill="#ecdefa" d="M 965.08 697 A 53.62 53.62 0 0 1 1018.7 643.38 L 965.08 697 A 53.62 53.62 0 0 0 1018.7 643.38"/><path fill="#ecdefa" d="M 1018.69 697 A 53.62 53.62 0 0 1 1072.31 643.38 L 1018.69 697 A 53.62 53.62 0 0 0 1072.31 643.38"/></g></svg>