<svg xmlns="http://www.w3.org/2000/svg" xmlns:xlink="http://www.w3.org/1999/xlink" preserveAspectRatio="xMaxYMax slice" viewBox="0 0 1000 625.006"><g transform="scale(0.8815310431156832)"><rect width="1134.4" height="709" x="0" y="0" fill="#1D4E89"/><rect width="70.9" height="70.9" x="0" y="0" fill="#1D4E89"/><rect width="35.45" height="35.45" x="0" y="0" fill="#166799"/><path fill="#63acaa" d="M 0 0 A 35.45 35.45 0 0 1 35.45 35.45 L 0 0 A 35.45 35.45 0 0 0 35.45 35.45"/><rect width="35.45" height="35.45" x="35.45" y="0" fill="#03a6c2"/><path fill="#1e508a" d="M 35.45 35.45 A 35.45 35.45 0 0 1 70.9 0 L 35.45 35.45 A 35.45 35.45 0 0 0 70.9 0"/><rect width="35.45" height="35.45" x="0" y="35.45" fill="#0e82ab"/><path fill="#0d85ad" d="M 0 35.45 A 35.45 35.45 0 0 1 35.45 70.9 L 0 70.9"/><rect width="35.45" height="35.45" x="35.45" y="35.45" fill="#3d7998"/><path fill="#579ca4" d="M 35.45 70.9 A 35.45 35.45 0 0 1 70.9 35.45 L 35.45 70.9 A 35.45 35.45 0 0 0 70.9 35.45"/><rect width="70.9" height="70.9" x="70.9" y="0" fill="#1176a3"/><path fill="#0994b7" d="M 70.9 70.9 A 70.9 70.9 0 0 1 141.8 0 L 141.8 70.9"/><rect width="70.9" height="70.9" x="141.8" y="0" fill="#01afc8"/><path fill="#1b568e" d="M 141.8 0 A 70.9 70.9 0 0 0 212.70000000000002 70.9 L 212.70000000000002 0"/><rect width="70.9" height="70.9" x="212.7" y="0" fill="#1D4E89"/><rect width="35.45" height="35.45" x="212.7" y="0" fill="#72c0b1"/><path fill="#72c1b1" d="M 212.7 35.45 A 35.45 35.45 0 0 1 248.14999999999998 0 L 248.14999999999998 35.45"/><rect width="35.45" height="35.45" x="248.15" y="0" fill="#1178a4"/><path fill="#5da4a7" d="M 248.15 35.45 A 35.45 35.45 0 0 0 283.6 0 L 248.15 0"/><rect width="35.45" height="35.45" x="212.7" y="35.45" fill="#47869c"/><path fill="#156a9b" d="M 212.7 35.45 A 35.45 35.45 0 0 1 248.14999999999998 70.9 L 212.7 70.9"/><rect width="35.45" height="35.45" x="248.15" y="35.45" fill="#1c538c"/><path fill="#107ba6" d="M 248.15 70.9 A 35.45 35.45 0 0 0 283.6 35.45 L 248.15 35.45"/><rect width="70.9" height="70.9" x="283.6" y="0" fill="#1b568e"/><path fill="#166598" d="M 283.6 0 A 70.9 70.9 0 0 1 354.5 70.9 L 283.6 0 A 70.9 70.9 0 0 0 354.5 70.9"/><rect width="70.9" height="70.9" x="354.5" y="0" fill="#1D4E89"/><rect width="35.45" height="35.45" x="354.5" y="0" fill="#336b93"/><path fill="#0898b9" d="M 354.5 0 A 35.45 35.45 0 0 0 389.95 35.45 L 389.95 0"/><rect width="35.45" height="35.45" x="389.95" y="0" fill="#1c528c"/><path fill="#0a91b4" d="M 389.95 0 A 35.45 35.45 0 0 1 425.4 35.45 L 389.95 0 A 35.45 35.45 0 0 0 425.4 35.45"/><rect width="35.45" height="35.45" x="354.5" y="35.45" fill="#195c92"/><path fill="#70bdb0" d="M 354.5 70.9 A 35.45 35.45 0 0 1 389.95 35.45 L 354.5 70.9 A 35.45 35.45 0 0 0 389.95 35.45"/><rect width="35.45" height="35.45" x="389.95" y="35.45" fill="#66b0ab"/><path fill="#1f518a" d="M 389.95 70.9 A 35.45 35.45 0 0 1 425.4 35.45 L 425.4 70.9"/><rect width="70.9" height="70.9" x="425.4" y="0" fill="#146e9e"/><path fill="#387296" d="M 425.4 0 A 70.9 70.9 0 0 0 496.29999999999995 70.9 L 496.29999999999995 0"/><rect width="70.9" height="70.9" x="496.3" y="0" fill="#4b8b9e"/><path fill="#0799ba" d="M 496.3 0 A 70.9 70.9 0 0 1 567.2 70.9 L 496.3 0 A 70.9 70.9 0 0 0 567.2 70.9"/><rect width="70.9" height="70.9" x="567.2" y="0" fill="#1D4E89"/><rect width="35.45" height="35.45" x="567.2" y="0" fill="#176296"/><path fill="#5ca3a7" d="M 567.2 0 A 35.45 35.45 0 0 1 602.6500000000001 35.45 L 567.2 0 A 35.45 35.45 0 0 0 602.6500000000001 35.45"/><rect width="35.45" height="35.45" x="602.65" y="0" fill="#1b558e"/><path fill="#107ca7" d="M 602.65 0 A 35.45 35.45 0 0 0 638.1 35.45 L 638.1 0"/><rect width="35.45" height="35.45" x="567.2" y="35.45" fill="#0e82ab"/><path fill="#68b3ac" d="M 567.2 70.9 A 35.45 35.45 0 0 0 602.6500000000001 35.45 L 567.2 35.45"/><rect width="35.45" height="35.45" x="602.65" y="35.45" fill="#23568c"/><path fill="#72c0b1" d="M 602.65 70.9 A 35.45 35.45 0 0 0 638.1 35.45 L 602.65 35.45"/><rect width="70.9" height="70.9" x="638.1" y="0" fill="#0c87ae"/><path fill="#0897b9" d="M 638.1 0 A 70.9 70.9 0 0 1 709 70.9 L 638.1 0 A 70.9 70.9 0 0 0 709 70.9"/><rect width="70.9" height="70.9" x="709" y="0" fill="#1D4E89"/><rect width="35.45" height="35.45" x="709" y="0" fill="#367095"/><path fill="#069dbd" d="M 709 35.45 A 35.45 35.45 0 0 0 744.45 0 L 709 0"/><rect width="35.45" height="35.45" x="744.45" y="0" fill="#2c6290"/><path fill="#0f7da8" d="M 744.45 0 A 35.45 35.45 0 0 1 779.9000000000001 35.45 L 744.45 35.45"/><rect width="35.45" height="35.45" x="709" y="35.45" fill="#1a588f"/><path fill="#68b3ac" d="M 709 35.45 A 35.45 35.45 0 0 0 744.45 70.9 L 744.45 35.45"/><rect width="35.45" height="35.45" x="744.45" y="35.45" fill="#43819b"/><path fill="#599ea5" d="M 744.45 70.9 A 35.45 35.45 0 0 1 779.9000000000001 35.45 L 779.9000000000001 70.9"/><rect width="70.9" height="70.9" x="779.9" y="0" fill="#407d99"/><path fill="#2e6591" d="M 779.9 70.9 A 70.9 70.9 0 0 1 850.8 0 L 850.8 70.9"/><rect width="70.9" height="70.9" x="850.8" y="0" fill="#1D4E89"/><rect width="35.45" height="35.45" x="850.8" y="0" fill="#107ca7"/><path fill="#346d94" d="M 850.8 0 A 35.45 35.45 0 0 1 886.25 35.45 L 850.8 35.45"/><rect width="35.45" height="35.45" x="886.25" y="0" fill="#166799"/><path fill="#13719f" d="M 886.25 0 A 35.45 35.45 0 0 1 921.7 35.45 L 886.25 0 A 35.45 35.45 0 0 0 921.7 35.45"/><rect width="35.45" height="35.45" x="850.8" y="35.45" fill="#00b2ca"/><path fill="#316892" d="M 850.8 35.45 A 35.45 35.45 0 0 1 886.25 70.9 L 850.8 35.45 A 35.45 35.45 0 0 0 886.25 70.9"/><rect width="35.45" height="35.45" x="886.25" y="35.45" fill="#176296"/><path fill="#00b2ca" d="M 886.25 35.45 A 35.45 35.45 0 0 0 921.7 70.9 L 921.7 35.45"/><rect width="70.9" height="70.9" x="921.7" y="0" fill="#1d4f89"/><path fill="#69b5ad" d="M 921.7 70.9 A 70.9 70.9 0 0 1 992.6 0 L 921.7 70.9 A 70.9 70.9 0 0 0 992.6 0"/><rect width="70.9" height="70.9" x="992.6" y="0" fill="#1D4E89"/><rect width="35.45" height="35.45" x="992.6" y="0" fill="#186095"/><path fill="#387296" d="M 992.6 0 A 35.45 35.45 0 0 1 1028.05 35.45 L 992.6 35.45"/><rect width="35.45" height="35.45" x="1028.05" y="0" fill="#0e83ab"/><path fill="#4a8b9e" d="M 1028.05 35.45 A 35.45 35.45 0 0 1 1063.5 0 L 1028.05 35.45 A 35.45 35.45 0 0 0 1063.5 0"/><rect width="35.45" height="35.45" x="992.6" y="35.45" fill="#25598d"/><path fill="#107ba6" d="M 992.6 70.9 A 35.45 35.45 0 0 1 1028.05 35.45 L 1028.05 70.9"/><rect width="35.45" height="35.45" x="1028.05" y="35.45" fill="#0e80aa"/><path fill="#136f9f" d="M 1028.05 35.45 A 35.45 35.45 0 0 0 1063.5 70.9 L 1063.5 35.45"/><rect width="70.9" height="70.9" x="1063.5" y="0" fill="#1D4E89"/><rect width="35.45" height="35.45" x="1063.5" y="0" fill="#5296a2"/><path fill="#4c8d9f" d="M 1063.5 35.45 A 35.45 35.45 0 0 0 1098.95 0 L 1063.5 0"/><rect width="35.45" height="35.45" x="1098.95" y="0" fill="#387296"/><path fill="#599ea5" d="M 1098.95 35.45 A 35.45 35.45 0 0 1 1134.4 0 L 1134.4 35.45"/><rect width="35.45" height="35.45" x="1063.5" y="35.45" fill="#6ab6ad"/><path fill="#7dcfb6" d="M 1063.5 70.9 A 35.45 35.45 0 0 1 1098.95 35.45 L 1063.5 70.9 A 35.45 35.45 0 0 0 1098.95 35.45"/><rect width="35.45" height="35.45" x="1098.95" y="35.45" fill="#04a3c0"/><path fill="#0e82ab" d="M 1098.95 35.45 A 35.45 35.45 0 0 0 1134.4 70.9 L 1134.4 35.45"/><rect width="70.9" height="70.9" x="0" y="70.9" fill="#1f508a"/><path fill="#0b8cb1" d="M 0 70.9 A 70.9 70.9 0 0 1 70.9 141.8 L 0 141.8"/><rect width="70.9" height="70.9" x="70.9" y="70.9" fill="#1D4E89"/><rect width="35.45" height="35.45" x="70.9" y="70.9" fill="#1a5990"/><path fill="#79c9b4" d="M 70.9 70.9 A 35.45 35.45 0 0 1 106.35000000000001 106.35000000000001 L 70.9 106.35000000000001"/><rect width="35.45" height="35.45" x="106.35" y="70.9" fill="#01afc8"/><path fill="#166598" d="M 106.35 106.35000000000001 A 35.45 35.45 0 0 1 141.8 70.9 L 141.8 106.35000000000001"/><rect width="35.45" height="35.45" x="70.9" y="106.35" fill="#0896b8"/><path fill="#69b4ad" d="M 70.9 106.35 A 35.45 35.45 0 0 1 106.35000000000001 141.8 L 70.9 141.8"/><rect width="35.45" height="35.45" x="106.35" y="106.35" fill="#1b538d"/><path fill="#73c1b1" d="M 106.35 106.35 A 35.45 35.45 0 0 1 141.8 141.8 L 106.35 141.8"/><rect width="70.9" height="70.9" x="141.8" y="70.9" fill="#1D4E89"/><rect width="35.45" height="35.45" x="141.8" y="70.9" fill="#356f94"/><path fill="#6ebbaf" d="M 141.8 106.35000000000001 A 35.45 35.45 0 0 1 177.25 70.9 L 141.8 106.35000000000001 A 35.45 35.45 0 0 0 177.25 70.9"/><rect width="35.45" height="35.45" x="177.25" y="70.9" fill="#387396"/><path fill="#04a3c0" d="M 177.25 106.35000000000001 A 35.45 35.45 0 0 0 212.7 70.9 L 177.25 70.9"/><rect width="35.45" height="35.45" x="141.8" y="106.35" fill="#05a0be"/><path fill="#6cb9ae" d="M 141.8 141.8 A 35.45 35.45 0 0 0 177.25 106.35 L 141.8 106.35"/><rect width="35.45" height="35.45" x="177.25" y="106.35" fill="#13709f"/><path fill="#0992b5" d="M 177.25 141.8 A 35.45 35.45 0 0 1 212.7 106.35 L 212.7 141.8"/><rect width="70.9" height="70.9" x="212.7" y="70.9" fill="#1D4E89"/><rect width="35.45" height="35.45" x="212.7" y="70.9" fill="#3e7a98"/><path fill="#0d86ad" d="M 212.7 106.35000000000001 A 35.45 35.45 0 0 1 248.14999999999998 70.9 L 212.7 106.35000000000001 A 35.45 35.45 0 0 0 248.14999999999998 70.9"/><rect width="35.45" height="35.45" x="248.15" y="70.9" fill="#05a0be"/><path fill="#185f94" d="M 248.15 70.9 A 35.45 35.45 0 0 1 283.6 106.35000000000001 L 248.15 70.9 A 35.45 35.45 0 0 0 283.6 106.35000000000001"/><rect width="35.45" height="35.45" x="212.7" y="106.35" fill="#75c4b2"/><path fill="#75c5b2" d="M 212.7 106.35 A 35.45 35.45 0 0 1 248.14999999999998 141.8 L 212.7 141.8"/><rect width="35.45" height="35.45" x="248.15" y="106.35" fill="#0b8bb1"/><path fill="#7bccb5" d="M 248.15 141.8 A 35.45 35.45 0 0 1 283.6 106.35 L 283.6 141.8"/><rect width="70.9" height="70.9" x="283.6" y="70.9" fill="#1D4E89"/><rect width="35.45" height="35.45" x="283.6" y="70.9" fill="#5498a3"/><path fill="#427f9a" d="M 283.6 70.9 A 35.45 35.45 0 0 0 319.05 106.35000000000001 L 319.05 70.9"/><rect width="35.45" height="35.45" x="319.05" y="70.9" fill="#24578c"/><path fill="#04a6c2" d="M 319.05 106.35000000000001 A 35.45 35.45 0 0 1 354.5 70.9 L 319.05 106.35000000000001 A 35.45 35.45 0 0 0 354.5 70.9"/><rect width="35.45" height="35.45" x="283.6" y="106.35" fill="#316993"/><path fill="#60a9a9" d="M 283.6 141.8 A 35.45 35.45 0 0 1 319.05 106.35 L 319.05 141.8"/><rect width="35.45" height="35.45" x="319.05" y="106.35" fill="#1c538c"/><path fill="#1d4e89" d="M 319.05 106.35 A 35.45 35.45 0 0 0 354.5 141.8 L 354.5 106.35"/><rect width="70.9" height="70.9" x="354.5" y="70.9" fill="#4c8d9f"/><path fill="#2f6691" d="M 354.5 141.8 A 70.9 70.9 0 0 1 425.4 70.9 L 354.5 141.8 A 70.9 70.9 0 0 0 425.4 70.9"/><rect width="70.9" height="70.9" x="425.4" y="70.9" fill="#1D4E89"/><rect width="35.45" height="35.45" x="425.4" y="70.9" fill="#0994b7"/><path fill="#0c87ae" d="M 425.4 70.9 A 35.45 35.45 0 0 0 460.84999999999997 106.35000000000001 L 460.84999999999997 70.9"/><rect width="35.45" height="35.45" x="460.85" y="70.9" fill="#1371a0"/><path fill="#7dceb6" d="M 460.85 106.35000000000001 A 35.45 35.45 0 0 1 496.3 70.9 L 496.3 106.35000000000001"/><rect width="35.45" height="35.45" x="425.4" y="106.35" fill="#427f9a"/><path fill="#04a6c2" d="M 425.4 141.8 A 35.45 35.45 0 0 1 460.84999999999997 106.35 L 425.4 141.8 A 35.45 35.45 0 0 0 460.84999999999997 106.35"/><rect width="35.45" height="35.45" x="460.85" y="106.35" fill="#1e4f89"/><path fill="#1f508a" d="M 460.85 106.35 A 35.45 35.45 0 0 0 496.3 141.8 L 496.3 106.35"/><rect width="70.9" height="70.9" x="496.3" y="70.9" fill="#6bb6ad"/><path fill="#4c8d9f" d="M 496.3 141.8 A 70.9 70.9 0 0 0 567.2 70.9 L 496.3 70.9"/><rect width="70.9" height="70.9" x="567.2" y="70.9" fill="#66b0ab"/><path fill="#1c538c" d="M 567.2 70.9 A 70.9 70.9 0 0 1 638.1 141.8 L 567.2 70.9 A 70.9 70.9 0 0 0 638.1 141.8"/><rect width="70.9" height="70.9" x="638.1" y="70.9" fill="#04a5c2"/><path fill="#3b7697" d="M 638.1 141.8 A 70.9 70.9 0 0 1 709 70.9 L 709 141.8"/><rect width="70.9" height="70.9" x="709" y="70.9" fill="#7bcdb5"/><path fill="#45849c" d="M 709 141.8 A 70.9 70.9 0 0 0 779.9 70.9 L 709 70.9"/><rect width="70.9" height="70.9" x="779.9" y="70.9" fill="#1D4E89"/><rect width="35.45" height="35.45" x="779.9" y="70.9" fill="#356e94"/><path fill="#326b93" d="M 779.9 106.35000000000001 A 35.45 35.45 0 0 0 815.35 70.9 L 779.9 70.9"/><rect width="35.45" height="35.45" x="815.35" y="70.9" fill="#166799"/><path fill="#0c89af" d="M 815.35 70.9 A 35.45 35.45 0 0 1 850.8000000000001 106.35000000000001 L 815.35 106.35000000000001"/><rect width="35.45" height="35.45" x="779.9" y="106.35" fill="#65aeab"/><path fill="#5498a3" d="M 779.9 141.8 A 35.45 35.45 0 0 1 815.35 106.35 L 779.9 141.8 A 35.45 35.45 0 0 0 815.35 106.35"/><rect width="35.45" height="35.45" x="815.35" y="106.35" fill="#42809a"/><path fill="#1372a0" d="M 815.35 106.35 A 35.45 35.45 0 0 1 850.8000000000001 141.8 L 815.35 141.8"/><rect width="70.9" height="70.9" x="850.8" y="70.9" fill="#3b7697"/><path fill="#72c1b1" d="M 850.8 141.8 A 70.9 70.9 0 0 1 921.6999999999999 70.9 L 921.6999999999999 141.8"/><rect width="70.9" height="70.9" x="921.7" y="70.9" fill="#265a8d"/><path fill="#579ca4" d="M 921.7 141.8 A 70.9 70.9 0 0 0 992.6 70.9 L 921.7 70.9"/><rect width="70.9" height="70.9" x="992.6" y="70.9" fill="#285c8e"/><path fill="#079cbb" d="M 992.6 70.9 A 70.9 70.9 0 0 1 1063.5 141.8 L 992.6 141.8"/><rect width="70.9" height="70.9" x="1063.5" y="70.9" fill="#1D4E89"/><rect width="35.45" height="35.45" x="1063.5" y="70.9" fill="#02abc6"/><path fill="#65afab" d="M 1063.5 70.9 A 35.45 35.45 0 0 0 1098.95 106.35000000000001 L 1098.95 70.9"/><rect width="35.45" height="35.45" x="1098.95" y="70.9" fill="#01afc8"/><path fill="#02acc6" d="M 1098.95 70.9 A 35.45 35.45 0 0 1 1134.4 106.35000000000001 L 1098.95 106.35000000000001"/><rect width="35.45" height="35.45" x="1063.5" y="106.35" fill="#3b7797"/><path fill="#0c89af" d="M 1063.5 106.35 A 35.45 35.45 0 0 0 1098.95 141.8 L 1098.95 106.35"/><rect width="35.45" height="35.45" x="1098.95" y="106.35" fill="#02abc6"/><path fill="#0a8fb3" d="M 1098.95 106.35 A 35.45 35.45 0 0 0 1134.4 141.8 L 1134.4 106.35"/><rect width="70.9" height="70.9" x="0" y="141.8" fill="#316992"/><path fill="#0799ba" d="M 0 141.8 A 70.9 70.9 0 0 0 70.9 212.70000000000002 L 70.9 141.8"/><rect width="70.9" height="70.9" x="70.9" y="141.8" fill="#356e94"/><path fill="#265a8d" d="M 70.9 212.70000000000002 A 70.9 70.9 0 0 1 141.8 141.8 L 70.9 212.70000000000002 A 70.9 70.9 0 0 0 141.8 141.8"/><rect width="70.9" height="70.9" x="141.8" y="141.8" fill="#185e93"/><path fill="#03a7c3" d="M 141.8 141.8 A 70.9 70.9 0 0 0 212.70000000000002 212.70000000000002 L 212.70000000000002 141.8"/><rect width="70.9" height="70.9" x="212.7" y="141.8" fill="#1D4E89"/><rect width="35.45" height="35.45" x="212.7" y="141.8" fill="#146e9e"/><path fill="#75c5b2" d="M 212.7 141.8 A 35.45 35.45 0 0 1 248.14999999999998 177.25 L 212.7 177.25"/><rect width="35.45" height="35.45" x="248.15" y="141.8" fill="#72c1b1"/><path fill="#71bfb0" d="M 248.15 177.25 A 35.45 35.45 0 0 0 283.6 141.8 L 248.15 141.8"/><rect width="35.45" height="35.45" x="212.7" y="177.25" fill="#00b1c9"/><path fill="#306892" d="M 212.7 212.7 A 35.45 35.45 0 0 0 248.14999999999998 177.25 L 212.7 177.25"/><rect width="35.45" height="35.45" x="248.15" y="177.25" fill="#03a7c3"/><path fill="#6ab6ad" d="M 248.15 212.7 A 35.45 35.45 0 0 1 283.6 177.25 L 248.15 212.7 A 35.45 35.45 0 0 0 283.6 177.25"/><rect width="70.9" height="70.9" x="283.6" y="141.8" fill="#1D4E89"/><rect width="35.45" height="35.45" x="283.6" y="141.8" fill="#76c6b3"/><path fill="#0897b9" d="M 283.6 141.8 A 35.45 35.45 0 0 0 319.05 177.25 L 319.05 141.8"/><rect width="35.45" height="35.45" x="319.05" y="141.8" fill="#0f7ea8"/><path fill="#77c7b3" d="M 319.05 141.8 A 35.45 35.45 0 0 0 354.5 177.25 L 354.5 141.8"/><rect width="35.45" height="35.45" x="283.6" y="177.25" fill="#146c9c"/><path fill="#387396" d="M 283.6 177.25 A 35.45 35.45 0 0 0 319.05 212.7 L 319.05 177.25"/><rect width="35.45" height="35.45" x="319.05" y="177.25" fill="#295e8f"/><path fill="#1b548d" d="M 319.05 177.25 A 35.45 35.45 0 0 0 354.5 212.7 L 354.5 177.25"/><rect width="70.9" height="70.9" x="354.5" y="141.8" fill="#1D4E89"/><rect width="35.45" height="35.45" x="354.5" y="141.8" fill="#79cab4"/><path fill="#13709f" d="M 354.5 177.25 A 35.45 35.45 0 0 1 389.95 141.8 L 389.95 177.25"/><rect width="35.45" height="35.45" x="389.95" y="141.8" fill="#336b93"/><path fill="#186095" d="M 389.95 141.8 A 35.45 35.45 0 0 0 425.4 177.25 L 425.4 141.8"/><rect width="35.45" height="35.45" x="354.5" y="177.25" fill="#0f7da8"/><path fill="#5497a3" d="M 354.5 177.25 A 35.45 35.45 0 0 1 389.95 212.7 L 354.5 177.25 A 35.45 35.45 0 0 0 389.95 212.7"/><rect width="35.45" height="35.45" x="389.95" y="177.25" fill="#146e9e"/><path fill="#45849c" d="M 389.95 212.7 A 35.45 35.45 0 0 1 425.4 177.25 L 389.95 212.7 A 35.45 35.45 0 0 0 425.4 177.25"/><rect width="70.9" height="70.9" x="425.4" y="141.8" fill="#1D4E89"/><rect width="35.45" height="35.45" x="425.4" y="141.8" fill="#3f7c99"/><path fill="#146c9c" d="M 425.4 141.8 A 35.45 35.45 0 0 0 460.84999999999997 177.25 L 460.84999999999997 141.8"/><rect width="35.45" height="35.45" x="460.85" y="141.8" fill="#2c6290"/><path fill="#1c528c" d="M 460.85 177.25 A 35.45 35.45 0 0 0 496.3 141.8 L 460.85 141.8"/><rect width="35.45" height="35.45" x="425.4" y="177.25" fill="#0d85ad"/><path fill="#185e93" d="M 425.4 177.25 A 35.45 35.45 0 0 0 460.84999999999997 212.7 L 460.84999999999997 177.25"/><rect width="35.45" height="35.45" x="460.85" y="177.25" fill="#0a8fb3"/><path fill="#7cceb6" d="M 460.85 177.25 A 35.45 35.45 0 0 0 496.3 212.7 L 496.3 177.25"/><rect width="70.9" height="70.9" x="496.3" y="141.8" fill="#1D4E89"/><rect width="35.45" height="35.45" x="496.3" y="141.8" fill="#66b0ab"/><path fill="#21548b" d="M 496.3 141.8 A 35.45 35.45 0 0 1 531.75 177.25 L 496.3 177.25"/><rect width="35.45" height="35.45" x="531.75" y="141.8" fill="#1c538c"/><path fill="#0b8bb1" d="M 531.75 177.25 A 35.45 35.45 0 0 1 567.2 141.8 L 531.75 177.25 A 35.45 35.45 0 0 0 567.2 141.8"/><rect width="35.45" height="35.45" x="496.3" y="177.25" fill="#5093a1"/><path fill="#1c528c" d="M 496.3 212.7 A 35.45 35.45 0 0 0 531.75 177.25 L 496.3 177.25"/><rect width="35.45" height="35.45" x="531.75" y="177.25" fill="#67b1ac"/><path fill="#70bdb0" d="M 531.75 212.7 A 35.45 35.45 0 0 1 567.2 177.25 L 567.2 212.7"/><rect width="70.9" height="70.9" x="567.2" y="141.8" fill="#079aba"/><path fill="#079aba" d="M 567.2 212.70000000000002 A 70.9 70.9 0 0 1 638.1 141.8 L 638.1 212.70000000000002"/><rect width="70.9" height="70.9" x="638.1" y="141.8" fill="#1D4E89"/><rect width="35.45" height="35.45" x="638.1" y="141.8" fill="#059fbe"/><path fill="#195a91" d="M 638.1 177.25 A 35.45 35.45 0 0 0 673.5500000000001 141.8 L 638.1 141.8"/><rect width="35.45" height="35.45" x="673.55" y="141.8" fill="#49899e"/><path fill="#05a2c0" d="M 673.55 177.25 A 35.45 35.45 0 0 0 709 141.8 L 673.55 141.8"/><rect width="35.45" height="35.45" x="638.1" y="177.25" fill="#05a2c0"/><path fill="#1b558d" d="M 638.1 212.7 A 35.45 35.45 0 0 1 673.5500000000001 177.25 L 638.1 212.7 A 35.45 35.45 0 0 0 673.5500000000001 177.25"/><rect width="35.45" height="35.45" x="673.55" y="177.25" fill="#366f95"/><path fill="#166799" d="M 673.55 212.7 A 35.45 35.45 0 0 1 709 177.25 L 709 212.7"/><rect width="70.9" height="70.9" x="709" y="141.8" fill="#156a9b"/><path fill="#24578c" d="M 709 212.70000000000002 A 70.9 70.9 0 0 1 779.9 141.8 L 709 212.70000000000002 A 70.9 70.9 0 0 0 779.9 141.8"/><rect width="70.9" height="70.9" x="779.9" y="141.8" fill="#1D4E89"/><rect width="35.45" height="35.45" x="779.9" y="141.8" fill="#0897b9"/><path fill="#5fa6a8" d="M 779.9 177.25 A 35.45 35.45 0 0 0 815.35 141.8 L 779.9 141.8"/><rect width="35.45" height="35.45" x="815.35" y="141.8" fill="#5ca3a7"/><path fill="#1c508a" d="M 815.35 177.25 A 35.45 35.45 0 0 0 850.8000000000001 141.8 L 815.35 141.8"/><rect width="35.45" height="35.45" x="779.9" y="177.25" fill="#49899e"/><path fill="#176497" d="M 779.9 177.25 A 35.45 35.45 0 0 0 815.35 212.7 L 815.35 177.25"/><rect width="35.45" height="35.45" x="815.35" y="177.25" fill="#45849c"/><path fill="#7bcdb5" d="M 815.35 177.25 A 35.45 35.45 0 0 1 850.8000000000001 212.7 L 815.35 212.7"/><rect width="70.9" height="70.9" x="850.8" y="141.8" fill="#5ca3a7"/><path fill="#366f95" d="M 850.8 212.70000000000002 A 70.9 70.9 0 0 0 921.6999999999999 141.8 L 850.8 141.8"/><rect width="70.9" height="70.9" x="921.7" y="141.8" fill="#5ea6a8"/><path fill="#47879d" d="M 921.7 141.8 A 70.9 70.9 0 0 1 992.6 212.70000000000002 L 921.7 212.70000000000002"/><rect width="70.9" height="70.9" x="992.6" y="141.8" fill="#1D4E89"/><rect width="35.45" height="35.45" x="992.6" y="141.8" fill="#05a2bf"/><path fill="#069cbc" d="M 992.6 141.8 A 35.45 35.45 0 0 1 1028.05 177.25 L 992.6 141.8 A 35.45 35.45 0 0 0 1028.05 177.25"/><rect width="35.45" height="35.45" x="1028.05" y="141.8" fill="#589da4"/><path fill="#0c8ab0" d="M 1028.05 141.8 A 35.45 35.45 0 0 1 1063.5 177.25 L 1028.05 141.8 A 35.45 35.45 0 0 0 1063.5 177.25"/><rect width="35.45" height="35.45" x="992.6" y="177.25" fill="#0e82ab"/><path fill="#069ebd" d="M 992.6 212.7 A 35.45 35.45 0 0 1 1028.05 177.25 L 1028.05 212.7"/><rect width="35.45" height="35.45" x="1028.05" y="177.25" fill="#02abc5"/><path fill="#1d4e89" d="M 1028.05 212.7 A 35.45 35.45 0 0 1 1063.5 177.25 L 1063.5 212.7"/><rect width="70.9" height="70.9" x="1063.5" y="141.8" fill="#1D4E89"/><rect width="35.45" height="35.45" x="1063.5" y="141.8" fill="#2a5f8f"/><path fill="#107aa6" d="M 1063.5 177.25 A 35.45 35.45 0 0 0 1098.95 141.8 L 1063.5 141.8"/><rect width="35.45" height="35.45" x="1098.95" y="141.8" fill="#49899e"/><path fill="#6cb8ae" d="M 1098.95 177.25 A 35.45 35.45 0 0 0 1134.4 141.8 L 1098.95 141.8"/><rect width="35.45" height="35.45" x="1063.5" y="177.25" fill="#4b8b9e"/><path fill="#316892" d="M 1063.5 212.7 A 35.45 35.45 0 0 1 1098.95 177.25 L 1063.5 212.7 A 35.45 35.45 0 0 0 1098.95 177.25"/><rect width="35.45" height="35.45" x="1098.95" y="177.25" fill="#599fa5"/><path fill="#0b8cb1" d="M 1098.95 177.25 A 35.45 35.45 0 0 0 1134.4 212.7 L 1134.4 177.25"/><rect width="70.9" height="70.9" x="0" y="212.7" fill="#02abc5"/><path fill="#5ba1a6" d="M 0 212.7 A 70.9 70.9 0 0 0 70.9 283.6 L 70.9 212.7"/><rect width="70.9" height="70.9" x="70.9" y="212.7" fill="#1D4E89"/><rect width="35.45" height="35.45" x="70.9" y="212.7" fill="#73c2b1"/><path fill="#107aa6" d="M 70.9 248.14999999999998 A 35.45 35.45 0 0 0 106.35000000000001 212.7 L 70.9 212.7"/><rect width="35.45" height="35.45" x="106.35" y="212.7" fill="#397396"/><path fill="#0897b9" d="M 106.35 248.14999999999998 A 35.45 35.45 0 0 1 141.8 212.7 L 141.8 248.14999999999998"/><rect width="35.45" height="35.45" x="70.9" y="248.15" fill="#185f94"/><path fill="#4b8c9f" d="M 70.9 248.15 A 35.45 35.45 0 0 1 106.35000000000001 283.6 L 70.9 283.6"/><rect width="35.45" height="35.45" x="106.35" y="248.15" fill="#3a7496"/><path fill="#356f94" d="M 106.35 283.6 A 35.45 35.45 0 0 0 141.8 248.15 L 106.35 248.15"/><rect width="70.9" height="70.9" x="141.8" y="212.7" fill="#1D4E89"/><rect width="35.45" height="35.45" x="141.8" y="212.7" fill="#61a9a9"/><path fill="#079aba" d="M 141.8 212.7 A 35.45 35.45 0 0 1 177.25 248.14999999999998 L 141.8 212.7 A 35.45 35.45 0 0 0 177.25 248.14999999999998"/><rect width="35.45" height="35.45" x="177.25" y="212.7" fill="#417f9a"/><path fill="#5092a1" d="M 177.25 212.7 A 35.45 35.45 0 0 1 212.7 248.14999999999998 L 177.25 248.14999999999998"/><rect width="35.45" height="35.45" x="141.8" y="248.15" fill="#0a8fb3"/><path fill="#1c528b" d="M 141.8 248.15 A 35.45 35.45 0 0 1 177.25 283.6 L 141.8 248.15 A 35.45 35.45 0 0 0 177.25 283.6"/><rect width="35.45" height="35.45" x="177.25" y="248.15" fill="#316892"/><path fill="#7acbb5" d="M 177.25 283.6 A 35.45 35.45 0 0 1 212.7 248.15 L 212.7 283.6"/><rect width="70.9" height="70.9" x="212.7" y="212.7" fill="#1D4E89"/><rect width="35.45" height="35.45" x="212.7" y="212.7" fill="#5ba2a6"/><path fill="#78c8b3" d="M 212.7 248.14999999999998 A 35.45 35.45 0 0 0 248.14999999999998 212.7 L 212.7 212.7"/><rect width="35.45" height="35.45" x="248.15" y="212.7" fill="#069dbd"/><path fill="#1178a4" d="M 248.15 212.7 A 35.45 35.45 0 0 1 283.6 248.14999999999998 L 248.15 248.14999999999998"/><rect width="35.45" height="35.45" x="212.7" y="248.15" fill="#136f9f"/><path fill="#3b7697" d="M 212.7 283.6 A 35.45 35.45 0 0 1 248.14999999999998 248.15 L 248.14999999999998 283.6"/><rect width="35.45" height="35.45" x="248.15" y="248.15" fill="#60a8a8"/><path fill="#185f94" d="M 248.15 248.15 A 35.45 35.45 0 0 1 283.6 283.6 L 248.15 283.6"/><rect width="70.9" height="70.9" x="283.6" y="212.7" fill="#21548b"/><path fill="#4b8b9e" d="M 283.6 212.7 A 70.9 70.9 0 0 1 354.5 283.6 L 283.6 283.6"/><rect width="70.9" height="70.9" x="354.5" y="212.7" fill="#1176a3"/><path fill="#1a5a91" d="M 354.5 283.6 A 70.9 70.9 0 0 1 425.4 212.7 L 354.5 283.6 A 70.9 70.9 0 0 0 425.4 212.7"/><rect width="70.9" height="70.9" x="425.4" y="212.7" fill="#195c92"/><path fill="#306892" d="M 425.4 212.7 A 70.9 70.9 0 0 1 496.29999999999995 283.6 L 425.4 212.7 A 70.9 70.9 0 0 0 496.29999999999995 283.6"/><rect width="70.9" height="70.9" x="496.3" y="212.7" fill="#1D4E89"/><rect width="35.45" height="35.45" x="496.3" y="212.7" fill="#1b558e"/><path fill="#0994b7" d="M 496.3 248.14999999999998 A 35.45 35.45 0 0 0 531.75 212.7 L 496.3 212.7"/><rect width="35.45" height="35.45" x="531.75" y="212.7" fill="#2b6190"/><path fill="#25598d" d="M 531.75 212.7 A 35.45 35.45 0 0 1 567.2 248.14999999999998 L 531.75 212.7 A 35.45 35.45 0 0 0 567.2 248.14999999999998"/><rect width="35.45" height="35.45" x="496.3" y="248.15" fill="#05a1bf"/><path fill="#6ab6ad" d="M 496.3 283.6 A 35.45 35.45 0 0 1 531.75 248.15 L 496.3 283.6 A 35.45 35.45 0 0 0 531.75 248.15"/><rect width="35.45" height="35.45" x="531.75" y="248.15" fill="#377195"/><path fill="#66b0ab" d="M 531.75 248.15 A 35.45 35.45 0 0 1 567.2 283.6 L 531.75 283.6"/><rect width="70.9" height="70.9" x="567.2" y="212.7" fill="#3b7797"/><path fill="#195b91" d="M 567.2 283.6 A 70.9 70.9 0 0 0 638.1 212.7 L 567.2 212.7"/><rect width="70.9" height="70.9" x="638.1" y="212.7" fill="#15699b"/><path fill="#079bbb" d="M 638.1 283.6 A 70.9 70.9 0 0 1 709 212.7 L 709 283.6"/><rect width="70.9" height="70.9" x="709" y="212.7" fill="#0c8ab0"/><path fill="#1b558e" d="M 709 283.6 A 70.9 70.9 0 0 1 779.9 212.7 L 779.9 283.6"/><rect width="70.9" height="70.9" x="779.9" y="212.7" fill="#71bfb0"/><path fill="#03a6c2" d="M 779.9 283.6 A 70.9 70.9 0 0 1 850.8 212.7 L 850.8 283.6"/><rect width="70.9" height="70.9" x="850.8" y="212.7" fill="#069dbc"/><path fill="#146c9d" d="M 850.8 212.7 A 70.9 70.9 0 0 1 921.6999999999999 283.6 L 850.8 283.6"/><rect width="70.9" height="70.9" x="921.7" y="212.7" fill="#1D4E89"/><rect width="35.45" height="35.45" x="921.7" y="212.7" fill="#176196"/><path fill="#77c7b3" d="M 921.7 212.7 A 35.45 35.45 0 0 0 957.1500000000001 248.14999999999998 L 957.1500000000001 212.7"/><rect width="35.45" height="35.45" x="957.15" y="212.7" fill="#7cceb6"/><path fill="#01afc8" d="M 957.15 212.7 A 35.45 35.45 0 0 1 992.6 248.14999999999998 L 957.15 212.7 A 35.45 35.45 0 0 0 992.6 248.14999999999998"/><rect width="35.45" height="35.45" x="921.7" y="248.15" fill="#069ebd"/><path fill="#0d85ad" d="M 921.7 283.6 A 35.45 35.45 0 0 0 957.1500000000001 248.15 L 921.7 248.15"/><rect width="35.45" height="35.45" x="957.15" y="248.15" fill="#62aaa9"/><path fill="#05a2bf" d="M 957.15 248.15 A 35.45 35.45 0 0 0 992.6 283.6 L 992.6 248.15"/><rect width="70.9" height="70.9" x="992.6" y="212.7" fill="#306892"/><path fill="#0b8bb1" d="M 992.6 212.7 A 70.9 70.9 0 0 1 1063.5 283.6 L 992.6 283.6"/><rect width="70.9" height="70.9" x="1063.5" y="212.7" fill="#1D4E89"/><rect width="35.45" height="35.45" x="1063.5" y="212.7" fill="#417f9a"/><path fill="#2a608f" d="M 1063.5 248.14999999999998 A 35.45 35.45 0 0 1 1098.95 212.7 L 1098.95 248.14999999999998"/><rect width="35.45" height="35.45" x="1098.95" y="212.7" fill="#0b8bb1"/><path fill="#186095" d="M 1098.95 248.14999999999998 A 35.45 35.45 0 0 1 1134.4 212.7 L 1134.4 248.14999999999998"/><rect width="35.45" height="35.45" x="1063.5" y="248.15" fill="#377195"/><path fill="#63acaa" d="M 1063.5 283.6 A 35.45 35.45 0 0 1 1098.95 248.15 L 1063.5 283.6 A 35.45 35.45 0 0 0 1098.95 248.15"/><rect width="35.45" height="35.45" x="1098.95" y="248.15" fill="#1e508a"/><path fill="#76c5b3" d="M 1098.95 248.15 A 35.45 35.45 0 0 1 1134.4 283.6 L 1098.95 248.15 A 35.45 35.45 0 0 0 1134.4 283.6"/><rect width="70.9" height="70.9" x="0" y="283.6" fill="#6ebbaf"/><path fill="#00b2ca" d="M 0 283.6 A 70.9 70.9 0 0 1 70.9 354.5 L 0 354.5"/><rect width="70.9" height="70.9" x="70.9" y="283.6" fill="#1D4E89"/><rect width="35.45" height="35.45" x="70.9" y="283.6" fill="#1c538c"/><path fill="#275b8e" d="M 70.9 283.6 A 35.45 35.45 0 0 0 106.35000000000001 319.05 L 106.35000000000001 283.6"/><rect width="35.45" height="35.45" x="106.35" y="283.6" fill="#25598d"/><path fill="#0f7ea8" d="M 106.35 283.6 A 35.45 35.45 0 0 0 141.8 319.05 L 141.8 283.6"/><rect width="35.45" height="35.45" x="70.9" y="319.05" fill="#589da5"/><path fill="#0f7fa9" d="M 70.9 354.5 A 35.45 35.45 0 0 1 106.35000000000001 319.05 L 106.35000000000001 354.5"/><rect width="35.45" height="35.45" x="106.35" y="319.05" fill="#63acaa"/><path fill="#22558b" d="M 106.35 354.5 A 35.45 35.45 0 0 0 141.8 319.05 L 106.35 319.05"/><rect width="70.9" height="70.9" x="141.8" y="283.6" fill="#78c8b4"/><path fill="#02aac5" d="M 141.8 354.5 A 70.9 70.9 0 0 1 212.70000000000002 283.6 L 212.70000000000002 354.5"/><rect width="70.9" height="70.9" x="212.7" y="283.6" fill="#1D4E89"/><rect width="35.45" height="35.45" x="212.7" y="283.6" fill="#69b4ac"/><path fill="#68b3ac" d="M 212.7 319.05 A 35.45 35.45 0 0 1 248.14999999999998 283.6 L 248.14999999999998 319.05"/><rect width="35.45" height="35.45" x="248.15" y="283.6" fill="#05a0bf"/><path fill="#5ea5a7" d="M 248.15 283.6 A 35.45 35.45 0 0 1 283.6 319.05 L 248.15 283.6 A 35.45 35.45 0 0 0 283.6 319.05"/><rect width="35.45" height="35.45" x="212.7" y="319.05" fill="#13709f"/><path fill="#62abaa" d="M 212.7 319.05 A 35.45 35.45 0 0 0 248.14999999999998 354.5 L 248.14999999999998 319.05"/><rect width="35.45" height="35.45" x="248.15" y="319.05" fill="#186195"/><path fill="#7bccb5" d="M 248.15 354.5 A 35.45 35.45 0 0 1 283.6 319.05 L 283.6 354.5"/><rect width="70.9" height="70.9" x="283.6" y="283.6" fill="#1D4E89"/><rect width="35.45" height="35.45" x="283.6" y="283.6" fill="#186095"/><path fill="#5ca3a7" d="M 283.6 319.05 A 35.45 35.45 0 0 1 319.05 283.6 L 283.6 319.05 A 35.45 35.45 0 0 0 319.05 283.6"/><rect width="35.45" height="35.45" x="319.05" y="283.6" fill="#03a7c3"/><path fill="#0c89af" d="M 319.05 283.6 A 35.45 35.45 0 0 0 354.5 319.05 L 354.5 283.6"/><rect width="35.45" height="35.45" x="283.6" y="319.05" fill="#5194a1"/><path fill="#5498a3" d="M 283.6 354.5 A 35.45 35.45 0 0 1 319.05 319.05 L 319.05 354.5"/><rect width="35.45" height="35.45" x="319.05" y="319.05" fill="#75c5b2"/><path fill="#61a9a9" d="M 319.05 319.05 A 35.45 35.45 0 0 1 354.5 354.5 L 319.05 319.05 A 35.45 35.45 0 0 0 354.5 354.5"/><rect width="70.9" height="70.9" x="354.5" y="283.6" fill="#1D4E89"/><rect width="35.45" height="35.45" x="354.5" y="283.6" fill="#0993b6"/><path fill="#0d84ac" d="M 354.5 319.05 A 35.45 35.45 0 0 1 389.95 283.6 L 389.95 319.05"/><rect width="35.45" height="35.45" x="389.95" y="283.6" fill="#4b8c9f"/><path fill="#5396a2" d="M 389.95 283.6 A 35.45 35.45 0 0 0 425.4 319.05 L 425.4 283.6"/><rect width="35.45" height="35.45" x="354.5" y="319.05" fill="#1273a1"/><path fill="#61aaa9" d="M 354.5 319.05 A 35.45 35.45 0 0 0 389.95 354.5 L 389.95 319.05"/><rect width="35.45" height="35.45" x="389.95" y="319.05" fill="#2c6290"/><path fill="#01b0c8" d="M 389.95 354.5 A 35.45 35.45 0 0 1 425.4 319.05 L 425.4 354.5"/><rect width="70.9" height="70.9" x="425.4" y="283.6" fill="#377195"/><path fill="#0992b5" d="M 425.4 283.6 A 70.9 70.9 0 0 0 496.29999999999995 354.5 L 496.29999999999995 283.6"/><rect width="70.9" height="70.9" x="496.3" y="283.6" fill="#4b8c9f"/><path fill="#65aeab" d="M 496.3 283.6 A 70.9 70.9 0 0 1 567.2 354.5 L 496.3 283.6 A 70.9 70.9 0 0 0 567.2 354.5"/><rect width="70.9" height="70.9" x="567.2" y="283.6" fill="#49899e"/><path fill="#61a9a9" d="M 567.2 354.5 A 70.9 70.9 0 0 1 638.1 283.6 L 567.2 354.5 A 70.9 70.9 0 0 0 638.1 283.6"/><rect width="70.9" height="70.9" x="638.1" y="283.6" fill="#107aa6"/><path fill="#285d8e" d="M 638.1 283.6 A 70.9 70.9 0 0 1 709 354.5 L 638.1 283.6 A 70.9 70.9 0 0 0 709 354.5"/><rect width="70.9" height="70.9" x="709" y="283.6" fill="#1D4E89"/><rect width="35.45" height="35.45" x="709" y="283.6" fill="#1d4f8a"/><path fill="#00b1c9" d="M 709 319.05 A 35.45 35.45 0 0 1 744.45 283.6 L 709 319.05 A 35.45 35.45 0 0 0 744.45 283.6"/><rect width="35.45" height="35.45" x="744.45" y="283.6" fill="#5092a1"/><path fill="#42809b" d="M 744.45 319.05 A 35.45 35.45 0 0 1 779.9000000000001 283.6 L 744.45 319.05 A 35.45 35.45 0 0 0 779.9000000000001 283.6"/><rect width="35.45" height="35.45" x="709" y="319.05" fill="#0a91b5"/><path fill="#079bbb" d="M 709 319.05 A 35.45 35.45 0 0 1 744.45 354.5 L 709 319.05 A 35.45 35.45 0 0 0 744.45 354.5"/><rect width="35.45" height="35.45" x="744.45" y="319.05" fill="#316993"/><path fill="#24588c" d="M 744.45 319.05 A 35.45 35.45 0 0 1 779.9000000000001 354.5 L 744.45 354.5"/><rect width="70.9" height="70.9" x="779.9" y="283.6" fill="#76c6b3"/><path fill="#079aba" d="M 779.9 283.6 A 70.9 70.9 0 0 1 850.8 354.5 L 779.9 354.5"/><rect width="70.9" height="70.9" x="850.8" y="283.6" fill="#166799"/><path fill="#6fbcaf" d="M 850.8 354.5 A 70.9 70.9 0 0 0 921.6999999999999 283.6 L 850.8 283.6"/><rect width="70.9" height="70.9" x="921.7" y="283.6" fill="#599fa5"/><path fill="#04a6c2" d="M 921.7 283.6 A 70.9 70.9 0 0 0 992.6 354.5 L 992.6 283.6"/><rect width="70.9" height="70.9" x="992.6" y="283.6" fill="#195a91"/><path fill="#02abc5" d="M 992.6 354.5 A 70.9 70.9 0 0 1 1063.5 283.6 L 1063.5 354.5"/><rect width="70.9" height="70.9" x="1063.5" y="283.6" fill="#1275a3"/><path fill="#1a5a91" d="M 1063.5 354.5 A 70.9 70.9 0 0 0 1134.4 283.6 L 1063.5 283.6"/><rect width="70.9" height="70.9" x="0" y="354.5" fill="#1D4E89"/><rect width="35.45" height="35.45" x="0" y="354.5" fill="#24578c"/><path fill="#65afab" d="M 0 354.5 A 35.45 35.45 0 0 0 35.45 389.95 L 35.45 354.5"/><rect width="35.45" height="35.45" x="35.45" y="354.5" fill="#3b7697"/><path fill="#16679a" d="M 35.45 389.95 A 35.45 35.45 0 0 1 70.9 354.5 L 35.45 389.95 A 35.45 35.45 0 0 0 70.9 354.5"/><rect width="35.45" height="35.45" x="0" y="389.95" fill="#146c9d"/><path fill="#176196" d="M 0 389.95 A 35.45 35.45 0 0 1 35.45 425.4 L 0 425.4"/><rect width="35.45" height="35.45" x="35.45" y="389.95" fill="#0a91b4"/><path fill="#4a8b9e" d="M 35.45 389.95 A 35.45 35.45 0 0 0 70.9 425.4 L 70.9 389.95"/><rect width="70.9" height="70.9" x="70.9" y="354.5" fill="#1D4E89"/><rect width="35.45" height="35.45" x="70.9" y="354.5" fill="#0a8fb3"/><path fill="#0993b6" d="M 70.9 389.95 A 35.45 35.45 0 0 1 106.35000000000001 354.5 L 70.9 389.95 A 35.45 35.45 0 0 0 106.35000000000001 354.5"/><rect width="35.45" height="35.45" x="106.35" y="354.5" fill="#7cceb6"/><path fill="#176497" d="M 106.35 389.95 A 35.45 35.45 0 0 1 141.8 354.5 L 141.8 389.95"/><rect width="35.45" height="35.45" x="70.9" y="389.95" fill="#6cb8ae"/><path fill="#1c508a" d="M 70.9 425.4 A 35.45 35.45 0 0 1 106.35000000000001 389.95 L 70.9 425.4 A 35.45 35.45 0 0 0 106.35000000000001 389.95"/><rect width="35.45" height="35.45" x="106.35" y="389.95" fill="#6fbcaf"/><path fill="#326a93" d="M 106.35 425.4 A 35.45 35.45 0 0 1 141.8 389.95 L 106.35 425.4 A 35.45 35.45 0 0 0 141.8 389.95"/><rect width="70.9" height="70.9" x="141.8" y="354.5" fill="#75c4b2"/><path fill="#3a7597" d="M 141.8 425.4 A 70.9 70.9 0 0 1 212.70000000000002 354.5 L 141.8 425.4 A 70.9 70.9 0 0 0 212.70000000000002 354.5"/><rect width="70.9" height="70.9" x="212.7" y="354.5" fill="#275b8e"/><path fill="#1c528b" d="M 212.7 425.4 A 70.9 70.9 0 0 1 283.6 354.5 L 212.7 425.4 A 70.9 70.9 0 0 0 283.6 354.5"/><rect width="70.9" height="70.9" x="283.6" y="354.5" fill="#0e82ab"/><path fill="#0f80a9" d="M 283.6 425.4 A 70.9 70.9 0 0 0 354.5 354.5 L 283.6 354.5"/><rect width="70.9" height="70.9" x="354.5" y="354.5" fill="#1D4E89"/><rect width="35.45" height="35.45" x="354.5" y="354.5" fill="#05a1bf"/><path fill="#5ca3a7" d="M 354.5 389.95 A 35.45 35.45 0 0 1 389.95 354.5 L 354.5 389.95 A 35.45 35.45 0 0 0 389.95 354.5"/><rect width="35.45" height="35.45" x="389.95" y="354.5" fill="#7bccb5"/><path fill="#5092a1" d="M 389.95 354.5 A 35.45 35.45 0 0 1 425.4 389.95 L 389.95 389.95"/><rect width="35.45" height="35.45" x="354.5" y="389.95" fill="#5ca2a6"/><path fill="#3e7a98" d="M 354.5 425.4 A 35.45 35.45 0 0 0 389.95 389.95 L 354.5 389.95"/><rect width="35.45" height="35.45" x="389.95" y="389.95" fill="#079aba"/><path fill="#61a9a9" d="M 389.95 389.95 A 35.45 35.45 0 0 1 425.4 425.4 L 389.95 389.95 A 35.45 35.45 0 0 0 425.4 425.4"/><rect width="70.9" height="70.9" x="425.4" y="354.5" fill="#356e94"/><path fill="#5aa0a6" d="M 425.4 354.5 A 70.9 70.9 0 0 0 496.29999999999995 425.4 L 496.29999999999995 354.5"/><rect width="70.9" height="70.9" x="496.3" y="354.5" fill="#176296"/><path fill="#387296" d="M 496.3 354.5 A 70.9 70.9 0 0 1 567.2 425.4 L 496.3 425.4"/><rect width="70.9" height="70.9" x="567.2" y="354.5" fill="#1D4E89"/><rect width="35.45" height="35.45" x="567.2" y="354.5" fill="#64adaa"/><path fill="#176296" d="M 567.2 389.95 A 35.45 35.45 0 0 1 602.6500000000001 354.5 L 602.6500000000001 389.95"/><rect width="35.45" height="35.45" x="602.65" y="354.5" fill="#61aaa9"/><path fill="#0897b8" d="M 602.65 354.5 A 35.45 35.45 0 0 1 638.1 389.95 L 602.65 389.95"/><rect width="35.45" height="35.45" x="567.2" y="389.95" fill="#01afc8"/><path fill="#4b8b9e" d="M 567.2 425.4 A 35.45 35.45 0 0 1 602.6500000000001 389.95 L 602.6500000000001 425.4"/><rect width="35.45" height="35.45" x="602.65" y="389.95" fill="#5396a2"/><path fill="#186094" d="M 602.65 425.4 A 35.45 35.45 0 0 1 638.1 389.95 L 602.65 425.4 A 35.45 35.45 0 0 0 638.1 389.95"/><rect width="70.9" height="70.9" x="638.1" y="354.5" fill="#1D4E89"/><rect width="35.45" height="35.45" x="638.1" y="354.5" fill="#0c89af"/><path fill="#03a9c4" d="M 638.1 354.5 A 35.45 35.45 0 0 1 673.5500000000001 389.95 L 638.1 389.95"/><rect width="35.45" height="35.45" x="673.55" y="354.5" fill="#1d4f8a"/><path fill="#397496" d="M 673.55 354.5 A 35.45 35.45 0 0 1 709 389.95 L 673.55 354.5 A 35.45 35.45 0 0 0 709 389.95"/><rect width="35.45" height="35.45" x="638.1" y="389.95" fill="#03a8c4"/><path fill="#5093a1" d="M 638.1 389.95 A 35.45 35.45 0 0 0 673.5500000000001 425.4 L 673.5500000000001 389.95"/><rect width="35.45" height="35.45" x="673.55" y="389.95" fill="#336b93"/><path fill="#579ba4" d="M 673.55 389.95 A 35.45 35.45 0 0 1 709 425.4 L 673.55 389.95 A 35.45 35.45 0 0 0 709 425.4"/><rect width="70.9" height="70.9" x="709" y="354.5" fill="#1D4E89"/><rect width="35.45" height="35.45" x="709" y="354.5" fill="#1274a2"/><path fill="#166699" d="M 709 389.95 A 35.45 35.45 0 0 1 744.45 354.5 L 709 389.95 A 35.45 35.45 0 0 0 744.45 354.5"/><rect width="35.45" height="35.45" x="744.45" y="354.5" fill="#21548b"/><path fill="#4f91a0" d="M 744.45 389.95 A 35.45 35.45 0 0 1 779.9000000000001 354.5 L 779.9000000000001 389.95"/><rect width="35.45" height="35.45" x="709" y="389.95" fill="#03a7c3"/><path fill="#346d94" d="M 709 425.4 A 35.45 35.45 0 0 1 744.45 389.95 L 744.45 425.4"/><rect width="35.45" height="35.45" x="744.45" y="389.95" fill="#6ab6ad"/><path fill="#1274a2" d="M 744.45 389.95 A 35.45 35.45 0 0 1 779.9000000000001 425.4 L 744.45 389.95 A 35.45 35.45 0 0 0 779.9000000000001 425.4"/><rect width="70.9" height="70.9" x="779.9" y="354.5" fill="#1D4E89"/><rect width="35.45" height="35.45" x="779.9" y="354.5" fill="#0c88af"/><path fill="#0d87ae" d="M 779.9 389.95 A 35.45 35.45 0 0 1 815.35 354.5 L 779.9 389.95 A 35.45 35.45 0 0 0 815.35 354.5"/><rect width="35.45" height="35.45" x="815.35" y="354.5" fill="#6ab6ad"/><path fill="#71bfb0" d="M 815.35 389.95 A 35.45 35.45 0 0 0 850.8000000000001 354.5 L 815.35 354.5"/><rect width="35.45" height="35.45" x="779.9" y="389.95" fill="#1b568e"/><path fill="#0e83ab" d="M 779.9 389.95 A 35.45 35.45 0 0 1 815.35 425.4 L 779.9 389.95 A 35.45 35.45 0 0 0 815.35 425.4"/><rect width="35.45" height="35.45" x="815.35" y="389.95" fill="#70bdb0"/><path fill="#579ca4" d="M 815.35 425.4 A 35.45 35.45 0 0 0 850.8000000000001 389.95 L 815.35 389.95"/><rect width="70.9" height="70.9" x="850.8" y="354.5" fill="#1D4E89"/><rect width="35.45" height="35.45" x="850.8" y="354.5" fill="#3d7998"/><path fill="#1274a1" d="M 850.8 354.5 A 35.45 35.45 0 0 1 886.25 389.95 L 850.8 389.95"/><rect width="35.45" height="35.45" x="886.25" y="354.5" fill="#295e8f"/><path fill="#0b8db2" d="M 886.25 389.95 A 35.45 35.45 0 0 0 921.7 354.5 L 886.25 354.5"/><rect width="35.45" height="35.45" x="850.8" y="389.95" fill="#285d8e"/><path fill="#1371a0" d="M 850.8 425.4 A 35.45 35.45 0 0 0 886.25 389.95 L 850.8 389.95"/><rect width="35.45" height="35.45" x="886.25" y="389.95" fill="#306792"/><path fill="#1275a2" d="M 886.25 425.4 A 35.45 35.45 0 0 0 921.7 389.95 L 886.25 389.95"/><rect width="70.9" height="70.9" x="921.7" y="354.5" fill="#1D4E89"/><rect width="35.45" height="35.45" x="921.7" y="354.5" fill="#04a5c1"/><path fill="#0a8eb3" d="M 921.7 389.95 A 35.45 35.45 0 0 1 957.1500000000001 354.5 L 957.1500000000001 389.95"/><rect width="35.45" height="35.45" x="957.15" y="354.5" fill="#03a9c4"/><path fill="#63acaa" d="M 957.15 354.5 A 35.45 35.45 0 0 0 992.6 389.95 L 992.6 354.5"/><rect width="35.45" height="35.45" x="921.7" y="389.95" fill="#0e81aa"/><path fill="#316992" d="M 921.7 425.4 A 35.45 35.45 0 0 1 957.1500000000001 389.95 L 921.7 425.4 A 35.45 35.45 0 0 0 957.1500000000001 389.95"/><rect width="35.45" height="35.45" x="957.15" y="389.95" fill="#7bcdb5"/><path fill="#60a8a8" d="M 957.15 389.95 A 35.45 35.45 0 0 1 992.6 425.4 L 957.15 425.4"/><rect width="70.9" height="70.9" x="992.6" y="354.5" fill="#1079a5"/><path fill="#2c6290" d="M 992.6 425.4 A 70.9 70.9 0 0 1 1063.5 354.5 L 992.6 425.4 A 70.9 70.9 0 0 0 1063.5 354.5"/><rect width="70.9" height="70.9" x="1063.5" y="354.5" fill="#1D4E89"/><rect width="35.45" height="35.45" x="1063.5" y="354.5" fill="#01afc8"/><path fill="#47879d" d="M 1063.5 389.95 A 35.45 35.45 0 0 0 1098.95 354.5 L 1063.5 354.5"/><rect width="35.45" height="35.45" x="1098.95" y="354.5" fill="#05a0bf"/><path fill="#1177a4" d="M 1098.95 354.5 A 35.45 35.45 0 0 1 1134.4 389.95 L 1098.95 389.95"/><rect width="35.45" height="35.45" x="1063.5" y="389.95" fill="#0896b8"/><path fill="#6bb7ae" d="M 1063.5 389.95 A 35.45 35.45 0 0 1 1098.95 425.4 L 1063.5 425.4"/><rect width="35.45" height="35.45" x="1098.95" y="389.95" fill="#2b608f"/><path fill="#44829b" d="M 1098.95 389.95 A 35.45 35.45 0 0 1 1134.4 425.4 L 1098.95 389.95 A 35.45 35.45 0 0 0 1134.4 425.4"/><rect width="70.9" height="70.9" x="0" y="425.4" fill="#1D4E89"/><rect width="35.45" height="35.45" x="0" y="425.4" fill="#46859c"/><path fill="#176396" d="M 0 460.84999999999997 A 35.45 35.45 0 0 1 35.45 425.4 L 0 460.84999999999997 A 35.45 35.45 0 0 0 35.45 425.4"/><rect width="35.45" height="35.45" x="35.45" y="425.4" fill="#69b5ad"/><path fill="#2d6491" d="M 35.45 460.84999999999997 A 35.45 35.45 0 0 0 70.9 425.4 L 35.45 425.4"/><rect width="35.45" height="35.45" x="0" y="460.85" fill="#5aa0a5"/><path fill="#0e81aa" d="M 0 496.3 A 35.45 35.45 0 0 1 35.45 460.85 L 0 496.3 A 35.45 35.45 0 0 0 35.45 460.85"/><rect width="35.45" height="35.45" x="35.45" y="460.85" fill="#0f7fa9"/><path fill="#70bdb0" d="M 35.45 460.85 A 35.45 35.45 0 0 1 70.9 496.3 L 35.45 496.3"/><rect width="70.9" height="70.9" x="70.9" y="425.4" fill="#1D4E89"/><rect width="35.45" height="35.45" x="70.9" y="425.4" fill="#1178a4"/><path fill="#15689a" d="M 70.9 425.4 A 35.45 35.45 0 0 0 106.35000000000001 460.84999999999997 L 106.35000000000001 425.4"/><rect width="35.45" height="35.45" x="106.35" y="425.4" fill="#69b4ad"/><path fill="#156a9b" d="M 106.35 425.4 A 35.45 35.45 0 0 1 141.8 460.84999999999997 L 106.35 460.84999999999997"/><rect width="35.45" height="35.45" x="70.9" y="460.85" fill="#069fbd"/><path fill="#2d6491" d="M 70.9 496.3 A 35.45 35.45 0 0 0 106.35000000000001 460.85 L 70.9 460.85"/><rect width="35.45" height="35.45" x="106.35" y="460.85" fill="#0895b7"/><path fill="#146e9e" d="M 106.35 460.85 A 35.45 35.45 0 0 0 141.8 496.3 L 141.8 460.85"/><rect width="70.9" height="70.9" x="141.8" y="425.4" fill="#68b2ac"/><path fill="#1e4f89" d="M 141.8 496.29999999999995 A 70.9 70.9 0 0 0 212.70000000000002 425.4 L 141.8 425.4"/><rect width="70.9" height="70.9" x="212.7" y="425.4" fill="#1D4E89"/><rect width="35.45" height="35.45" x="212.7" y="425.4" fill="#079aba"/><path fill="#1273a1" d="M 212.7 425.4 A 35.45 35.45 0 0 0 248.14999999999998 460.84999999999997 L 248.14999999999998 425.4"/><rect width="35.45" height="35.45" x="248.15" y="425.4" fill="#377295"/><path fill="#61a9a9" d="M 248.15 425.4 A 35.45 35.45 0 0 1 283.6 460.84999999999997 L 248.15 425.4 A 35.45 35.45 0 0 0 283.6 460.84999999999997"/><rect width="35.45" height="35.45" x="212.7" y="460.85" fill="#64adaa"/><path fill="#1272a1" d="M 212.7 460.85 A 35.45 35.45 0 0 1 248.14999999999998 496.3 L 212.7 460.85 A 35.45 35.45 0 0 0 248.14999999999998 496.3"/><rect width="35.45" height="35.45" x="248.15" y="460.85" fill="#7cceb6"/><path fill="#579ba4" d="M 248.15 496.3 A 35.45 35.45 0 0 1 283.6 460.85 L 248.15 496.3 A 35.45 35.45 0 0 0 283.6 460.85"/><rect width="70.9" height="70.9" x="283.6" y="425.4" fill="#1D4E89"/><rect width="35.45" height="35.45" x="283.6" y="425.4" fill="#0f7fa9"/><path fill="#5da4a7" d="M 283.6 425.4 A 35.45 35.45 0 0 1 319.05 460.84999999999997 L 283.6 425.4 A 35.45 35.45 0 0 0 319.05 460.84999999999997"/><rect width="35.45" height="35.45" x="319.05" y="425.4" fill="#166598"/><path fill="#74c3b2" d="M 319.05 460.84999999999997 A 35.45 35.45 0 0 0 354.5 425.4 L 319.05 425.4"/><rect width="35.45" height="35.45" x="283.6" y="460.85" fill="#1372a0"/><path fill="#01adc7" d="M 283.6 460.85 A 35.45 35.45 0 0 0 319.05 496.3 L 319.05 460.85"/><rect width="35.45" height="35.45" x="319.05" y="460.85" fill="#62abaa"/><path fill="#2a608f" d="M 319.05 496.3 A 35.45 35.45 0 0 1 354.5 460.85 L 319.05 496.3 A 35.45 35.45 0 0 0 354.5 460.85"/><rect width="70.9" height="70.9" x="354.5" y="425.4" fill="#1D4E89"/><rect width="35.45" height="35.45" x="354.5" y="425.4" fill="#13709f"/><path fill="#48889d" d="M 354.5 425.4 A 35.45 35.45 0 0 1 389.95 460.84999999999997 L 354.5 460.84999999999997"/><rect width="35.45" height="35.45" x="389.95" y="425.4" fill="#0994b7"/><path fill="#176296" d="M 389.95 425.4 A 35.45 35.45 0 0 1 425.4 460.84999999999997 L 389.95 425.4 A 35.45 35.45 0 0 0 425.4 460.84999999999997"/><rect width="35.45" height="35.45" x="354.5" y="460.85" fill="#0a8fb3"/><path fill="#0895b7" d="M 354.5 460.85 A 35.45 35.45 0 0 1 389.95 496.3 L 354.5 496.3"/><rect width="35.45" height="35.45" x="389.95" y="460.85" fill="#079bbb"/><path fill="#05a2c0" d="M 389.95 496.3 A 35.45 35.45 0 0 1 425.4 460.85 L 389.95 496.3 A 35.45 35.45 0 0 0 425.4 460.85"/><rect width="70.9" height="70.9" x="425.4" y="425.4" fill="#5ca3a7"/><path fill="#25598d" d="M 425.4 496.29999999999995 A 70.9 70.9 0 0 1 496.29999999999995 425.4 L 496.29999999999995 496.29999999999995"/><rect width="70.9" height="70.9" x="496.3" y="425.4" fill="#1D4E89"/><rect width="35.45" height="35.45" x="496.3" y="425.4" fill="#13709f"/><path fill="#1a578f" d="M 496.3 460.84999999999997 A 35.45 35.45 0 0 1 531.75 425.4 L 496.3 460.84999999999997 A 35.45 35.45 0 0 0 531.75 425.4"/><rect width="35.45" height="35.45" x="531.75" y="425.4" fill="#3d7998"/><path fill="#185f94" d="M 531.75 460.84999999999997 A 35.45 35.45 0 0 1 567.2 425.4 L 531.75 460.84999999999997 A 35.45 35.45 0 0 0 567.2 425.4"/><rect width="35.45" height="35.45" x="496.3" y="460.85" fill="#03a7c3"/><path fill="#7acbb5" d="M 496.3 460.85 A 35.45 35.45 0 0 1 531.75 496.3 L 496.3 496.3"/><rect width="35.45" height="35.45" x="531.75" y="460.85" fill="#146e9e"/><path fill="#0898b9" d="M 531.75 496.3 A 35.45 35.45 0 0 0 567.2 460.85 L 531.75 460.85"/><rect width="70.9" height="70.9" x="567.2" y="425.4" fill="#1273a1"/><path fill="#1a5990" d="M 567.2 425.4 A 70.9 70.9 0 0 1 638.1 496.29999999999995 L 567.2 425.4 A 70.9 70.9 0 0 0 638.1 496.29999999999995"/><rect width="70.9" height="70.9" x="638.1" y="425.4" fill="#1D4E89"/><rect width="35.45" height="35.45" x="638.1" y="425.4" fill="#6fbcaf"/><path fill="#01aec7" d="M 638.1 425.4 A 35.45 35.45 0 0 1 673.5500000000001 460.84999999999997 L 638.1 425.4 A 35.45 35.45 0 0 0 673.5500000000001 460.84999999999997"/><rect width="35.45" height="35.45" x="673.55" y="425.4" fill="#24578c"/><path fill="#5da4a7" d="M 673.55 425.4 A 35.45 35.45 0 0 0 709 460.84999999999997 L 709 425.4"/><rect width="35.45" height="35.45" x="638.1" y="460.85" fill="#387296"/><path fill="#107aa6" d="M 638.1 460.85 A 35.45 35.45 0 0 1 673.5500000000001 496.3 L 638.1 460.85 A 35.45 35.45 0 0 0 673.5500000000001 496.3"/><rect width="35.45" height="35.45" x="673.55" y="460.85" fill="#05a1bf"/><path fill="#5396a2" d="M 673.55 460.85 A 35.45 35.45 0 0 1 709 496.3 L 673.55 460.85 A 35.45 35.45 0 0 0 709 496.3"/><rect width="70.9" height="70.9" x="709" y="425.4" fill="#1D4E89"/><rect width="35.45" height="35.45" x="709" y="425.4" fill="#0a8fb3"/><path fill="#5093a1" d="M 709 460.84999999999997 A 35.45 35.45 0 0 1 744.45 425.4 L 744.45 460.84999999999997"/><rect width="35.45" height="35.45" x="744.45" y="425.4" fill="#78c8b3"/><path fill="#176296" d="M 744.45 460.84999999999997 A 35.45 35.45 0 0 0 779.9000000000001 425.4 L 744.45 425.4"/><rect width="35.45" height="35.45" x="709" y="460.85" fill="#03a8c3"/><path fill="#306792" d="M 709 460.85 A 35.45 35.45 0 0 0 744.45 496.3 L 744.45 460.85"/><rect width="35.45" height="35.45" x="744.45" y="460.85" fill="#66b0ab"/><path fill="#1b578f" d="M 744.45 460.85 A 35.45 35.45 0 0 1 779.9000000000001 496.3 L 744.45 496.3"/><rect width="70.9" height="70.9" x="779.9" y="425.4" fill="#0d84ac"/><path fill="#377195" d="M 779.9 496.29999999999995 A 70.9 70.9 0 0 0 850.8 425.4 L 779.9 425.4"/><rect width="70.9" height="70.9" x="850.8" y="425.4" fill="#22548b"/><path fill="#1372a0" d="M 850.8 425.4 A 70.9 70.9 0 0 1 921.6999999999999 496.29999999999995 L 850.8 425.4 A 70.9 70.9 0 0 0 921.6999999999999 496.29999999999995"/><rect width="70.9" height="70.9" x="921.7" y="425.4" fill="#195c92"/><path fill="#166698" d="M 921.7 425.4 A 70.9 70.9 0 0 1 992.6 496.29999999999995 L 921.7 496.29999999999995"/><rect width="70.9" height="70.9" x="992.6" y="425.4" fill="#70bdb0"/><path fill="#146f9e" d="M 992.6 496.29999999999995 A 70.9 70.9 0 0 1 1063.5 425.4 L 1063.5 496.29999999999995"/><rect width="70.9" height="70.9" x="1063.5" y="425.4" fill="#1D4E89"/><rect width="35.45" height="35.45" x="1063.5" y="425.4" fill="#5aa0a5"/><path fill="#1d508a" d="M 1063.5 425.4 A 35.45 35.45 0 0 1 1098.95 460.84999999999997 L 1063.5 460.84999999999997"/><rect width="35.45" height="35.45" x="1098.95" y="425.4" fill="#0799ba"/><path fill="#69b4ad" d="M 1098.95 425.4 A 35.45 35.45 0 0 1 1134.4 460.84999999999997 L 1098.95 425.4 A 35.45 35.45 0 0 0 1134.4 460.84999999999997"/><rect width="35.45" height="35.45" x="1063.5" y="460.85" fill="#03a7c3"/><path fill="#5aa0a6" d="M 1063.5 460.85 A 35.45 35.45 0 0 1 1098.95 496.3 L 1063.5 496.3"/><rect width="35.45" height="35.45" x="1098.95" y="460.85" fill="#0c8ab0"/><path fill="#4c8d9f" d="M 1098.95 496.3 A 35.45 35.45 0 0 1 1134.4 460.85 L 1098.95 496.3 A 35.45 35.45 0 0 0 1134.4 460.85"/><rect width="70.9" height="70.9" x="0" y="496.3" fill="#68b3ac"/><path fill="#569ba4" d="M 0 567.2 A 70.9 70.9 0 0 1 70.9 496.3 L 70.9 567.2"/><rect width="70.9" height="70.9" x="70.9" y="496.3" fill="#1D4E89"/><rect width="35.45" height="35.45" x="70.9" y="496.3" fill="#1b548d"/><path fill="#0f7fa9" d="M 70.9 496.3 A 35.45 35.45 0 0 0 106.35000000000001 531.75 L 106.35000000000001 496.3"/><rect width="35.45" height="35.45" x="106.35" y="496.3" fill="#1b568e"/><path fill="#69b4ad" d="M 106.35 496.3 A 35.45 35.45 0 0 0 141.8 531.75 L 141.8 496.3"/><rect width="35.45" height="35.45" x="70.9" y="531.75" fill="#5194a1"/><path fill="#01afc8" d="M 70.9 531.75 A 35.45 35.45 0 0 1 106.35000000000001 567.2 L 70.9 567.2"/><rect width="35.45" height="35.45" x="106.35" y="531.75" fill="#46859c"/><path fill="#4c8d9f" d="M 106.35 567.2 A 35.45 35.45 0 0 0 141.8 531.75 L 106.35 531.75"/><rect width="70.9" height="70.9" x="141.8" y="496.3" fill="#78c8b4"/><path fill="#1d4e89" d="M 141.8 496.3 A 70.9 70.9 0 0 1 212.70000000000002 567.2 L 141.8 567.2"/><rect width="70.9" height="70.9" x="212.7" y="496.3" fill="#195c92"/><path fill="#02acc6" d="M 212.7 496.3 A 70.9 70.9 0 0 1 283.6 567.2 L 212.7 567.2"/><rect width="70.9" height="70.9" x="283.6" y="496.3" fill="#1D4E89"/><rect width="35.45" height="35.45" x="283.6" y="496.3" fill="#04a4c1"/><path fill="#589da4" d="M 283.6 531.75 A 35.45 35.45 0 0 1 319.05 496.3 L 319.05 531.75"/><rect width="35.45" height="35.45" x="319.05" y="496.3" fill="#0994b7"/><path fill="#02a9c4" d="M 319.05 496.3 A 35.45 35.45 0 0 0 354.5 531.75 L 354.5 496.3"/><rect width="35.45" height="35.45" x="283.6" y="531.75" fill="#166699"/><path fill="#0c88af" d="M 283.6 531.75 A 35.45 35.45 0 0 1 319.05 567.2 L 283.6 567.2"/><rect width="35.45" height="35.45" x="319.05" y="531.75" fill="#1273a1"/><path fill="#2e6491" d="M 319.05 567.2 A 35.45 35.45 0 0 1 354.5 531.75 L 319.05 567.2 A 35.45 35.45 0 0 0 354.5 531.75"/><rect width="70.9" height="70.9" x="354.5" y="496.3" fill="#1371a0"/><path fill="#60a8a8" d="M 354.5 567.2 A 70.9 70.9 0 0 0 425.4 496.3 L 354.5 496.3"/><rect width="70.9" height="70.9" x="425.4" y="496.3" fill="#1D4E89"/><rect width="35.45" height="35.45" x="425.4" y="496.3" fill="#0c87ae"/><path fill="#04a4c1" d="M 425.4 531.75 A 35.45 35.45 0 0 0 460.84999999999997 496.3 L 425.4 496.3"/><rect width="35.45" height="35.45" x="460.85" y="496.3" fill="#4b8c9f"/><path fill="#3a7597" d="M 460.85 531.75 A 35.45 35.45 0 0 1 496.3 496.3 L 496.3 531.75"/><rect width="35.45" height="35.45" x="425.4" y="531.75" fill="#1274a2"/><path fill="#498a9e" d="M 425.4 567.2 A 35.45 35.45 0 0 0 460.84999999999997 531.75 L 425.4 531.75"/><rect width="35.45" height="35.45" x="460.85" y="531.75" fill="#146c9d"/><path fill="#05a0be" d="M 460.85 531.75 A 35.45 35.45 0 0 0 496.3 567.2 L 496.3 531.75"/><rect width="70.9" height="70.9" x="496.3" y="496.3" fill="#1D4E89"/><rect width="35.45" height="35.45" x="496.3" y="496.3" fill="#1d4e89"/><path fill="#68b3ac" d="M 496.3 496.3 A 35.45 35.45 0 0 1 531.75 531.75 L 496.3 496.3 A 35.45 35.45 0 0 0 531.75 531.75"/><rect width="35.45" height="35.45" x="531.75" y="496.3" fill="#15699b"/><path fill="#336b93" d="M 531.75 531.75 A 35.45 35.45 0 0 1 567.2 496.3 L 531.75 531.75 A 35.45 35.45 0 0 0 567.2 496.3"/><rect width="35.45" height="35.45" x="496.3" y="531.75" fill="#5ba1a6"/><path fill="#326b93" d="M 496.3 567.2 A 35.45 35.45 0 0 1 531.75 531.75 L 531.75 567.2"/><rect width="35.45" height="35.45" x="531.75" y="531.75" fill="#265a8d"/><path fill="#1c528b" d="M 531.75 567.2 A 35.45 35.45 0 0 0 567.2 531.75 L 531.75 531.75"/><rect width="70.9" height="70.9" x="567.2" y="496.3" fill="#146e9e"/><path fill="#1b558e" d="M 567.2 567.2 A 70.9 70.9 0 0 1 638.1 496.3 L 638.1 567.2"/><rect width="70.9" height="70.9" x="638.1" y="496.3" fill="#366f95"/><path fill="#146e9e" d="M 638.1 567.2 A 70.9 70.9 0 0 1 709 496.3 L 709 567.2"/><rect width="70.9" height="70.9" x="709" y="496.3" fill="#1D4E89"/><rect width="35.45" height="35.45" x="709" y="496.3" fill="#2b6190"/><path fill="#079bbb" d="M 709 531.75 A 35.45 35.45 0 0 1 744.45 496.3 L 709 531.75 A 35.45 35.45 0 0 0 744.45 496.3"/><rect width="35.45" height="35.45" x="744.45" y="496.3" fill="#46859c"/><path fill="#6fbcaf" d="M 744.45 531.75 A 35.45 35.45 0 0 1 779.9000000000001 496.3 L 744.45 531.75 A 35.45 35.45 0 0 0 779.9000000000001 496.3"/><rect width="35.45" height="35.45" x="709" y="531.75" fill="#0c8ab0"/><path fill="#146e9e" d="M 709 531.75 A 35.45 35.45 0 0 1 744.45 567.2 L 709 531.75 A 35.45 35.45 0 0 0 744.45 567.2"/><rect width="35.45" height="35.45" x="744.45" y="531.75" fill="#0e82ab"/><path fill="#1b568e" d="M 744.45 567.2 A 35.45 35.45 0 0 1 779.9000000000001 531.75 L 779.9000000000001 567.2"/><rect width="70.9" height="70.9" x="779.9" y="496.3" fill="#1D4E89"/><rect width="35.45" height="35.45" x="779.9" y="496.3" fill="#2d6491"/><path fill="#397396" d="M 779.9 496.3 A 35.45 35.45 0 0 0 815.35 531.75 L 815.35 496.3"/><rect width="35.45" height="35.45" x="815.35" y="496.3" fill="#3f7c99"/><path fill="#77c7b3" d="M 815.35 496.3 A 35.45 35.45 0 0 1 850.8000000000001 531.75 L 815.35 531.75"/><rect width="35.45" height="35.45" x="779.9" y="531.75" fill="#02acc6"/><path fill="#2e6591" d="M 779.9 567.2 A 35.45 35.45 0 0 1 815.35 531.75 L 815.35 567.2"/><rect width="35.45" height="35.45" x="815.35" y="531.75" fill="#1178a4"/><path fill="#46859c" d="M 815.35 531.75 A 35.45 35.45 0 0 1 850.8000000000001 567.2 L 815.35 531.75 A 35.45 35.45 0 0 0 850.8000000000001 567.2"/><rect width="70.9" height="70.9" x="850.8" y="496.3" fill="#1D4E89"/><rect width="35.45" height="35.45" x="850.8" y="496.3" fill="#5ba2a6"/><path fill="#346e94" d="M 850.8 531.75 A 35.45 35.45 0 0 1 886.25 496.3 L 850.8 531.75 A 35.45 35.45 0 0 0 886.25 496.3"/><rect width="35.45" height="35.45" x="886.25" y="496.3" fill="#3e7a98"/><path fill="#67b2ac" d="M 886.25 531.75 A 35.45 35.45 0 0 1 921.7 496.3 L 921.7 531.75"/><rect width="35.45" height="35.45" x="850.8" y="531.75" fill="#04a4c1"/><path fill="#186095" d="M 850.8 567.2 A 35.45 35.45 0 0 1 886.25 531.75 L 850.8 567.2 A 35.45 35.45 0 0 0 886.25 531.75"/><rect width="35.45" height="35.45" x="886.25" y="531.75" fill="#68b2ac"/><path fill="#20538b" d="M 886.25 531.75 A 35.45 35.45 0 0 1 921.7 567.2 L 886.25 531.75 A 35.45 35.45 0 0 0 921.7 567.2"/><rect width="70.9" height="70.9" x="921.7" y="496.3" fill="#107ba6"/><path fill="#0895b7" d="M 921.7 496.3 A 70.9 70.9 0 0 0 992.6 567.2 L 992.6 496.3"/><rect width="70.9" height="70.9" x="992.6" y="496.3" fill="#7bcdb5"/><path fill="#3a7597" d="M 992.6 567.2 A 70.9 70.9 0 0 0 1063.5 496.3 L 992.6 496.3"/><rect width="70.9" height="70.9" x="1063.5" y="496.3" fill="#1c518b"/><path fill="#04a3c0" d="M 1063.5 496.3 A 70.9 70.9 0 0 0 1134.4 567.2 L 1134.4 496.3"/><rect width="70.9" height="70.9" x="0" y="567.2" fill="#1D4E89"/><rect width="35.45" height="35.45" x="0" y="567.2" fill="#346c94"/><path fill="#5aa0a5" d="M 0 567.2 A 35.45 35.45 0 0 1 35.45 602.6500000000001 L 0 567.2 A 35.45 35.45 0 0 0 35.45 602.6500000000001"/><rect width="35.45" height="35.45" x="35.45" y="567.2" fill="#68b3ac"/><path fill="#0e83ac" d="M 35.45 602.6500000000001 A 35.45 35.45 0 0 1 70.9 567.2 L 35.45 602.6500000000001 A 35.45 35.45 0 0 0 70.9 567.2"/><rect width="35.45" height="35.45" x="0" y="602.65" fill="#7cceb6"/><path fill="#67b1ac" d="M 0 638.1 A 35.45 35.45 0 0 1 35.45 602.65 L 0 638.1 A 35.45 35.45 0 0 0 35.45 602.65"/><rect width="35.45" height="35.45" x="35.45" y="602.65" fill="#3c7898"/><path fill="#03a8c4" d="M 35.45 602.65 A 35.45 35.45 0 0 1 70.9 638.1 L 35.45 602.65 A 35.45 35.45 0 0 0 70.9 638.1"/><rect width="70.9" height="70.9" x="70.9" y="567.2" fill="#03a8c4"/><path fill="#47879d" d="M 70.9 567.2 A 70.9 70.9 0 0 1 141.8 638.1 L 70.9 567.2 A 70.9 70.9 0 0 0 141.8 638.1"/><rect width="70.9" height="70.9" x="141.8" y="567.2" fill="#285c8e"/><path fill="#069dbc" d="M 141.8 567.2 A 70.9 70.9 0 0 1 212.70000000000002 638.1 L 141.8 638.1"/><rect width="70.9" height="70.9" x="212.7" y="567.2" fill="#0a8fb3"/><path fill="#4a8a9e" d="M 212.7 638.1 A 70.9 70.9 0 0 0 283.6 567.2 L 212.7 567.2"/><rect width="70.9" height="70.9" x="283.6" y="567.2" fill="#1D4E89"/><rect width="35.45" height="35.45" x="283.6" y="567.2" fill="#079bbb"/><path fill="#6ebbaf" d="M 283.6 567.2 A 35.45 35.45 0 0 1 319.05 602.6500000000001 L 283.6 602.6500000000001"/><rect width="35.45" height="35.45" x="319.05" y="567.2" fill="#13709f"/><path fill="#21538b" d="M 319.05 567.2 A 35.45 35.45 0 0 0 354.5 602.6500000000001 L 354.5 567.2"/><rect width="35.45" height="35.45" x="283.6" y="602.65" fill="#72c0b1"/><path fill="#05a0be" d="M 283.6 602.65 A 35.45 35.45 0 0 1 319.05 638.1 L 283.6 602.65 A 35.45 35.45 0 0 0 319.05 638.1"/><rect width="35.45" height="35.45" x="319.05" y="602.65" fill="#0e82ab"/><path fill="#2c6290" d="M 319.05 602.65 A 35.45 35.45 0 0 1 354.5 638.1 L 319.05 602.65 A 35.45 35.45 0 0 0 354.5 638.1"/><rect width="70.9" height="70.9" x="354.5" y="567.2" fill="#1D4E89"/><rect width="35.45" height="35.45" x="354.5" y="567.2" fill="#65afab"/><path fill="#46859c" d="M 354.5 567.2 A 35.45 35.45 0 0 0 389.95 602.6500000000001 L 389.95 567.2"/><rect width="35.45" height="35.45" x="389.95" y="567.2" fill="#156b9c"/><path fill="#4b8c9e" d="M 389.95 602.6500000000001 A 35.45 35.45 0 0 1 425.4 567.2 L 389.95 602.6500000000001 A 35.45 35.45 0 0 0 425.4 567.2"/><rect width="35.45" height="35.45" x="354.5" y="602.65" fill="#64adaa"/><path fill="#2e6591" d="M 354.5 638.1 A 35.45 35.45 0 0 1 389.95 602.65 L 389.95 638.1"/><rect width="35.45" height="35.45" x="389.95" y="602.65" fill="#0f7da7"/><path fill="#1e4f89" d="M 389.95 602.65 A 35.45 35.45 0 0 1 425.4 638.1 L 389.95 638.1"/><rect width="70.9" height="70.9" x="425.4" y="567.2" fill="#0992b5"/><path fill="#2f6792" d="M 425.4 638.1 A 70.9 70.9 0 0 1 496.29999999999995 567.2 L 496.29999999999995 638.1"/><rect width="70.9" height="70.9" x="496.3" y="567.2" fill="#1D4E89"/><rect width="35.45" height="35.45" x="496.3" y="567.2" fill="#3a7597"/><path fill="#64adaa" d="M 496.3 567.2 A 35.45 35.45 0 0 0 531.75 602.6500000000001 L 531.75 567.2"/><rect width="35.45" height="35.45" x="531.75" y="567.2" fill="#79c9b4"/><path fill="#79cab4" d="M 531.75 602.6500000000001 A 35.45 35.45 0 0 1 567.2 567.2 L 531.75 602.6500000000001 A 35.45 35.45 0 0 0 567.2 567.2"/><rect width="35.45" height="35.45" x="496.3" y="602.65" fill="#0b8cb1"/><path fill="#186095" d="M 496.3 602.65 A 35.45 35.45 0 0 0 531.75 638.1 L 531.75 602.65"/><rect width="35.45" height="35.45" x="531.75" y="602.65" fill="#0992b5"/><path fill="#13709f" d="M 531.75 638.1 A 35.45 35.45 0 0 1 567.2 602.65 L 531.75 638.1 A 35.45 35.45 0 0 0 567.2 602.65"/><rect width="70.9" height="70.9" x="567.2" y="567.2" fill="#1D4E89"/><rect width="35.45" height="35.45" x="567.2" y="567.2" fill="#1a5a91"/><path fill="#6bb7ae" d="M 567.2 567.2 A 35.45 35.45 0 0 1 602.6500000000001 602.6500000000001 L 567.2 602.6500000000001"/><rect width="35.45" height="35.45" x="602.65" y="567.2" fill="#0896b8"/><path fill="#195c92" d="M 602.65 567.2 A 35.45 35.45 0 0 1 638.1 602.6500000000001 L 602.65 602.6500000000001"/><rect width="35.45" height="35.45" x="567.2" y="602.65" fill="#04a3c1"/><path fill="#0799ba" d="M 567.2 638.1 A 35.45 35.45 0 0 0 602.6500000000001 602.65 L 567.2 602.65"/><rect width="35.45" height="35.45" x="602.65" y="602.65" fill="#0799ba"/><path fill="#107aa5" d="M 602.65 638.1 A 35.45 35.45 0 0 0 638.1 602.65 L 602.65 602.65"/><rect width="70.9" height="70.9" x="638.1" y="567.2" fill="#1D4E89"/><rect width="35.45" height="35.45" x="638.1" y="567.2" fill="#7dcfb6"/><path fill="#3e7b99" d="M 638.1 602.6500000000001 A 35.45 35.45 0 0 1 673.5500000000001 567.2 L 638.1 602.6500000000001 A 35.45 35.45 0 0 0 673.5500000000001 567.2"/><rect width="35.45" height="35.45" x="673.55" y="567.2" fill="#13709f"/><path fill="#2b6190" d="M 673.55 567.2 A 35.45 35.45 0 0 0 709 602.6500000000001 L 709 567.2"/><rect width="35.45" height="35.45" x="638.1" y="602.65" fill="#4d8fa0"/><path fill="#75c4b2" d="M 638.1 638.1 A 35.45 35.45 0 0 0 673.5500000000001 602.65 L 638.1 602.65"/><rect width="35.45" height="35.45" x="673.55" y="602.65" fill="#0897b9"/><path fill="#295e8f" d="M 673.55 638.1 A 35.45 35.45 0 0 1 709 602.65 L 709 638.1"/><rect width="70.9" height="70.9" x="709" y="567.2" fill="#1D4E89"/><rect width="35.45" height="35.45" x="709" y="567.2" fill="#1a5990"/><path fill="#2f6792" d="M 709 602.6500000000001 A 35.45 35.45 0 0 0 744.45 567.2 L 709 567.2"/><rect width="35.45" height="35.45" x="744.45" y="567.2" fill="#5093a1"/><path fill="#67b2ac" d="M 744.45 602.6500000000001 A 35.45 35.45 0 0 1 779.9000000000001 567.2 L 779.9000000000001 602.6500000000001"/><rect width="35.45" height="35.45" x="709" y="602.65" fill="#44839b"/><path fill="#0e82ab" d="M 709 638.1 A 35.45 35.45 0 0 1 744.45 602.65 L 709 638.1 A 35.45 35.45 0 0 0 744.45 602.65"/><rect width="35.45" height="35.45" x="744.45" y="602.65" fill="#346d94"/><path fill="#0f7fa9" d="M 744.45 602.65 A 35.45 35.45 0 0 1 779.9000000000001 638.1 L 744.45 638.1"/><rect width="70.9" height="70.9" x="779.9" y="567.2" fill="#1D4E89"/><rect width="35.45" height="35.45" x="779.9" y="567.2" fill="#3a7597"/><path fill="#156a9b" d="M 779.9 602.6500000000001 A 35.45 35.45 0 0 1 815.35 567.2 L 779.9 602.6500000000001 A 35.45 35.45 0 0 0 815.35 567.2"/><rect width="35.45" height="35.45" x="815.35" y="567.2" fill="#0e81aa"/><path fill="#0e81aa" d="M 815.35 602.6500000000001 A 35.45 35.45 0 0 0 850.8000000000001 567.2 L 815.35 567.2"/><rect width="35.45" height="35.45" x="779.9" y="602.65" fill="#0897b8"/><path fill="#2d6390" d="M 779.9 602.65 A 35.45 35.45 0 0 1 815.35 638.1 L 779.9 638.1"/><rect width="35.45" height="35.45" x="815.35" y="602.65" fill="#4d8fa0"/><path fill="#7bcdb5" d="M 815.35 602.65 A 35.45 35.45 0 0 1 850.8000000000001 638.1 L 815.35 602.65 A 35.45 35.45 0 0 0 850.8000000000001 638.1"/><rect width="70.9" height="70.9" x="850.8" y="567.2" fill="#1D4E89"/><rect width="35.45" height="35.45" x="850.8" y="567.2" fill="#107ba6"/><path fill="#1a5990" d="M 850.8 567.2 A 35.45 35.45 0 0 1 886.25 602.6500000000001 L 850.8 602.6500000000001"/><rect width="35.45" height="35.45" x="886.25" y="567.2" fill="#05a1bf"/><path fill="#48889d" d="M 886.25 567.2 A 35.45 35.45 0 0 1 921.7 602.6500000000001 L 886.25 602.6500000000001"/><rect width="35.45" height="35.45" x="850.8" y="602.65" fill="#4a8b9e"/><path fill="#2a5f8f" d="M 850.8 602.65 A 35.45 35.45 0 0 1 886.25 638.1 L 850.8 638.1"/><rect width="35.45" height="35.45" x="886.25" y="602.65" fill="#5093a1"/><path fill="#02adc7" d="M 886.25 638.1 A 35.45 35.45 0 0 0 921.7 602.65 L 886.25 602.65"/><rect width="70.9" height="70.9" x="921.7" y="567.2" fill="#1c528c"/><path fill="#5da4a7" d="M 921.7 638.1 A 70.9 70.9 0 0 1 992.6 567.2 L 921.7 638.1 A 70.9 70.9 0 0 0 992.6 567.2"/><rect width="70.9" height="70.9" x="992.6" y="567.2" fill="#0f7ea9"/><path fill="#71bfb0" d="M 992.6 567.2 A 70.9 70.9 0 0 1 1063.5 638.1 L 992.6 638.1"/><rect width="70.9" height="70.9" x="1063.5" y="567.2" fill="#01afc8"/><path fill="#166698" d="M 1063.5 638.1 A 70.9 70.9 0 0 0 1134.4 567.2 L 1063.5 567.2"/><rect width="70.9" height="70.9" x="0" y="638.1" fill="#1D4E89"/><rect width="35.45" height="35.45" x="0" y="638.1" fill="#1c528c"/><path fill="#059fbe" d="M 0 673.5500000000001 A 35.45 35.45 0 0 1 35.45 638.1 L 0 673.5500000000001 A 35.45 35.45 0 0 0 35.45 638.1"/><rect width="35.45" height="35.45" x="35.45" y="638.1" fill="#4a8b9e"/><path fill="#1179a5" d="M 35.45 673.5500000000001 A 35.45 35.45 0 0 0 70.9 638.1 L 35.45 638.1"/><rect width="35.45" height="35.45" x="0" y="673.55" fill="#1177a4"/><path fill="#569aa4" d="M 0 709 A 35.45 35.45 0 0 1 35.45 673.55 L 35.45 709"/><rect width="35.45" height="35.45" x="35.45" y="673.55" fill="#15689a"/><path fill="#25598d" d="M 35.45 709 A 35.45 35.45 0 0 1 70.9 673.55 L 70.9 709"/><rect width="70.9" height="70.9" x="70.9" y="638.1" fill="#1D4E89"/><rect width="35.45" height="35.45" x="70.9" y="638.1" fill="#136f9e"/><path fill="#1c518b" d="M 70.9 638.1 A 35.45 35.45 0 0 1 106.35000000000001 673.5500000000001 L 70.9 638.1 A 35.45 35.45 0 0 0 106.35000000000001 673.5500000000001"/><rect width="35.45" height="35.45" x="106.35" y="638.1" fill="#7dcfb6"/><path fill="#0c8ab0" d="M 106.35 673.5500000000001 A 35.45 35.45 0 0 1 141.8 638.1 L 141.8 673.5500000000001"/><rect width="35.45" height="35.45" x="70.9" y="673.55" fill="#0994b6"/><path fill="#6ab5ad" d="M 70.9 709 A 35.45 35.45 0 0 1 106.35000000000001 673.55 L 106.35000000000001 709"/><rect width="35.45" height="35.45" x="106.35" y="673.55" fill="#4c8e9f"/><path fill="#5396a2" d="M 106.35 709 A 35.45 35.45 0 0 1 141.8 673.55 L 141.8 709"/><rect width="70.9" height="70.9" x="141.8" y="638.1" fill="#6cb8ae"/><path fill="#156a9b" d="M 141.8 709 A 70.9 70.9 0 0 1 212.70000000000002 638.1 L 212.70000000000002 709"/><rect width="70.9" height="70.9" x="212.7" y="638.1" fill="#3e7b99"/><path fill="#78c8b4" d="M 212.7 709 A 70.9 70.9 0 0 0 283.6 638.1 L 212.7 638.1"/><rect width="70.9" height="70.9" x="283.6" y="638.1" fill="#45849c"/><path fill="#1c528c" d="M 283.6 638.1 A 70.9 70.9 0 0 1 354.5 709 L 283.6 638.1 A 70.9 70.9 0 0 0 354.5 709"/><rect width="70.9" height="70.9" x="354.5" y="638.1" fill="#0a90b4"/><path fill="#16689a" d="M 354.5 709 A 70.9 70.9 0 0 0 425.4 638.1 L 354.5 638.1"/><rect width="70.9" height="70.9" x="425.4" y="638.1" fill="#136f9e"/><path fill="#599fa5" d="M 425.4 638.1 A 70.9 70.9 0 0 1 496.29999999999995 709 L 425.4 709"/><rect width="70.9" height="70.9" x="496.3" y="638.1" fill="#107aa6"/><path fill="#0c89b0" d="M 496.3 638.1 A 70.9 70.9 0 0 0 567.2 709 L 567.2 638.1"/><rect width="70.9" height="70.9" x="567.2" y="638.1" fill="#1D4E89"/><rect width="35.45" height="35.45" x="567.2" y="638.1" fill="#0d84ac"/><path fill="#0d86ad" d="M 567.2 638.1 A 35.45 35.45 0 0 0 602.6500000000001 673.5500000000001 L 602.6500000000001 638.1"/><rect width="35.45" height="35.45" x="602.65" y="638.1" fill="#03a9c4"/><path fill="#2e6491" d="M 602.65 673.5500000000001 A 35.45 35.45 0 0 1 638.1 638.1 L 602.65 673.5500000000001 A 35.45 35.45 0 0 0 638.1 638.1"/><rect width="35.45" height="35.45" x="567.2" y="673.55" fill="#6dbaaf"/><path fill="#03a7c3" d="M 567.2 673.55 A 35.45 35.45 0 0 1 602.6500000000001 709 L 567.2 709"/><rect width="35.45" height="35.45" x="602.65" y="673.55" fill="#0a90b4"/><path fill="#0f7da8" d="M 602.65 709 A 35.45 35.45 0 0 1 638.1 673.55 L 602.65 709 A 35.45 35.45 0 0 0 638.1 673.55"/><rect width="70.9" height="70.9" x="638.1" y="638.1" fill="#77c7b3"/><path fill="#599fa5" d="M 638.1 638.1 A 70.9 70.9 0 0 1 709 709 L 638.1 709"/><rect width="70.9" height="70.9" x="709" y="638.1" fill="#1d508a"/><path fill="#079bbb" d="M 709 709 A 70.9 70.9 0 0 1 779.9 638.1 L 709 709 A 70.9 70.9 0 0 0 779.9 638.1"/><rect width="70.9" height="70.9" x="779.9" y="638.1" fill="#336c93"/><path fill="#5aa1a6" d="M 779.9 709 A 70.9 70.9 0 0 0 850.8 638.1 L 779.9 638.1"/><rect width="70.9" height="70.9" x="850.8" y="638.1" fill="#16689a"/><path fill="#68b3ac" d="M 850.8 709 A 70.9 70.9 0 0 1 921.6999999999999 638.1 L 921.6999999999999 709"/><rect width="70.9" height="70.9" x="921.7" y="638.1" fill="#1D4E89"/><rect width="35.45" height="35.45" x="921.7" y="638.1" fill="#60a8a8"/><path fill="#02acc6" d="M 921.7 673.5500000000001 A 35.45 35.45 0 0 1 957.1500000000001 638.1 L 957.1500000000001 673.5500000000001"/><rect width="35.45" height="35.45" x="957.15" y="638.1" fill="#01b0c8"/><path fill="#43819b" d="M 957.15 673.5500000000001 A 35.45 35.45 0 0 0 992.6 638.1 L 957.15 638.1"/><rect width="35.45" height="35.45" x="921.7" y="673.55" fill="#107ca7"/><path fill="#146c9d" d="M 921.7 709 A 35.45 35.45 0 0 1 957.1500000000001 673.55 L 957.1500000000001 709"/><rect width="35.45" height="35.45" x="957.15" y="673.55" fill="#72c0b1"/><path fill="#579ca4" d="M 957.15 709 A 35.45 35.45 0 0 1 992.6 673.55 L 992.6 709"/><rect width="70.9" height="70.9" x="992.6" y="638.1" fill="#1D4E89"/><rect width="35.45" height="35.45" x="992.6" y="638.1" fill="#1b558d"/><path fill="#1275a2" d="M 992.6 638.1 A 35.45 35.45 0 0 0 1028.05 673.5500000000001 L 1028.05 638.1"/><rect width="35.45" height="35.45" x="1028.05" y="638.1" fill="#069ebd"/><path fill="#2c6290" d="M 1028.05 638.1 A 35.45 35.45 0 0 0 1063.5 673.5500000000001 L 1063.5 638.1"/><rect width="35.45" height="35.45" x="992.6" y="673.55" fill="#4a8a9e"/><path fill="#4b8c9f" d="M 992.6 673.55 A 35.45 35.45 0 0 1 1028.05 709 L 992.6 709"/><rect width="35.45" height="35.45" x="1028.05" y="673.55" fill="#5295a2"/><path fill="#195d93" d="M 1028.05 673.55 A 35.45 35.45 0 0 1 1063.5 709 L 1028.05 673.55 A 35.45 35.45 0 0 0 1063.5 709"/><rect width="70.9" height="70.9" x="1063.5" y="638.1" fill="#1D4E89"/><rect width="35.45" height="35.45" x="1063.5" y="638.1" fill="#146d9d"/><path fill="#1b568e" d="M 1063.5 673.5500000000001 A 35.45 35.45 0 0 1 1098.95 638.1 L 1063.5 673.5500000000001 A 35.45 35.45 0 0 0 1098.95 638.1"/><rect width="35.45" height="35.45" x="1098.95" y="638.1" fill="#7acbb5"/><path fill="#5fa6a8" d="M 1098.95 638.1 A 35.45 35.45 0 0 1 1134.4 673.5500000000001 L 1098.95 638.1 A 35.45 35.45 0 0 0 1134.4 673.5500000000001"/><rect width="35.45" height="35.45" x="1063.5" y="673.55" fill="#61a9a9"/><path fill="#04a5c2" d="M 1063.5 709 A 35.45 35.45 0 0 1 1098.95 673.55 L 1098.95 709"/><rect width="35.45" height="35.45" x="1098.95" y="673.55" fill="#0f7da8"/><path fill="#64adaa" d="M 1098.95 709 A 35.45 35.45 0 0 1 1134.4 673.55 L 1098.95 709 A 35.45 35.45 0 0 0 1134.4 673.55"/></g></svg>