<svg xmlns="http://www.w3.org/2000/svg" xmlns:xlink="http://www.w3.org/1999/xlink" preserveAspectRatio="xMaxYMax slice" viewBox="0 0 1000 625.006"><g transform="scale(0.8941424726615939)"><rect width="1118.4" height="699" x="0" y="0" fill="#00B2CA"/><circle cx="34.95" cy="34.95" r="6.99" fill="#F79256"/><circle cx="104.85" cy="34.95" r="6.99" fill="#7DCFB6"/><circle cx="174.75" cy="34.95" r="6.99" fill="#7DCFB6"/><circle cx="244.65" cy="34.95" r="6.99" fill="#7DCFB6"/><circle cx="314.55" cy="34.95" r="6.99" fill="#7DCFB6"/><circle cx="384.45" cy="34.95" r="6.99" fill="#7DCFB6"/><circle cx="454.35" cy="34.95" r="6.99" fill="#7DCFB6"/><circle cx="524.25" cy="34.95" r="6.99" fill="#F79256"/><circle cx="594.15" cy="34.95" r="6.99" fill="#7DCFB6"/><circle cx="664.05" cy="34.95" r="6.99" fill="#F79256"/><circle cx="733.95" cy="34.95" r="6.99" fill="#F79256"/><circle cx="803.85" cy="34.95" r="6.99" fill="#7DCFB6"/><circle cx="873.75" cy="34.95" r="6.99" fill="#7DCFB6"/><circle cx="943.65" cy="34.95" r="6.99" fill="#7DCFB6"/><circle cx="1013.55" cy="34.95" r="6.99" fill="#F79256"/><circle cx="1083.45" cy="34.95" r="6.99" fill="#7DCFB6"/><circle cx="34.95" cy="104.85" r="6.99" fill="#F79256"/><circle cx="104.845" cy="104.845" r="7.995" fill="#7DCFB6"/><circle cx="174.755" cy="104.855" r="9.005" fill="#7DCFB6"/><circle cx="244.65" cy="104.85" r="10.01" fill="#7DCFB6"/><circle cx="314.545" cy="104.845" r="11.015" fill="#7DCFB6"/><circle cx="384.455" cy="104.855" r="12.025" fill="#7DCFB6"/><circle cx="454.35" cy="104.85" r="13.03" fill="#F79256"/><circle cx="524.25" cy="104.85" r="13.7" fill="#7DCFB6"/><circle cx="594.15" cy="104.85" r="13.7" fill="#7DCFB6"/><circle cx="664.05" cy="104.85" r="13.7" fill="#F79256"/><circle cx="733.95" cy="104.85" r="13.03" fill="#F79256"/><circle cx="803.855" cy="104.855" r="12.025" fill="#7DCFB6"/><circle cx="873.745" cy="104.845" r="11.015" fill="#7DCFB6"/><circle cx="943.65" cy="104.85" r="10.01" fill="#F79256"/><circle cx="1013.555" cy="104.855" r="9.005" fill="#7DCFB6"/><circle cx="1083.445" cy="104.845" r="7.995" fill="#F79256"/><circle cx="34.95" cy="174.75" r="6.99" fill="#F79256"/><circle cx="104.855" cy="174.755" r="9.005" fill="#7DCFB6"/><circle cx="174.745" cy="174.745" r="11.015" fill="#7DCFB6"/><circle cx="244.65" cy="174.75" r="13.03" fill="#F79256"/><circle cx="314.55" cy="174.75" r="15.04" fill="#7DCFB6"/><circle cx="384.445" cy="174.745" r="17.055" fill="#F79256"/><circle cx="454.35" cy="174.75" r="19.07" fill="#F79256"/><circle cx="524.25" cy="174.75" r="20.41" fill="#7DCFB6"/><circle cx="594.15" cy="174.75" r="20.41" fill="#F79256"/><circle cx="664.05" cy="174.75" r="20.41" fill="#F79256"/><circle cx="733.95" cy="174.75" r="19.07" fill="#F79256"/><circle cx="803.845" cy="174.745" r="17.055" fill="#7DCFB6"/><circle cx="873.75" cy="174.75" r="15.04" fill="#7DCFB6"/><circle cx="943.65" cy="174.75" r="13.03" fill="#F79256"/><circle cx="1013.545" cy="174.745" r="11.015" fill="#F79256"/><circle cx="1083.455" cy="174.755" r="9.005" fill="#7DCFB6"/><circle cx="34.95" cy="244.65" r="6.99" fill="#7DCFB6"/><circle cx="104.85" cy="244.65" r="10.01" fill="#7DCFB6"/><circle cx="174.75" cy="244.65" r="13.03" fill="#7DCFB6"/><circle cx="244.65" cy="244.65" r="16.05" fill="#7DCFB6"/><circle cx="314.55" cy="244.65" r="19.07" fill="#F79256"/><circle cx="384.45" cy="244.65" r="22.09" fill="#F79256"/><circle cx="454.35" cy="244.65" r="25.11" fill="#F79256"/><circle cx="524.25" cy="244.65" r="27.12" fill="#7DCFB6"/><circle cx="594.15" cy="244.65" r="27.12" fill="#F79256"/><circle cx="664.05" cy="244.65" r="27.12" fill="#F79256"/><circle cx="733.95" cy="244.65" r="25.11" fill="#7DCFB6"/><circle cx="803.85" cy="244.65" r="22.09" fill="#7DCFB6"/><circle cx="873.75" cy="244.65" r="19.07" fill="#F79256"/><circle cx="943.65" cy="244.65" r="16.05" fill="#F79256"/><circle cx="1013.55" cy="244.65" r="13.03" fill="#7DCFB6"/><circle cx="1083.45" cy="244.65" r="10.01" fill="#7DCFB6"/><circle cx="34.95" cy="314.55" r="6.99" fill="#7DCFB6"/><circle cx="104.845" cy="314.545" r="11.015" fill="#7DCFB6"/><circle cx="174.75" cy="314.55" r="15.04" fill="#7DCFB6"/><circle cx="244.65" cy="314.55" r="19.07" fill="#7DCFB6"/><circle cx="314.555" cy="314.555" r="23.095" fill="#7DCFB6"/><circle cx="384.45" cy="314.55" r="27.12" fill="#F79256"/><circle cx="454.345" cy="314.545" r="31.145" fill="#7DCFB6"/><circle cx="524.25" cy="314.55" r="33.83" fill="#F79256"/><circle cx="594.15" cy="314.55" r="33.83" fill="#F79256"/><circle cx="664.05" cy="314.55" r="33.83" fill="#7DCFB6"/><circle cx="733.945" cy="314.545" r="31.145" fill="#F79256"/><circle cx="803.85" cy="314.55" r="27.12" fill="#7DCFB6"/><circle cx="873.755" cy="314.555" r="23.095" fill="#7DCFB6"/><circle cx="943.65" cy="314.55" r="19.07" fill="#F79256"/><circle cx="1013.55" cy="314.55" r="15.04" fill="#7DCFB6"/><circle cx="1083.445" cy="314.545" r="11.015" fill="#7DCFB6"/><circle cx="34.95" cy="384.45" r="6.99" fill="#F79256"/><circle cx="104.855" cy="384.455" r="11.185" fill="#7DCFB6"/><circle cx="174.75" cy="384.45" r="15.38" fill="#F79256"/><circle cx="244.65" cy="384.45" r="19.57" fill="#7DCFB6"/><circle cx="314.545" cy="384.445" r="23.765" fill="#7DCFB6"/><circle cx="384.45" cy="384.45" r="27.96" fill="#7DCFB6"/><circle cx="454.355" cy="384.455" r="32.155" fill="#7DCFB6"/><circle cx="524.25" cy="384.45" r="34.95" fill="#7DCFB6"/><circle cx="594.15" cy="384.45" r="34.95" fill="#F79256"/><circle cx="664.05" cy="384.45" r="34.95" fill="#7DCFB6"/><circle cx="733.955" cy="384.455" r="32.155" fill="#F79256"/><circle cx="803.85" cy="384.45" r="27.96" fill="#7DCFB6"/><circle cx="873.745" cy="384.445" r="23.765" fill="#F79256"/><circle cx="943.65" cy="384.45" r="19.57" fill="#7DCFB6"/><circle cx="1013.55" cy="384.45" r="15.38" fill="#7DCFB6"/><circle cx="1083.455" cy="384.455" r="11.185" fill="#F79256"/><circle cx="34.95" cy="454.35" r="6.99" fill="#F79256"/><circle cx="104.845" cy="454.345" r="11.015" fill="#7DCFB6"/><circle cx="174.75" cy="454.35" r="15.04" fill="#F79256"/><circle cx="244.65" cy="454.35" r="19.07" fill="#7DCFB6"/><circle cx="314.555" cy="454.355" r="23.095" fill="#7DCFB6"/><circle cx="384.45" cy="454.35" r="27.12" fill="#7DCFB6"/><circle cx="454.345" cy="454.345" r="31.145" fill="#7DCFB6"/><circle cx="524.25" cy="454.35" r="33.83" fill="#7DCFB6"/><circle cx="594.15" cy="454.35" r="33.83" fill="#7DCFB6"/><circle cx="664.05" cy="454.35" r="33.83" fill="#F79256"/><circle cx="733.945" cy="454.345" r="31.145" fill="#F79256"/><circle cx="803.85" cy="454.35" r="27.12" fill="#F79256"/><circle cx="873.755" cy="454.355" r="23.095" fill="#7DCFB6"/><circle cx="943.65" cy="454.35" r="19.07" fill="#F79256"/><circle cx="1013.55" cy="454.35" r="15.04" fill="#F79256"/><circle cx="1083.445" cy="454.345" r="11.015" fill="#7DCFB6"/><circle cx="34.95" cy="524.25" r="6.99" fill="#7DCFB6"/><circle cx="104.85" cy="524.25" r="10.01" fill="#F79256"/><circle cx="174.75" cy="524.25" r="13.03" fill="#7DCFB6"/><circle cx="244.65" cy="524.25" r="16.05" fill="#F79256"/><circle cx="314.55" cy="524.25" r="19.07" fill="#7DCFB6"/><circle cx="384.45" cy="524.25" r="22.09" fill="#7DCFB6"/><circle cx="454.35" cy="524.25" r="25.11" fill="#F79256"/><circle cx="524.25" cy="524.25" r="27.12" fill="#7DCFB6"/><circle cx="594.15" cy="524.25" r="27.12" fill="#7DCFB6"/><circle cx="664.05" cy="524.25" r="27.12" fill="#7DCFB6"/><circle cx="733.95" cy="524.25" r="25.11" fill="#7DCFB6"/><circle cx="803.85" cy="524.25" r="22.09" fill="#F79256"/><circle cx="873.75" cy="524.25" r="19.07" fill="#7DCFB6"/><circle cx="943.65" cy="524.25" r="16.05" fill="#7DCFB6"/><circle cx="1013.55" cy="524.25" r="13.03" fill="#F79256"/><circle cx="1083.45" cy="524.25" r="10.01" fill="#F79256"/><circle cx="34.95" cy="594.15" r="6.99" fill="#7DCFB6"/><circle cx="104.855" cy="594.155" r="9.005" fill="#7DCFB6"/><circle cx="174.745" cy="594.145" r="11.015" fill="#F79256"/><circle cx="244.65" cy="594.15" r="13.03" fill="#7DCFB6"/><circle cx="314.55" cy="594.15" r="15.04" fill="#F79256"/><circle cx="384.445" cy="594.145" r="17.055" fill="#F79256"/><circle cx="454.35" cy="594.15" r="19.07" fill="#F79256"/><circle cx="524.25" cy="594.15" r="20.41" fill="#F79256"/><circle cx="594.15" cy="594.15" r="20.41" fill="#7DCFB6"/><circle cx="664.05" cy="594.15" r="20.41" fill="#7DCFB6"/><circle cx="733.95" cy="594.15" r="19.07" fill="#7DCFB6"/><circle cx="803.845" cy="594.145" r="17.055" fill="#7DCFB6"/><circle cx="873.75" cy="594.15" r="15.04" fill="#F79256"/><circle cx="943.65" cy="594.15" r="13.03" fill="#F79256"/><circle cx="1013.545" cy="594.145" r="11.015" fill="#F79256"/><circle cx="1083.455" cy="594.155" r="9.005" fill="#F79256"/><circle cx="34.95" cy="664.05" r="6.99" fill="#7DCFB6"/><circle cx="104.845" cy="664.045" r="7.995" fill="#7DCFB6"/><circle cx="174.755" cy="664.055" r="9.005" fill="#7DCFB6"/><circle cx="244.65" cy="664.05" r="10.01" fill="#7DCFB6"/><circle cx="314.545" cy="664.045" r="11.015" fill="#F79256"/><circle cx="384.455" cy="664.055" r="12.025" fill="#F79256"/><circle cx="454.35" cy="664.05" r="13.03" fill="#F79256"/><circle cx="524.25" cy="664.05" r="13.7" fill="#7DCFB6"/><circle cx="594.15" cy="664.05" r="13.7" fill="#7DCFB6"/><circle cx="664.05" cy="664.05" r="13.7" fill="#F79256"/><circle cx="733.95" cy="664.05" r="13.03" fill="#7DCFB6"/><circle cx="803.855" cy="664.055" r="12.025" fill="#7DCFB6"/><circle cx="873.745" cy="664.045" r="11.015" fill="#7DCFB6"/><circle cx="943.65" cy="664.05" r="10.01" fill="#7DCFB6"/><circle cx="1013.555" cy="664.055" r="9.005" fill="#7DCFB6"/><circle cx="1083.445" cy="664.045" r="7.995" fill="#7DCFB6"/></g></svg>