<?xml version="1.0" standalone="no"?><svg xmlns:xlink="http://www.w3.org/1999/xlink" xmlns="http://www.w3.org/2000/svg" viewBox="0 0 1000 625.0055095690194" preserveAspectRatio="xMaxYMax slice"><g transform="scale(0.8815310431156832)"><rect x="0" y="0" width="1134.4" height="709" fill="#1D4E89"/><rect x="0" y="0" width="70.9" height="70.9" fill="#1D4E89"/><rect x="0" y="0" width="35.45" height="35.45" fill="#166799"/><path d="M 0 0 A 35.45 35.45 0 0 1  35.45 35.45 L 0 0 A 35.45 35.45 0 0 0 35.45 35.45" fill="#63acaa"/><rect x="35.45" y="0" width="35.45" height="35.45" fill="#03a6c2"/><path d="M 35.45 35.45 A 35.45 35.45 0 0 1  70.9 0 L 35.45 35.45 A 35.45 35.45 0 0 0 70.9 0" fill="#1e508a"/><rect x="0" y="35.45" width="35.45" height="35.45" fill="#0e82ab"/><path d="M 0 35.45 A 35.45 35.45 0 0 1 35.45 70.9 L 0 70.9" fill="#0d85ad"/><rect x="35.45" y="35.45" width="35.45" height="35.45" fill="#3d7998"/><path d="M 35.45 70.9 A 35.45 35.45 0 0 1  70.9 35.45 L 35.45 70.9 A 35.45 35.45 0 0 0 70.9 35.45" fill="#579ca4"/><rect x="70.9" y="0" width="70.9" height="70.9" fill="#1176a3"/><path d="M 70.9 70.9 A 70.9 70.9 0 0 1  141.8 0 L 141.8 70.9" fill="#0994b7"/><rect x="141.8" y="0" width="70.9" height="70.9" fill="#01afc8"/><path d="M 141.8 0 A 70.9 70.9 0 0 0 212.70000000000002 70.9 L 212.70000000000002 0" fill="#1b568e"/><rect x="212.70000000000002" y="0" width="70.9" height="70.9" fill="#1D4E89"/><rect x="212.7" y="0" width="35.45" height="35.45" fill="#72c0b1"/><path d="M 212.7 35.45 A 35.45 35.45 0 0 1  248.14999999999998 0 L 248.14999999999998 35.45" fill="#72c1b1"/><rect x="248.15" y="0" width="35.45" height="35.45" fill="#1178a4"/><path d="M 248.15 35.45 A 35.45 35.45 0 0 0 283.6 0 L 248.15 0" fill="#5da4a7"/><rect x="212.7" y="35.45" width="35.45" height="35.45" fill="#47869c"/><path d="M 212.7 35.45 A 35.45 35.45 0 0 1 248.14999999999998 70.9 L 212.7 70.9" fill="#156a9b"/><rect x="248.15" y="35.45" width="35.45" height="35.45" fill="#1c538c"/><path d="M 248.15 70.9 A 35.45 35.45 0 0 0 283.6 35.45 L 248.15 35.45" fill="#107ba6"/><rect x="283.6" y="0" width="70.9" height="70.9" fill="#1b568e"/><path d="M 283.6 0 A 70.9 70.9 0 0 1  354.5 70.9 L 283.6 0 A 70.9 70.9 0 0 0 354.5 70.9" fill="#166598"/><rect x="354.5" y="0" width="70.9" height="70.9" fill="#1D4E89"/><rect x="354.5" y="0" width="35.45" height="35.45" fill="#336b93"/><path d="M 354.5 0 A 35.45 35.45 0 0 0 389.95 35.45 L 389.95 0" fill="#0898b9"/><rect x="389.95" y="0" width="35.45" height="35.45" fill="#1c528c"/><path d="M 389.95 0 A 35.45 35.45 0 0 1  425.4 35.45 L 389.95 0 A 35.45 35.45 0 0 0 425.4 35.45" fill="#0a91b4"/><rect x="354.5" y="35.45" width="35.45" height="35.45" fill="#195c92"/><path d="M 354.5 70.9 A 35.45 35.45 0 0 1  389.95 35.45 L 354.5 70.9 A 35.45 35.45 0 0 0 389.95 35.45" fill="#70bdb0"/><rect x="389.95" y="35.45" width="35.45" height="35.45" fill="#66b0ab"/><path d="M 389.95 70.9 A 35.45 35.45 0 0 1  425.4 35.45 L 425.4 70.9" fill="#1f518a"/><rect x="425.4" y="0" width="70.9" height="70.9" fill="#146e9e"/><path d="M 425.4 0 A 70.9 70.9 0 0 0 496.29999999999995 70.9 L 496.29999999999995 0" fill="#387296"/><rect x="496.3" y="0" width="70.9" height="70.9" fill="#4b8b9e"/><path d="M 496.3 0 A 70.9 70.9 0 0 1  567.2 70.9 L 496.3 0 A 70.9 70.9 0 0 0 567.2 70.9" fill="#0799ba"/><rect x="567.2" y="0" width="70.9" height="70.9" fill="#1D4E89"/><rect x="567.2" y="0" width="35.45" height="35.45" fill="#176296"/><path d="M 567.2 0 A 35.45 35.45 0 0 1  602.6500000000001 35.45 L 567.2 0 A 35.45 35.45 0 0 0 602.6500000000001 35.45" fill="#5ca3a7"/><rect x="602.65" y="0" width="35.45" height="35.45" fill="#1b558e"/><path d="M 602.65 0 A 35.45 35.45 0 0 0 638.1 35.45 L 638.1 0" fill="#107ca7"/><rect x="567.2" y="35.45" width="35.45" height="35.45" fill="#0e82ab"/><path d="M 567.2 70.9 A 35.45 35.45 0 0 0 602.6500000000001 35.45 L 567.2 35.45" fill="#68b3ac"/><rect x="602.65" y="35.45" width="35.45" height="35.45" fill="#23568c"/><path d="M 602.65 70.9 A 35.45 35.45 0 0 0 638.1 35.45 L 602.65 35.45" fill="#72c0b1"/><rect x="638.1" y="0" width="70.9" height="70.9" fill="#0c87ae"/><path d="M 638.1 0 A 70.9 70.9 0 0 1  709 70.9 L 638.1 0 A 70.9 70.9 0 0 0 709 70.9" fill="#0897b9"/><rect x="709" y="0" width="70.9" height="70.9" fill="#1D4E89"/><rect x="709" y="0" width="35.45" height="35.45" fill="#367095"/><path d="M 709 35.45 A 35.45 35.45 0 0 0 744.45 0 L 709 0" fill="#069dbd"/><rect x="744.45" y="0" width="35.45" height="35.45" fill="#2c6290"/><path d="M 744.45 0 A 35.45 35.45 0 0 1 779.9000000000001 35.45 L 744.45 35.45" fill="#0f7da8"/><rect x="709" y="35.45" width="35.45" height="35.45" fill="#1a588f"/><path d="M 709 35.45 A 35.45 35.45 0 0 0 744.45 70.9 L 744.45 35.45" fill="#68b3ac"/><rect x="744.45" y="35.45" width="35.45" height="35.45" fill="#43819b"/><path d="M 744.45 70.9 A 35.45 35.45 0 0 1  779.9000000000001 35.45 L 779.9000000000001 70.9" fill="#599ea5"/><rect x="779.9" y="0" width="70.9" height="70.9" fill="#407d99"/><path d="M 779.9 70.9 A 70.9 70.9 0 0 1  850.8 0 L 850.8 70.9" fill="#2e6591"/><rect x="850.8000000000001" y="0" width="70.9" height="70.9" fill="#1D4E89"/><rect x="850.8" y="0" width="35.45" height="35.45" fill="#107ca7"/><path d="M 850.8 0 A 35.45 35.45 0 0 1 886.25 35.45 L 850.8 35.45" fill="#346d94"/><rect x="886.25" y="0" width="35.45" height="35.45" fill="#166799"/><path d="M 886.25 0 A 35.45 35.45 0 0 1  921.7 35.45 L 886.25 0 A 35.45 35.45 0 0 0 921.7 35.45" fill="#13719f"/><rect x="850.8" y="35.45" width="35.45" height="35.45" fill="#00b2ca"/><path d="M 850.8 35.45 A 35.45 35.45 0 0 1  886.25 70.9 L 850.8 35.45 A 35.45 35.45 0 0 0 886.25 70.9" fill="#316892"/><rect x="886.25" y="35.45" width="35.45" height="35.45" fill="#176296"/><path d="M 886.25 35.45 A 35.45 35.45 0 0 0 921.7 70.9 L 921.7 35.45" fill="#00b2ca"/><rect x="921.7" y="0" width="70.9" height="70.9" fill="#1d4f89"/><path d="M 921.7 70.9 A 70.9 70.9 0 0 1  992.6 0 L 921.7 70.9 A 70.9 70.9 0 0 0 992.6 0" fill="#69b5ad"/><rect x="992.6000000000001" y="0" width="70.9" height="70.9" fill="#1D4E89"/><rect x="992.6" y="0" width="35.45" height="35.45" fill="#186095"/><path d="M 992.6 0 A 35.45 35.45 0 0 1 1028.05 35.45 L 992.6 35.45" fill="#387296"/><rect x="1028.05" y="0" width="35.45" height="35.45" fill="#0e83ab"/><path d="M 1028.05 35.45 A 35.45 35.45 0 0 1  1063.5 0 L 1028.05 35.45 A 35.45 35.45 0 0 0 1063.5 0" fill="#4a8b9e"/><rect x="992.6" y="35.45" width="35.45" height="35.45" fill="#25598d"/><path d="M 992.6 70.9 A 35.45 35.45 0 0 1  1028.05 35.45 L 1028.05 70.9" fill="#107ba6"/><rect x="1028.05" y="35.45" width="35.45" height="35.45" fill="#0e80aa"/><path d="M 1028.05 35.45 A 35.45 35.45 0 0 0 1063.5 70.9 L 1063.5 35.45" fill="#136f9f"/><rect x="1063.5" y="0" width="70.9" height="70.9" fill="#1D4E89"/><rect x="1063.5" y="0" width="35.45" height="35.45" fill="#5296a2"/><path d="M 1063.5 35.45 A 35.45 35.45 0 0 0 1098.95 0 L 1063.5 0" fill="#4c8d9f"/><rect x="1098.95" y="0" width="35.45" height="35.45" fill="#387296"/><path d="M 1098.95 35.45 A 35.45 35.45 0 0 1  1134.4 0 L 1134.4 35.45" fill="#599ea5"/><rect x="1063.5" y="35.45" width="35.45" height="35.45" fill="#6ab6ad"/><path d="M 1063.5 70.9 A 35.45 35.45 0 0 1  1098.95 35.45 L 1063.5 70.9 A 35.45 35.45 0 0 0 1098.95 35.45" fill="#7dcfb6"/><rect x="1098.95" y="35.45" width="35.45" height="35.45" fill="#04a3c0"/><path d="M 1098.95 35.45 A 35.45 35.45 0 0 0 1134.4 70.9 L 1134.4 35.45" fill="#0e82ab"/><rect x="0" y="70.9" width="70.9" height="70.9" fill="#1f508a"/><path d="M 0 70.9 A 70.9 70.9 0 0 1 70.9 141.8 L 0 141.8" fill="#0b8cb1"/><rect x="70.9" y="70.9" width="70.9" height="70.9" fill="#1D4E89"/><rect x="70.9" y="70.9" width="35.45" height="35.45" fill="#1a5990"/><path d="M 70.9 70.9 A 35.45 35.45 0 0 1 106.35000000000001 106.35000000000001 L 70.9 106.35000000000001" fill="#79c9b4"/><rect x="106.35" y="70.9" width="35.45" height="35.45" fill="#01afc8"/><path d="M 106.35 106.35000000000001 A 35.45 35.45 0 0 1  141.8 70.9 L 141.8 106.35000000000001" fill="#166598"/><rect x="70.9" y="106.35" width="35.45" height="35.45" fill="#0896b8"/><path d="M 70.9 106.35 A 35.45 35.45 0 0 1 106.35000000000001 141.8 L 70.9 141.8" fill="#69b4ad"/><rect x="106.35" y="106.35" width="35.45" height="35.45" fill="#1b538d"/><path d="M 106.35 106.35 A 35.45 35.45 0 0 1 141.8 141.8 L 106.35 141.8" fill="#73c1b1"/><rect x="141.8" y="70.9" width="70.9" height="70.9" fill="#1D4E89"/><rect x="141.8" y="70.9" width="35.45" height="35.45" fill="#356f94"/><path d="M 141.8 106.35000000000001 A 35.45 35.45 0 0 1  177.25 70.9 L 141.8 106.35000000000001 A 35.45 35.45 0 0 0 177.25 70.9" fill="#6ebbaf"/><rect x="177.25" y="70.9" width="35.45" height="35.45" fill="#387396"/><path d="M 177.25 106.35000000000001 A 35.45 35.45 0 0 0 212.7 70.9 L 177.25 70.9" fill="#04a3c0"/><rect x="141.8" y="106.35" width="35.45" height="35.45" fill="#05a0be"/><path d="M 141.8 141.8 A 35.45 35.45 0 0 0 177.25 106.35 L 141.8 106.35" fill="#6cb9ae"/><rect x="177.25" y="106.35" width="35.45" height="35.45" fill="#13709f"/><path d="M 177.25 141.8 A 35.45 35.45 0 0 1  212.7 106.35 L 212.7 141.8" fill="#0992b5"/><rect x="212.70000000000002" y="70.9" width="70.9" height="70.9" fill="#1D4E89"/><rect x="212.7" y="70.9" width="35.45" height="35.45" fill="#3e7a98"/><path d="M 212.7 106.35000000000001 A 35.45 35.45 0 0 1  248.14999999999998 70.9 L 212.7 106.35000000000001 A 35.45 35.45 0 0 0 248.14999999999998 70.9" fill="#0d86ad"/><rect x="248.15" y="70.9" width="35.45" height="35.45" fill="#05a0be"/><path d="M 248.15 70.9 A 35.45 35.45 0 0 1  283.6 106.35000000000001 L 248.15 70.9 A 35.45 35.45 0 0 0 283.6 106.35000000000001" fill="#185f94"/><rect x="212.7" y="106.35" width="35.45" height="35.45" fill="#75c4b2"/><path d="M 212.7 106.35 A 35.45 35.45 0 0 1 248.14999999999998 141.8 L 212.7 141.8" fill="#75c5b2"/><rect x="248.15" y="106.35" width="35.45" height="35.45" fill="#0b8bb1"/><path d="M 248.15 141.8 A 35.45 35.45 0 0 1  283.6 106.35 L 283.6 141.8" fill="#7bccb5"/><rect x="283.6" y="70.9" width="70.9" height="70.9" fill="#1D4E89"/><rect x="283.6" y="70.9" width="35.45" height="35.45" fill="#5498a3"/><path d="M 283.6 70.9 A 35.45 35.45 0 0 0 319.05 106.35000000000001 L 319.05 70.9" fill="#427f9a"/><rect x="319.05" y="70.9" width="35.45" height="35.45" fill="#24578c"/><path d="M 319.05 106.35000000000001 A 35.45 35.45 0 0 1  354.5 70.9 L 319.05 106.35000000000001 A 35.45 35.45 0 0 0 354.5 70.9" fill="#04a6c2"/><rect x="283.6" y="106.35" width="35.45" height="35.45" fill="#316993"/><path d="M 283.6 141.8 A 35.45 35.45 0 0 1  319.05 106.35 L 319.05 141.8" fill="#60a9a9"/><rect x="319.05" y="106.35" width="35.45" height="35.45" fill="#1c538c"/><path d="M 319.05 106.35 A 35.45 35.45 0 0 0 354.5 141.8 L 354.5 106.35" fill="#1d4e89"/><rect x="354.5" y="70.9" width="70.9" height="70.9" fill="#4c8d9f"/><path d="M 354.5 141.8 A 70.9 70.9 0 0 1  425.4 70.9 L 354.5 141.8 A 70.9 70.9 0 0 0 425.4 70.9" fill="#2f6691"/><rect x="425.40000000000003" y="70.9" width="70.9" height="70.9" fill="#1D4E89"/><rect x="425.4" y="70.9" width="35.45" height="35.45" fill="#0994b7"/><path d="M 425.4 70.9 A 35.45 35.45 0 0 0 460.84999999999997 106.35000000000001 L 460.84999999999997 70.9" fill="#0c87ae"/><rect x="460.85" y="70.9" width="35.45" height="35.45" fill="#1371a0"/><path d="M 460.85 106.35000000000001 A 35.45 35.45 0 0 1  496.3 70.9 L 496.3 106.35000000000001" fill="#7dceb6"/><rect x="425.4" y="106.35" width="35.45" height="35.45" fill="#427f9a"/><path d="M 425.4 141.8 A 35.45 35.45 0 0 1  460.84999999999997 106.35 L 425.4 141.8 A 35.45 35.45 0 0 0 460.84999999999997 106.35" fill="#04a6c2"/><rect x="460.85" y="106.35" width="35.45" height="35.45" fill="#1e4f89"/><path d="M 460.85 106.35 A 35.45 35.45 0 0 0 496.3 141.8 L 496.3 106.35" fill="#1f508a"/><rect x="496.3" y="70.9" width="70.9" height="70.9" fill="#6bb6ad"/><path d="M 496.3 141.8 A 70.9 70.9 0 0 0 567.2 70.9 L 496.3 70.9" fill="#4c8d9f"/><rect x="567.2" y="70.9" width="70.9" height="70.9" fill="#66b0ab"/><path d="M 567.2 70.9 A 70.9 70.9 0 0 1  638.1 141.8 L 567.2 70.9 A 70.9 70.9 0 0 0 638.1 141.8" fill="#1c538c"/><rect x="638.1" y="70.9" width="70.9" height="70.9" fill="#04a5c2"/><path d="M 638.1 141.8 A 70.9 70.9 0 0 1  709 70.9 L 709 141.8" fill="#3b7697"/><rect x="709" y="70.9" width="70.9" height="70.9" fill="#7bcdb5"/><path d="M 709 141.8 A 70.9 70.9 0 0 0 779.9 70.9 L 709 70.9" fill="#45849c"/><rect x="779.9000000000001" y="70.9" width="70.9" height="70.9" fill="#1D4E89"/><rect x="779.9" y="70.9" width="35.45" height="35.45" fill="#356e94"/><path d="M 779.9 106.35000000000001 A 35.45 35.45 0 0 0 815.35 70.9 L 779.9 70.9" fill="#326b93"/><rect x="815.35" y="70.9" width="35.45" height="35.45" fill="#166799"/><path d="M 815.35 70.9 A 35.45 35.45 0 0 1 850.8000000000001 106.35000000000001 L 815.35 106.35000000000001" fill="#0c89af"/><rect x="779.9" y="106.35" width="35.45" height="35.45" fill="#65aeab"/><path d="M 779.9 141.8 A 35.45 35.45 0 0 1  815.35 106.35 L 779.9 141.8 A 35.45 35.45 0 0 0 815.35 106.35" fill="#5498a3"/><rect x="815.35" y="106.35" width="35.45" height="35.45" fill="#42809a"/><path d="M 815.35 106.35 A 35.45 35.45 0 0 1 850.8000000000001 141.8 L 815.35 141.8" fill="#1372a0"/><rect x="850.8" y="70.9" width="70.9" height="70.9" fill="#3b7697"/><path d="M 850.8 141.8 A 70.9 70.9 0 0 1  921.6999999999999 70.9 L 921.6999999999999 141.8" fill="#72c1b1"/><rect x="921.7" y="70.9" width="70.9" height="70.9" fill="#265a8d"/><path d="M 921.7 141.8 A 70.9 70.9 0 0 0 992.6 70.9 L 921.7 70.9" fill="#579ca4"/><rect x="992.6" y="70.9" width="70.9" height="70.9" fill="#285c8e"/><path d="M 992.6 70.9 A 70.9 70.9 0 0 1 1063.5 141.8 L 992.6 141.8" fill="#079cbb"/><rect x="1063.5" y="70.9" width="70.9" height="70.9" fill="#1D4E89"/><rect x="1063.5" y="70.9" width="35.45" height="35.45" fill="#02abc6"/><path d="M 1063.5 70.9 A 35.45 35.45 0 0 0 1098.95 106.35000000000001 L 1098.95 70.9" fill="#65afab"/><rect x="1098.95" y="70.9" width="35.45" height="35.45" fill="#01afc8"/><path d="M 1098.95 70.9 A 35.45 35.45 0 0 1 1134.4 106.35000000000001 L 1098.95 106.35000000000001" fill="#02acc6"/><rect x="1063.5" y="106.35" width="35.45" height="35.45" fill="#3b7797"/><path d="M 1063.5 106.35 A 35.45 35.45 0 0 0 1098.95 141.8 L 1098.95 106.35" fill="#0c89af"/><rect x="1098.95" y="106.35" width="35.45" height="35.45" fill="#02abc6"/><path d="M 1098.95 106.35 A 35.45 35.45 0 0 0 1134.4 141.8 L 1134.4 106.35" fill="#0a8fb3"/><rect x="0" y="141.8" width="70.9" height="70.9" fill="#316992"/><path d="M 0 141.8 A 70.9 70.9 0 0 0 70.9 212.70000000000002 L 70.9 141.8" fill="#0799ba"/><rect x="70.9" y="141.8" width="70.9" height="70.9" fill="#356e94"/><path d="M 70.9 212.70000000000002 A 70.9 70.9 0 0 1  141.8 141.8 L 70.9 212.70000000000002 A 70.9 70.9 0 0 0 141.8 141.8" fill="#265a8d"/><rect x="141.8" y="141.8" width="70.9" height="70.9" fill="#185e93"/><path d="M 141.8 141.8 A 70.9 70.9 0 0 0 212.70000000000002 212.70000000000002 L 212.70000000000002 141.8" fill="#03a7c3"/><rect x="212.70000000000002" y="141.8" width="70.9" height="70.9" fill="#1D4E89"/><rect x="212.7" y="141.8" width="35.45" height="35.45" fill="#146e9e"/><path d="M 212.7 141.8 A 35.45 35.45 0 0 1 248.14999999999998 177.25 L 212.7 177.25" fill="#75c5b2"/><rect x="248.15" y="141.8" width="35.45" height="35.45" fill="#72c1b1"/><path d="M 248.15 177.25 A 35.45 35.45 0 0 0 283.6 141.8 L 248.15 141.8" fill="#71bfb0"/><rect x="212.7" y="177.25" width="35.45" height="35.45" fill="#00b1c9"/><path d="M 212.7 212.7 A 35.45 35.45 0 0 0 248.14999999999998 177.25 L 212.7 177.25" fill="#306892"/><rect x="248.15" y="177.25" width="35.45" height="35.45" fill="#03a7c3"/><path d="M 248.15 212.7 A 35.45 35.45 0 0 1  283.6 177.25 L 248.15 212.7 A 35.45 35.45 0 0 0 283.6 177.25" fill="#6ab6ad"/><rect x="283.6" y="141.8" width="70.9" height="70.9" fill="#1D4E89"/><rect x="283.6" y="141.8" width="35.45" height="35.45" fill="#76c6b3"/><path d="M 283.6 141.8 A 35.45 35.45 0 0 0 319.05 177.25 L 319.05 141.8" fill="#0897b9"/><rect x="319.05" y="141.8" width="35.45" height="35.45" fill="#0f7ea8"/><path d="M 319.05 141.8 A 35.45 35.45 0 0 0 354.5 177.25 L 354.5 141.8" fill="#77c7b3"/><rect x="283.6" y="177.25" width="35.45" height="35.45" fill="#146c9c"/><path d="M 283.6 177.25 A 35.45 35.45 0 0 0 319.05 212.7 L 319.05 177.25" fill="#387396"/><rect x="319.05" y="177.25" width="35.45" height="35.45" fill="#295e8f"/><path d="M 319.05 177.25 A 35.45 35.45 0 0 0 354.5 212.7 L 354.5 177.25" fill="#1b548d"/><rect x="354.5" y="141.8" width="70.9" height="70.9" fill="#1D4E89"/><rect x="354.5" y="141.8" width="35.45" height="35.45" fill="#79cab4"/><path d="M 354.5 177.25 A 35.45 35.45 0 0 1  389.95 141.8 L 389.95 177.25" fill="#13709f"/><rect x="389.95" y="141.8" width="35.45" height="35.45" fill="#336b93"/><path d="M 389.95 141.8 A 35.45 35.45 0 0 0 425.4 177.25 L 425.4 141.8" fill="#186095"/><rect x="354.5" y="177.25" width="35.45" height="35.45" fill="#0f7da8"/><path d="M 354.5 177.25 A 35.45 35.45 0 0 1  389.95 212.7 L 354.5 177.25 A 35.45 35.45 0 0 0 389.95 212.7" fill="#5497a3"/><rect x="389.95" y="177.25" width="35.45" height="35.45" fill="#146e9e"/><path d="M 389.95 212.7 A 35.45 35.45 0 0 1  425.4 177.25 L 389.95 212.7 A 35.45 35.45 0 0 0 425.4 177.25" fill="#45849c"/><rect x="425.40000000000003" y="141.8" width="70.9" height="70.9" fill="#1D4E89"/><rect x="425.4" y="141.8" width="35.45" height="35.45" fill="#3f7c99"/><path d="M 425.4 141.8 A 35.45 35.45 0 0 0 460.84999999999997 177.25 L 460.84999999999997 141.8" fill="#146c9c"/><rect x="460.85" y="141.8" width="35.45" height="35.45" fill="#2c6290"/><path d="M 460.85 177.25 A 35.45 35.45 0 0 0 496.3 141.8 L 460.85 141.8" fill="#1c528c"/><rect x="425.4" y="177.25" width="35.45" height="35.45" fill="#0d85ad"/><path d="M 425.4 177.25 A 35.45 35.45 0 0 0 460.84999999999997 212.7 L 460.84999999999997 177.25" fill="#185e93"/><rect x="460.85" y="177.25" width="35.45" height="35.45" fill="#0a8fb3"/><path d="M 460.85 177.25 A 35.45 35.45 0 0 0 496.3 212.7 L 496.3 177.25" fill="#7cceb6"/><rect x="496.30000000000007" y="141.8" width="70.9" height="70.9" fill="#1D4E89"/><rect x="496.3" y="141.8" width="35.45" height="35.45" fill="#66b0ab"/><path d="M 496.3 141.8 A 35.45 35.45 0 0 1 531.75 177.25 L 496.3 177.25" fill="#21548b"/><rect x="531.75" y="141.8" width="35.45" height="35.45" fill="#1c538c"/><path d="M 531.75 177.25 A 35.45 35.45 0 0 1  567.2 141.8 L 531.75 177.25 A 35.45 35.45 0 0 0 567.2 141.8" fill="#0b8bb1"/><rect x="496.3" y="177.25" width="35.45" height="35.45" fill="#5093a1"/><path d="M 496.3 212.7 A 35.45 35.45 0 0 0 531.75 177.25 L 496.3 177.25" fill="#1c528c"/><rect x="531.75" y="177.25" width="35.45" height="35.45" fill="#67b1ac"/><path d="M 531.75 212.7 A 35.45 35.45 0 0 1  567.2 177.25 L 567.2 212.7" fill="#70bdb0"/><rect x="567.2" y="141.8" width="70.9" height="70.9" fill="#079aba"/><path d="M 567.2 212.70000000000002 A 70.9 70.9 0 0 1  638.1 141.8 L 638.1 212.70000000000002" fill="#079aba"/><rect x="638.1" y="141.8" width="70.9" height="70.9" fill="#1D4E89"/><rect x="638.1" y="141.8" width="35.45" height="35.45" fill="#059fbe"/><path d="M 638.1 177.25 A 35.45 35.45 0 0 0 673.5500000000001 141.8 L 638.1 141.8" fill="#195a91"/><rect x="673.55" y="141.8" width="35.45" height="35.45" fill="#49899e"/><path d="M 673.55 177.25 A 35.45 35.45 0 0 0 709 141.8 L 673.55 141.8" fill="#05a2c0"/><rect x="638.1" y="177.25" width="35.45" height="35.45" fill="#05a2c0"/><path d="M 638.1 212.7 A 35.45 35.45 0 0 1  673.5500000000001 177.25 L 638.1 212.7 A 35.45 35.45 0 0 0 673.5500000000001 177.25" fill="#1b558d"/><rect x="673.55" y="177.25" width="35.45" height="35.45" fill="#366f95"/><path d="M 673.55 212.7 A 35.45 35.45 0 0 1  709 177.25 L 709 212.7" fill="#166799"/><rect x="709" y="141.8" width="70.9" height="70.9" fill="#156a9b"/><path d="M 709 212.70000000000002 A 70.9 70.9 0 0 1  779.9 141.8 L 709 212.70000000000002 A 70.9 70.9 0 0 0 779.9 141.8" fill="#24578c"/><rect x="779.9000000000001" y="141.8" width="70.9" height="70.9" fill="#1D4E89"/><rect x="779.9" y="141.8" width="35.45" height="35.45" fill="#0897b9"/><path d="M 779.9 177.25 A 35.45 35.45 0 0 0 815.35 141.8 L 779.9 141.8" fill="#5fa6a8"/><rect x="815.35" y="141.8" width="35.45" height="35.45" fill="#5ca3a7"/><path d="M 815.35 177.25 A 35.45 35.45 0 0 0 850.8000000000001 141.8 L 815.35 141.8" fill="#1c508a"/><rect x="779.9" y="177.25" width="35.45" height="35.45" fill="#49899e"/><path d="M 779.9 177.25 A 35.45 35.45 0 0 0 815.35 212.7 L 815.35 177.25" fill="#176497"/><rect x="815.35" y="177.25" width="35.45" height="35.45" fill="#45849c"/><path d="M 815.35 177.25 A 35.45 35.45 0 0 1 850.8000000000001 212.7 L 815.35 212.7" fill="#7bcdb5"/><rect x="850.8" y="141.8" width="70.9" height="70.9" fill="#5ca3a7"/><path d="M 850.8 212.70000000000002 A 70.9 70.9 0 0 0 921.6999999999999 141.8 L 850.8 141.8" fill="#366f95"/><rect x="921.7" y="141.8" width="70.9" height="70.9" fill="#5ea6a8"/><path d="M 921.7 141.8 A 70.9 70.9 0 0 1 992.6 212.70000000000002 L 921.7 212.70000000000002" fill="#47879d"/><rect x="992.6000000000001" y="141.8" width="70.9" height="70.9" fill="#1D4E89"/><rect x="992.6" y="141.8" width="35.45" height="35.45" fill="#05a2bf"/><path d="M 992.6 141.8 A 35.45 35.45 0 0 1  1028.05 177.25 L 992.6 141.8 A 35.45 35.45 0 0 0 1028.05 177.25" fill="#069cbc"/><rect x="1028.05" y="141.8" width="35.45" height="35.45" fill="#589da4"/><path d="M 1028.05 141.8 A 35.45 35.45 0 0 1  1063.5 177.25 L 1028.05 141.8 A 35.45 35.45 0 0 0 1063.5 177.25" fill="#0c8ab0"/><rect x="992.6" y="177.25" width="35.45" height="35.45" fill="#0e82ab"/><path d="M 992.6 212.7 A 35.45 35.45 0 0 1  1028.05 177.25 L 1028.05 212.7" fill="#069ebd"/><rect x="1028.05" y="177.25" width="35.45" height="35.45" fill="#02abc5"/><path d="M 1028.05 212.7 A 35.45 35.45 0 0 1  1063.5 177.25 L 1063.5 212.7" fill="#1d4e89"/><rect x="1063.5" y="141.8" width="70.9" height="70.9" fill="#1D4E89"/><rect x="1063.5" y="141.8" width="35.45" height="35.45" fill="#2a5f8f"/><path d="M 1063.5 177.25 A 35.45 35.45 0 0 0 1098.95 141.8 L 1063.5 141.8" fill="#107aa6"/><rect x="1098.95" y="141.8" width="35.45" height="35.45" fill="#49899e"/><path d="M 1098.95 177.25 A 35.45 35.45 0 0 0 1134.4 141.8 L 1098.95 141.8" fill="#6cb8ae"/><rect x="1063.5" y="177.25" width="35.45" height="35.45" fill="#4b8b9e"/><path d="M 1063.5 212.7 A 35.45 35.45 0 0 1  1098.95 177.25 L 1063.5 212.7 A 35.45 35.45 0 0 0 1098.95 177.25" fill="#316892"/><rect x="1098.95" y="177.25" width="35.45" height="35.45" fill="#599fa5"/><path d="M 1098.95 177.25 A 35.45 35.45 0 0 0 1134.4 212.7 L 1134.4 177.25" fill="#0b8cb1"/><rect x="0" y="212.7" width="70.9" height="70.9" fill="#02abc5"/><path d="M 0 212.7 A 70.9 70.9 0 0 0 70.9 283.6 L 70.9 212.7" fill="#5ba1a6"/><rect x="70.9" y="212.70000000000002" width="70.9" height="70.9" fill="#1D4E89"/><rect x="70.9" y="212.7" width="35.45" height="35.45" fill="#73c2b1"/><path d="M 70.9 248.14999999999998 A 35.45 35.45 0 0 0 106.35000000000001 212.7 L 70.9 212.7" fill="#107aa6"/><rect x="106.35" y="212.7" width="35.45" height="35.45" fill="#397396"/><path d="M 106.35 248.14999999999998 A 35.45 35.45 0 0 1  141.8 212.7 L 141.8 248.14999999999998" fill="#0897b9"/><rect x="70.9" y="248.15" width="35.45" height="35.45" fill="#185f94"/><path d="M 70.9 248.15 A 35.45 35.45 0 0 1 106.35000000000001 283.6 L 70.9 283.6" fill="#4b8c9f"/><rect x="106.35" y="248.15" width="35.45" height="35.45" fill="#3a7496"/><path d="M 106.35 283.6 A 35.45 35.45 0 0 0 141.8 248.15 L 106.35 248.15" fill="#356f94"/><rect x="141.8" y="212.70000000000002" width="70.9" height="70.9" fill="#1D4E89"/><rect x="141.8" y="212.7" width="35.45" height="35.45" fill="#61a9a9"/><path d="M 141.8 212.7 A 35.45 35.45 0 0 1  177.25 248.14999999999998 L 141.8 212.7 A 35.45 35.45 0 0 0 177.25 248.14999999999998" fill="#079aba"/><rect x="177.25" y="212.7" width="35.45" height="35.45" fill="#417f9a"/><path d="M 177.25 212.7 A 35.45 35.45 0 0 1 212.7 248.14999999999998 L 177.25 248.14999999999998" fill="#5092a1"/><rect x="141.8" y="248.15" width="35.45" height="35.45" fill="#0a8fb3"/><path d="M 141.8 248.15 A 35.45 35.45 0 0 1  177.25 283.6 L 141.8 248.15 A 35.45 35.45 0 0 0 177.25 283.6" fill="#1c528b"/><rect x="177.25" y="248.15" width="35.45" height="35.45" fill="#316892"/><path d="M 177.25 283.6 A 35.45 35.45 0 0 1  212.7 248.15 L 212.7 283.6" fill="#7acbb5"/><rect x="212.70000000000002" y="212.70000000000002" width="70.9" height="70.9" fill="#1D4E89"/><rect x="212.7" y="212.7" width="35.45" height="35.45" fill="#5ba2a6"/><path d="M 212.7 248.14999999999998 A 35.45 35.45 0 0 0 248.14999999999998 212.7 L 212.7 212.7" fill="#78c8b3"/><rect x="248.15" y="212.7" width="35.45" height="35.45" fill="#069dbd"/><path d="M 248.15 212.7 A 35.45 35.45 0 0 1 283.6 248.14999999999998 L 248.15 248.14999999999998" fill="#1178a4"/><rect x="212.7" y="248.15" width="35.45" height="35.45" fill="#136f9f"/><path d="M 212.7 283.6 A 35.45 35.45 0 0 1  248.14999999999998 248.15 L 248.14999999999998 283.6" fill="#3b7697"/><rect x="248.15" y="248.15" width="35.45" height="35.45" fill="#60a8a8"/><path d="M 248.15 248.15 A 35.45 35.45 0 0 1 283.6 283.6 L 248.15 283.6" fill="#185f94"/><rect x="283.6" y="212.7" width="70.9" height="70.9" fill="#21548b"/><path d="M 283.6 212.7 A 70.9 70.9 0 0 1 354.5 283.6 L 283.6 283.6" fill="#4b8b9e"/><rect x="354.5" y="212.7" width="70.9" height="70.9" fill="#1176a3"/><path d="M 354.5 283.6 A 70.9 70.9 0 0 1  425.4 212.7 L 354.5 283.6 A 70.9 70.9 0 0 0 425.4 212.7" fill="#1a5a91"/><rect x="425.4" y="212.7" width="70.9" height="70.9" fill="#195c92"/><path d="M 425.4 212.7 A 70.9 70.9 0 0 1  496.29999999999995 283.6 L 425.4 212.7 A 70.9 70.9 0 0 0 496.29999999999995 283.6" fill="#306892"/><rect x="496.30000000000007" y="212.70000000000002" width="70.9" height="70.9" fill="#1D4E89"/><rect x="496.3" y="212.7" width="35.45" height="35.45" fill="#1b558e"/><path d="M 496.3 248.14999999999998 A 35.45 35.45 0 0 0 531.75 212.7 L 496.3 212.7" fill="#0994b7"/><rect x="531.75" y="212.7" width="35.45" height="35.45" fill="#2b6190"/><path d="M 531.75 212.7 A 35.45 35.45 0 0 1  567.2 248.14999999999998 L 531.75 212.7 A 35.45 35.45 0 0 0 567.2 248.14999999999998" fill="#25598d"/><rect x="496.3" y="248.15" width="35.45" height="35.45" fill="#05a1bf"/><path d="M 496.3 283.6 A 35.45 35.45 0 0 1  531.75 248.15 L 496.3 283.6 A 35.45 35.45 0 0 0 531.75 248.15" fill="#6ab6ad"/><rect x="531.75" y="248.15" width="35.45" height="35.45" fill="#377195"/><path d="M 531.75 248.15 A 35.45 35.45 0 0 1 567.2 283.6 L 531.75 283.6" fill="#66b0ab"/><rect x="567.2" y="212.7" width="70.9" height="70.9" fill="#3b7797"/><path d="M 567.2 283.6 A 70.9 70.9 0 0 0 638.1 212.7 L 567.2 212.7" fill="#195b91"/><rect x="638.1" y="212.7" width="70.9" height="70.9" fill="#15699b"/><path d="M 638.1 283.6 A 70.9 70.9 0 0 1  709 212.7 L 709 283.6" fill="#079bbb"/><rect x="709" y="212.7" width="70.9" height="70.9" fill="#0c8ab0"/><path d="M 709 283.6 A 70.9 70.9 0 0 1  779.9 212.7 L 779.9 283.6" fill="#1b558e"/><rect x="779.9" y="212.7" width="70.9" height="70.9" fill="#71bfb0"/><path d="M 779.9 283.6 A 70.9 70.9 0 0 1  850.8 212.7 L 850.8 283.6" fill="#03a6c2"/><rect x="850.8" y="212.7" width="70.9" height="70.9" fill="#069dbc"/><path d="M 850.8 212.7 A 70.9 70.9 0 0 1 921.6999999999999 283.6 L 850.8 283.6" fill="#146c9d"/><rect x="921.7" y="212.70000000000002" width="70.9" height="70.9" fill="#1D4E89"/><rect x="921.7" y="212.7" width="35.45" height="35.45" fill="#176196"/><path d="M 921.7 212.7 A 35.45 35.45 0 0 0 957.1500000000001 248.14999999999998 L 957.1500000000001 212.7" fill="#77c7b3"/><rect x="957.15" y="212.7" width="35.45" height="35.45" fill="#7cceb6"/><path d="M 957.15 212.7 A 35.45 35.45 0 0 1  992.6 248.14999999999998 L 957.15 212.7 A 35.45 35.45 0 0 0 992.6 248.14999999999998" fill="#01afc8"/><rect x="921.7" y="248.15" width="35.45" height="35.45" fill="#069ebd"/><path d="M 921.7 283.6 A 35.45 35.45 0 0 0 957.1500000000001 248.15 L 921.7 248.15" fill="#0d85ad"/><rect x="957.15" y="248.15" width="35.45" height="35.45" fill="#62aaa9"/><path d="M 957.15 248.15 A 35.45 35.45 0 0 0 992.6 283.6 L 992.6 248.15" fill="#05a2bf"/><rect x="992.6" y="212.7" width="70.9" height="70.9" fill="#306892"/><path d="M 992.6 212.7 A 70.9 70.9 0 0 1 1063.5 283.6 L 992.6 283.6" fill="#0b8bb1"/><rect x="1063.5" y="212.70000000000002" width="70.9" height="70.9" fill="#1D4E89"/><rect x="1063.5" y="212.7" width="35.45" height="35.45" fill="#417f9a"/><path d="M 1063.5 248.14999999999998 A 35.45 35.45 0 0 1  1098.95 212.7 L 1098.95 248.14999999999998" fill="#2a608f"/><rect x="1098.95" y="212.7" width="35.45" height="35.45" fill="#0b8bb1"/><path d="M 1098.95 248.14999999999998 A 35.45 35.45 0 0 1  1134.4 212.7 L 1134.4 248.14999999999998" fill="#186095"/><rect x="1063.5" y="248.15" width="35.45" height="35.45" fill="#377195"/><path d="M 1063.5 283.6 A 35.45 35.45 0 0 1  1098.95 248.15 L 1063.5 283.6 A 35.45 35.45 0 0 0 1098.95 248.15" fill="#63acaa"/><rect x="1098.95" y="248.15" width="35.45" height="35.45" fill="#1e508a"/><path d="M 1098.95 248.15 A 35.45 35.45 0 0 1  1134.4 283.6 L 1098.95 248.15 A 35.45 35.45 0 0 0 1134.4 283.6" fill="#76c5b3"/><rect x="0" y="283.6" width="70.9" height="70.9" fill="#6ebbaf"/><path d="M 0 283.6 A 70.9 70.9 0 0 1 70.9 354.5 L 0 354.5" fill="#00b2ca"/><rect x="70.9" y="283.6" width="70.9" height="70.9" fill="#1D4E89"/><rect x="70.9" y="283.6" width="35.45" height="35.45" fill="#1c538c"/><path d="M 70.9 283.6 A 35.45 35.45 0 0 0 106.35000000000001 319.05 L 106.35000000000001 283.6" fill="#275b8e"/><rect x="106.35" y="283.6" width="35.45" height="35.45" fill="#25598d"/><path d="M 106.35 283.6 A 35.45 35.45 0 0 0 141.8 319.05 L 141.8 283.6" fill="#0f7ea8"/><rect x="70.9" y="319.05" width="35.45" height="35.45" fill="#589da5"/><path d="M 70.9 354.5 A 35.45 35.45 0 0 1  106.35000000000001 319.05 L 106.35000000000001 354.5" fill="#0f7fa9"/><rect x="106.35" y="319.05" width="35.45" height="35.45" fill="#63acaa"/><path d="M 106.35 354.5 A 35.45 35.45 0 0 0 141.8 319.05 L 106.35 319.05" fill="#22558b"/><rect x="141.8" y="283.6" width="70.9" height="70.9" fill="#78c8b4"/><path d="M 141.8 354.5 A 70.9 70.9 0 0 1  212.70000000000002 283.6 L 212.70000000000002 354.5" fill="#02aac5"/><rect x="212.70000000000002" y="283.6" width="70.9" height="70.9" fill="#1D4E89"/><rect x="212.7" y="283.6" width="35.45" height="35.45" fill="#69b4ac"/><path d="M 212.7 319.05 A 35.45 35.45 0 0 1  248.14999999999998 283.6 L 248.14999999999998 319.05" fill="#68b3ac"/><rect x="248.15" y="283.6" width="35.45" height="35.45" fill="#05a0bf"/><path d="M 248.15 283.6 A 35.45 35.45 0 0 1  283.6 319.05 L 248.15 283.6 A 35.45 35.45 0 0 0 283.6 319.05" fill="#5ea5a7"/><rect x="212.7" y="319.05" width="35.45" height="35.45" fill="#13709f"/><path d="M 212.7 319.05 A 35.45 35.45 0 0 0 248.14999999999998 354.5 L 248.14999999999998 319.05" fill="#62abaa"/><rect x="248.15" y="319.05" width="35.45" height="35.45" fill="#186195"/><path d="M 248.15 354.5 A 35.45 35.45 0 0 1  283.6 319.05 L 283.6 354.5" fill="#7bccb5"/><rect x="283.6" y="283.6" width="70.9" height="70.9" fill="#1D4E89"/><rect x="283.6" y="283.6" width="35.45" height="35.45" fill="#186095"/><path d="M 283.6 319.05 A 35.45 35.45 0 0 1  319.05 283.6 L 283.6 319.05 A 35.45 35.45 0 0 0 319.05 283.6" fill="#5ca3a7"/><rect x="319.05" y="283.6" width="35.45" height="35.45" fill="#03a7c3"/><path d="M 319.05 283.6 A 35.45 35.45 0 0 0 354.5 319.05 L 354.5 283.6" fill="#0c89af"/><rect x="283.6" y="319.05" width="35.45" height="35.45" fill="#5194a1"/><path d="M 283.6 354.5 A 35.45 35.45 0 0 1  319.05 319.05 L 319.05 354.5" fill="#5498a3"/><rect x="319.05" y="319.05" width="35.45" height="35.45" fill="#75c5b2"/><path d="M 319.05 319.05 A 35.45 35.45 0 0 1  354.5 354.5 L 319.05 319.05 A 35.45 35.45 0 0 0 354.5 354.5" fill="#61a9a9"/><rect x="354.5" y="283.6" width="70.9" height="70.9" fill="#1D4E89"/><rect x="354.5" y="283.6" width="35.45" height="35.45" fill="#0993b6"/><path d="M 354.5 319.05 A 35.45 35.45 0 0 1  389.95 283.6 L 389.95 319.05" fill="#0d84ac"/><rect x="389.95" y="283.6" width="35.45" height="35.45" fill="#4b8c9f"/><path d="M 389.95 283.6 A 35.45 35.45 0 0 0 425.4 319.05 L 425.4 283.6" fill="#5396a2"/><rect x="354.5" y="319.05" width="35.45" height="35.45" fill="#1273a1"/><path d="M 354.5 319.05 A 35.45 35.45 0 0 0 389.95 354.5 L 389.95 319.05" fill="#61aaa9"/><rect x="389.95" y="319.05" width="35.45" height="35.45" fill="#2c6290"/><path d="M 389.95 354.5 A 35.45 35.45 0 0 1  425.4 319.05 L 425.4 354.5" fill="#01b0c8"/><rect x="425.4" y="283.6" width="70.9" height="70.9" fill="#377195"/><path d="M 425.4 283.6 A 70.9 70.9 0 0 0 496.29999999999995 354.5 L 496.29999999999995 283.6" fill="#0992b5"/><rect x="496.3" y="283.6" width="70.9" height="70.9" fill="#4b8c9f"/><path d="M 496.3 283.6 A 70.9 70.9 0 0 1  567.2 354.5 L 496.3 283.6 A 70.9 70.9 0 0 0 567.2 354.5" fill="#65aeab"/><rect x="567.2" y="283.6" width="70.9" height="70.9" fill="#49899e"/><path d="M 567.2 354.5 A 70.9 70.9 0 0 1  638.1 283.6 L 567.2 354.5 A 70.9 70.9 0 0 0 638.1 283.6" fill="#61a9a9"/><rect x="638.1" y="283.6" width="70.9" height="70.9" fill="#107aa6"/><path d="M 638.1 283.6 A 70.9 70.9 0 0 1  709 354.5 L 638.1 283.6 A 70.9 70.9 0 0 0 709 354.5" fill="#285d8e"/><rect x="709" y="283.6" width="70.9" height="70.9" fill="#1D4E89"/><rect x="709" y="283.6" width="35.45" height="35.45" fill="#1d4f8a"/><path d="M 709 319.05 A 35.45 35.45 0 0 1  744.45 283.6 L 709 319.05 A 35.45 35.45 0 0 0 744.45 283.6" fill="#00b1c9"/><rect x="744.45" y="283.6" width="35.45" height="35.45" fill="#5092a1"/><path d="M 744.45 319.05 A 35.45 35.45 0 0 1  779.9000000000001 283.6 L 744.45 319.05 A 35.45 35.45 0 0 0 779.9000000000001 283.6" fill="#42809b"/><rect x="709" y="319.05" width="35.45" height="35.45" fill="#0a91b5"/><path d="M 709 319.05 A 35.45 35.45 0 0 1  744.45 354.5 L 709 319.05 A 35.45 35.45 0 0 0 744.45 354.5" fill="#079bbb"/><rect x="744.45" y="319.05" width="35.45" height="35.45" fill="#316993"/><path d="M 744.45 319.05 A 35.45 35.45 0 0 1 779.9000000000001 354.5 L 744.45 354.5" fill="#24588c"/><rect x="779.9" y="283.6" width="70.9" height="70.9" fill="#76c6b3"/><path d="M 779.9 283.6 A 70.9 70.9 0 0 1 850.8 354.5 L 779.9 354.5" fill="#079aba"/><rect x="850.8" y="283.6" width="70.9" height="70.9" fill="#166799"/><path d="M 850.8 354.5 A 70.9 70.9 0 0 0 921.6999999999999 283.6 L 850.8 283.6" fill="#6fbcaf"/><rect x="921.7" y="283.6" width="70.9" height="70.9" fill="#599fa5"/><path d="M 921.7 283.6 A 70.9 70.9 0 0 0 992.6 354.5 L 992.6 283.6" fill="#04a6c2"/><rect x="992.6" y="283.6" width="70.9" height="70.9" fill="#195a91"/><path d="M 992.6 354.5 A 70.9 70.9 0 0 1  1063.5 283.6 L 1063.5 354.5" fill="#02abc5"/><rect x="1063.5" y="283.6" width="70.9" height="70.9" fill="#1275a3"/><path d="M 1063.5 354.5 A 70.9 70.9 0 0 0 1134.4 283.6 L 1063.5 283.6" fill="#1a5a91"/><rect x="0" y="354.5" width="70.9" height="70.9" fill="#1D4E89"/><rect x="0" y="354.5" width="35.45" height="35.45" fill="#24578c"/><path d="M 0 354.5 A 35.45 35.45 0 0 0 35.45 389.95 L 35.45 354.5" fill="#65afab"/><rect x="35.45" y="354.5" width="35.45" height="35.45" fill="#3b7697"/><path d="M 35.45 389.95 A 35.45 35.45 0 0 1  70.9 354.5 L 35.45 389.95 A 35.45 35.45 0 0 0 70.9 354.5" fill="#16679a"/><rect x="0" y="389.95" width="35.45" height="35.45" fill="#146c9d"/><path d="M 0 389.95 A 35.45 35.45 0 0 1 35.45 425.4 L 0 425.4" fill="#176196"/><rect x="35.45" y="389.95" width="35.45" height="35.45" fill="#0a91b4"/><path d="M 35.45 389.95 A 35.45 35.45 0 0 0 70.9 425.4 L 70.9 389.95" fill="#4a8b9e"/><rect x="70.9" y="354.5" width="70.9" height="70.9" fill="#1D4E89"/><rect x="70.9" y="354.5" width="35.45" height="35.45" fill="#0a8fb3"/><path d="M 70.9 389.95 A 35.45 35.45 0 0 1  106.35000000000001 354.5 L 70.9 389.95 A 35.45 35.45 0 0 0 106.35000000000001 354.5" fill="#0993b6"/><rect x="106.35" y="354.5" width="35.45" height="35.45" fill="#7cceb6"/><path d="M 106.35 389.95 A 35.45 35.45 0 0 1  141.8 354.5 L 141.8 389.95" fill="#176497"/><rect x="70.9" y="389.95" width="35.45" height="35.45" fill="#6cb8ae"/><path d="M 70.9 425.4 A 35.45 35.45 0 0 1  106.35000000000001 389.95 L 70.9 425.4 A 35.45 35.45 0 0 0 106.35000000000001 389.95" fill="#1c508a"/><rect x="106.35" y="389.95" width="35.45" height="35.45" fill="#6fbcaf"/><path d="M 106.35 425.4 A 35.45 35.45 0 0 1  141.8 389.95 L 106.35 425.4 A 35.45 35.45 0 0 0 141.8 389.95" fill="#326a93"/><rect x="141.8" y="354.5" width="70.9" height="70.9" fill="#75c4b2"/><path d="M 141.8 425.4 A 70.9 70.9 0 0 1  212.70000000000002 354.5 L 141.8 425.4 A 70.9 70.9 0 0 0 212.70000000000002 354.5" fill="#3a7597"/><rect x="212.7" y="354.5" width="70.9" height="70.9" fill="#275b8e"/><path d="M 212.7 425.4 A 70.9 70.9 0 0 1  283.6 354.5 L 212.7 425.4 A 70.9 70.9 0 0 0 283.6 354.5" fill="#1c528b"/><rect x="283.6" y="354.5" width="70.9" height="70.9" fill="#0e82ab"/><path d="M 283.6 425.4 A 70.9 70.9 0 0 0 354.5 354.5 L 283.6 354.5" fill="#0f80a9"/><rect x="354.5" y="354.5" width="70.9" height="70.9" fill="#1D4E89"/><rect x="354.5" y="354.5" width="35.45" height="35.45" fill="#05a1bf"/><path d="M 354.5 389.95 A 35.45 35.45 0 0 1  389.95 354.5 L 354.5 389.95 A 35.45 35.45 0 0 0 389.95 354.5" fill="#5ca3a7"/><rect x="389.95" y="354.5" width="35.45" height="35.45" fill="#7bccb5"/><path d="M 389.95 354.5 A 35.45 35.45 0 0 1 425.4 389.95 L 389.95 389.95" fill="#5092a1"/><rect x="354.5" y="389.95" width="35.45" height="35.45" fill="#5ca2a6"/><path d="M 354.5 425.4 A 35.45 35.45 0 0 0 389.95 389.95 L 354.5 389.95" fill="#3e7a98"/><rect x="389.95" y="389.95" width="35.45" height="35.45" fill="#079aba"/><path d="M 389.95 389.95 A 35.45 35.45 0 0 1  425.4 425.4 L 389.95 389.95 A 35.45 35.45 0 0 0 425.4 425.4" fill="#61a9a9"/><rect x="425.4" y="354.5" width="70.9" height="70.9" fill="#356e94"/><path d="M 425.4 354.5 A 70.9 70.9 0 0 0 496.29999999999995 425.4 L 496.29999999999995 354.5" fill="#5aa0a6"/><rect x="496.3" y="354.5" width="70.9" height="70.9" fill="#176296"/><path d="M 496.3 354.5 A 70.9 70.9 0 0 1 567.2 425.4 L 496.3 425.4" fill="#387296"/><rect x="567.2" y="354.5" width="70.9" height="70.9" fill="#1D4E89"/><rect x="567.2" y="354.5" width="35.45" height="35.45" fill="#64adaa"/><path d="M 567.2 389.95 A 35.45 35.45 0 0 1  602.6500000000001 354.5 L 602.6500000000001 389.95" fill="#176296"/><rect x="602.65" y="354.5" width="35.45" height="35.45" fill="#61aaa9"/><path d="M 602.65 354.5 A 35.45 35.45 0 0 1 638.1 389.95 L 602.65 389.95" fill="#0897b8"/><rect x="567.2" y="389.95" width="35.45" height="35.45" fill="#01afc8"/><path d="M 567.2 425.4 A 35.45 35.45 0 0 1  602.6500000000001 389.95 L 602.6500000000001 425.4" fill="#4b8b9e"/><rect x="602.65" y="389.95" width="35.45" height="35.45" fill="#5396a2"/><path d="M 602.65 425.4 A 35.45 35.45 0 0 1  638.1 389.95 L 602.65 425.4 A 35.45 35.45 0 0 0 638.1 389.95" fill="#186094"/><rect x="638.1" y="354.5" width="70.9" height="70.9" fill="#1D4E89"/><rect x="638.1" y="354.5" width="35.45" height="35.45" fill="#0c89af"/><path d="M 638.1 354.5 A 35.45 35.45 0 0 1 673.5500000000001 389.95 L 638.1 389.95" fill="#03a9c4"/><rect x="673.55" y="354.5" width="35.45" height="35.45" fill="#1d4f8a"/><path d="M 673.55 354.5 A 35.45 35.45 0 0 1  709 389.95 L 673.55 354.5 A 35.45 35.45 0 0 0 709 389.95" fill="#397496"/><rect x="638.1" y="389.95" width="35.45" height="35.45" fill="#03a8c4"/><path d="M 638.1 389.95 A 35.45 35.45 0 0 0 673.5500000000001 425.4 L 673.5500000000001 389.95" fill="#5093a1"/><rect x="673.55" y="389.95" width="35.45" height="35.45" fill="#336b93"/><path d="M 673.55 389.95 A 35.45 35.45 0 0 1  709 425.4 L 673.55 389.95 A 35.45 35.45 0 0 0 709 425.4" fill="#579ba4"/><rect x="709" y="354.5" width="70.9" height="70.9" fill="#1D4E89"/><rect x="709" y="354.5" width="35.45" height="35.45" fill="#1274a2"/><path d="M 709 389.95 A 35.45 35.45 0 0 1  744.45 354.5 L 709 389.95 A 35.45 35.45 0 0 0 744.45 354.5" fill="#166699"/><rect x="744.45" y="354.5" width="35.45" height="35.45" fill="#21548b"/><path d="M 744.45 389.95 A 35.45 35.45 0 0 1  779.9000000000001 354.5 L 779.9000000000001 389.95" fill="#4f91a0"/><rect x="709" y="389.95" width="35.45" height="35.45" fill="#03a7c3"/><path d="M 709 425.4 A 35.45 35.45 0 0 1  744.45 389.95 L 744.45 425.4" fill="#346d94"/><rect x="744.45" y="389.95" width="35.45" height="35.45" fill="#6ab6ad"/><path d="M 744.45 389.95 A 35.45 35.45 0 0 1  779.9000000000001 425.4 L 744.45 389.95 A 35.45 35.45 0 0 0 779.9000000000001 425.4" fill="#1274a2"/><rect x="779.9000000000001" y="354.5" width="70.9" height="70.9" fill="#1D4E89"/><rect x="779.9" y="354.5" width="35.45" height="35.45" fill="#0c88af"/><path d="M 779.9 389.95 A 35.45 35.45 0 0 1  815.35 354.5 L 779.9 389.95 A 35.45 35.45 0 0 0 815.35 354.5" fill="#0d87ae"/><rect x="815.35" y="354.5" width="35.45" height="35.45" fill="#6ab6ad"/><path d="M 815.35 389.95 A 35.45 35.45 0 0 0 850.8000000000001 354.5 L 815.35 354.5" fill="#71bfb0"/><rect x="779.9" y="389.95" width="35.45" height="35.45" fill="#1b568e"/><path d="M 779.9 389.95 A 35.45 35.45 0 0 1  815.35 425.4 L 779.9 389.95 A 35.45 35.45 0 0 0 815.35 425.4" fill="#0e83ab"/><rect x="815.35" y="389.95" width="35.45" height="35.45" fill="#70bdb0"/><path d="M 815.35 425.4 A 35.45 35.45 0 0 0 850.8000000000001 389.95 L 815.35 389.95" fill="#579ca4"/><rect x="850.8000000000001" y="354.5" width="70.9" height="70.9" fill="#1D4E89"/><rect x="850.8" y="354.5" width="35.45" height="35.45" fill="#3d7998"/><path d="M 850.8 354.5 A 35.45 35.45 0 0 1 886.25 389.95 L 850.8 389.95" fill="#1274a1"/><rect x="886.25" y="354.5" width="35.45" height="35.45" fill="#295e8f"/><path d="M 886.25 389.95 A 35.45 35.45 0 0 0 921.7 354.5 L 886.25 354.5" fill="#0b8db2"/><rect x="850.8" y="389.95" width="35.45" height="35.45" fill="#285d8e"/><path d="M 850.8 425.4 A 35.45 35.45 0 0 0 886.25 389.95 L 850.8 389.95" fill="#1371a0"/><rect x="886.25" y="389.95" width="35.45" height="35.45" fill="#306792"/><path d="M 886.25 425.4 A 35.45 35.45 0 0 0 921.7 389.95 L 886.25 389.95" fill="#1275a2"/><rect x="921.7" y="354.5" width="70.9" height="70.9" fill="#1D4E89"/><rect x="921.7" y="354.5" width="35.45" height="35.45" fill="#04a5c1"/><path d="M 921.7 389.95 A 35.45 35.45 0 0 1  957.1500000000001 354.5 L 957.1500000000001 389.95" fill="#0a8eb3"/><rect x="957.15" y="354.5" width="35.45" height="35.45" fill="#03a9c4"/><path d="M 957.15 354.5 A 35.45 35.45 0 0 0 992.6 389.95 L 992.6 354.5" fill="#63acaa"/><rect x="921.7" y="389.95" width="35.45" height="35.45" fill="#0e81aa"/><path d="M 921.7 425.4 A 35.45 35.45 0 0 1  957.1500000000001 389.95 L 921.7 425.4 A 35.45 35.45 0 0 0 957.1500000000001 389.95" fill="#316992"/><rect x="957.15" y="389.95" width="35.45" height="35.45" fill="#7bcdb5"/><path d="M 957.15 389.95 A 35.45 35.45 0 0 1 992.6 425.4 L 957.15 425.4" fill="#60a8a8"/><rect x="992.6" y="354.5" width="70.9" height="70.9" fill="#1079a5"/><path d="M 992.6 425.4 A 70.9 70.9 0 0 1  1063.5 354.5 L 992.6 425.4 A 70.9 70.9 0 0 0 1063.5 354.5" fill="#2c6290"/><rect x="1063.5" y="354.5" width="70.9" height="70.9" fill="#1D4E89"/><rect x="1063.5" y="354.5" width="35.45" height="35.45" fill="#01afc8"/><path d="M 1063.5 389.95 A 35.45 35.45 0 0 0 1098.95 354.5 L 1063.5 354.5" fill="#47879d"/><rect x="1098.95" y="354.5" width="35.45" height="35.45" fill="#05a0bf"/><path d="M 1098.95 354.5 A 35.45 35.45 0 0 1 1134.4 389.95 L 1098.95 389.95" fill="#1177a4"/><rect x="1063.5" y="389.95" width="35.45" height="35.45" fill="#0896b8"/><path d="M 1063.5 389.95 A 35.45 35.45 0 0 1 1098.95 425.4 L 1063.5 425.4" fill="#6bb7ae"/><rect x="1098.95" y="389.95" width="35.45" height="35.45" fill="#2b608f"/><path d="M 1098.95 389.95 A 35.45 35.45 0 0 1  1134.4 425.4 L 1098.95 389.95 A 35.45 35.45 0 0 0 1134.4 425.4" fill="#44829b"/><rect x="0" y="425.40000000000003" width="70.9" height="70.9" fill="#1D4E89"/><rect x="0" y="425.4" width="35.45" height="35.45" fill="#46859c"/><path d="M 0 460.84999999999997 A 35.45 35.45 0 0 1  35.45 425.4 L 0 460.84999999999997 A 35.45 35.45 0 0 0 35.45 425.4" fill="#176396"/><rect x="35.45" y="425.4" width="35.45" height="35.45" fill="#69b5ad"/><path d="M 35.45 460.84999999999997 A 35.45 35.45 0 0 0 70.9 425.4 L 35.45 425.4" fill="#2d6491"/><rect x="0" y="460.85" width="35.45" height="35.45" fill="#5aa0a5"/><path d="M 0 496.3 A 35.45 35.45 0 0 1  35.45 460.85 L 0 496.3 A 35.45 35.45 0 0 0 35.45 460.85" fill="#0e81aa"/><rect x="35.45" y="460.85" width="35.45" height="35.45" fill="#0f7fa9"/><path d="M 35.45 460.85 A 35.45 35.45 0 0 1 70.9 496.3 L 35.45 496.3" fill="#70bdb0"/><rect x="70.9" y="425.40000000000003" width="70.9" height="70.9" fill="#1D4E89"/><rect x="70.9" y="425.4" width="35.45" height="35.45" fill="#1178a4"/><path d="M 70.9 425.4 A 35.45 35.45 0 0 0 106.35000000000001 460.84999999999997 L 106.35000000000001 425.4" fill="#15689a"/><rect x="106.35" y="425.4" width="35.45" height="35.45" fill="#69b4ad"/><path d="M 106.35 425.4 A 35.45 35.45 0 0 1 141.8 460.84999999999997 L 106.35 460.84999999999997" fill="#156a9b"/><rect x="70.9" y="460.85" width="35.45" height="35.45" fill="#069fbd"/><path d="M 70.9 496.3 A 35.45 35.45 0 0 0 106.35000000000001 460.85 L 70.9 460.85" fill="#2d6491"/><rect x="106.35" y="460.85" width="35.45" height="35.45" fill="#0895b7"/><path d="M 106.35 460.85 A 35.45 35.45 0 0 0 141.8 496.3 L 141.8 460.85" fill="#146e9e"/><rect x="141.8" y="425.4" width="70.9" height="70.9" fill="#68b2ac"/><path d="M 141.8 496.29999999999995 A 70.9 70.9 0 0 0 212.70000000000002 425.4 L 141.8 425.4" fill="#1e4f89"/><rect x="212.70000000000002" y="425.40000000000003" width="70.9" height="70.9" fill="#1D4E89"/><rect x="212.7" y="425.4" width="35.45" height="35.45" fill="#079aba"/><path d="M 212.7 425.4 A 35.45 35.45 0 0 0 248.14999999999998 460.84999999999997 L 248.14999999999998 425.4" fill="#1273a1"/><rect x="248.15" y="425.4" width="35.45" height="35.45" fill="#377295"/><path d="M 248.15 425.4 A 35.45 35.45 0 0 1  283.6 460.84999999999997 L 248.15 425.4 A 35.45 35.45 0 0 0 283.6 460.84999999999997" fill="#61a9a9"/><rect x="212.7" y="460.85" width="35.45" height="35.45" fill="#64adaa"/><path d="M 212.7 460.85 A 35.45 35.45 0 0 1  248.14999999999998 496.3 L 212.7 460.85 A 35.45 35.45 0 0 0 248.14999999999998 496.3" fill="#1272a1"/><rect x="248.15" y="460.85" width="35.45" height="35.45" fill="#7cceb6"/><path d="M 248.15 496.3 A 35.45 35.45 0 0 1  283.6 460.85 L 248.15 496.3 A 35.45 35.45 0 0 0 283.6 460.85" fill="#579ba4"/><rect x="283.6" y="425.40000000000003" width="70.9" height="70.9" fill="#1D4E89"/><rect x="283.6" y="425.4" width="35.45" height="35.45" fill="#0f7fa9"/><path d="M 283.6 425.4 A 35.45 35.45 0 0 1  319.05 460.84999999999997 L 283.6 425.4 A 35.45 35.45 0 0 0 319.05 460.84999999999997" fill="#5da4a7"/><rect x="319.05" y="425.4" width="35.45" height="35.45" fill="#166598"/><path d="M 319.05 460.84999999999997 A 35.45 35.45 0 0 0 354.5 425.4 L 319.05 425.4" fill="#74c3b2"/><rect x="283.6" y="460.85" width="35.45" height="35.45" fill="#1372a0"/><path d="M 283.6 460.85 A 35.45 35.45 0 0 0 319.05 496.3 L 319.05 460.85" fill="#01adc7"/><rect x="319.05" y="460.85" width="35.45" height="35.45" fill="#62abaa"/><path d="M 319.05 496.3 A 35.45 35.45 0 0 1  354.5 460.85 L 319.05 496.3 A 35.45 35.45 0 0 0 354.5 460.85" fill="#2a608f"/><rect x="354.5" y="425.40000000000003" width="70.9" height="70.9" fill="#1D4E89"/><rect x="354.5" y="425.4" width="35.45" height="35.45" fill="#13709f"/><path d="M 354.5 425.4 A 35.45 35.45 0 0 1 389.95 460.84999999999997 L 354.5 460.84999999999997" fill="#48889d"/><rect x="389.95" y="425.4" width="35.45" height="35.45" fill="#0994b7"/><path d="M 389.95 425.4 A 35.45 35.45 0 0 1  425.4 460.84999999999997 L 389.95 425.4 A 35.45 35.45 0 0 0 425.4 460.84999999999997" fill="#176296"/><rect x="354.5" y="460.85" width="35.45" height="35.45" fill="#0a8fb3"/><path d="M 354.5 460.85 A 35.45 35.45 0 0 1 389.95 496.3 L 354.5 496.3" fill="#0895b7"/><rect x="389.95" y="460.85" width="35.45" height="35.45" fill="#079bbb"/><path d="M 389.95 496.3 A 35.45 35.45 0 0 1  425.4 460.85 L 389.95 496.3 A 35.45 35.45 0 0 0 425.4 460.85" fill="#05a2c0"/><rect x="425.4" y="425.4" width="70.9" height="70.9" fill="#5ca3a7"/><path d="M 425.4 496.29999999999995 A 70.9 70.9 0 0 1  496.29999999999995 425.4 L 496.29999999999995 496.29999999999995" fill="#25598d"/><rect x="496.30000000000007" y="425.40000000000003" width="70.9" height="70.9" fill="#1D4E89"/><rect x="496.3" y="425.4" width="35.45" height="35.45" fill="#13709f"/><path d="M 496.3 460.84999999999997 A 35.45 35.45 0 0 1  531.75 425.4 L 496.3 460.84999999999997 A 35.45 35.45 0 0 0 531.75 425.4" fill="#1a578f"/><rect x="531.75" y="425.4" width="35.45" height="35.45" fill="#3d7998"/><path d="M 531.75 460.84999999999997 A 35.45 35.45 0 0 1  567.2 425.4 L 531.75 460.84999999999997 A 35.45 35.45 0 0 0 567.2 425.4" fill="#185f94"/><rect x="496.3" y="460.85" width="35.45" height="35.45" fill="#03a7c3"/><path d="M 496.3 460.85 A 35.45 35.45 0 0 1 531.75 496.3 L 496.3 496.3" fill="#7acbb5"/><rect x="531.75" y="460.85" width="35.45" height="35.45" fill="#146e9e"/><path d="M 531.75 496.3 A 35.45 35.45 0 0 0 567.2 460.85 L 531.75 460.85" fill="#0898b9"/><rect x="567.2" y="425.4" width="70.9" height="70.9" fill="#1273a1"/><path d="M 567.2 425.4 A 70.9 70.9 0 0 1  638.1 496.29999999999995 L 567.2 425.4 A 70.9 70.9 0 0 0 638.1 496.29999999999995" fill="#1a5990"/><rect x="638.1" y="425.40000000000003" width="70.9" height="70.9" fill="#1D4E89"/><rect x="638.1" y="425.4" width="35.45" height="35.45" fill="#6fbcaf"/><path d="M 638.1 425.4 A 35.45 35.45 0 0 1  673.5500000000001 460.84999999999997 L 638.1 425.4 A 35.45 35.45 0 0 0 673.5500000000001 460.84999999999997" fill="#01aec7"/><rect x="673.55" y="425.4" width="35.45" height="35.45" fill="#24578c"/><path d="M 673.55 425.4 A 35.45 35.45 0 0 0 709 460.84999999999997 L 709 425.4" fill="#5da4a7"/><rect x="638.1" y="460.85" width="35.45" height="35.45" fill="#387296"/><path d="M 638.1 460.85 A 35.45 35.45 0 0 1  673.5500000000001 496.3 L 638.1 460.85 A 35.45 35.45 0 0 0 673.5500000000001 496.3" fill="#107aa6"/><rect x="673.55" y="460.85" width="35.45" height="35.45" fill="#05a1bf"/><path d="M 673.55 460.85 A 35.45 35.45 0 0 1  709 496.3 L 673.55 460.85 A 35.45 35.45 0 0 0 709 496.3" fill="#5396a2"/><rect x="709" y="425.40000000000003" width="70.9" height="70.9" fill="#1D4E89"/><rect x="709" y="425.4" width="35.45" height="35.45" fill="#0a8fb3"/><path d="M 709 460.84999999999997 A 35.45 35.45 0 0 1  744.45 425.4 L 744.45 460.84999999999997" fill="#5093a1"/><rect x="744.45" y="425.4" width="35.45" height="35.45" fill="#78c8b3"/><path d="M 744.45 460.84999999999997 A 35.45 35.45 0 0 0 779.9000000000001 425.4 L 744.45 425.4" fill="#176296"/><rect x="709" y="460.85" width="35.45" height="35.45" fill="#03a8c3"/><path d="M 709 460.85 A 35.45 35.45 0 0 0 744.45 496.3 L 744.45 460.85" fill="#306792"/><rect x="744.45" y="460.85" width="35.45" height="35.45" fill="#66b0ab"/><path d="M 744.45 460.85 A 35.45 35.45 0 0 1 779.9000000000001 496.3 L 744.45 496.3" fill="#1b578f"/><rect x="779.9" y="425.4" width="70.9" height="70.9" fill="#0d84ac"/><path d="M 779.9 496.29999999999995 A 70.9 70.9 0 0 0 850.8 425.4 L 779.9 425.4" fill="#377195"/><rect x="850.8" y="425.4" width="70.9" height="70.9" fill="#22548b"/><path d="M 850.8 425.4 A 70.9 70.9 0 0 1  921.6999999999999 496.29999999999995 L 850.8 425.4 A 70.9 70.9 0 0 0 921.6999999999999 496.29999999999995" fill="#1372a0"/><rect x="921.7" y="425.4" width="70.9" height="70.9" fill="#195c92"/><path d="M 921.7 425.4 A 70.9 70.9 0 0 1 992.6 496.29999999999995 L 921.7 496.29999999999995" fill="#166698"/><rect x="992.6" y="425.4" width="70.9" height="70.9" fill="#70bdb0"/><path d="M 992.6 496.29999999999995 A 70.9 70.9 0 0 1  1063.5 425.4 L 1063.5 496.29999999999995" fill="#146f9e"/><rect x="1063.5" y="425.40000000000003" width="70.9" height="70.9" fill="#1D4E89"/><rect x="1063.5" y="425.4" width="35.45" height="35.45" fill="#5aa0a5"/><path d="M 1063.5 425.4 A 35.45 35.45 0 0 1 1098.95 460.84999999999997 L 1063.5 460.84999999999997" fill="#1d508a"/><rect x="1098.95" y="425.4" width="35.45" height="35.45" fill="#0799ba"/><path d="M 1098.95 425.4 A 35.45 35.45 0 0 1  1134.4 460.84999999999997 L 1098.95 425.4 A 35.45 35.45 0 0 0 1134.4 460.84999999999997" fill="#69b4ad"/><rect x="1063.5" y="460.85" width="35.45" height="35.45" fill="#03a7c3"/><path d="M 1063.5 460.85 A 35.45 35.45 0 0 1 1098.95 496.3 L 1063.5 496.3" fill="#5aa0a6"/><rect x="1098.95" y="460.85" width="35.45" height="35.45" fill="#0c8ab0"/><path d="M 1098.95 496.3 A 35.45 35.45 0 0 1  1134.4 460.85 L 1098.95 496.3 A 35.45 35.45 0 0 0 1134.4 460.85" fill="#4c8d9f"/><rect x="0" y="496.3" width="70.9" height="70.9" fill="#68b3ac"/><path d="M 0 567.2 A 70.9 70.9 0 0 1  70.9 496.3 L 70.9 567.2" fill="#569ba4"/><rect x="70.9" y="496.30000000000007" width="70.9" height="70.9" fill="#1D4E89"/><rect x="70.9" y="496.3" width="35.45" height="35.45" fill="#1b548d"/><path d="M 70.9 496.3 A 35.45 35.45 0 0 0 106.35000000000001 531.75 L 106.35000000000001 496.3" fill="#0f7fa9"/><rect x="106.35" y="496.3" width="35.45" height="35.45" fill="#1b568e"/><path d="M 106.35 496.3 A 35.45 35.45 0 0 0 141.8 531.75 L 141.8 496.3" fill="#69b4ad"/><rect x="70.9" y="531.75" width="35.45" height="35.45" fill="#5194a1"/><path d="M 70.9 531.75 A 35.45 35.45 0 0 1 106.35000000000001 567.2 L 70.9 567.2" fill="#01afc8"/><rect x="106.35" y="531.75" width="35.45" height="35.45" fill="#46859c"/><path d="M 106.35 567.2 A 35.45 35.45 0 0 0 141.8 531.75 L 106.35 531.75" fill="#4c8d9f"/><rect x="141.8" y="496.3" width="70.9" height="70.9" fill="#78c8b4"/><path d="M 141.8 496.3 A 70.9 70.9 0 0 1 212.70000000000002 567.2 L 141.8 567.2" fill="#1d4e89"/><rect x="212.7" y="496.3" width="70.9" height="70.9" fill="#195c92"/><path d="M 212.7 496.3 A 70.9 70.9 0 0 1 283.6 567.2 L 212.7 567.2" fill="#02acc6"/><rect x="283.6" y="496.30000000000007" width="70.9" height="70.9" fill="#1D4E89"/><rect x="283.6" y="496.3" width="35.45" height="35.45" fill="#04a4c1"/><path d="M 283.6 531.75 A 35.45 35.45 0 0 1  319.05 496.3 L 319.05 531.75" fill="#589da4"/><rect x="319.05" y="496.3" width="35.45" height="35.45" fill="#0994b7"/><path d="M 319.05 496.3 A 35.45 35.45 0 0 0 354.5 531.75 L 354.5 496.3" fill="#02a9c4"/><rect x="283.6" y="531.75" width="35.45" height="35.45" fill="#166699"/><path d="M 283.6 531.75 A 35.45 35.45 0 0 1 319.05 567.2 L 283.6 567.2" fill="#0c88af"/><rect x="319.05" y="531.75" width="35.45" height="35.45" fill="#1273a1"/><path d="M 319.05 567.2 A 35.45 35.45 0 0 1  354.5 531.75 L 319.05 567.2 A 35.45 35.45 0 0 0 354.5 531.75" fill="#2e6491"/><rect x="354.5" y="496.3" width="70.9" height="70.9" fill="#1371a0"/><path d="M 354.5 567.2 A 70.9 70.9 0 0 0 425.4 496.3 L 354.5 496.3" fill="#60a8a8"/><rect x="425.40000000000003" y="496.30000000000007" width="70.9" height="70.9" fill="#1D4E89"/><rect x="425.4" y="496.3" width="35.45" height="35.45" fill="#0c87ae"/><path d="M 425.4 531.75 A 35.45 35.45 0 0 0 460.84999999999997 496.3 L 425.4 496.3" fill="#04a4c1"/><rect x="460.85" y="496.3" width="35.45" height="35.45" fill="#4b8c9f"/><path d="M 460.85 531.75 A 35.45 35.45 0 0 1  496.3 496.3 L 496.3 531.75" fill="#3a7597"/><rect x="425.4" y="531.75" width="35.45" height="35.45" fill="#1274a2"/><path d="M 425.4 567.2 A 35.45 35.45 0 0 0 460.84999999999997 531.75 L 425.4 531.75" fill="#498a9e"/><rect x="460.85" y="531.75" width="35.45" height="35.45" fill="#146c9d"/><path d="M 460.85 531.75 A 35.45 35.45 0 0 0 496.3 567.2 L 496.3 531.75" fill="#05a0be"/><rect x="496.30000000000007" y="496.30000000000007" width="70.9" height="70.9" fill="#1D4E89"/><rect x="496.3" y="496.3" width="35.45" height="35.45" fill="#1d4e89"/><path d="M 496.3 496.3 A 35.45 35.45 0 0 1  531.75 531.75 L 496.3 496.3 A 35.45 35.45 0 0 0 531.75 531.75" fill="#68b3ac"/><rect x="531.75" y="496.3" width="35.45" height="35.45" fill="#15699b"/><path d="M 531.75 531.75 A 35.45 35.45 0 0 1  567.2 496.3 L 531.75 531.75 A 35.45 35.45 0 0 0 567.2 496.3" fill="#336b93"/><rect x="496.3" y="531.75" width="35.45" height="35.45" fill="#5ba1a6"/><path d="M 496.3 567.2 A 35.45 35.45 0 0 1  531.75 531.75 L 531.75 567.2" fill="#326b93"/><rect x="531.75" y="531.75" width="35.45" height="35.45" fill="#265a8d"/><path d="M 531.75 567.2 A 35.45 35.45 0 0 0 567.2 531.75 L 531.75 531.75" fill="#1c528b"/><rect x="567.2" y="496.3" width="70.9" height="70.9" fill="#146e9e"/><path d="M 567.2 567.2 A 70.9 70.9 0 0 1  638.1 496.3 L 638.1 567.2" fill="#1b558e"/><rect x="638.1" y="496.3" width="70.9" height="70.9" fill="#366f95"/><path d="M 638.1 567.2 A 70.9 70.9 0 0 1  709 496.3 L 709 567.2" fill="#146e9e"/><rect x="709" y="496.30000000000007" width="70.9" height="70.9" fill="#1D4E89"/><rect x="709" y="496.3" width="35.45" height="35.45" fill="#2b6190"/><path d="M 709 531.75 A 35.45 35.45 0 0 1  744.45 496.3 L 709 531.75 A 35.45 35.45 0 0 0 744.45 496.3" fill="#079bbb"/><rect x="744.45" y="496.3" width="35.45" height="35.45" fill="#46859c"/><path d="M 744.45 531.75 A 35.45 35.45 0 0 1  779.9000000000001 496.3 L 744.45 531.75 A 35.45 35.45 0 0 0 779.9000000000001 496.3" fill="#6fbcaf"/><rect x="709" y="531.75" width="35.45" height="35.45" fill="#0c8ab0"/><path d="M 709 531.75 A 35.45 35.45 0 0 1  744.45 567.2 L 709 531.75 A 35.45 35.45 0 0 0 744.45 567.2" fill="#146e9e"/><rect x="744.45" y="531.75" width="35.45" height="35.45" fill="#0e82ab"/><path d="M 744.45 567.2 A 35.45 35.45 0 0 1  779.9000000000001 531.75 L 779.9000000000001 567.2" fill="#1b568e"/><rect x="779.9000000000001" y="496.30000000000007" width="70.9" height="70.9" fill="#1D4E89"/><rect x="779.9" y="496.3" width="35.45" height="35.45" fill="#2d6491"/><path d="M 779.9 496.3 A 35.45 35.45 0 0 0 815.35 531.75 L 815.35 496.3" fill="#397396"/><rect x="815.35" y="496.3" width="35.45" height="35.45" fill="#3f7c99"/><path d="M 815.35 496.3 A 35.45 35.45 0 0 1 850.8000000000001 531.75 L 815.35 531.75" fill="#77c7b3"/><rect x="779.9" y="531.75" width="35.45" height="35.45" fill="#02acc6"/><path d="M 779.9 567.2 A 35.45 35.45 0 0 1  815.35 531.75 L 815.35 567.2" fill="#2e6591"/><rect x="815.35" y="531.75" width="35.45" height="35.45" fill="#1178a4"/><path d="M 815.35 531.75 A 35.45 35.45 0 0 1  850.8000000000001 567.2 L 815.35 531.75 A 35.45 35.45 0 0 0 850.8000000000001 567.2" fill="#46859c"/><rect x="850.8000000000001" y="496.30000000000007" width="70.9" height="70.9" fill="#1D4E89"/><rect x="850.8" y="496.3" width="35.45" height="35.45" fill="#5ba2a6"/><path d="M 850.8 531.75 A 35.45 35.45 0 0 1  886.25 496.3 L 850.8 531.75 A 35.45 35.45 0 0 0 886.25 496.3" fill="#346e94"/><rect x="886.25" y="496.3" width="35.45" height="35.45" fill="#3e7a98"/><path d="M 886.25 531.75 A 35.45 35.45 0 0 1  921.7 496.3 L 921.7 531.75" fill="#67b2ac"/><rect x="850.8" y="531.75" width="35.45" height="35.45" fill="#04a4c1"/><path d="M 850.8 567.2 A 35.45 35.45 0 0 1  886.25 531.75 L 850.8 567.2 A 35.45 35.45 0 0 0 886.25 531.75" fill="#186095"/><rect x="886.25" y="531.75" width="35.45" height="35.45" fill="#68b2ac"/><path d="M 886.25 531.75 A 35.45 35.45 0 0 1  921.7 567.2 L 886.25 531.75 A 35.45 35.45 0 0 0 921.7 567.2" fill="#20538b"/><rect x="921.7" y="496.3" width="70.9" height="70.9" fill="#107ba6"/><path d="M 921.7 496.3 A 70.9 70.9 0 0 0 992.6 567.2 L 992.6 496.3" fill="#0895b7"/><rect x="992.6" y="496.3" width="70.9" height="70.9" fill="#7bcdb5"/><path d="M 992.6 567.2 A 70.9 70.9 0 0 0 1063.5 496.3 L 992.6 496.3" fill="#3a7597"/><rect x="1063.5" y="496.3" width="70.9" height="70.9" fill="#1c518b"/><path d="M 1063.5 496.3 A 70.9 70.9 0 0 0 1134.4 567.2 L 1134.4 496.3" fill="#04a3c0"/><rect x="0" y="567.2" width="70.9" height="70.9" fill="#1D4E89"/><rect x="0" y="567.2" width="35.45" height="35.45" fill="#346c94"/><path d="M 0 567.2 A 35.45 35.45 0 0 1  35.45 602.6500000000001 L 0 567.2 A 35.45 35.45 0 0 0 35.45 602.6500000000001" fill="#5aa0a5"/><rect x="35.45" y="567.2" width="35.45" height="35.45" fill="#68b3ac"/><path d="M 35.45 602.6500000000001 A 35.45 35.45 0 0 1  70.9 567.2 L 35.45 602.6500000000001 A 35.45 35.45 0 0 0 70.9 567.2" fill="#0e83ac"/><rect x="0" y="602.65" width="35.45" height="35.45" fill="#7cceb6"/><path d="M 0 638.1 A 35.45 35.45 0 0 1  35.45 602.65 L 0 638.1 A 35.45 35.45 0 0 0 35.45 602.65" fill="#67b1ac"/><rect x="35.45" y="602.65" width="35.45" height="35.45" fill="#3c7898"/><path d="M 35.45 602.65 A 35.45 35.45 0 0 1  70.9 638.1 L 35.45 602.65 A 35.45 35.45 0 0 0 70.9 638.1" fill="#03a8c4"/><rect x="70.9" y="567.2" width="70.9" height="70.9" fill="#03a8c4"/><path d="M 70.9 567.2 A 70.9 70.9 0 0 1  141.8 638.1 L 70.9 567.2 A 70.9 70.9 0 0 0 141.8 638.1" fill="#47879d"/><rect x="141.8" y="567.2" width="70.9" height="70.9" fill="#285c8e"/><path d="M 141.8 567.2 A 70.9 70.9 0 0 1 212.70000000000002 638.1 L 141.8 638.1" fill="#069dbc"/><rect x="212.7" y="567.2" width="70.9" height="70.9" fill="#0a8fb3"/><path d="M 212.7 638.1 A 70.9 70.9 0 0 0 283.6 567.2 L 212.7 567.2" fill="#4a8a9e"/><rect x="283.6" y="567.2" width="70.9" height="70.9" fill="#1D4E89"/><rect x="283.6" y="567.2" width="35.45" height="35.45" fill="#079bbb"/><path d="M 283.6 567.2 A 35.45 35.45 0 0 1 319.05 602.6500000000001 L 283.6 602.6500000000001" fill="#6ebbaf"/><rect x="319.05" y="567.2" width="35.45" height="35.45" fill="#13709f"/><path d="M 319.05 567.2 A 35.45 35.45 0 0 0 354.5 602.6500000000001 L 354.5 567.2" fill="#21538b"/><rect x="283.6" y="602.65" width="35.45" height="35.45" fill="#72c0b1"/><path d="M 283.6 602.65 A 35.45 35.45 0 0 1  319.05 638.1 L 283.6 602.65 A 35.45 35.45 0 0 0 319.05 638.1" fill="#05a0be"/><rect x="319.05" y="602.65" width="35.45" height="35.45" fill="#0e82ab"/><path d="M 319.05 602.65 A 35.45 35.45 0 0 1  354.5 638.1 L 319.05 602.65 A 35.45 35.45 0 0 0 354.5 638.1" fill="#2c6290"/><rect x="354.5" y="567.2" width="70.9" height="70.9" fill="#1D4E89"/><rect x="354.5" y="567.2" width="35.45" height="35.45" fill="#65afab"/><path d="M 354.5 567.2 A 35.45 35.45 0 0 0 389.95 602.6500000000001 L 389.95 567.2" fill="#46859c"/><rect x="389.95" y="567.2" width="35.45" height="35.45" fill="#156b9c"/><path d="M 389.95 602.6500000000001 A 35.45 35.45 0 0 1  425.4 567.2 L 389.95 602.6500000000001 A 35.45 35.45 0 0 0 425.4 567.2" fill="#4b8c9e"/><rect x="354.5" y="602.65" width="35.45" height="35.45" fill="#64adaa"/><path d="M 354.5 638.1 A 35.45 35.45 0 0 1  389.95 602.65 L 389.95 638.1" fill="#2e6591"/><rect x="389.95" y="602.65" width="35.45" height="35.45" fill="#0f7da7"/><path d="M 389.95 602.65 A 35.45 35.45 0 0 1 425.4 638.1 L 389.95 638.1" fill="#1e4f89"/><rect x="425.4" y="567.2" width="70.9" height="70.9" fill="#0992b5"/><path d="M 425.4 638.1 A 70.9 70.9 0 0 1  496.29999999999995 567.2 L 496.29999999999995 638.1" fill="#2f6792"/><rect x="496.30000000000007" y="567.2" width="70.9" height="70.9" fill="#1D4E89"/><rect x="496.3" y="567.2" width="35.45" height="35.45" fill="#3a7597"/><path d="M 496.3 567.2 A 35.45 35.45 0 0 0 531.75 602.6500000000001 L 531.75 567.2" fill="#64adaa"/><rect x="531.75" y="567.2" width="35.45" height="35.45" fill="#79c9b4"/><path d="M 531.75 602.6500000000001 A 35.45 35.45 0 0 1  567.2 567.2 L 531.75 602.6500000000001 A 35.45 35.45 0 0 0 567.2 567.2" fill="#79cab4"/><rect x="496.3" y="602.65" width="35.45" height="35.45" fill="#0b8cb1"/><path d="M 496.3 602.65 A 35.45 35.45 0 0 0 531.75 638.1 L 531.75 602.65" fill="#186095"/><rect x="531.75" y="602.65" width="35.45" height="35.45" fill="#0992b5"/><path d="M 531.75 638.1 A 35.45 35.45 0 0 1  567.2 602.65 L 531.75 638.1 A 35.45 35.45 0 0 0 567.2 602.65" fill="#13709f"/><rect x="567.2" y="567.2" width="70.9" height="70.9" fill="#1D4E89"/><rect x="567.2" y="567.2" width="35.45" height="35.45" fill="#1a5a91"/><path d="M 567.2 567.2 A 35.45 35.45 0 0 1 602.6500000000001 602.6500000000001 L 567.2 602.6500000000001" fill="#6bb7ae"/><rect x="602.65" y="567.2" width="35.45" height="35.45" fill="#0896b8"/><path d="M 602.65 567.2 A 35.45 35.45 0 0 1 638.1 602.6500000000001 L 602.65 602.6500000000001" fill="#195c92"/><rect x="567.2" y="602.65" width="35.45" height="35.45" fill="#04a3c1"/><path d="M 567.2 638.1 A 35.45 35.45 0 0 0 602.6500000000001 602.65 L 567.2 602.65" fill="#0799ba"/><rect x="602.65" y="602.65" width="35.45" height="35.45" fill="#0799ba"/><path d="M 602.65 638.1 A 35.45 35.45 0 0 0 638.1 602.65 L 602.65 602.65" fill="#107aa5"/><rect x="638.1" y="567.2" width="70.9" height="70.9" fill="#1D4E89"/><rect x="638.1" y="567.2" width="35.45" height="35.45" fill="#7dcfb6"/><path d="M 638.1 602.6500000000001 A 35.45 35.45 0 0 1  673.5500000000001 567.2 L 638.1 602.6500000000001 A 35.45 35.45 0 0 0 673.5500000000001 567.2" fill="#3e7b99"/><rect x="673.55" y="567.2" width="35.45" height="35.45" fill="#13709f"/><path d="M 673.55 567.2 A 35.45 35.45 0 0 0 709 602.6500000000001 L 709 567.2" fill="#2b6190"/><rect x="638.1" y="602.65" width="35.45" height="35.45" fill="#4d8fa0"/><path d="M 638.1 638.1 A 35.45 35.45 0 0 0 673.5500000000001 602.65 L 638.1 602.65" fill="#75c4b2"/><rect x="673.55" y="602.65" width="35.45" height="35.45" fill="#0897b9"/><path d="M 673.55 638.1 A 35.45 35.45 0 0 1  709 602.65 L 709 638.1" fill="#295e8f"/><rect x="709" y="567.2" width="70.9" height="70.9" fill="#1D4E89"/><rect x="709" y="567.2" width="35.45" height="35.45" fill="#1a5990"/><path d="M 709 602.6500000000001 A 35.45 35.45 0 0 0 744.45 567.2 L 709 567.2" fill="#2f6792"/><rect x="744.45" y="567.2" width="35.45" height="35.45" fill="#5093a1"/><path d="M 744.45 602.6500000000001 A 35.45 35.45 0 0 1  779.9000000000001 567.2 L 779.9000000000001 602.6500000000001" fill="#67b2ac"/><rect x="709" y="602.65" width="35.45" height="35.45" fill="#44839b"/><path d="M 709 638.1 A 35.45 35.45 0 0 1  744.45 602.65 L 709 638.1 A 35.45 35.45 0 0 0 744.45 602.65" fill="#0e82ab"/><rect x="744.45" y="602.65" width="35.45" height="35.45" fill="#346d94"/><path d="M 744.45 602.65 A 35.45 35.45 0 0 1 779.9000000000001 638.1 L 744.45 638.1" fill="#0f7fa9"/><rect x="779.9000000000001" y="567.2" width="70.9" height="70.9" fill="#1D4E89"/><rect x="779.9" y="567.2" width="35.45" height="35.45" fill="#3a7597"/><path d="M 779.9 602.6500000000001 A 35.45 35.45 0 0 1  815.35 567.2 L 779.9 602.6500000000001 A 35.45 35.45 0 0 0 815.35 567.2" fill="#156a9b"/><rect x="815.35" y="567.2" width="35.45" height="35.45" fill="#0e81aa"/><path d="M 815.35 602.6500000000001 A 35.45 35.45 0 0 0 850.8000000000001 567.2 L 815.35 567.2" fill="#0e81aa"/><rect x="779.9" y="602.65" width="35.45" height="35.45" fill="#0897b8"/><path d="M 779.9 602.65 A 35.45 35.45 0 0 1 815.35 638.1 L 779.9 638.1" fill="#2d6390"/><rect x="815.35" y="602.65" width="35.45" height="35.45" fill="#4d8fa0"/><path d="M 815.35 602.65 A 35.45 35.45 0 0 1  850.8000000000001 638.1 L 815.35 602.65 A 35.45 35.45 0 0 0 850.8000000000001 638.1" fill="#7bcdb5"/><rect x="850.8000000000001" y="567.2" width="70.9" height="70.9" fill="#1D4E89"/><rect x="850.8" y="567.2" width="35.45" height="35.45" fill="#107ba6"/><path d="M 850.8 567.2 A 35.45 35.45 0 0 1 886.25 602.6500000000001 L 850.8 602.6500000000001" fill="#1a5990"/><rect x="886.25" y="567.2" width="35.45" height="35.45" fill="#05a1bf"/><path d="M 886.25 567.2 A 35.45 35.45 0 0 1 921.7 602.6500000000001 L 886.25 602.6500000000001" fill="#48889d"/><rect x="850.8" y="602.65" width="35.45" height="35.45" fill="#4a8b9e"/><path d="M 850.8 602.65 A 35.45 35.45 0 0 1 886.25 638.1 L 850.8 638.1" fill="#2a5f8f"/><rect x="886.25" y="602.65" width="35.45" height="35.45" fill="#5093a1"/><path d="M 886.25 638.1 A 35.45 35.45 0 0 0 921.7 602.65 L 886.25 602.65" fill="#02adc7"/><rect x="921.7" y="567.2" width="70.9" height="70.9" fill="#1c528c"/><path d="M 921.7 638.1 A 70.9 70.9 0 0 1  992.6 567.2 L 921.7 638.1 A 70.9 70.9 0 0 0 992.6 567.2" fill="#5da4a7"/><rect x="992.6" y="567.2" width="70.9" height="70.9" fill="#0f7ea9"/><path d="M 992.6 567.2 A 70.9 70.9 0 0 1 1063.5 638.1 L 992.6 638.1" fill="#71bfb0"/><rect x="1063.5" y="567.2" width="70.9" height="70.9" fill="#01afc8"/><path d="M 1063.5 638.1 A 70.9 70.9 0 0 0 1134.4 567.2 L 1063.5 567.2" fill="#166698"/><rect x="0" y="638.1" width="70.9" height="70.9" fill="#1D4E89"/><rect x="0" y="638.1" width="35.45" height="35.45" fill="#1c528c"/><path d="M 0 673.5500000000001 A 35.45 35.45 0 0 1  35.45 638.1 L 0 673.5500000000001 A 35.45 35.45 0 0 0 35.45 638.1" fill="#059fbe"/><rect x="35.45" y="638.1" width="35.45" height="35.45" fill="#4a8b9e"/><path d="M 35.45 673.5500000000001 A 35.45 35.45 0 0 0 70.9 638.1 L 35.45 638.1" fill="#1179a5"/><rect x="0" y="673.55" width="35.45" height="35.45" fill="#1177a4"/><path d="M 0 709 A 35.45 35.45 0 0 1  35.45 673.55 L 35.45 709" fill="#569aa4"/><rect x="35.45" y="673.55" width="35.45" height="35.45" fill="#15689a"/><path d="M 35.45 709 A 35.45 35.45 0 0 1  70.9 673.55 L 70.9 709" fill="#25598d"/><rect x="70.9" y="638.1" width="70.9" height="70.9" fill="#1D4E89"/><rect x="70.9" y="638.1" width="35.45" height="35.45" fill="#136f9e"/><path d="M 70.9 638.1 A 35.45 35.45 0 0 1  106.35000000000001 673.5500000000001 L 70.9 638.1 A 35.45 35.45 0 0 0 106.35000000000001 673.5500000000001" fill="#1c518b"/><rect x="106.35" y="638.1" width="35.45" height="35.45" fill="#7dcfb6"/><path d="M 106.35 673.5500000000001 A 35.45 35.45 0 0 1  141.8 638.1 L 141.8 673.5500000000001" fill="#0c8ab0"/><rect x="70.9" y="673.55" width="35.45" height="35.45" fill="#0994b6"/><path d="M 70.9 709 A 35.45 35.45 0 0 1  106.35000000000001 673.55 L 106.35000000000001 709" fill="#6ab5ad"/><rect x="106.35" y="673.55" width="35.45" height="35.45" fill="#4c8e9f"/><path d="M 106.35 709 A 35.45 35.45 0 0 1  141.8 673.55 L 141.8 709" fill="#5396a2"/><rect x="141.8" y="638.1" width="70.9" height="70.9" fill="#6cb8ae"/><path d="M 141.8 709 A 70.9 70.9 0 0 1  212.70000000000002 638.1 L 212.70000000000002 709" fill="#156a9b"/><rect x="212.7" y="638.1" width="70.9" height="70.9" fill="#3e7b99"/><path d="M 212.7 709 A 70.9 70.9 0 0 0 283.6 638.1 L 212.7 638.1" fill="#78c8b4"/><rect x="283.6" y="638.1" width="70.9" height="70.9" fill="#45849c"/><path d="M 283.6 638.1 A 70.9 70.9 0 0 1  354.5 709 L 283.6 638.1 A 70.9 70.9 0 0 0 354.5 709" fill="#1c528c"/><rect x="354.5" y="638.1" width="70.9" height="70.9" fill="#0a90b4"/><path d="M 354.5 709 A 70.9 70.9 0 0 0 425.4 638.1 L 354.5 638.1" fill="#16689a"/><rect x="425.4" y="638.1" width="70.9" height="70.9" fill="#136f9e"/><path d="M 425.4 638.1 A 70.9 70.9 0 0 1 496.29999999999995 709 L 425.4 709" fill="#599fa5"/><rect x="496.3" y="638.1" width="70.9" height="70.9" fill="#107aa6"/><path d="M 496.3 638.1 A 70.9 70.9 0 0 0 567.2 709 L 567.2 638.1" fill="#0c89b0"/><rect x="567.2" y="638.1" width="70.9" height="70.9" fill="#1D4E89"/><rect x="567.2" y="638.1" width="35.45" height="35.45" fill="#0d84ac"/><path d="M 567.2 638.1 A 35.45 35.45 0 0 0 602.6500000000001 673.5500000000001 L 602.6500000000001 638.1" fill="#0d86ad"/><rect x="602.65" y="638.1" width="35.45" height="35.45" fill="#03a9c4"/><path d="M 602.65 673.5500000000001 A 35.45 35.45 0 0 1  638.1 638.1 L 602.65 673.5500000000001 A 35.45 35.45 0 0 0 638.1 638.1" fill="#2e6491"/><rect x="567.2" y="673.55" width="35.45" height="35.45" fill="#6dbaaf"/><path d="M 567.2 673.55 A 35.45 35.45 0 0 1 602.6500000000001 709 L 567.2 709" fill="#03a7c3"/><rect x="602.65" y="673.55" width="35.45" height="35.45" fill="#0a90b4"/><path d="M 602.65 709 A 35.45 35.45 0 0 1  638.1 673.55 L 602.65 709 A 35.45 35.45 0 0 0 638.1 673.55" fill="#0f7da8"/><rect x="638.1" y="638.1" width="70.9" height="70.9" fill="#77c7b3"/><path d="M 638.1 638.1 A 70.9 70.9 0 0 1 709 709 L 638.1 709" fill="#599fa5"/><rect x="709" y="638.1" width="70.9" height="70.9" fill="#1d508a"/><path d="M 709 709 A 70.9 70.9 0 0 1  779.9 638.1 L 709 709 A 70.9 70.9 0 0 0 779.9 638.1" fill="#079bbb"/><rect x="779.9" y="638.1" width="70.9" height="70.9" fill="#336c93"/><path d="M 779.9 709 A 70.9 70.9 0 0 0 850.8 638.1 L 779.9 638.1" fill="#5aa1a6"/><rect x="850.8" y="638.1" width="70.9" height="70.9" fill="#16689a"/><path d="M 850.8 709 A 70.9 70.9 0 0 1  921.6999999999999 638.1 L 921.6999999999999 709" fill="#68b3ac"/><rect x="921.7" y="638.1" width="70.9" height="70.9" fill="#1D4E89"/><rect x="921.7" y="638.1" width="35.45" height="35.45" fill="#60a8a8"/><path d="M 921.7 673.5500000000001 A 35.45 35.45 0 0 1  957.1500000000001 638.1 L 957.1500000000001 673.5500000000001" fill="#02acc6"/><rect x="957.15" y="638.1" width="35.45" height="35.45" fill="#01b0c8"/><path d="M 957.15 673.5500000000001 A 35.45 35.45 0 0 0 992.6 638.1 L 957.15 638.1" fill="#43819b"/><rect x="921.7" y="673.55" width="35.45" height="35.45" fill="#107ca7"/><path d="M 921.7 709 A 35.45 35.45 0 0 1  957.1500000000001 673.55 L 957.1500000000001 709" fill="#146c9d"/><rect x="957.15" y="673.55" width="35.45" height="35.45" fill="#72c0b1"/><path d="M 957.15 709 A 35.45 35.45 0 0 1  992.6 673.55 L 992.6 709" fill="#579ca4"/><rect x="992.6000000000001" y="638.1" width="70.9" height="70.9" fill="#1D4E89"/><rect x="992.6" y="638.1" width="35.45" height="35.45" fill="#1b558d"/><path d="M 992.6 638.1 A 35.45 35.45 0 0 0 1028.05 673.5500000000001 L 1028.05 638.1" fill="#1275a2"/><rect x="1028.05" y="638.1" width="35.45" height="35.45" fill="#069ebd"/><path d="M 1028.05 638.1 A 35.45 35.45 0 0 0 1063.5 673.5500000000001 L 1063.5 638.1" fill="#2c6290"/><rect x="992.6" y="673.55" width="35.45" height="35.45" fill="#4a8a9e"/><path d="M 992.6 673.55 A 35.45 35.45 0 0 1 1028.05 709 L 992.6 709" fill="#4b8c9f"/><rect x="1028.05" y="673.55" width="35.45" height="35.45" fill="#5295a2"/><path d="M 1028.05 673.55 A 35.45 35.45 0 0 1  1063.5 709 L 1028.05 673.55 A 35.45 35.45 0 0 0 1063.5 709" fill="#195d93"/><rect x="1063.5" y="638.1" width="70.9" height="70.9" fill="#1D4E89"/><rect x="1063.5" y="638.1" width="35.45" height="35.45" fill="#146d9d"/><path d="M 1063.5 673.5500000000001 A 35.45 35.45 0 0 1  1098.95 638.1 L 1063.5 673.5500000000001 A 35.45 35.45 0 0 0 1098.95 638.1" fill="#1b568e"/><rect x="1098.95" y="638.1" width="35.45" height="35.45" fill="#7acbb5"/><path d="M 1098.95 638.1 A 35.45 35.45 0 0 1  1134.4 673.5500000000001 L 1098.95 638.1 A 35.45 35.45 0 0 0 1134.4 673.5500000000001" fill="#5fa6a8"/><rect x="1063.5" y="673.55" width="35.45" height="35.45" fill="#61a9a9"/><path d="M 1063.5 709 A 35.45 35.45 0 0 1  1098.95 673.55 L 1098.95 709" fill="#04a5c2"/><rect x="1098.95" y="673.55" width="35.45" height="35.45" fill="#0f7da8"/><path d="M 1098.95 709 A 35.45 35.45 0 0 1  1134.4 673.55 L 1098.95 709 A 35.45 35.45 0 0 0 1134.4 673.55" fill="#64adaa"/></g></svg>