<svg xmlns="http://www.w3.org/2000/svg" xmlns:xlink="http://www.w3.org/1999/xlink" preserveAspectRatio="xMaxYMax slice" viewBox="0 0 1000 625.006"><g transform="scale(0.8815310431156832)"><rect width="1134.4" height="709" x="0" y="0" fill="#FFF"/><circle cx="35.45" cy="35.45" r="35.45" fill="#feede3"/><rect width="70.9" height="70.9" x="70.9" y="0" fill="#FFF"/><circle cx="88.625" cy="17.725" r="17.725" fill="#346095"/><circle cx="124.075" cy="17.725" r="17.725" fill="#eaeef4"/><circle cx="88.625" cy="53.175" r="17.725" fill="#f9b186"/><circle cx="124.075" cy="53.175" r="17.725" fill="#aabcd3"/><circle cx="177.25" cy="35.45" r="35.45" fill="#98afc9"/><rect width="70.9" height="70.9" x="212.7" y="0" fill="#FFF"/><circle cx="230.425" cy="17.725" r="17.725" fill="#f7945a"/><circle cx="265.875" cy="17.725" r="17.725" fill="#fcd5be"/><circle cx="230.425" cy="53.175" r="17.725" fill="#c9d5e3"/><circle cx="265.875" cy="53.175" r="17.725" fill="#c1cfdf"/><rect width="70.9" height="70.9" x="283.6" y="0" fill="#FFF"/><circle cx="301.325" cy="17.725" r="17.725" fill="#fbc2a1"/><circle cx="336.775" cy="17.725" r="17.725" fill="#29588f"/><circle cx="301.325" cy="53.175" r="17.725" fill="#fdeade"/><circle cx="336.775" cy="53.175" r="17.725" fill="#fbc4a4"/><rect width="70.9" height="70.9" x="354.5" y="0" fill="#FFF"/><circle cx="372.225" cy="17.725" r="17.725" fill="#386397"/><circle cx="407.675" cy="17.725" r="17.725" fill="#f79256"/><circle cx="372.225" cy="53.175" r="17.725" fill="#fcd6c0"/><circle cx="407.675" cy="53.175" r="17.725" fill="#6385ad"/><circle cx="460.85" cy="35.45" r="35.45" fill="#d9e1eb"/><rect width="70.9" height="70.9" x="496.3" y="0" fill="#FFF"/><circle cx="514.025" cy="17.725" r="17.725" fill="#fde9dd"/><circle cx="549.475" cy="17.725" r="17.725" fill="#dce4ed"/><circle cx="514.025" cy="53.175" r="17.725" fill="#f2f5f8"/><circle cx="549.475" cy="53.175" r="17.725" fill="#f1f4f8"/><circle cx="602.65" cy="35.45" r="35.45" fill="#9bb1cb"/><circle cx="673.55" cy="35.45" r="35.45" fill="#cfdae6"/><circle cx="744.45" cy="35.45" r="35.45" fill="#fde7d9"/><circle cx="815.35" cy="35.45" r="35.45" fill="#fbc8a9"/><circle cx="886.25" cy="35.45" r="35.45" fill="#fffaf7"/><circle cx="957.15" cy="35.45" r="35.45" fill="#fcd8c3"/><circle cx="1028.05" cy="35.45" r="35.45" fill="#4870a0"/><rect width="70.9" height="70.9" x="1063.5" y="0" fill="#FFF"/><circle cx="1081.225" cy="17.725" r="17.725" fill="#f7f9fb"/><circle cx="1116.675" cy="17.725" r="17.725" fill="#fde2d2"/><circle cx="1081.225" cy="53.175" r="17.725" fill="#fde3d3"/><circle cx="1116.675" cy="53.175" r="17.725" fill="#f79459"/><rect width="70.9" height="70.9" x="0" y="70.9" fill="#FFF"/><circle cx="17.725" cy="88.625" r="17.725" fill="#a1b6ce"/><circle cx="53.175" cy="88.625" r="17.725" fill="#fff"/><circle cx="17.725" cy="124.075" r="17.725" fill="#fcdcc8"/><circle cx="53.175" cy="124.075" r="17.725" fill="#fcdcc9"/><rect width="70.9" height="70.9" x="70.9" y="70.9" fill="#FFF"/><circle cx="88.625" cy="88.625" r="17.725" fill="#f89a63"/><circle cx="124.075" cy="88.625" r="17.725" fill="#fef8f3"/><circle cx="88.625" cy="124.075" r="17.725" fill="#dfe6ee"/><circle cx="124.075" cy="124.075" r="17.725" fill="#5378a5"/><circle cx="177.25" cy="106.35" r="35.45" fill="#fffcfb"/><circle cx="248.15" cy="106.35" r="35.45" fill="#f8a26f"/><circle cx="319.05" cy="106.35" r="35.45" fill="#f8a676"/><circle cx="389.95" cy="106.35" r="35.45" fill="#557aa6"/><rect width="70.9" height="70.9" x="425.4" y="70.9" fill="#FFF"/><circle cx="443.125" cy="88.625" r="17.725" fill="#fffefd"/><circle cx="478.575" cy="88.625" r="17.725" fill="#5b7ea9"/><circle cx="443.125" cy="124.075" r="17.725" fill="#feece1"/><circle cx="478.575" cy="124.075" r="17.725" fill="#fddecc"/><circle cx="531.75" cy="106.35" r="35.45" fill="#f9b186"/><circle cx="602.65" cy="106.35" r="35.45" fill="#376296"/><rect width="70.9" height="70.9" x="638.1" y="70.9" fill="#FFF"/><circle cx="655.825" cy="88.625" r="17.725" fill="#f7985f"/><circle cx="691.275" cy="88.625" r="17.725" fill="#fac19f"/><circle cx="655.825" cy="124.075" r="17.725" fill="#a7bad1"/><circle cx="691.275" cy="124.075" r="17.725" fill="#cfdae6"/><circle cx="744.45" cy="106.35" r="35.45" fill="#f9b084"/><rect width="70.9" height="70.9" x="779.9" y="70.9" fill="#FFF"/><circle cx="797.625" cy="88.625" r="17.725" fill="#fabb96"/><circle cx="833.075" cy="88.625" r="17.725" fill="#c8d4e2"/><circle cx="797.625" cy="124.075" r="17.725" fill="#fbc5a6"/><circle cx="833.075" cy="124.075" r="17.725" fill="#597da8"/><circle cx="886.25" cy="106.35" r="35.45" fill="#85a0bf"/><rect width="70.9" height="70.9" x="921.7" y="70.9" fill="#FFF"/><circle cx="939.425" cy="88.625" r="17.725" fill="#c0cede"/><circle cx="974.875" cy="88.625" r="17.725" fill="#c8d4e2"/><circle cx="939.425" cy="124.075" r="17.725" fill="#7c98bb"/><circle cx="974.875" cy="124.075" r="17.725" fill="#bac9db"/><circle cx="1028.05" cy="106.35" r="35.45" fill="#6b8bb2"/><circle cx="1098.95" cy="106.35" r="35.45" fill="#f8a573"/><rect width="70.9" height="70.9" x="0" y="141.8" fill="#FFF"/><circle cx="17.725" cy="159.525" r="17.725" fill="#f9fbfc"/><circle cx="53.175" cy="159.525" r="17.725" fill="#346095"/><circle cx="17.725" cy="194.975" r="17.725" fill="#fcd1b7"/><circle cx="53.175" cy="194.975" r="17.725" fill="#fabf9b"/><rect width="70.9" height="70.9" x="70.9" y="141.8" fill="#FFF"/><circle cx="88.625" cy="159.525" r="17.725" fill="#f9ab7d"/><circle cx="124.075" cy="159.525" r="17.725" fill="#fde5d7"/><circle cx="88.625" cy="194.975" r="17.725" fill="#eef1f6"/><circle cx="124.075" cy="194.975" r="17.725" fill="#a8bbd1"/><rect width="70.9" height="70.9" x="141.8" y="141.8" fill="#FFF"/><circle cx="159.525" cy="159.525" r="17.725" fill="#f9b48b"/><circle cx="194.975" cy="159.525" r="17.725" fill="#4b72a1"/><circle cx="159.525" cy="194.975" r="17.725" fill="#fbceb3"/><circle cx="194.975" cy="194.975" r="17.725" fill="#fabf9b"/><circle cx="248.15" cy="177.25" r="35.45" fill="#829dbd"/><circle cx="319.05" cy="177.25" r="35.45" fill="#5378a5"/><circle cx="389.95" cy="177.25" r="35.45" fill="#bac9db"/><circle cx="460.85" cy="177.25" r="35.45" fill="#336095"/><circle cx="531.75" cy="177.25" r="35.45" fill="#f8a370"/><circle cx="602.65" cy="177.25" r="35.45" fill="#476f9f"/><circle cx="673.55" cy="177.25" r="35.45" fill="#2f5c93"/><rect width="70.9" height="70.9" x="709" y="141.8" fill="#FFF"/><circle cx="726.725" cy="159.525" r="17.725" fill="#7a97ba"/><circle cx="762.175" cy="159.525" r="17.725" fill="#f8a371"/><circle cx="726.725" cy="194.975" r="17.725" fill="#e2e9f0"/><circle cx="762.175" cy="194.975" r="17.725" fill="#b8c7da"/><circle cx="815.35" cy="177.25" r="35.45" fill="#b8c8da"/><rect width="70.9" height="70.9" x="850.8" y="141.8" fill="#FFF"/><circle cx="868.525" cy="159.525" r="17.725" fill="#fac09d"/><circle cx="903.975" cy="159.525" r="17.725" fill="#feefe6"/><circle cx="868.525" cy="194.975" r="17.725" fill="#fab891"/><circle cx="903.975" cy="194.975" r="17.725" fill="#fcd2b8"/><rect width="70.9" height="70.9" x="921.7" y="141.8" fill="#FFF"/><circle cx="939.425" cy="159.525" r="17.725" fill="#f9b187"/><circle cx="974.875" cy="159.525" r="17.725" fill="#809cbd"/><circle cx="939.425" cy="194.975" r="17.725" fill="#feece1"/><circle cx="974.875" cy="194.975" r="17.725" fill="#3a6598"/><rect width="70.9" height="70.9" x="992.6" y="141.8" fill="#FFF"/><circle cx="1010.325" cy="159.525" r="17.725" fill="#b7c6d9"/><circle cx="1045.775" cy="159.525" r="17.725" fill="#7391b6"/><circle cx="1010.325" cy="194.975" r="17.725" fill="#fab78f"/><circle cx="1045.775" cy="194.975" r="17.725" fill="#feece1"/><rect width="70.9" height="70.9" x="1063.5" y="141.8" fill="#FFF"/><circle cx="1081.225" cy="159.525" r="17.725" fill="#bfcdde"/><circle cx="1116.675" cy="159.525" r="17.725" fill="#f9a777"/><circle cx="1081.225" cy="194.975" r="17.725" fill="#9bb0cb"/><circle cx="1116.675" cy="194.975" r="17.725" fill="#f89f6a"/><circle cx="35.45" cy="248.15" r="35.45" fill="#466e9f"/><circle cx="106.35" cy="248.15" r="35.45" fill="#fcd3bb"/><circle cx="177.25" cy="248.15" r="35.45" fill="#fabb95"/><circle cx="248.15" cy="248.15" r="35.45" fill="#fde9dc"/><circle cx="319.05" cy="248.15" r="35.45" fill="#20518b"/><rect width="70.9" height="70.9" x="354.5" y="212.7" fill="#FFF"/><circle cx="372.225" cy="230.425" r="17.725" fill="#fcfdfd"/><circle cx="407.675" cy="230.425" r="17.725" fill="#fab58c"/><circle cx="372.225" cy="265.875" r="17.725" fill="#fcd7c1"/><circle cx="407.675" cy="265.875" r="17.725" fill="#fcdac6"/><circle cx="460.85" cy="248.15" r="35.45" fill="#f9ad80"/><rect width="70.9" height="70.9" x="496.3" y="212.7" fill="#FFF"/><circle cx="514.025" cy="230.425" r="17.725" fill="#5b7faa"/><circle cx="549.475" cy="230.425" r="17.725" fill="#fcd7c1"/><circle cx="514.025" cy="265.875" r="17.725" fill="#fffdfd"/><circle cx="549.475" cy="265.875" r="17.725" fill="#f5f7fa"/><circle cx="602.65" cy="248.15" r="35.45" fill="#d5dee9"/><rect width="70.9" height="70.9" x="638.1" y="212.7" fill="#FFF"/><circle cx="655.825" cy="230.425" r="17.725" fill="#fcd7c1"/><circle cx="691.275" cy="230.425" r="17.725" fill="#fab891"/><circle cx="655.825" cy="265.875" r="17.725" fill="#fef6f1"/><circle cx="691.275" cy="265.875" r="17.725" fill="#f9b288"/><circle cx="744.45" cy="248.15" r="35.45" fill="#ced8e5"/><circle cx="815.35" cy="248.15" r="35.45" fill="#f79459"/><rect width="70.9" height="70.9" x="850.8" y="212.7" fill="#FFF"/><circle cx="868.525" cy="230.425" r="17.725" fill="#f89d67"/><circle cx="903.975" cy="230.425" r="17.725" fill="#305d93"/><circle cx="868.525" cy="265.875" r="17.725" fill="#fff9f5"/><circle cx="903.975" cy="265.875" r="17.725" fill="#f89e69"/><rect width="70.9" height="70.9" x="921.7" y="212.7" fill="#FFF"/><circle cx="939.425" cy="230.425" r="17.725" fill="#fbc7a9"/><circle cx="974.875" cy="230.425" r="17.725" fill="#e9eef4"/><circle cx="939.425" cy="265.875" r="17.725" fill="#27568e"/><circle cx="974.875" cy="265.875" r="17.725" fill="#fffaf8"/><rect width="70.9" height="70.9" x="992.6" y="212.7" fill="#FFF"/><circle cx="1010.325" cy="230.425" r="17.725" fill="#fab58c"/><circle cx="1045.775" cy="230.425" r="17.725" fill="#fffefd"/><circle cx="1010.325" cy="265.875" r="17.725" fill="#fbccb0"/><circle cx="1045.775" cy="265.875" r="17.725" fill="#7d99bb"/><rect width="70.9" height="70.9" x="1063.5" y="212.7" fill="#FFF"/><circle cx="1081.225" cy="230.425" r="17.725" fill="#a4b7cf"/><circle cx="1116.675" cy="230.425" r="17.725" fill="#a6b9d0"/><circle cx="1081.225" cy="265.875" r="17.725" fill="#fddecd"/><circle cx="1116.675" cy="265.875" r="17.725" fill="#89a3c1"/><rect width="70.9" height="70.9" x="0" y="283.6" fill="#FFF"/><circle cx="17.725" cy="301.325" r="17.725" fill="#b9c8da"/><circle cx="53.175" cy="301.325" r="17.725" fill="#e0e6ef"/><circle cx="17.725" cy="336.775" r="17.725" fill="#fbc8aa"/><circle cx="53.175" cy="336.775" r="17.725" fill="#dce4ed"/><rect width="70.9" height="70.9" x="70.9" y="283.6" fill="#FFF"/><circle cx="88.625" cy="301.325" r="17.725" fill="#f89a63"/><circle cx="124.075" cy="301.325" r="17.725" fill="#faba95"/><circle cx="88.625" cy="336.775" r="17.725" fill="#f89b64"/><circle cx="124.075" cy="336.775" r="17.725" fill="#f7985f"/><circle cx="177.25" cy="319.05" r="35.45" fill="#a7bad1"/><rect width="70.9" height="70.9" x="212.7" y="283.6" fill="#FFF"/><circle cx="230.425" cy="301.325" r="17.725" fill="#a5b8d0"/><circle cx="265.875" cy="301.325" r="17.725" fill="#fcdbc7"/><circle cx="230.425" cy="336.775" r="17.725" fill="#fbc3a1"/><circle cx="265.875" cy="336.775" r="17.725" fill="#6788af"/><rect width="70.9" height="70.9" x="283.6" y="283.6" fill="#FFF"/><circle cx="301.325" cy="301.325" r="17.725" fill="#21518b"/><circle cx="336.775" cy="301.325" r="17.725" fill="#fef6f1"/><circle cx="301.325" cy="336.775" r="17.725" fill="#fcd2b8"/><circle cx="336.775" cy="336.775" r="17.725" fill="#fff9f6"/><rect width="70.9" height="70.9" x="354.5" y="283.6" fill="#FFF"/><circle cx="372.225" cy="301.325" r="17.725" fill="#f3f5f8"/><circle cx="407.675" cy="301.325" r="17.725" fill="#fef3ed"/><circle cx="372.225" cy="336.775" r="17.725" fill="#fffdfc"/><circle cx="407.675" cy="336.775" r="17.725" fill="#fde8dc"/><rect width="70.9" height="70.9" x="425.4" y="283.6" fill="#FFF"/><circle cx="443.125" cy="301.325" r="17.725" fill="#fcd1b8"/><circle cx="478.575" cy="301.325" r="17.725" fill="#346095"/><circle cx="443.125" cy="336.775" r="17.725" fill="#4b72a1"/><circle cx="478.575" cy="336.775" r="17.725" fill="#22528c"/><rect width="70.9" height="70.9" x="496.3" y="283.6" fill="#FFF"/><circle cx="514.025" cy="301.325" r="17.725" fill="#f9af82"/><circle cx="549.475" cy="301.325" r="17.725" fill="#f9a879"/><circle cx="514.025" cy="336.775" r="17.725" fill="#fde6d8"/><circle cx="549.475" cy="336.775" r="17.725" fill="#fde2d2"/><rect width="70.9" height="70.9" x="567.2" y="283.6" fill="#FFF"/><circle cx="584.925" cy="301.325" r="17.725" fill="#86a0c0"/><circle cx="620.375" cy="301.325" r="17.725" fill="#e4eaf1"/><circle cx="584.925" cy="336.775" r="17.725" fill="#86a1c0"/><circle cx="620.375" cy="336.775" r="17.725" fill="#698ab1"/><rect width="70.9" height="70.9" x="638.1" y="283.6" fill="#FFF"/><circle cx="655.825" cy="301.325" r="17.725" fill="#f8a26f"/><circle cx="691.275" cy="301.325" r="17.725" fill="#fde2d2"/><circle cx="655.825" cy="336.775" r="17.725" fill="#f9ae81"/><circle cx="691.275" cy="336.775" r="17.725" fill="#6687af"/><rect width="70.9" height="70.9" x="709" y="283.6" fill="#FFF"/><circle cx="726.725" cy="301.325" r="17.725" fill="#f2f5f8"/><circle cx="762.175" cy="301.325" r="17.725" fill="#feebe0"/><circle cx="726.725" cy="336.775" r="17.725" fill="#fcddca"/><circle cx="762.175" cy="336.775" r="17.725" fill="#5277a5"/><rect width="70.9" height="70.9" x="779.9" y="283.6" fill="#FFF"/><circle cx="797.625" cy="301.325" r="17.725" fill="#fef2eb"/><circle cx="833.075" cy="301.325" r="17.725" fill="#f79256"/><circle cx="797.625" cy="336.775" r="17.725" fill="#587ca8"/><circle cx="833.075" cy="336.775" r="17.725" fill="#fbccb0"/><rect width="70.9" height="70.9" x="850.8" y="283.6" fill="#FFF"/><circle cx="868.525" cy="301.325" r="17.725" fill="#dce4ed"/><circle cx="903.975" cy="301.325" r="17.725" fill="#5076a4"/><circle cx="868.525" cy="336.775" r="17.725" fill="#fcd8c2"/><circle cx="903.975" cy="336.775" r="17.725" fill="#c5d2e1"/><rect width="70.9" height="70.9" x="921.7" y="283.6" fill="#FFF"/><circle cx="939.425" cy="301.325" r="17.725" fill="#9cb1cb"/><circle cx="974.875" cy="301.325" r="17.725" fill="#f9aa7b"/><circle cx="939.425" cy="336.775" r="17.725" fill="#f9a878"/><circle cx="974.875" cy="336.775" r="17.725" fill="#366296"/><circle cx="1028.05" cy="319.05" r="35.45" fill="#6d8db3"/><circle cx="1098.95" cy="319.05" r="35.45" fill="#24538c"/><rect width="70.9" height="70.9" x="0" y="354.5" fill="#FFF"/><circle cx="17.725" cy="372.225" r="17.725" fill="#4c73a2"/><circle cx="53.175" cy="372.225" r="17.725" fill="#f8a371"/><circle cx="17.725" cy="407.675" r="17.725" fill="#f9a97a"/><circle cx="53.175" cy="407.675" r="17.725" fill="#fde6d9"/><circle cx="106.35" cy="389.95" r="35.45" fill="#fcd4bc"/><circle cx="177.25" cy="389.95" r="35.45" fill="#9eb3cc"/><circle cx="248.15" cy="389.95" r="35.45" fill="#f8a573"/><circle cx="319.05" cy="389.95" r="35.45" fill="#446d9e"/><circle cx="389.95" cy="389.95" r="35.45" fill="#fffaf7"/><circle cx="460.85" cy="389.95" r="35.45" fill="#fbc5a5"/><circle cx="531.75" cy="389.95" r="35.45" fill="#fbc7a8"/><rect width="70.9" height="70.9" x="567.2" y="354.5" fill="#FFF"/><circle cx="584.925" cy="372.225" r="17.725" fill="#587ca8"/><circle cx="620.375" cy="372.225" r="17.725" fill="#7b97ba"/><circle cx="584.925" cy="407.675" r="17.725" fill="#ccd7e4"/><circle cx="620.375" cy="407.675" r="17.725" fill="#fcdcc8"/><circle cx="673.55" cy="389.95" r="35.45" fill="#2a5890"/><circle cx="744.45" cy="389.95" r="35.45" fill="#b3c3d7"/><circle cx="815.35" cy="389.95" r="35.45" fill="#cad5e3"/><rect width="70.9" height="70.9" x="850.8" y="354.5" fill="#FFF"/><circle cx="868.525" cy="372.225" r="17.725" fill="#fddfcd"/><circle cx="903.975" cy="372.225" r="17.725" fill="#2b5990"/><circle cx="868.525" cy="407.675" r="17.725" fill="#f9a777"/><circle cx="903.975" cy="407.675" r="17.725" fill="#24548d"/><rect width="70.9" height="70.9" x="921.7" y="354.5" fill="#FFF"/><circle cx="939.425" cy="372.225" r="17.725" fill="#fbcfb4"/><circle cx="974.875" cy="372.225" r="17.725" fill="#fef3ed"/><circle cx="939.425" cy="407.675" r="17.725" fill="#f79257"/><circle cx="974.875" cy="407.675" r="17.725" fill="#fcd7c2"/><circle cx="1028.05" cy="389.95" r="35.45" fill="#fcd4bc"/><circle cx="1098.95" cy="389.95" r="35.45" fill="#a4b8d0"/><circle cx="35.45" cy="460.85" r="35.45" fill="#fde0cf"/><circle cx="106.35" cy="460.85" r="35.45" fill="#2c5991"/><rect width="70.9" height="70.9" x="141.8" y="425.4" fill="#FFF"/><circle cx="159.525" cy="443.125" r="17.725" fill="#fef6f1"/><circle cx="194.975" cy="443.125" r="17.725" fill="#f9b084"/><circle cx="159.525" cy="478.575" r="17.725" fill="#fcd8c3"/><circle cx="194.975" cy="478.575" r="17.725" fill="#f9b288"/><circle cx="248.15" cy="460.85" r="35.45" fill="#fde8db"/><circle cx="319.05" cy="460.85" r="35.45" fill="#f7f8fb"/><rect width="70.9" height="70.9" x="354.5" y="425.4" fill="#FFF"/><circle cx="372.225" cy="443.125" r="17.725" fill="#dfe6ee"/><circle cx="407.675" cy="443.125" r="17.725" fill="#5479a6"/><circle cx="372.225" cy="478.575" r="17.725" fill="#e4eaf1"/><circle cx="407.675" cy="478.575" r="17.725" fill="#b4c4d8"/><rect width="70.9" height="70.9" x="425.4" y="425.4" fill="#FFF"/><circle cx="443.125" cy="443.125" r="17.725" fill="#f9ac7f"/><circle cx="478.575" cy="443.125" r="17.725" fill="#6587af"/><circle cx="443.125" cy="478.575" r="17.725" fill="#e6ebf2"/><circle cx="478.575" cy="478.575" r="17.725" fill="#f89f6a"/><rect width="70.9" height="70.9" x="496.3" y="425.4" fill="#FFF"/><circle cx="514.025" cy="443.125" r="17.725" fill="#fffcfb"/><circle cx="549.475" cy="443.125" r="17.725" fill="#23528c"/><circle cx="514.025" cy="478.575" r="17.725" fill="#d0dae6"/><circle cx="549.475" cy="478.575" r="17.725" fill="#fef6f2"/><rect width="70.9" height="70.9" x="567.2" y="425.4" fill="#FFF"/><circle cx="584.925" cy="443.125" r="17.725" fill="#fff"/><circle cx="620.375" cy="443.125" r="17.725" fill="#f9a777"/><circle cx="584.925" cy="478.575" r="17.725" fill="#fde3d4"/><circle cx="620.375" cy="478.575" r="17.725" fill="#a6b9d0"/><rect width="70.9" height="70.9" x="638.1" y="425.4" fill="#FFF"/><circle cx="655.825" cy="443.125" r="17.725" fill="#f7f9fb"/><circle cx="691.275" cy="443.125" r="17.725" fill="#1e4f89"/><circle cx="655.825" cy="478.575" r="17.725" fill="#5f82ac"/><circle cx="691.275" cy="478.575" r="17.725" fill="#fbcdb2"/><rect width="70.9" height="70.9" x="709" y="425.4" fill="#FFF"/><circle cx="726.725" cy="443.125" r="17.725" fill="#fcd1b7"/><circle cx="762.175" cy="443.125" r="17.725" fill="#93aac6"/><circle cx="726.725" cy="478.575" r="17.725" fill="#fbcfb4"/><circle cx="762.175" cy="478.575" r="17.725" fill="#f7955b"/><circle cx="815.35" cy="460.85" r="35.45" fill="#fcd0b6"/><circle cx="886.25" cy="460.85" r="35.45" fill="#4b72a1"/><rect width="70.9" height="70.9" x="921.7" y="425.4" fill="#FFF"/><circle cx="939.425" cy="443.125" r="17.725" fill="#6082ac"/><circle cx="974.875" cy="443.125" r="17.725" fill="#fef7f3"/><circle cx="939.425" cy="478.575" r="17.725" fill="#1e4f89"/><circle cx="974.875" cy="478.575" r="17.725" fill="#23538c"/><circle cx="1028.05" cy="460.85" r="35.45" fill="#fbccb0"/><rect width="70.9" height="70.9" x="1063.5" y="425.4" fill="#FFF"/><circle cx="1081.225" cy="443.125" r="17.725" fill="#fab891"/><circle cx="1116.675" cy="443.125" r="17.725" fill="#a5b9d0"/><circle cx="1081.225" cy="478.575" r="17.725" fill="#426b9d"/><circle cx="1116.675" cy="478.575" r="17.725" fill="#fab68d"/><circle cx="35.45" cy="531.75" r="35.45" fill="#fab68d"/><rect width="70.9" height="70.9" x="70.9" y="496.3" fill="#FFF"/><circle cx="88.625" cy="514.025" r="17.725" fill="#fbcbae"/><circle cx="124.075" cy="514.025" r="17.725" fill="#f9af83"/><circle cx="88.625" cy="549.475" r="17.725" fill="#f8a06c"/><circle cx="124.075" cy="549.475" r="17.725" fill="#d0dae6"/><rect width="70.9" height="70.9" x="141.8" y="496.3" fill="#FFF"/><circle cx="159.525" cy="514.025" r="17.725" fill="#feece1"/><circle cx="194.975" cy="514.025" r="17.725" fill="#fbcaac"/><circle cx="159.525" cy="549.475" r="17.725" fill="#fab58c"/><circle cx="194.975" cy="549.475" r="17.725" fill="#f9a776"/><circle cx="248.15" cy="531.75" r="35.45" fill="#fcd9c3"/><rect width="70.9" height="70.9" x="283.6" y="496.3" fill="#FFF"/><circle cx="301.325" cy="514.025" r="17.725" fill="#e5ebf2"/><circle cx="336.775" cy="514.025" r="17.725" fill="#f8a371"/><circle cx="301.325" cy="549.475" r="17.725" fill="#8ba4c3"/><circle cx="336.775" cy="549.475" r="17.725" fill="#f9ab7c"/><circle cx="389.95" cy="531.75" r="35.45" fill="#5f82ac"/><rect width="70.9" height="70.9" x="425.4" y="496.3" fill="#FFF"/><circle cx="443.125" cy="514.025" r="17.725" fill="#96adc8"/><circle cx="478.575" cy="514.025" r="17.725" fill="#fcd1b7"/><circle cx="443.125" cy="549.475" r="17.725" fill="#597da8"/><circle cx="478.575" cy="549.475" r="17.725" fill="#b2c3d7"/><rect width="70.9" height="70.9" x="496.3" y="496.3" fill="#FFF"/><circle cx="514.025" cy="514.025" r="17.725" fill="#f79257"/><circle cx="549.475" cy="514.025" r="17.725" fill="#f8a573"/><circle cx="514.025" cy="549.475" r="17.725" fill="#2d5a91"/><circle cx="549.475" cy="549.475" r="17.725" fill="#fac2a0"/><rect width="70.9" height="70.9" x="567.2" y="496.3" fill="#FFF"/><circle cx="584.925" cy="514.025" r="17.725" fill="#fffdfc"/><circle cx="620.375" cy="514.025" r="17.725" fill="#5378a5"/><circle cx="584.925" cy="549.475" r="17.725" fill="#f8a26f"/><circle cx="620.375" cy="549.475" r="17.725" fill="#fbc3a2"/><circle cx="673.55" cy="531.75" r="35.45" fill="#fcddca"/><rect width="70.9" height="70.9" x="709" y="496.3" fill="#FFF"/><circle cx="726.725" cy="514.025" r="17.725" fill="#8da5c3"/><circle cx="762.175" cy="514.025" r="17.725" fill="#2a5890"/><circle cx="726.725" cy="549.475" r="17.725" fill="#f8a574"/><circle cx="762.175" cy="549.475" r="17.725" fill="#edf1f6"/><circle cx="815.35" cy="531.75" r="35.45" fill="#f8a371"/><rect width="70.9" height="70.9" x="850.8" y="496.3" fill="#FFF"/><circle cx="868.525" cy="514.025" r="17.725" fill="#b8c8da"/><circle cx="903.975" cy="514.025" r="17.725" fill="#f89b63"/><circle cx="868.525" cy="549.475" r="17.725" fill="#fcd1b8"/><circle cx="903.975" cy="549.475" r="17.725" fill="#fde5d6"/><circle cx="957.15" cy="531.75" r="35.45" fill="#fef4ee"/><rect width="70.9" height="70.9" x="992.6" y="496.3" fill="#FFF"/><circle cx="1010.325" cy="514.025" r="17.725" fill="#3d679a"/><circle cx="1045.775" cy="514.025" r="17.725" fill="#f8a06c"/><circle cx="1010.325" cy="549.475" r="17.725" fill="#aec0d5"/><circle cx="1045.775" cy="549.475" r="17.725" fill="#fbc7a9"/><rect width="70.9" height="70.9" x="1063.5" y="496.3" fill="#FFF"/><circle cx="1081.225" cy="514.025" r="17.725" fill="#436c9d"/><circle cx="1116.675" cy="514.025" r="17.725" fill="#fab58d"/><circle cx="1081.225" cy="549.475" r="17.725" fill="#f5f7fa"/><circle cx="1116.675" cy="549.475" r="17.725" fill="#fabd99"/><circle cx="35.45" cy="602.65" r="35.45" fill="#fbceb2"/><rect width="70.9" height="70.9" x="70.9" y="567.2" fill="#FFF"/><circle cx="88.625" cy="584.925" r="17.725" fill="#fab891"/><circle cx="124.075" cy="584.925" r="17.725" fill="#4e74a3"/><circle cx="88.625" cy="620.375" r="17.725" fill="#6e8db3"/><circle cx="124.075" cy="620.375" r="17.725" fill="#fde2d2"/><rect width="70.9" height="70.9" x="141.8" y="567.2" fill="#FFF"/><circle cx="159.525" cy="584.925" r="17.725" fill="#f9a97a"/><circle cx="194.975" cy="584.925" r="17.725" fill="#fab68e"/><circle cx="159.525" cy="620.375" r="17.725" fill="#fde3d3"/><circle cx="194.975" cy="620.375" r="17.725" fill="#f89a63"/><rect width="70.9" height="70.9" x="212.7" y="567.2" fill="#FFF"/><circle cx="230.425" cy="584.925" r="17.725" fill="#c0cede"/><circle cx="265.875" cy="584.925" r="17.725" fill="#f7965c"/><circle cx="230.425" cy="620.375" r="17.725" fill="#708fb4"/><circle cx="265.875" cy="620.375" r="17.725" fill="#9db2cc"/><rect width="70.9" height="70.9" x="283.6" y="567.2" fill="#FFF"/><circle cx="301.325" cy="584.925" r="17.725" fill="#7c99bb"/><circle cx="336.775" cy="584.925" r="17.725" fill="#f9ab7d"/><circle cx="301.325" cy="620.375" r="17.725" fill="#fcd4bc"/><circle cx="336.775" cy="620.375" r="17.725" fill="#fde8dc"/><rect width="70.9" height="70.9" x="354.5" y="567.2" fill="#FFF"/><circle cx="372.225" cy="584.925" r="17.725" fill="#7c99bb"/><circle cx="407.675" cy="584.925" r="17.725" fill="#ced9e5"/><circle cx="372.225" cy="620.375" r="17.725" fill="#c4d1e0"/><circle cx="407.675" cy="620.375" r="17.725" fill="#466e9f"/><rect width="70.9" height="70.9" x="425.4" y="567.2" fill="#FFF"/><circle cx="443.125" cy="584.925" r="17.725" fill="#fcd0b6"/><circle cx="478.575" cy="584.925" r="17.725" fill="#91a9c6"/><circle cx="443.125" cy="620.375" r="17.725" fill="#edf1f6"/><circle cx="478.575" cy="620.375" r="17.725" fill="#6c8cb2"/><rect width="70.9" height="70.9" x="496.3" y="567.2" fill="#FFF"/><circle cx="514.025" cy="584.925" r="17.725" fill="#557aa6"/><circle cx="549.475" cy="584.925" r="17.725" fill="#dee5ee"/><circle cx="514.025" cy="620.375" r="17.725" fill="#5378a5"/><circle cx="549.475" cy="620.375" r="17.725" fill="#8da6c3"/><circle cx="602.65" cy="602.65" r="35.45" fill="#fde3d4"/><rect width="70.9" height="70.9" x="638.1" y="567.2" fill="#FFF"/><circle cx="655.825" cy="584.925" r="17.725" fill="#fcd2b9"/><circle cx="691.275" cy="584.925" r="17.725" fill="#6485ae"/><circle cx="655.825" cy="620.375" r="17.725" fill="#fde7da"/><circle cx="691.275" cy="620.375" r="17.725" fill="#fde4d5"/><circle cx="744.45" cy="602.65" r="35.45" fill="#cfd9e6"/><circle cx="815.35" cy="602.65" r="35.45" fill="#fde9dc"/><circle cx="886.25" cy="602.65" r="35.45" fill="#8da6c4"/><rect width="70.9" height="70.9" x="921.7" y="567.2" fill="#FFF"/><circle cx="939.425" cy="584.925" r="17.725" fill="#fddecc"/><circle cx="974.875" cy="584.925" r="17.725" fill="#fbcbae"/><circle cx="939.425" cy="620.375" r="17.725" fill="#8da6c4"/><circle cx="974.875" cy="620.375" r="17.725" fill="#fde4d6"/><circle cx="1028.05" cy="602.65" r="35.45" fill="#f89b64"/><circle cx="1098.95" cy="602.65" r="35.45" fill="#f9ae82"/><rect width="70.9" height="70.9" x="0" y="638.1" fill="#FFF"/><circle cx="17.725" cy="655.825" r="17.725" fill="#587ca8"/><circle cx="53.175" cy="655.825" r="17.725" fill="#fbc4a4"/><circle cx="17.725" cy="691.275" r="17.725" fill="#f5f7fa"/><circle cx="53.175" cy="691.275" r="17.725" fill="#f7f9fb"/><rect width="70.9" height="70.9" x="70.9" y="638.1" fill="#FFF"/><circle cx="88.625" cy="655.825" r="17.725" fill="#4971a0"/><circle cx="124.075" cy="655.825" r="17.725" fill="#436c9d"/><circle cx="88.625" cy="691.275" r="17.725" fill="#fab58d"/><circle cx="124.075" cy="691.275" r="17.725" fill="#fbc7a8"/><rect width="70.9" height="70.9" x="141.8" y="638.1" fill="#FFF"/><circle cx="159.525" cy="655.825" r="17.725" fill="#22528b"/><circle cx="194.975" cy="655.825" r="17.725" fill="#c0cede"/><circle cx="159.525" cy="691.275" r="17.725" fill="#f8a16d"/><circle cx="194.975" cy="691.275" r="17.725" fill="#7794b8"/><circle cx="248.15" cy="673.55" r="35.45" fill="#fcd8c2"/><rect width="70.9" height="70.9" x="283.6" y="638.1" fill="#FFF"/><circle cx="301.325" cy="655.825" r="17.725" fill="#fbc2a1"/><circle cx="336.775" cy="655.825" r="17.725" fill="#f8a472"/><circle cx="301.325" cy="691.275" r="17.725" fill="#beccdd"/><circle cx="336.775" cy="691.275" r="17.725" fill="#feefe7"/><rect width="70.9" height="70.9" x="354.5" y="638.1" fill="#FFF"/><circle cx="372.225" cy="655.825" r="17.725" fill="#466e9e"/><circle cx="407.675" cy="655.825" r="17.725" fill="#3b6699"/><circle cx="372.225" cy="691.275" r="17.725" fill="#fef7f3"/><circle cx="407.675" cy="691.275" r="17.725" fill="#feece2"/><circle cx="460.85" cy="673.55" r="35.45" fill="#346095"/><circle cx="531.75" cy="673.55" r="35.45" fill="#fcd1b8"/><circle cx="602.65" cy="673.55" r="35.45" fill="#fab992"/><rect width="70.9" height="70.9" x="638.1" y="638.1" fill="#FFF"/><circle cx="655.825" cy="655.825" r="17.725" fill="#fffdfc"/><circle cx="691.275" cy="655.825" r="17.725" fill="#f79358"/><circle cx="655.825" cy="691.275" r="17.725" fill="#436c9d"/><circle cx="691.275" cy="691.275" r="17.725" fill="#6586af"/><circle cx="744.45" cy="673.55" r="35.45" fill="#f79257"/><circle cx="815.35" cy="673.55" r="35.45" fill="#fabc97"/><circle cx="886.25" cy="673.55" r="35.45" fill="#fddfcd"/><rect width="70.9" height="70.9" x="921.7" y="638.1" fill="#FFF"/><circle cx="939.425" cy="655.825" r="17.725" fill="#b6c6d9"/><circle cx="974.875" cy="655.825" r="17.725" fill="#fbc7a8"/><circle cx="939.425" cy="691.275" r="17.725" fill="#5177a4"/><circle cx="974.875" cy="691.275" r="17.725" fill="#fab891"/><rect width="70.9" height="70.9" x="992.6" y="638.1" fill="#FFF"/><circle cx="1010.325" cy="655.825" r="17.725" fill="#f8a573"/><circle cx="1045.775" cy="655.825" r="17.725" fill="#567ba7"/><circle cx="1010.325" cy="691.275" r="17.725" fill="#4e74a2"/><circle cx="1045.775" cy="691.275" r="17.725" fill="#7391b6"/><circle cx="1098.95" cy="673.55" r="35.45" fill="#fdeade"/></g></svg>