<?xml version="1.0" standalone="no"?><svg xmlns:xlink="http://www.w3.org/1999/xlink" xmlns="http://www.w3.org/2000/svg" viewBox="0 0 1000 562.5015765178715" preserveAspectRatio="xMaxYMax slice"><g transform="scale(0.8408095314168482)"><rect x="0" y="0" width="1189.3333333333333" height="669" fill="#051937"/><circle cx="37.165" cy="37.165" r="7.435" fill="#7DCFB6"/><circle cx="111.505" cy="37.165" r="7.435" fill="#051937"/><circle cx="185.835" cy="37.165" r="7.435" fill="#7DCFB6"/><circle cx="260.16499999999996" cy="37.165" r="7.435" fill="#051937"/><circle cx="334.505" cy="37.165" r="7.435" fill="#051937"/><circle cx="408.835" cy="37.165" r="7.435" fill="#051937"/><circle cx="483.165" cy="37.165" r="7.435" fill="#7DCFB6"/><circle cx="557.505" cy="37.165" r="7.435" fill="#051937"/><circle cx="631.8349999999999" cy="37.165" r="7.435" fill="#051937"/><circle cx="706.165" cy="37.165" r="7.435" fill="#7DCFB6"/><circle cx="780.505" cy="37.165" r="7.435" fill="#051937"/><circle cx="854.8349999999999" cy="37.165" r="7.435" fill="#7DCFB6"/><circle cx="929.165" cy="37.165" r="7.435" fill="#7DCFB6"/><circle cx="1003.505" cy="37.165" r="7.435" fill="#7DCFB6"/><circle cx="1077.835" cy="37.165" r="7.435" fill="#7DCFB6"/><circle cx="1152.165" cy="37.165" r="7.435" fill="#7DCFB6"/><circle cx="37.165" cy="111.505" r="7.435" fill="#7DCFB6"/><circle cx="111.505" cy="111.505" r="8.625" fill="#051937"/><circle cx="185.83" cy="111.5" r="9.81" fill="#7DCFB6"/><circle cx="260.16999999999996" cy="111.5" r="11" fill="#7DCFB6"/><circle cx="334.5" cy="111.5" r="12.19" fill="#7DCFB6"/><circle cx="408.83" cy="111.5" r="13.38" fill="#051937"/><circle cx="483.17" cy="111.5" r="14.57" fill="#051937"/><circle cx="557.5" cy="111.5" r="15.36" fill="#7DCFB6"/><circle cx="631.83" cy="111.5" r="15.36" fill="#7DCFB6"/><circle cx="706.16" cy="111.5" r="15.36" fill="#7DCFB6"/><circle cx="780.5" cy="111.5" r="14.57" fill="#051937"/><circle cx="854.83" cy="111.5" r="13.38" fill="#7DCFB6"/><circle cx="929.1700000000001" cy="111.5" r="12.19" fill="#7DCFB6"/><circle cx="1003.5" cy="111.5" r="11" fill="#7DCFB6"/><circle cx="1077.83" cy="111.5" r="9.81" fill="#051937"/><circle cx="1152.165" cy="111.505" r="8.625" fill="#051937"/><circle cx="37.165" cy="185.835" r="7.435" fill="#7DCFB6"/><circle cx="111.5" cy="185.83" r="9.81" fill="#7DCFB6"/><circle cx="185.82999999999998" cy="185.82999999999998" r="12.19" fill="#051937"/><circle cx="260.17" cy="185.82999999999998" r="14.57" fill="#7DCFB6"/><circle cx="334.5" cy="185.83999999999997" r="16.95" fill="#051937"/><circle cx="408.835" cy="185.83499999999998" r="19.325" fill="#051937"/><circle cx="483.16499999999996" cy="185.83499999999998" r="21.705" fill="#051937"/><circle cx="557.5" cy="185.82999999999998" r="23.29" fill="#051937"/><circle cx="631.8299999999999" cy="185.82999999999998" r="23.29" fill="#7DCFB6"/><circle cx="706.17" cy="185.82999999999998" r="23.29" fill="#7DCFB6"/><circle cx="780.495" cy="185.83499999999998" r="21.705" fill="#7DCFB6"/><circle cx="854.835" cy="185.83499999999998" r="19.325" fill="#051937"/><circle cx="929.1700000000001" cy="185.83999999999997" r="16.95" fill="#051937"/><circle cx="1003.5" cy="185.82999999999998" r="14.57" fill="#051937"/><circle cx="1077.8300000000002" cy="185.82999999999998" r="12.19" fill="#7DCFB6"/><circle cx="1152.1599999999999" cy="185.83" r="9.81" fill="#7DCFB6"/><circle cx="37.165" cy="260.16499999999996" r="7.435" fill="#7DCFB6"/><circle cx="111.5" cy="260.16999999999996" r="11" fill="#7DCFB6"/><circle cx="185.82999999999998" cy="260.17" r="14.57" fill="#051937"/><circle cx="260.165" cy="260.165" r="18.135" fill="#7DCFB6"/><circle cx="334.495" cy="260.165" r="21.705" fill="#7DCFB6"/><circle cx="408.835" cy="260.16499999999996" r="25.275" fill="#051937"/><circle cx="483.16999999999996" cy="260.17" r="28.84" fill="#7DCFB6"/><circle cx="557.5" cy="260.16999999999996" r="31.22" fill="#7DCFB6"/><circle cx="631.83" cy="260.16999999999996" r="31.22" fill="#7DCFB6"/><circle cx="706.1700000000001" cy="260.16999999999996" r="31.22" fill="#7DCFB6"/><circle cx="780.5" cy="260.17" r="28.84" fill="#051937"/><circle cx="854.8349999999999" cy="260.16499999999996" r="25.275" fill="#7DCFB6"/><circle cx="929.1650000000001" cy="260.165" r="21.705" fill="#7DCFB6"/><circle cx="1003.495" cy="260.165" r="18.135" fill="#7DCFB6"/><circle cx="1077.83" cy="260.17" r="14.57" fill="#7DCFB6"/><circle cx="1152.17" cy="260.16999999999996" r="11" fill="#7DCFB6"/><circle cx="37.165" cy="334.505" r="7.435" fill="#051937"/><circle cx="111.505" cy="334.505" r="11.895" fill="#051937"/><circle cx="185.83499999999998" cy="334.505" r="16.355" fill="#7DCFB6"/><circle cx="260.165" cy="334.505" r="20.815" fill="#051937"/><circle cx="334.505" cy="334.505" r="25.275" fill="#7DCFB6"/><circle cx="408.83500000000004" cy="334.505" r="29.735" fill="#7DCFB6"/><circle cx="483.165" cy="334.505" r="34.195" fill="#7DCFB6"/><circle cx="557.495" cy="334.495" r="37.165" fill="#7DCFB6"/><circle cx="631.8349999999999" cy="334.495" r="37.165" fill="#7DCFB6"/><circle cx="706.165" cy="334.495" r="37.165" fill="#051937"/><circle cx="780.505" cy="334.505" r="34.195" fill="#7DCFB6"/><circle cx="854.835" cy="334.505" r="29.735" fill="#7DCFB6"/><circle cx="929.165" cy="334.505" r="25.275" fill="#7DCFB6"/><circle cx="1003.5050000000001" cy="334.505" r="20.815" fill="#051937"/><circle cx="1077.835" cy="334.505" r="16.355" fill="#7DCFB6"/><circle cx="1152.165" cy="334.505" r="11.895" fill="#051937"/><circle cx="37.165" cy="408.835" r="7.435" fill="#051937"/><circle cx="111.505" cy="408.835" r="11.895" fill="#7DCFB6"/><circle cx="185.83499999999998" cy="408.83500000000004" r="16.355" fill="#051937"/><circle cx="260.165" cy="408.835" r="20.815" fill="#051937"/><circle cx="334.505" cy="408.835" r="25.275" fill="#7DCFB6"/><circle cx="408.83500000000004" cy="408.83500000000004" r="29.735" fill="#7DCFB6"/><circle cx="483.165" cy="408.835" r="34.195" fill="#051937"/><circle cx="557.495" cy="408.83500000000004" r="37.165" fill="#051937"/><circle cx="631.8349999999999" cy="408.83500000000004" r="37.165" fill="#051937"/><circle cx="706.165" cy="408.83500000000004" r="37.165" fill="#051937"/><circle cx="780.505" cy="408.835" r="34.195" fill="#051937"/><circle cx="854.835" cy="408.83500000000004" r="29.735" fill="#051937"/><circle cx="929.165" cy="408.835" r="25.275" fill="#7DCFB6"/><circle cx="1003.5050000000001" cy="408.835" r="20.815" fill="#051937"/><circle cx="1077.835" cy="408.83500000000004" r="16.355" fill="#051937"/><circle cx="1152.165" cy="408.835" r="11.895" fill="#7DCFB6"/><circle cx="37.165" cy="483.165" r="7.435" fill="#7DCFB6"/><circle cx="111.5" cy="483.17" r="11" fill="#051937"/><circle cx="185.82999999999998" cy="483.17" r="14.57" fill="#7DCFB6"/><circle cx="260.165" cy="483.16499999999996" r="18.135" fill="#051937"/><circle cx="334.495" cy="483.16499999999996" r="21.705" fill="#051937"/><circle cx="408.835" cy="483.16499999999996" r="25.275" fill="#7DCFB6"/><circle cx="483.16999999999996" cy="483.16999999999996" r="28.84" fill="#051937"/><circle cx="557.5" cy="483.16999999999996" r="31.22" fill="#7DCFB6"/><circle cx="631.83" cy="483.16999999999996" r="31.22" fill="#7DCFB6"/><circle cx="706.1700000000001" cy="483.16999999999996" r="31.22" fill="#7DCFB6"/><circle cx="780.5" cy="483.16999999999996" r="28.84" fill="#7DCFB6"/><circle cx="854.8349999999999" cy="483.16499999999996" r="25.275" fill="#7DCFB6"/><circle cx="929.1650000000001" cy="483.16499999999996" r="21.705" fill="#051937"/><circle cx="1003.495" cy="483.16499999999996" r="18.135" fill="#051937"/><circle cx="1077.83" cy="483.17" r="14.57" fill="#051937"/><circle cx="1152.17" cy="483.17" r="11" fill="#051937"/><circle cx="37.165" cy="557.505" r="7.435" fill="#7DCFB6"/><circle cx="111.5" cy="557.5" r="9.81" fill="#051937"/><circle cx="185.82999999999998" cy="557.5" r="12.19" fill="#7DCFB6"/><circle cx="260.17" cy="557.5" r="14.57" fill="#051937"/><circle cx="334.5" cy="557.5" r="16.95" fill="#7DCFB6"/><circle cx="408.835" cy="557.495" r="19.325" fill="#7DCFB6"/><circle cx="483.16499999999996" cy="557.495" r="21.705" fill="#7DCFB6"/><circle cx="557.5" cy="557.5" r="23.29" fill="#051937"/><circle cx="631.8299999999999" cy="557.5" r="23.29" fill="#7DCFB6"/><circle cx="706.17" cy="557.5" r="23.29" fill="#7DCFB6"/><circle cx="780.495" cy="557.495" r="21.705" fill="#051937"/><circle cx="854.835" cy="557.495" r="19.325" fill="#051937"/><circle cx="929.1700000000001" cy="557.5" r="16.95" fill="#7DCFB6"/><circle cx="1003.5" cy="557.5" r="14.57" fill="#7DCFB6"/><circle cx="1077.8300000000002" cy="557.5" r="12.19" fill="#051937"/><circle cx="1152.1599999999999" cy="557.5" r="9.81" fill="#051937"/><circle cx="37.165" cy="631.8349999999999" r="7.435" fill="#7DCFB6"/><circle cx="111.505" cy="631.835" r="8.625" fill="#051937"/><circle cx="185.83" cy="631.8299999999999" r="9.81" fill="#051937"/><circle cx="260.16999999999996" cy="631.83" r="11" fill="#051937"/><circle cx="334.5" cy="631.83" r="12.19" fill="#7DCFB6"/><circle cx="408.83" cy="631.83" r="13.38" fill="#7DCFB6"/><circle cx="483.17" cy="631.83" r="14.57" fill="#7DCFB6"/><circle cx="557.5" cy="631.83" r="15.36" fill="#051937"/><circle cx="631.83" cy="631.83" r="15.36" fill="#7DCFB6"/><circle cx="706.16" cy="631.83" r="15.36" fill="#7DCFB6"/><circle cx="780.5" cy="631.83" r="14.57" fill="#051937"/><circle cx="854.83" cy="631.83" r="13.38" fill="#051937"/><circle cx="929.1700000000001" cy="631.83" r="12.19" fill="#7DCFB6"/><circle cx="1003.5" cy="631.83" r="11" fill="#051937"/><circle cx="1077.83" cy="631.8299999999999" r="9.81" fill="#7DCFB6"/><circle cx="1152.165" cy="631.835" r="8.625" fill="#7DCFB6"/></g></svg>