<?xml version="1.0" standalone="no"?>
<svg version="1.1" id="Layer_1" xmlns="http://www.w3.org/2000/svg" xmlns:xlink="http://www.w3.org/1999/xlink" x="0px" y="0px" viewBox="0 0 595.276 595.276" enable-background="new 0 0 595.276 595.276" xml:space="preserve">
<path id="color_x5F_8" fill="#37474F" d="M335.29,292.504c1.013-0.626,2.391-1.857,3.272-2.491c0.059-0.042,0.125-0.079,0.188-0.12
	l3.177-6.918c0.237-0.516,0.011-1.126-0.505-1.363s-1.126-0.011-1.363,0.505l-4.154,9.045l-0.146,0.318L335.29,292.504z
	 M499.26,491.398h-82.534v-72.651v-0.81v-70.961h5.197v-4.162h-7.812h-0.464h-20.32h-1.508h-37.063h-2.327h-74.151
	c0.11,1.398,0.238,2.782,0.369,4.162h0.454v4.334c0.618,5.479,1.382,10.775,2.257,15.728c-0.624,0.367-1.261,0.708-1.893,1.057
	l2.112,4.016c0,0,0.952,0.026,2.612,0.083v-25.217h82.41v53.952v0.445v50.921v0.655v38.45h-6.429h-35.86h-47.758h-4.765
	c1.761,0,2.975-0.85,3.646-2.02c0.268-0.467,0.447-0.985,0.541-1.521c0.43-2.458-0.961-5.293-4.187-5.293h-18.646v-20.334v-0.581
	v-44.086h8.482h1.552H279.1v3.295v0.445v59.954c1.808-3.307,3.48-5.819,3.48-5.819l1.432-0.079l0.176-1.512v-5.873h-1.021
	c-0.578-8.085-0.231-16.631,1.021-25.271v-20.786v-0.439v-3.918h2.184c1.673,0,3.23-0.486,4.55-1.314
	c2.422-1.518,4.037-4.204,4.037-7.273c0-0.661-0.082-1.301-0.223-1.919c-0.122-0.532-0.29-1.046-0.506-1.535
	c-1.33-3.021-4.346-5.134-7.859-5.134h-51.493c-0.286-0.303-0.555-0.615-0.819-0.93v0.93h-8.227h-0.788h-4.12
	c-1.184-1.781-2.279-3.611-3.287-5.481c-0.17-0.316-0.334-0.634-0.499-0.952c-6.72-12.939-9.261-27.748-7.405-42.214h12.031h25.73
	c6.502,0,11.773-5.271,11.773-11.773v-14.643c0-6.502-5.271-11.773-11.773-11.773h-26.645h-15.521
	c-6.502,0-11.773,5.271-11.773,11.773v14.643c0,4.934,3.039,9.154,7.344,10.904c-1.231,9.852-0.583,19.807,1.804,29.352
	c0.07,0.279,0.141,0.559,0.213,0.837c1.818,6.956,4.566,13.683,8.185,19.984c-3.107,1.292-5.293,4.355-5.293,7.93
	c0,4.743,3.845,8.587,8.587,8.587h19.665v37.861v0.632v26.508h-7.808c-5.684,0-5.694,8.834,0,8.834h-71.447h-7.481h-6.149h-5.877
	H93.941c-1.77,0-3.204,1.435-3.204,3.204s1.435,3.204,3.204,3.204H499.26c1.77,0,3.204-1.435,3.204-3.204
	S501.03,491.398,499.26,491.398z M244.307,459.086v0.596v22.881h-5.159v-24.615v-0.614v-39.772h5.159V459.086z M411.638,347.571
	v1.101v74.092v0.784v67.849h-39.952v-40.832v-0.667v-52.077v-0.467v-50.379h39.952V347.571z M354.755,342.814h37.063l-18.207-27.196
	L354.755,342.814z M272.104,250.494c-0.514,0.057-1.045,0.026-1.574-0.12c-2.222-0.616-3.523-2.916-2.907-5.138l0.655-2.362
	c0.616-2.222,2.916-3.523,5.138-2.907c1.888,0.523,3.098,2.265,3.045,4.14l3.628-9.222l5.116-1.682l1.651-5.921l5.345,0.997
	l-2.348,12.592c1.811-1.242,3.253-2.945,4.4-4.845c0.086-0.143,0.179-0.28,0.277-0.412c0.883-1.186,2.146-2.018,3.315-2.924
	c1.169-0.905,2.311-1.97,2.777-3.373c0.502-1.512,0.393-3.529-0.73-4.66c1.748-1.56,2.401-4.151,1.863-6.432
	s-2.158-4.225-4.169-5.426c-2.012-1.202-4.299-2.079-6.642-2.106c-0.334-1.554-1.477-2.855-2.86-3.637
	c-1.383-0.783-2.988-1.095-4.575-1.187c-3.802-0.22-7.572,0.531-10.772,2.594c-2.171-2.303-5.884-2.372-8.875-1.336
	c-5.332,1.846-9.383,6.847-10.203,12.43c-1.799,0.571-3.159,2.321-3.267,4.206c-0.109,1.884,0.941,3.971,2.662,4.745
	c-0.897,8.509-0.555,15.477,0.915,23.366l15.7,7.37L272.104,250.494z M295.299,315.75l16.828-24.27h23.632l0.146-0.318H311.96
	l-12.869,18.561l-3.928,5.665L295.299,315.75z M388.646,291.48l-34.504,49.763h-56.354c-0.768,0.124-1.552,0.18-2.342,0.151l0,0
	c-0.504-0.018-1.003-0.071-1.494-0.151H278.17c0.038,0.522,0.066,1.05,0.107,1.57h74.151h2.327l18.857-27.196l18.206,27.196h1.508
	l-18.947-28.302l15.101-21.779l-0.225-1.57h-48.647c-0.038,0.109-0.083,0.215-0.135,0.318L388.646,291.48L388.646,291.48z
	 M283.484,332.233l-5.398,7.785c0.011,0.169,0.023,0.339,0.035,0.508l5.548-8.002L283.484,332.233z"></path>
<path id="color_x5F_7" fill="#7dcfb6" d="M312.127,291.48l-16.828,24.27l1.542,4.12l13.127-7.431
	c0.044-10.032,12.267-12.098,19.953-12.66c0.003,0,0.004,0.001,0.007,0.001c0.157-2.167,0.779-4.264,1.662-6.289
	c0.313-0.717,1.177-2.095,2.16-1.891c0.625,0.13,0.593,0.866,1.038,1.177c0.151-0.066,0.322-0.163,0.501-0.274l0.47-1.023H312.127z
	 M285.813,335.884l-2.144-3.361l-5.548,8.002c0.017,0.239,0.032,0.479,0.049,0.718h15.782
	C290.624,340.699,287.652,338.767,285.813,335.884z M312.082,308.802c-0.428,0.89-0.684,1.881-0.787,2.887l18.595-10.526
	c-0.001-0.04,0-0.08-0.001-0.12C323.591,301.505,315.22,302.274,312.082,308.802z M388.646,291.48h-48.173
	c-0.115,0.228-0.256,0.446-0.398,0.658c2.646,3.489,0.742,9.057-1.346,12.906c-0.499,0.92-1.15,1.794-2.052,2.324
	c-0.663,0.389-1.482,0.557-2.224,0.403l-11.029,11.031c9.538-2.897,16.722-11.219,26.801-12.715
	c3.901-0.579,8.248,0.103,10.857,3.336c2.489,3.083,1.934,7.004-0.15,10.146c-5.208,7.848-16.431,11.211-25.342,11.261
	c-0.814,0.005-0.812-1.257,0-1.262c6.261-0.035,12.367-1.626,17.738-4.885c5.16-3.132,12.79-11.352,4.743-16.216
	c-5.452-3.296-12.623-0.136-17.606,2.637c-4.501,2.505-8.686,5.576-13.415,7.662c-1.517,0.669-3.293,1.215-5.115,1.525
	l-17.612,17.614c-1.787,1.787-4.079,2.941-6.535,3.339h56.354L388.646,291.48z M360.318,490.376l-0.828-2.101
	c-1.172-2.971-3.721-5.089-6.909-5.741l-7.379-1.508c-3.826-0.782-8.27-2.023-10.278-5.243l-3.767-6.158l-1.015,0.746l-3.798,2.792
	c-1.308,0.961-2.843,1.524-4.392,1.61l-6.593,0.365l-1.49,0.083c0,0-1.335,2.374-2.787,5.571c-3.35-0.761-6.947-1.992-8.422-4.817
	l-3.004-5.888l-1.043,0.714l-3.903,2.669c-1.344,0.919-2.866,1.457-4.356,1.539l-6.34,0.349l-1.432,0.079
	c0,0-1.671,2.511-3.48,5.819c-1.111,2.032-2.267,4.363-3.126,6.599c-0.094,0.536-0.273,1.054-0.541,1.521
	c-0.027,0.085-0.06,0.172-0.086,0.256c-0.293,0.941,0.259,1.765,1.205,1.765h47.758h35.859
	C360.377,491.103,360.456,490.725,360.318,490.376z M335.506,166.309c0-17.377-14.087-31.464-31.464-31.464
	c-17.377,0-31.464,14.087-31.464,31.464c0,1.837,0.166,3.633,0.468,5.384c0.024,0.139,0.048,0.277,0.074,0.415
	c2.723,14.606,15.527,25.665,30.922,25.665c14.115,0,26.06-9.295,30.046-22.098c0.043-0.139,0.079-0.282,0.12-0.423
	C335.048,172.417,335.506,169.417,335.506,166.309z M303.042,140.812c0-0.552,0.447-1,1-1s1,0.448,1,1v4.617c0,0.552-0.447,1-1,1
	s-1-0.448-1-1V140.812z M285.739,147.394c0.391-0.391,1.024-0.391,1.414,0l3.265,3.265c0.391,0.391,0.391,1.023,0,1.414
	s-1.024,0.391-1.414,0l-3.265-3.265C285.349,148.417,285.348,147.784,285.739,147.394z M283.775,166.696h-4.617
	c-0.552,0-1-0.447-1-1s0.448-1,1-1h4.617c0.552,0,1,0.447,1,1S284.327,166.696,283.775,166.696z M290.418,180.734l-3.265,3.265
	c-0.391,0.391-1.023,0.391-1.414,0s-0.391-1.024,0-1.414l3.265-3.265c0.391-0.391,1.023-0.391,1.414,0
	S290.809,180.344,290.418,180.734z M309.326,186.806h-10.568c-0.428,0-0.778-0.35-0.778-0.778s0.35-0.778,0.778-0.778h10.568
	c0.428,0,0.778,0.35,0.778,0.778S309.754,186.806,309.326,186.806z M309.326,184.782h-10.568c-0.428,0-0.778-0.35-0.778-0.778
	s0.35-0.778,0.778-0.778h10.568c0.428,0,0.778,0.35,0.778,0.778S309.754,184.782,309.326,184.782z M309.326,182.758h-10.568
	c-0.428,0-0.778-0.35-0.778-0.778s0.35-0.778,0.778-0.778h10.568c0.428,0,0.778,0.35,0.778,0.778S309.754,182.758,309.326,182.758z
	 M310.963,177.61c0,1.654-1.353,3.008-3.008,3.008h-7.826c-1.654,0-3.008-1.353-3.008-3.008c0-0.067,0.016-0.13,0.02-0.196
	c-3.905-2.348-6.526-6.613-6.526-11.502c0-7.415,6.011-13.426,13.426-13.426s13.426,6.011,13.426,13.426
	c0,4.888-2.621,9.153-6.526,11.502C310.947,177.48,310.963,177.543,310.963,177.61z M322.345,183.999
	c-0.391,0.391-1.024,0.391-1.414,0l-3.265-3.265c-0.391-0.39-0.391-1.023,0-1.414s1.024-0.391,1.414,0l3.265,3.265
	C322.735,182.976,322.736,183.608,322.345,183.999z M322.345,148.808l-3.265,3.265c-0.391,0.391-1.023,0.391-1.414,0
	s-0.391-1.024,0-1.414l3.265-3.265c0.39-0.391,1.023-0.391,1.414,0C322.736,147.784,322.735,148.417,322.345,148.808z
	 M328.926,166.696h-4.617c-0.552,0-1-0.447-1-1s0.448-1,1-1h4.617c0.552,0,1,0.447,1,1S329.478,166.696,328.926,166.696z"></path>
<path id="color_x5F_6" fill="#FFAB91" d="M277.577,322.974c-0.024,2.326,0,4.655,0.054,6.983l3.606-1.246L277.577,322.974z
	 M299.091,309.723c-0.809-0.339-2.001,0.406-2.544,0.87c-0.833,0.711-1.614,1.468-2.326,2.277l0.942,2.517L299.091,309.723z"></path>
<path id="color_x5F_5" fill="#FFD2BB" d="M294.708,473.471l3.903-2.669l0.81-2.826h-14.55l-0.683,5.873l-0.176,1.512l6.34-0.349
	C291.841,474.928,293.364,474.39,294.708,473.471z M321.95,474.774c1.549-0.086,3.084-0.648,4.392-1.61l3.798-2.792l0.547-2.956
	H315.47l-0.114,7.723L321.95,474.774z M275.728,270.154c5.181-0.764,9.545-4.718,10.559-10.154l3.567-19.129l2.348-12.592
	l-5.345-0.997l-1.651,5.921l-5.116,1.682l-3.628,9.222c0.053-1.874-1.157-3.616-3.045-4.14c-2.222-0.616-4.522,0.686-5.138,2.907
	l-0.655,2.362c-0.616,2.222,0.686,4.522,2.907,5.138c0.528,0.146,1.06,0.177,1.574,0.12l-2.434,8.749l-15.7-7.37l-0.05-0.024
	l-3.949,8.412C258.836,259.921,268.804,263.268,275.728,270.154z M277.577,322.974l3.659,5.736l2.247,3.523l0.185,0.291l2.144,3.361
	c1.839,2.883,4.81,4.815,8.139,5.359c0.491,0.08,0.99,0.133,1.494,0.151l0,0c0.79,0.029,1.573-0.027,2.342-0.151
	c2.456-0.398,4.748-1.552,6.535-3.339l17.612-17.614l1.489-1.489l11.029-11.031c0.742,0.154,1.561-0.014,2.224-0.403
	c0.902-0.53,1.553-1.404,2.052-2.324c2.088-3.849,3.992-9.417,1.346-12.906c0.142-0.212,0.283-0.43,0.398-0.658
	c0.052-0.103,0.098-0.209,0.135-0.318c0.033-0.096,0.063-0.193,0.08-0.294c0.081-0.467-0.078-1.01-0.495-1.234
	c-0.456-0.245-0.993-0.029-1.443,0.259c-0.063,0.04-0.13,0.077-0.188,0.12c-0.881,0.634-2.259,1.865-3.272,2.491
	c-0.179,0.111-0.35,0.208-0.501,0.274c-0.445-0.311-0.413-1.047-1.038-1.177c-0.983-0.205-1.847,1.173-2.16,1.891
	c-0.883,2.025-1.505,4.123-1.662,6.289c-0.03,0.419-0.047,0.84-0.04,1.264c0.001,0.04,0,0.08,0.001,0.12l-18.595,10.526l-1.326,0.75
	l-13.127,7.431l-1.542-4.12l-0.136-0.362l-0.942-2.517l-3.424-9.146l-18.035,11.701L277.577,322.974z"></path>
<path id="color_x5F_4" fill="#1d4e89" d="M299.421,467.976h1.418c0.024-0.089,0.049-0.177,0.073-0.265
	c0.046-0.168,0.092-0.336,0.138-0.505c4.058-14.826,8.146-29.36,12.997-43.814c1.328-7.305,3.298-14.508,5.931-21.418
	c-7.134,1.114-15.642,2.343-24.422,3.392c-0.273,0.564-0.556,1.123-0.82,1.691c0.141,0.618,0.223,1.258,0.223,1.919
	c0,3.069-1.616,5.755-4.037,7.273c-0.688,1.859-1.324,3.731-1.924,5.613c-0.047,0.146-0.093,0.292-0.139,0.439
	c-2.123,6.744-3.685,13.602-4.671,20.405c-1.252,8.64-1.599,17.185-1.021,25.271h1.021h0.683h14.55V467.976z M227.963,376.999
	c-0.283,5.101,0.06,15.254,6.097,22.459c0.264,0.315,0.533,0.627,0.819,0.93h51.493c3.513,0,6.529,2.112,7.859,5.134
	c0.442-0.052,0.884-0.103,1.325-0.156c8.781-1.049,17.289-2.278,24.422-3.392c-2.633,6.91-4.602,14.113-5.931,21.418
	c-2.636,14.497-2.754,29.364-0.511,43.035c0.028,0.169,0.05,0.341,0.078,0.51c0.027,0.159,0.046,0.322,0.074,0.481h1.782h15.217
	h1.483c0.199-1.155,0.398-2.307,0.597-3.459c0.033-0.191,0.066-0.382,0.099-0.573c2.912-16.801,5.954-33.261,10.094-49.664
	c0.039-0.154,0.08-0.308,0.119-0.462c1.298-5.117,2.708-10.229,4.252-15.345c0.085-0.264,0.185-0.587,0.291-0.958
	c0.685-2.247,1.388-4.495,2.13-6.745c0.012-0.036,0.024-0.072,0.035-0.107c1.314-3.992-0.637-8.065-4.066-9.827
	c-1.313-1.407-3.132-2.545-5.635-3.215c-11.862-3.174-46.159-4.54-55.899-4.87c-1.66-0.056-2.612-0.083-2.612-0.083l-2.112-4.016
	C263.758,376.764,245.445,379.843,227.963,376.999z"></path>
<path id="color_x5F_2" fill="#f79256" d="M259.268,325.323v14.643c0,6.502-5.271,11.773-11.773,11.773h-25.73
	c1.011,8.79,2.531,17.238,4.508,24.985c0.561,0.104,1.127,0.182,1.69,0.273c17.482,2.845,35.794-0.235,51.501-8.905
	c0.633-0.349,1.269-0.689,1.893-1.057c-0.875-4.953-1.64-10.248-2.257-15.728c-0.162-1.434-0.315-2.876-0.454-4.334
	c-0.132-1.38-0.26-2.764-0.369-4.162c-0.041-0.52-0.07-1.048-0.107-1.57c-0.017-0.239-0.033-0.479-0.049-0.718
	c-0.012-0.169-0.023-0.338-0.035-0.508c-0.223-3.329-0.377-6.689-0.455-10.061c-0.054-2.328-0.078-4.657-0.054-6.983l-4.815-7.548
	l18.035-11.701l-8.575-22.904c-0.328-1.608-0.91-3.169-1.766-4.609c-0.158-0.266-0.318-0.529-0.48-0.789
	c-1.214-1.95-2.66-3.691-4.247-5.269c-6.924-6.886-16.893-10.233-25.759-9.892c-2.622,0.101-5.149,0.513-7.466,1.259
	c-9.751,3.141-14.649,12.376-17.601,24.701c-2.095,8.744-3.405,17.976-4.054,27.328h26.645
	C253.997,313.55,259.268,318.821,259.268,325.323z M317.468,165.912c0-7.415-6.011-13.426-13.426-13.426
	s-13.426,6.011-13.426,13.426c0,4.888,2.621,9.153,6.526,11.502c-0.004,0.066-0.02,0.129-0.02,0.196
	c0,1.654,1.353,3.008,3.008,3.008h7.826c1.654,0,3.008-1.353,3.008-3.008c0-0.067-0.016-0.13-0.02-0.196
	C314.847,175.065,317.468,170.8,317.468,165.912z M309.326,181.202h-10.568c-0.428,0-0.778,0.35-0.778,0.778s0.35,0.778,0.778,0.778
	h10.568c0.428,0,0.778-0.35,0.778-0.778S309.754,181.202,309.326,181.202z M309.326,183.225h-10.568
	c-0.428,0-0.778,0.35-0.778,0.778s0.35,0.778,0.778,0.778h10.568c0.428,0,0.778-0.35,0.778-0.778S309.754,183.225,309.326,183.225z
	 M309.326,185.249h-10.568c-0.428,0-0.778,0.35-0.778,0.778s0.35,0.778,0.778,0.778h10.568c0.428,0,0.778-0.35,0.778-0.778
	S309.754,185.249,309.326,185.249z M304.042,146.43c0.553,0,1-0.448,1-1v-4.617c0-0.552-0.447-1-1-1s-1,0.448-1,1v4.617
	C303.042,145.982,303.489,146.43,304.042,146.43z M328.926,164.696h-4.617c-0.552,0-1,0.447-1,1s0.448,1,1,1h4.617
	c0.552,0,1-0.447,1-1S329.478,164.696,328.926,164.696z M283.775,164.696h-4.617c-0.552,0-1,0.447-1,1s0.448,1,1,1h4.617
	c0.552,0,1-0.447,1-1S284.327,164.696,283.775,164.696z M320.931,147.394l-3.265,3.265c-0.391,0.391-0.391,1.023,0,1.414
	s1.024,0.391,1.414,0l3.265-3.265c0.391-0.391,0.391-1.023,0-1.414C321.954,147.003,321.321,147.003,320.931,147.394z
	 M289.004,179.32l-3.265,3.265c-0.391,0.391-0.391,1.023,0,1.414s1.024,0.391,1.414,0l3.265-3.265c0.391-0.39,0.391-1.023,0-1.414
	S289.394,178.93,289.004,179.32z M319.08,179.32c-0.391-0.391-1.023-0.391-1.414,0s-0.391,1.024,0,1.414l3.265,3.265
	c0.39,0.391,1.023,0.391,1.414,0s0.391-1.024,0-1.414L319.08,179.32z M289.004,152.073c0.391,0.391,1.023,0.391,1.414,0
	s0.391-1.024,0-1.414l-3.265-3.265c-0.391-0.391-1.023-0.391-1.414,0s-0.391,1.024,0,1.414L289.004,152.073z"></path>
<path id="color_x5F_1" fill="#1d4e89" d="M144.938,468.974c-0.177,0.228-0.365,0.446-0.539,0.677
	c-0.661,0.876-1.734,1.334-2.772,0.727c-0.866-0.506-1.387-1.898-0.727-2.772c1.174-1.555,2.411-3.055,3.665-4.544
	c-0.434-3.566-1.243-7.074-2.499-10.463c-0.341-0.921-0.719-1.823-1.115-2.716c-1.325,1.733-2.629,3.483-3.956,5.215
	c-1.566,2.044-5.084,0.024-3.499-2.045c1.827-2.385,3.615-4.799,5.46-7.169c-2.084-3.733-4.637-7.192-7.544-10.353
	c-1.223,1.468-2.446,2.935-3.669,4.403c-1.672,2.006-4.523-0.875-2.865-2.865c1.231-1.477,2.462-2.954,3.693-4.431
	c-4.327-4.122-9.261-7.663-14.504-10.554c-2.467,5.625-3.952,11.663-4.448,17.783c1.544,0.666,3.142,1.225,4.72,1.787
	c2.443,0.87,1.384,4.784-1.077,3.907c-1.29-0.459-2.564-0.927-3.815-1.433c-0.022,3.721,0.329,7.441,1.034,11.092
	c3.044,1.259,6.051,2.607,9.219,3.539c2.5,0.735,1.43,4.644-1.077,3.907c-2.389-0.703-4.686-1.643-6.975-2.603
	c0.322,1.111,0.667,2.215,1.061,3.303c0.845,2.331,1.86,4.597,3.014,6.79c2.156,0.688,4.338,1.294,6.53,1.879
	c2.521,0.673,1.445,4.58-1.077,3.907c-0.799-0.213-1.595-0.43-2.391-0.649c4.32,6.428,9.982,11.945,16.513,16.104h5.877
	C143.573,484.188,145.012,476.529,144.938,468.974z M165.796,481.476c-0.241,0.049-0.484,0.087-0.725,0.14
	c-0.915,0.201-1.865-0.096-2.202-1.066c-0.281-0.809,0.153-2.001,1.066-2.202c1.624-0.357,3.259-0.645,4.898-0.915
	c1.696-2.555,3.118-5.28,4.182-8.175c0.289-0.787,0.545-1.582,0.784-2.381c-1.821,0.39-3.638,0.802-5.46,1.19
	c-2.15,0.458-3.312-2.805-1.136-3.268c2.508-0.534,5.008-1.108,7.519-1.623c0.719-3.579,0.981-7.239,0.848-10.903
	c-1.608,0.274-3.216,0.548-4.823,0.822c-2.198,0.374-2.45-3.077-0.27-3.449c1.618-0.276,3.236-0.551,4.854-0.827
	c-0.521-5.075-1.758-10.11-3.557-14.894c-4.721,2.281-9.034,5.376-12.751,9.072c0.633,1.289,1.359,2.537,2.071,3.778
	c1.103,1.92-1.756,3.872-2.866,1.938c-0.582-1.014-1.149-2.024-1.681-3.046c-2.079,2.402-3.915,5.01-5.482,7.771
	c1.277,2.505,2.48,5.049,4.019,7.411c1.214,1.864-1.649,3.807-2.866,1.938c-1.16-1.781-2.129-3.666-3.082-5.559
	c-0.407,0.899-0.796,1.807-1.144,2.732c-0.745,1.981-1.343,4.015-1.811,6.078c1.017,1.643,2.097,3.246,3.195,4.842
	c1.263,1.835-1.603,3.774-2.866,1.938c-0.4-0.581-0.797-1.164-1.191-1.748c-0.791,6.817-0.106,13.801,2.004,20.329h7.481
	C158.873,488.549,162.639,485.241,165.796,481.476z M137.377,359.058c-7.757-19.521-12.026-40.793-12.026-63.044
	c0-32.603,9.162-63.106,25.041-89.074c-0.177-0.098-0.346-0.204-0.509-0.316c-16.307,26.655-25.032,57.35-25.032,89.39
	c0,21.999,4.119,43.363,11.973,63.223C137.003,359.17,137.187,359.11,137.377,359.058z M296.601,124.765
	c67.001,0,125.127,38.683,153.247,94.883c0.18-0.088,0.369-0.166,0.563-0.238c-8.179-16.383-19.039-31.515-32.364-44.841
	c-32.439-32.439-75.569-50.304-121.445-50.304s-89.006,17.865-121.445,50.304c-6.394,6.394-12.213,13.21-17.45,20.374
	c0.166,0.116,0.324,0.239,0.475,0.368C189.35,152.586,239.783,124.765,296.601,124.765z M239.148,457.949
	c1.71,0.605,3.429,1.183,5.159,1.733v-0.596c-1.732-0.557-3.451-1.141-5.159-1.751V457.949z M276.625,466.098
	c-8.011-0.935-15.847-2.444-23.484-4.45v0.581c7.662,1.989,15.488,3.459,23.44,4.376
	C276.59,466.436,276.606,466.267,276.625,466.098z M143.055,371.78c-0.169,0.106-0.347,0.202-0.53,0.293
	c8.209,16.592,19.158,31.913,32.631,45.385c17.061,17.062,37.084,30.081,58.905,38.597v-0.632
	C194.369,439.796,161.871,409.758,143.055,371.78z M332.768,463.958c11.672-2.489,23-6.175,33.83-11.011v-0.655
	c-10.708,4.815-21.999,8.553-33.731,11.093C332.834,463.576,332.801,463.768,332.768,463.958z M371.686,450.565
	c14.383-7.002,27.825-16.052,39.952-27.017v-0.784c-11.912,10.821-25.354,19.983-39.952,27.135V450.565z M418.046,417.459
	c32.438-32.438,50.304-75.569,50.304-121.445c0-22.209-4.199-43.77-12.2-63.791c-0.172,0.087-0.35,0.167-0.534,0.24
	c7.885,19.66,12.233,41.106,12.233,63.551c0,47.67-19.586,90.845-51.124,121.923v0.81
	C417.165,418.317,417.61,417.894,418.046,417.459z M300.912,467.71c4.263-0.104,8.499-0.363,12.703-0.774
	c-0.028-0.169-0.05-0.341-0.078-0.51c-4.122,0.407-8.285,0.672-12.487,0.78C301.004,467.374,300.958,467.542,300.912,467.71z
	 M233.902,186.157c-14.072,8.031-26.233,18.465-36.069,30.739c0.108,0.09,0.214,0.186,0.317,0.288
	c9.655-12.088,21.703-22.584,35.935-30.707c12.471-7.117,25.658-11.847,39.036-14.369c-0.026-0.138-0.05-0.276-0.074-0.415
	C259.467,174.275,246.26,179.104,233.902,186.157z M401.749,366.432c3.755-5.618,7.062-11.553,9.889-17.76v-1.101
	c-2.879,6.446-6.298,12.669-10.246,18.587C401.514,366.242,401.633,366.334,401.749,366.432z M418.616,329.361
	c8.907-32.592,4.589-66.701-12.158-96.045c-16.011-28.054-41.555-48.533-72.249-58.063c-0.042,0.14-0.077,0.283-0.12,0.423
	c29.43,9.154,55.603,29.007,72.05,57.823c19.782,34.661,21.253,74.845,7.508,109.316h0.464
	C415.842,338.444,417.359,333.961,418.616,329.361z M191.703,225.228c-7.616,11.308-13.419,23.904-17.118,37.44
	c-7.598,27.802-5.565,56.706,5.59,82.817c0.112-0.056,0.226-0.108,0.341-0.157c-17.039-40.029-11.758-85.194,11.568-119.869
	C191.955,225.39,191.828,225.312,191.703,225.228z M395.649,374.78c-0.119-0.078-0.235-0.162-0.348-0.254
	c-6.724,8.474-14.62,16.171-23.615,22.828v0.467C380.728,391.177,388.765,383.434,395.649,374.78z M187.063,358.531
	c-0.799-1.399-1.566-2.808-2.305-4.225c-0.105,0.058-0.212,0.114-0.321,0.166c0.743,1.423,1.506,2.839,2.306,4.241
	c4.629,8.11,10.057,15.584,16.173,22.348c-0.073-0.279-0.143-0.558-0.213-0.837C196.846,373.691,191.584,366.452,187.063,358.531z
	 M288.998,421.862c-1.606-0.1-3.211-0.221-4.81-0.381v0.439c1.557,0.157,3.114,0.282,4.671,0.381
	C288.905,422.154,288.951,422.008,288.998,421.862z M279.1,421.304v-0.445c-5.376-0.76-10.697-1.858-15.925-3.295h-1.552
	c0.544,0.156,1.085,0.318,1.632,0.467C268.506,419.465,273.797,420.552,279.1,421.304z M343.08,413.26
	c-0.039,0.154-0.08,0.308-0.119,0.462c5.577-2.21,11.036-4.824,16.339-7.85c2.495-1.424,4.926-2.928,7.299-4.5v-0.445
	c-2.423,1.615-4.915,3.16-7.481,4.624C353.885,408.538,348.525,411.097,343.08,413.26z M217.638,394.907
	c2.4,1.917,4.87,3.745,7.406,5.481h0.788c-2.979-2.013-5.881-4.156-8.694-6.433C217.304,394.273,217.468,394.591,217.638,394.907z
	 M309.969,312.439l1.326-0.75c0.104-1.006,0.359-1.996,0.787-2.887c3.139-6.529,11.509-7.297,17.807-7.758
	c-0.006-0.424,0.01-0.845,0.04-1.264c-0.003,0-0.004-0.001-0.007-0.001C322.236,300.341,310.013,302.407,309.969,312.439z
	 M340.464,311.103c4.983-2.773,12.154-5.933,17.606-2.637c8.046,4.864,0.417,13.085-4.743,16.216
	c-5.371,3.259-11.478,4.85-17.738,4.885c-0.812,0.005-0.814,1.267,0,1.262c8.911-0.05,20.135-3.414,25.342-11.261
	c2.085-3.141,2.639-7.063,0.15-10.146c-2.609-3.233-6.956-3.915-10.857-3.336c-10.079,1.496-17.263,9.819-26.801,12.715
	l-1.489,1.489c1.822-0.31,3.598-0.856,5.115-1.525C331.778,316.679,335.963,313.608,340.464,311.103z"></path>
</svg>