<svg xmlns="http://www.w3.org/2000/svg" xmlns:xlink="http://www.w3.org/1999/xlink" id="Layer_1" x="0" y="0" enable-background="new 0 0 595.276 595.276" version="1.1" viewBox="0 0 595.276 595.276" xml:space="preserve"><path id="color_x5F_7" fill="#263238" d="M157.504,331.642h-0.28h-5.867c-4.225,0-7.649,3.425-7.649,7.649v1.639	c0,4.225,3.425,7.649,7.649,7.649h15.334C163.088,343.132,159.908,337.508,157.504,331.642z M215.907,481.894l-2.201-6.277	l-0.973,0.397l-3.639,1.486c-1.253,0.512-2.635,0.622-3.953,0.314l-5.61-1.31l-1.267-0.296c0,0-5.263,6.063-7.444,11.394	c-0.329,0.804,0.095,1.716,0.928,1.96l27.994,8.205l1.109-10.453C218.692,485.916,216.728,484.178,215.907,481.894z M274.801,497.398l-0.897-1.856c-1.269-2.624-3.678-4.515-6.528-5.125l-6.597-1.411c-3.42-0.731-7.421-1.874-9.444-4.727	l-3.805-5.455l-2.129,1.651l-1.808,1.402c-1.07,0.83-2.371,1.306-3.724,1.364l-6.283,0.267l-0.773,0.033	c0,0-1.935,4.077-3.185,8.529l-5.602-2.935l-0.978,9.218h11.468c-0.011-0.047-0.022-0.094-0.034-0.141l10.662,0.141h29.565	C274.902,498.09,274.962,497.731,274.801,497.398z M551.699,498.353h-60.468h-5.536h-2.19h-3.583h-2.22h-2.806h-2.105h-3.59h-2.04	h-4.517h-2.107h-0.634h-2.138h-1.392h-2.337h-3.968h-45.145h-8.248h-3.293h-5.402h-3.336h-4.179h-3.164h-5.354h-3.067h-6.757h-2.508	l-2.963-27.938l-3.752-35.376l-4.166-39.276l-0.079-0.745l-10.505-99.044h8.096v-4.785h-25.677l9.94-42.848h-1.896h-13.565h-11.719	h-38.528l-4.196,18.089l-2.604,11.225l-3.14,13.534h-16.414v4.785h2.697l-6.848,64.569l-0.018,0.171l-1.488,14.027l-3.803,35.859	l-6.122,57.723l-2.014,18.992l-1.109,10.453l-0.062,0.586h-29.901c0-2.877-2.219-5.232-5.038-5.457l10.217-96.334l0.085-0.798	l0.907-8.548l7.416-69.92l0.572-5.392l1.671-15.753c0.006-0.06,0.001-0.118,0.001-0.177h-3.35l-0.532,5.016l-0.878,8.278	l-0.067,0.627l-7.766,73.223l-0.984,9.276l-0.087,0.825l-10.57,99.656h-6.71v-123.03v-1.18v-8.981	c-1.951-2.548-3.86-5.127-5.689-7.743v6.592v1.341v133.001h-9.634c-3.026,0-5.479,2.453-5.479,5.479H83.442	c-1.975,0-3.577,1.601-3.577,3.577c0,1.975,1.601,3.577,3.577,3.577h468.257c1.975,0,3.577-1.601,3.577-3.577	C555.276,499.954,553.674,498.353,551.699,498.353z M334.801,295.973c0,0.059-0.005,0.117,0.001,0.177l16.173,152.489l0.056,0.527	l1.786,16.836l2.492,23.495l0.939,8.856h-1.446h-2.051h-3.515h-5.982H320.73l-4.953-46.698l-0.052-0.494l-16.46-155.187h35.536	L334.801,295.973L334.801,295.973z M231.112,422.317l4.414-41.618l8.967-84.548c0.006-0.06,0.001-0.118,0.001-0.177h51.421	c0,0.059-0.005,0.117,0.001,0.177l10.739,101.247l0.08,0.757l10.627,100.197h-42.654h-29.565h-10.628h-11.468l0.978-9.218	l1.713-16.151L231.112,422.317z M166.248,176.177c-1.194-0.62-2.016-1.866-2.016-3.298v-2.592c0-2.043,1.672-3.715,3.715-3.715	s3.715,1.672,3.715,3.715v1.469h2.069l2.41-12.203l3.04-1.564l1.025-5.846h16.36v8.635c3.589-2.244,6.286-5.948,7.119-10.11	c0.702-3.505-0.076-7.136-1.865-10.22c-1.456-2.511-4.435-3.54-7.276-2.947c-0.172,0.036-0.345,0.064-0.518,0.083	c-1.382,0.156-2.771-0.128-4.137-0.384c-5.601-1.052-11.522-1.649-16.891,0.263c-5.369,1.911-7.779,4.701-7.51,10.394	c-2.15,0.857-4.698,3.892-5.236,6.143s0.013,5.784,0.369,8.071c1.02,6.553,3.044,12.944,5.957,18.901l0.103-1.224	C166.409,178.601,166.248,177.409,166.248,176.177z"/><path id="color_x5F_6_1_" fill="#455A64" d="M258.765,266.19l-2.623,11.306l-2.477,10.68h-11.169h-1.493h-0.968h-1.951h-1.097	h-2.356h-11.156l-0.698,3.012h-22.7h-5.597v4.785h6.375h1.404h3.35h32.838v-4.785h16.415l0.698-3.012l2.441-10.522l2.604-11.225	l4.197-18.089h-1.896L258.765,266.19z"/><path id="color_x5F_5_1_" fill="#FFCCBC" d="M251.491,275.116l0.001,0.024c1.443,1.367,3.002,2.071,4.65,2.355l2.623-11.306	c-2.29-0.21-4.608-0.124-6.898,0.256c-10.747-7.022-19.723-14.29-31.403-23.094c-0.221-0.166-0.434-0.329-0.657-0.496	c-3.328-2.504-8.24-0.818-10.41,2.737c-2.516,4.122-3.206,9.652,0.182,15.61c0.031,0.055,0.056,0.108,0.088,0.163	C223.17,266.264,239.414,271.347,251.491,275.116z M258.001,277.654L258.001,277.654l2.604-11.225l0,0L258.001,277.654z M179.65,204.815l2.158,0.182l0.733-8.702l0.402-4.768h2.559c6.111,0,11.066-4.954,11.066-11.066v-17.85v-0.842v-0.99v-8.635h-16.36	l-1.025,5.846l-3.04,1.564l-2.41,12.203h-2.069v-1.469c0-2.043-1.672-3.715-3.715-3.715s-3.715,1.672-3.715,3.715v2.592	c0,1.432,0.822,2.678,2.016,3.298c0,1.232,0.161,2.423,0.435,3.571l-0.103,1.224l-0.936,11.112l-0.153,1.819	C170.893,196.46,175.507,200.385,179.65,204.815z M204.069,278.238c6.487,0.78,13.013,1.243,19.545,1.377	c1.444,4.552,5.34,6.122,9.835,7.355c0.411,0.384,0.804,0.788,1.183,1.206h2.356c-0.51-0.878-1.085-1.732-1.744-2.508	c0.097-0.08,0.191-0.161,0.283-0.242c0.09,0.079,0.183,0.155,0.272,0.237c0.827,0.772,1.579,1.621,2.287,2.512h1.952	c-0.755-1.586-1.77-3.137-2.998-4.43c0.003-0.004,0.005-0.008,0.008-0.012c0.212,0.173,0.42,0.35,0.621,0.538	c1.248,1.165,2.327,2.506,3.337,3.904h1.493c-0.898-2.401-2.437-4.872-4.43-6.639c0.04-0.139,0.075-0.285,0.109-0.43	c0.029,0.027,0.06,0.051,0.089,0.078c1.616,1.509,2.952,3.311,4.216,5.152c0.284,0.414,1.053,0.04,0.882-0.496	c-1.116-3.497-3.683-7.314-7.052-9.001c-2.586-2.179-5.572-3.868-8.812-4.959c0.005-0.012,0.011-0.023,0.016-0.035	c-6.09-3.002-13.842-6.326-21.881-9.707c-0.215-0.09-0.43-0.181-0.645-0.271c-2.919-1.226-5.868-2.458-8.789-3.685	c-4.059-1.704-8.058-3.397-11.82-5.044c-1.162,3.821-3.1,7.464-5.327,10.971c-1.732,2.727-3.638,5.372-5.489,7.953	c8.053,2.329,16.263,4.115,24.555,5.371c1.78,0.27,3.566,0.503,5.353,0.724C203.67,278.184,203.869,278.214,204.069,278.238z M199.531,476.504l5.61,1.31c1.318,0.308,2.7,0.198,3.953-0.314l3.639-1.486l0.928-2.431l-12.815-3.756L199.531,476.504z M243.592,481.877l1.808-1.402l-2.196-7.623l-12.499,4.702l2.879,5.953l6.283-0.267	C241.221,483.183,242.523,482.707,243.592,481.877z"/><path id="color_x5F_4_1_" fill="#7dcfb6" d="M438.825,284.258c0.025-0.993,0.037-1.989,0.037-2.988v-0.233	c0-0.205-0.166-0.371-0.371-0.371c-0.205,0-0.371,0.166-0.371,0.371v0.233c0,0.993-0.012,1.983-0.037,2.97	c-0.005,0.205,0.157,0.376,0.362,0.381c0.004,0,0.007,0,0.009,0C438.654,284.62,438.82,284.46,438.825,284.258z M433.619,313.52	c-0.273,0.953-0.557,1.901-0.853,2.845c-0.062,0.195,0.047,0.404,0.243,0.465c0.037,0.012,0.074,0.017,0.111,0.017	c0.158,0,0.305-0.102,0.354-0.26c0.299-0.95,0.585-1.904,0.859-2.863c0.057-0.197-0.057-0.403-0.255-0.459	C433.878,313.205,433.675,313.323,433.619,313.52z M437.967,292.797c0.189,0,0.351-0.144,0.369-0.336	c0.094-0.99,0.175-1.983,0.243-2.98c0.014-0.205-0.141-0.382-0.345-0.396c-0.205-0.009-0.382,0.141-0.396,0.345	c-0.068,0.99-0.148,1.977-0.242,2.96c-0.019,0.204,0.131,0.386,0.335,0.405C437.943,292.797,437.955,292.797,437.967,292.797z M435.587,305.596c-0.205,0.971-0.422,1.936-0.651,2.898c-0.048,0.2,0.075,0.4,0.275,0.448c0.029,0.007,0.058,0.01,0.086,0.01	c0.168,0,0.321-0.115,0.361-0.285c0.231-0.969,0.449-1.941,0.656-2.917c0.042-0.201-0.086-0.398-0.287-0.44	C435.826,305.271,435.63,305.396,435.587,305.596z M437.415,297.235c-0.197-0.023-0.392,0.113-0.419,0.316	c-0.137,0.983-0.286,1.962-0.448,2.937c-0.033,0.202,0.103,0.394,0.305,0.427c0.021,0.004,0.041,0.005,0.062,0.005	c0.178,0,0.335-0.129,0.366-0.311c0.163-0.982,0.313-1.967,0.451-2.956C437.759,297.451,437.618,297.264,437.415,297.235z M415.753,350.089c-0.583,0.801-1.177,1.595-1.78,2.38c-0.125,0.163-0.094,0.396,0.068,0.521c0.067,0.052,0.147,0.077,0.226,0.077	c0.111,0,0.221-0.05,0.295-0.145c0.607-0.792,1.204-1.59,1.792-2.396c0.12-0.165,0.084-0.398-0.082-0.519	C416.106,349.887,415.873,349.923,415.753,350.089z M242.308,368.79c0.071,0.065,0.16,0.096,0.249,0.096	c0.102,0,0.203-0.041,0.276-0.123c0.137-0.152,0.125-0.387-0.027-0.524c-0.736-0.663-1.463-1.336-2.182-2.017	c-0.149-0.139-0.384-0.134-0.525,0.014c-0.141,0.149-0.135,0.384,0.014,0.525C240.836,367.447,241.568,368.122,242.308,368.79z M248.604,374.077c0.068,0.054,0.149,0.079,0.229,0.079c0.111,0,0.22-0.049,0.293-0.143c0.126-0.161,0.098-0.395-0.064-0.521	c-0.781-0.611-1.553-1.231-2.318-1.861c-0.158-0.131-0.392-0.107-0.523,0.05c-0.131,0.158-0.108,0.393,0.05,0.523	C247.041,372.839,247.818,373.463,248.604,374.077z M428.023,328.89c-0.405,0.908-0.821,1.809-1.248,2.704	c-0.089,0.186-0.01,0.407,0.175,0.496c0.052,0.025,0.107,0.036,0.16,0.036c0.139,0,0.271-0.078,0.335-0.211	c0.43-0.901,0.849-1.808,1.257-2.721c0.083-0.188-0.001-0.407-0.188-0.491C428.327,328.62,428.107,328.702,428.023,328.89z M250.905,186.706c-0.799,0.594-1.591,1.198-2.373,1.812c-0.162,0.127-0.19,0.36-0.063,0.521c0.073,0.094,0.182,0.143,0.293,0.143	c0.08,0,0.161-0.026,0.229-0.079c0.778-0.61,1.564-1.21,2.359-1.8c0.165-0.122,0.199-0.355,0.077-0.52	C251.302,186.618,251.069,186.583,250.905,186.706z M257.658,182.04c-0.838,0.536-1.669,1.084-2.492,1.641	c-0.17,0.115-0.214,0.346-0.099,0.516c0.072,0.106,0.189,0.163,0.308,0.163c0.071,0,0.144-0.021,0.208-0.064	c0.818-0.554,1.644-1.098,2.476-1.631c0.173-0.111,0.223-0.34,0.112-0.513C258.061,181.98,257.83,181.928,257.658,182.04z M420.332,343.317c-0.527,0.841-1.064,1.674-1.611,2.5c-0.113,0.171-0.066,0.402,0.104,0.515c0.063,0.041,0.134,0.062,0.205,0.062	c0.12,0,0.238-0.059,0.31-0.166c0.551-0.832,1.092-1.671,1.621-2.516c0.109-0.174,0.056-0.403-0.118-0.512	C420.671,343.091,420.441,343.143,420.332,343.317z M431.093,321.3c-0.34,0.934-0.691,1.863-1.055,2.786	c-0.075,0.191,0.018,0.407,0.209,0.482c0.045,0.018,0.091,0.026,0.136,0.026c0.148,0,0.288-0.089,0.345-0.235	c0.366-0.93,0.72-1.865,1.062-2.805c0.07-0.193-0.029-0.406-0.222-0.476C431.375,321.009,431.162,321.108,431.093,321.3z M349.635,395.551c0.199-0.049,0.32-0.251,0.271-0.451c-0.05-0.2-0.251-0.32-0.451-0.271c-0.265,0.066-0.534,0.124-0.8,0.188	l0.079,0.745C349.034,395.691,349.336,395.625,349.635,395.551z M424.43,336.24c-0.467,0.876-0.945,1.746-1.434,2.608	c-0.101,0.178-0.038,0.405,0.141,0.506c0.058,0.033,0.12,0.048,0.183,0.048c0.129,0,0.255-0.068,0.324-0.189	c0.491-0.868,0.972-1.743,1.442-2.624c0.096-0.181,0.028-0.406-0.153-0.503C424.752,335.992,424.527,336.059,424.43,336.24z M264.716,177.858c-0.873,0.477-1.739,0.965-2.599,1.463c-0.178,0.103-0.238,0.33-0.135,0.508c0.069,0.119,0.194,0.185,0.322,0.185	c0.063,0,0.127-0.016,0.186-0.05c0.854-0.495,1.715-0.98,2.582-1.454c0.18-0.098,0.246-0.324,0.148-0.504	C265.122,177.825,264.896,177.759,264.716,177.858z M255.255,378.916c0.064,0.044,0.136,0.064,0.208,0.064	c0.119,0,0.236-0.057,0.308-0.163c0.115-0.17,0.07-0.401-0.1-0.516c-0.822-0.556-1.636-1.121-2.443-1.696	c-0.167-0.118-0.398-0.079-0.518,0.087c-0.119,0.167-0.08,0.399,0.087,0.518C253.609,377.788,254.428,378.357,255.255,378.916z M338.59,397.737c0.018,0,0.037-0.001,0.055-0.004c0.988-0.147,1.971-0.307,2.951-0.479c0.202-0.036,0.337-0.228,0.302-0.429	c-0.035-0.203-0.239-0.343-0.43-0.302c-0.974,0.17-1.951,0.329-2.932,0.476c-0.203,0.03-0.343,0.219-0.313,0.422	C338.25,397.604,338.409,397.737,338.59,397.737z M330.451,398.664c0.01,0,0.02-0.001,0.03-0.001	c0.997-0.078,1.989-0.169,2.977-0.273c0.204-0.021,0.353-0.204,0.331-0.408c-0.021-0.204-0.208-0.356-0.408-0.331	c-0.982,0.102-1.968,0.193-2.958,0.271c-0.205,0.016-0.358,0.194-0.341,0.399C330.097,398.516,330.259,398.664,330.451,398.664z M322.271,399.025c0.001,0,0.002,0,0.004,0c0.998-0.01,1.994-0.032,2.985-0.066c0.205-0.007,0.365-0.179,0.358-0.385	c-0.008-0.205-0.183-0.36-0.384-0.358c-0.986,0.034-1.974,0.056-2.966,0.066c-0.205,0.002-0.37,0.17-0.368,0.375	C321.902,398.861,322.067,399.025,322.271,399.025z M305.557,397.639c-0.026,0.204,0.117,0.39,0.321,0.416	c0.285,0.037,0.572,0.065,0.857,0.099l-0.08-0.757c-0.227-0.028-0.455-0.05-0.682-0.079	C305.773,397.294,305.584,397.437,305.557,397.639z M314.059,398.824c0.992,0.058,1.987,0.105,2.986,0.139c0.004,0,0.008,0,0.013,0	c0.199,0,0.364-0.158,0.371-0.359c0.007-0.205-0.153-0.377-0.359-0.384c-0.992-0.033-1.981-0.079-2.967-0.137	c-0.2-0.018-0.381,0.144-0.393,0.349S313.854,398.812,314.059,398.824z M279.619,171.022c-0.934,0.352-1.862,0.714-2.784,1.089	c-0.19,0.077-0.282,0.294-0.205,0.484c0.059,0.144,0.198,0.232,0.344,0.232c0.047,0,0.094-0.009,0.14-0.027	c0.916-0.372,1.838-0.733,2.767-1.082c0.192-0.072,0.289-0.286,0.217-0.478C280.025,171.047,279.812,170.95,279.619,171.022z M295.361,166.329c-0.974,0.217-1.944,0.446-2.909,0.688c-0.199,0.05-0.32,0.251-0.27,0.45c0.042,0.169,0.193,0.281,0.36,0.281	c0.03,0,0.06-0.004,0.09-0.011c0.959-0.239,1.923-0.467,2.891-0.683c0.2-0.045,0.326-0.243,0.281-0.443	C295.759,166.411,295.562,166.285,295.361,166.329z M437.996,275.839c0.009,0.199,0.173,0.355,0.371,0.355c0.005,0,0.011,0,0.017,0	c0.205-0.009,0.363-0.183,0.354-0.388c-0.003-0.059-0.008-0.117-0.01-0.176c-0.247-0.008-0.497-0.031-0.747-0.06	C437.984,275.66,437.992,275.749,437.996,275.839z M287.407,168.398c-0.957,0.285-1.908,0.582-2.854,0.891	c-0.195,0.063-0.301,0.273-0.238,0.468c0.051,0.157,0.197,0.256,0.353,0.256c0.038,0,0.077-0.006,0.115-0.018	c0.94-0.307,1.885-0.601,2.835-0.885c0.197-0.058,0.309-0.265,0.25-0.462C287.811,168.452,287.604,168.339,287.407,168.398z M259.657,381.75c0.851,0.521,1.708,1.032,2.573,1.531c0.059,0.034,0.123,0.05,0.186,0.05c0.128,0,0.253-0.067,0.322-0.186	c0.103-0.177,0.042-0.405-0.135-0.507c-0.859-0.497-1.711-1.005-2.557-1.523c-0.175-0.107-0.404-0.052-0.511,0.123	C259.427,381.415,259.482,381.643,259.657,381.75z M266.821,385.802c0.885,0.461,1.777,0.911,2.675,1.349	c0.053,0.025,0.108,0.038,0.163,0.038c0.137,0,0.27-0.077,0.334-0.208c0.09-0.184,0.014-0.407-0.17-0.497	c-0.893-0.436-1.779-0.883-2.658-1.341c-0.183-0.095-0.407-0.025-0.501,0.158C266.568,385.483,266.639,385.708,266.821,385.802z M272.045,174.18c-0.904,0.415-1.802,0.841-2.693,1.277c-0.184,0.09-0.26,0.313-0.17,0.497c0.065,0.131,0.197,0.208,0.334,0.208	c0.055,0,0.111-0.012,0.163-0.038c0.885-0.434,1.777-0.857,2.676-1.269c0.186-0.086,0.268-0.306,0.183-0.493	C272.452,174.176,272.232,174.095,272.045,174.18z M289.774,394.819c0.959,0.264,1.923,0.516,2.892,0.756	c0.03,0.007,0.06,0.011,0.09,0.011c0.167,0,0.318-0.113,0.36-0.282c0.049-0.199-0.072-0.401-0.271-0.45	c-0.962-0.239-1.92-0.489-2.873-0.752c-0.197-0.053-0.402,0.062-0.457,0.26C289.461,394.56,289.577,394.765,289.774,394.819z M274.254,389.345c0.916,0.397,1.837,0.783,2.764,1.158c0.046,0.018,0.093,0.027,0.139,0.027c0.147,0,0.286-0.088,0.344-0.232	c0.077-0.19-0.015-0.407-0.205-0.484c-0.922-0.372-1.838-0.756-2.748-1.151c-0.187-0.082-0.406,0.005-0.489,0.193	C273.98,389.044,274.066,389.263,274.254,389.345z M297.77,396.72c0.975,0.196,1.954,0.38,2.938,0.551	c0.021,0.004,0.043,0.006,0.064,0.006c0.177,0,0.334-0.127,0.366-0.308c0.035-0.202-0.1-0.395-0.302-0.43	c-0.977-0.171-1.951-0.354-2.919-0.548c-0.201-0.042-0.397,0.09-0.437,0.291C297.439,396.484,297.569,396.68,297.77,396.72z M281.923,392.356c0.942,0.332,1.889,0.653,2.841,0.961c0.038,0.012,0.077,0.018,0.115,0.018c0.157,0,0.303-0.1,0.353-0.257	c0.063-0.195-0.044-0.405-0.239-0.468c-0.946-0.307-1.887-0.625-2.823-0.956c-0.194-0.07-0.406,0.033-0.474,0.226	C281.628,392.076,281.729,392.288,281.923,392.356z M232.79,203.362c-0.659,0.747-1.309,1.502-1.95,2.266	c-0.132,0.157-0.111,0.391,0.046,0.523c0.07,0.058,0.154,0.087,0.238,0.087c0.106,0,0.211-0.045,0.285-0.133	c0.637-0.759,1.283-1.51,1.938-2.252c0.136-0.154,0.121-0.388-0.033-0.524C233.162,203.193,232.926,203.208,232.79,203.362z M213.523,329.248c0.062,0.138,0.197,0.22,0.339,0.22c0.05,0,0.102-0.01,0.151-0.032c0.187-0.084,0.271-0.304,0.188-0.491	c-0.402-0.9-0.793-1.806-1.173-2.718c-0.078-0.19-0.296-0.276-0.486-0.2c-0.189,0.079-0.279,0.297-0.2,0.486	C212.725,327.43,213.118,328.342,213.523,329.248z M217.127,336.612c0.067,0.125,0.195,0.197,0.328,0.197	c0.059,0,0.119-0.014,0.174-0.044c0.181-0.096,0.25-0.321,0.153-0.503c-0.464-0.871-0.918-1.748-1.361-2.631	c-0.091-0.184-0.314-0.258-0.498-0.166c-0.183,0.092-0.258,0.316-0.165,0.498C216.203,334.853,216.659,335.736,217.127,336.612z M210.445,321.653c0.055,0.15,0.197,0.244,0.349,0.244c0.042,0,0.085-0.007,0.127-0.023c0.193-0.07,0.292-0.284,0.222-0.477	c-0.339-0.929-0.667-1.862-0.983-2.803c-0.065-0.194-0.275-0.298-0.471-0.234c-0.194,0.065-0.299,0.276-0.234,0.47	C209.774,319.778,210.104,320.718,210.445,321.653z M410.715,356.523c-0.637,0.758-1.283,1.508-1.94,2.25	c-0.136,0.153-0.122,0.388,0.032,0.524c0.07,0.063,0.158,0.094,0.246,0.094c0.102,0,0.205-0.042,0.278-0.125	c0.661-0.747,1.312-1.501,1.953-2.265c0.132-0.157,0.112-0.391-0.046-0.523C411.082,356.346,410.847,356.367,410.715,356.523z M221.238,343.712c0.071,0.112,0.192,0.174,0.315,0.174c0.068,0,0.136-0.018,0.197-0.057c0.174-0.109,0.226-0.338,0.117-0.512	c-0.525-0.836-1.039-1.681-1.543-2.532c-0.104-0.176-0.332-0.234-0.509-0.131c-0.176,0.105-0.235,0.333-0.13,0.509	C220.193,342.021,220.711,342.87,221.238,343.712z M214.13,233.756c0.404-0.908,0.819-1.809,1.245-2.705	c0.088-0.185,0.009-0.407-0.176-0.495c-0.186-0.087-0.407-0.009-0.495,0.176c-0.405,0.852-0.799,1.71-1.184,2.572	c0.14,0.211,0.276,0.419,0.415,0.63C214.017,233.898,214.09,233.844,214.13,233.756z M207.901,313.839	c0.047,0.163,0.195,0.269,0.357,0.269c0.034,0,0.069-0.004,0.103-0.014c0.197-0.057,0.311-0.263,0.254-0.459	c-0.273-0.95-0.534-1.906-0.784-2.866c-0.052-0.199-0.254-0.316-0.453-0.266c-0.198,0.052-0.317,0.255-0.266,0.453	C207.363,311.921,207.626,312.883,207.901,313.839z M203.373,278.398c-0.023,0.954-0.034,1.911-0.034,2.871v0.117	c0,0.205,0.166,0.371,0.371,0.371s0.371-0.166,0.371-0.371v-0.117c0-0.954,0.012-1.905,0.034-2.853	c0.002-0.065-0.018-0.124-0.047-0.178c-0.2-0.024-0.398-0.055-0.598-0.08C203.414,278.224,203.375,278.306,203.373,278.398z M205.327,302.935c0.183,0.981,0.378,1.958,0.584,2.931c0.037,0.175,0.192,0.295,0.363,0.295c0.025,0,0.052-0.003,0.078-0.008	c0.201-0.043,0.329-0.24,0.286-0.44c-0.206-0.967-0.399-1.938-0.58-2.914c-0.037-0.202-0.231-0.334-0.433-0.297	C205.423,302.539,205.29,302.733,205.327,302.935z M205.327,261.739c-0.135-0.025-0.259,0.032-0.34,0.13	c0.215,0.091,0.43,0.181,0.645,0.271C205.65,261.947,205.52,261.77,205.327,261.739z M357.306,392.58	c-0.94,0.306-1.885,0.6-2.837,0.882c-0.197,0.059-0.308,0.265-0.25,0.462c0.048,0.161,0.196,0.266,0.356,0.266	c0.035,0,0.07-0.005,0.106-0.015c0.957-0.284,1.908-0.58,2.854-0.888c0.195-0.064,0.302-0.273,0.239-0.468	C357.71,392.623,357.5,392.517,357.306,392.58z M219.006,223.286c-0.178-0.1-0.406-0.038-0.506,0.141	c-0.491,0.869-0.971,1.744-1.44,2.626c-0.096,0.181-0.028,0.406,0.153,0.502c0.055,0.03,0.115,0.044,0.174,0.044	c0.133,0,0.262-0.071,0.328-0.197c0.466-0.877,0.943-1.746,1.431-2.609C219.247,223.614,219.184,223.387,219.006,223.286z M223.309,216.304c-0.171-0.114-0.402-0.067-0.515,0.105c-0.55,0.832-1.09,1.672-1.619,2.518c-0.109,0.174-0.056,0.403,0.118,0.512	c0.061,0.038,0.13,0.057,0.197,0.057c0.124,0,0.245-0.062,0.315-0.174c0.526-0.841,1.062-1.675,1.609-2.502	C223.527,216.647,223.481,216.417,223.309,216.304z M225.836,350.512c0.073,0.1,0.186,0.153,0.301,0.153	c0.076,0,0.152-0.023,0.218-0.071c0.166-0.121,0.202-0.353,0.082-0.519c-0.582-0.799-1.154-1.606-1.716-2.421	c-0.117-0.169-0.349-0.211-0.517-0.095c-0.169,0.117-0.211,0.348-0.095,0.517C224.675,348.896,225.25,349.708,225.836,350.512z M393.119,373.508c-0.779,0.609-1.566,1.208-2.361,1.798c-0.165,0.122-0.2,0.355-0.077,0.519c0.073,0.098,0.185,0.15,0.298,0.15	c0.077,0,0.155-0.024,0.221-0.073c0.799-0.593,1.592-1.196,2.375-1.809c0.162-0.126,0.191-0.36,0.064-0.521	C393.513,373.407,393.278,373.381,393.119,373.508z M238.44,197.393c-0.709,0.699-1.41,1.407-2.102,2.124	c-0.143,0.148-0.138,0.383,0.009,0.525c0.072,0.07,0.165,0.104,0.258,0.104c0.097,0,0.194-0.038,0.267-0.114	c0.687-0.712,1.384-1.416,2.089-2.111c0.146-0.144,0.148-0.379,0.004-0.525S238.586,197.249,238.44,197.393z M386.52,378.307	c-0.818,0.553-1.644,1.096-2.478,1.628c-0.173,0.111-0.224,0.34-0.114,0.513c0.071,0.111,0.192,0.172,0.313,0.172	c0.069,0,0.138-0.019,0.2-0.058c0.839-0.536,1.67-1.082,2.494-1.64c0.17-0.115,0.215-0.345,0.099-0.516	C386.921,378.237,386.69,378.192,386.52,378.307z M203.812,286.229c-0.205,0.009-0.363,0.183-0.354,0.388	c0.045,0.998,0.102,1.993,0.171,2.984c0.014,0.196,0.177,0.346,0.37,0.346c0.009,0,0.017,0,0.026-0.001	c0.205-0.014,0.359-0.192,0.345-0.396c-0.069-0.985-0.125-1.974-0.17-2.966C204.19,286.378,204.014,286.211,203.812,286.229z M399.371,368.259c-0.736,0.662-1.479,1.315-2.232,1.959c-0.156,0.133-0.174,0.368-0.041,0.524c0.073,0.086,0.178,0.13,0.282,0.13	c0.086,0,0.171-0.029,0.242-0.089c0.757-0.648,1.505-1.305,2.245-1.97c0.153-0.137,0.165-0.372,0.028-0.525	C399.758,368.134,399.522,368.122,399.371,368.259z M244.489,191.833c-0.756,0.648-1.503,1.305-2.243,1.973	c-0.152,0.137-0.164,0.372-0.027,0.525c0.073,0.081,0.174,0.123,0.276,0.123c0.089,0,0.178-0.032,0.249-0.096	c0.735-0.663,1.478-1.316,2.229-1.96c0.156-0.133,0.173-0.368,0.04-0.524C244.88,191.718,244.645,191.7,244.489,191.833z M405.246,362.589c-0.688,0.712-1.385,1.415-2.091,2.11c-0.147,0.144-0.148,0.379-0.004,0.525c0.073,0.074,0.169,0.111,0.265,0.111	c0.094,0,0.189-0.036,0.26-0.107c0.71-0.699,1.412-1.407,2.104-2.123c0.143-0.148,0.139-0.383-0.009-0.525	C405.623,362.438,405.387,362.442,405.246,362.589z M230.897,356.978c0.074,0.088,0.179,0.133,0.285,0.133	c0.084,0,0.169-0.028,0.239-0.087c0.157-0.132,0.177-0.366,0.045-0.523c-0.636-0.757-1.263-1.523-1.88-2.296	c-0.128-0.161-0.362-0.187-0.522-0.059c-0.16,0.128-0.186,0.361-0.059,0.522C229.626,355.447,230.257,356.216,230.897,356.978z M364.978,389.784c-0.917,0.371-1.84,0.731-2.768,1.079c-0.192,0.072-0.289,0.286-0.217,0.478c0.056,0.149,0.197,0.241,0.347,0.241	c0.044,0,0.088-0.007,0.131-0.024c0.934-0.35,1.862-0.712,2.785-1.085c0.19-0.077,0.282-0.294,0.205-0.484	C365.384,389.799,365.167,389.708,364.978,389.784z M372.416,386.465c-0.886,0.433-1.778,0.855-2.677,1.266	c-0.186,0.086-0.268,0.306-0.184,0.493c0.062,0.136,0.197,0.217,0.338,0.217c0.052,0,0.104-0.011,0.155-0.033	c0.905-0.414,1.803-0.839,2.694-1.275c0.184-0.09,0.26-0.313,0.17-0.497C372.823,386.451,372.598,386.377,372.416,386.465z M234.278,360.713l0.018-0.171C234.276,360.601,234.267,360.652,234.278,360.713z M379.609,382.633	c-0.855,0.495-1.716,0.979-2.584,1.451c-0.18,0.099-0.247,0.324-0.149,0.504c0.067,0.124,0.195,0.194,0.326,0.194	c0.06,0,0.121-0.014,0.178-0.045c0.873-0.477,1.74-0.963,2.6-1.461c0.178-0.102,0.239-0.33,0.136-0.507	C380.014,382.591,379.784,382.53,379.609,382.633z M227.567,209.709c-0.606,0.791-1.202,1.591-1.789,2.398	c-0.121,0.166-0.084,0.398,0.082,0.519c0.066,0.048,0.142,0.071,0.218,0.071c0.115,0,0.228-0.053,0.301-0.153	c0.583-0.802,1.176-1.596,1.778-2.382c0.125-0.163,0.094-0.396-0.069-0.521C227.925,209.516,227.692,209.547,227.567,209.709z M363.059,206.714c3.686-0.031,6.699,2.931,6.731,6.616c0.031,3.685-2.931,6.698-6.617,6.73c-3.686,0.031-6.699-2.931-6.731-6.616	C356.41,209.758,359.373,206.745,363.059,206.714z M363.06,146.381c3.686-0.03,6.698,2.934,6.728,6.619s-2.934,6.697-6.62,6.727	s-6.698-2.934-6.728-6.619S359.374,146.41,363.06,146.381z M329.8,176.288c-3.679,0-6.672,2.993-6.672,6.673	c0,3.68,2.993,6.673,6.672,6.673c3.68,0,6.673-2.993,6.673-6.673C336.473,179.281,333.479,176.288,329.8,176.288z M429.101,234.804	v-34.639h-12.975l-16.987,16.987h-22.364c-1.655,6.006-7.153,10.436-13.678,10.436c-7.83,0-14.199-6.37-14.199-14.199	s6.37-14.199,14.199-14.199c6.525,0,12.022,4.43,13.678,10.436h19.248l16.987-16.987h16.091v-5.915h-85.625	c-1.655,6.006-7.152,10.436-13.677,10.436c-7.829,0-14.198-6.37-14.198-14.199s6.37-14.199,14.198-14.199	c6.525,0,12.022,4.43,13.677,10.436h85.625v-5.385H413.01l-16.987-16.987h-19.248c-1.655,6.006-7.153,10.436-13.678,10.436	c-7.83,0-14.199-6.37-14.199-14.199s6.37-14.199,14.199-14.199c6.525,0,12.022,4.43,13.678,10.436h22.364l16.987,16.987h12.975	v-34.259h-34.892h-2.103H365.07h-2.053H307.04c-5.684,0-10.292,4.608-10.292,10.292v82.193c0,5.684,4.608,10.292,10.292,10.292h0.62	l-4.331,13.536h11.719l16.2-13.536h33.821L429.101,234.804L429.101,234.804z M331.559,465.37c-0.481,2.697-0.666,5.424-0.596,8.144	c2.165,4.356,4.813,8.514,6.891,12.892c1.874,3.949,3.659,7.939,5.4,11.948h5.982c-0.553-1.048-1.11-2.095-1.66-3.145	C342.334,485.207,337.115,475.195,331.559,465.37z M350.453,448.727c-0.451-3.718-0.88-7.439-1.266-11.167	c-1.565,1.184-3.057,2.462-4.466,3.824c0.862,2.626,1.741,5.246,2.658,7.853c0.058,0.165,0.114,0.33,0.173,0.495	c0.152,0.428,0.294,0.858,0.448,1.285c0.683,1.884-2.318,2.689-2.993,0.825c-0.2-0.552-0.388-1.108-0.583-1.662	c-0.058-0.166-0.116-0.331-0.174-0.497c-0.668-1.914-1.319-3.834-1.955-5.759c-0.532,0.594-1.059,1.191-1.56,1.81	c0.526,1.4,1.034,2.806,1.547,4.211c0.061,0.167,0.123,0.334,0.184,0.501c4.683,12.879,8.821,25.946,12.844,39.053l-2.492-23.495	c-0.854-5.567-1.615-11.15-2.299-16.746C350.496,449.08,350.474,448.903,350.453,448.727z M339.144,450.303	c-0.201-0.548-0.395-1.099-0.598-1.646c-0.408,0.592-0.78,1.206-1.159,1.817c-0.113,0.183-0.236,0.36-0.347,0.544	c-0.624,1.037-1.217,2.092-1.755,3.175c2.175,4.104,4.339,8.214,6.332,12.409c0.853,1.797-1.824,3.37-2.68,1.567	c-1.664-3.504-3.443-6.949-5.245-10.381c-0.403,1.039-0.767,2.095-1.085,3.166c6.522,11.349,12.548,22.97,18.632,34.562	c0.498,0.949,1.009,1.891,1.513,2.837h2.051c-4.854-15.96-9.75-31.904-15.479-47.559	C339.262,450.63,339.204,450.466,339.144,450.303z M356.652,470.415c1.531,9.372,3.324,18.694,5.471,27.938h6.757	c-0.735-18.366,2.074-36.695,5.501-54.991c0.04-0.215,0.08-0.43,0.121-0.645c0.921-4.899,1.882-9.796,2.83-14.69	c-0.212-0.004-0.423-0.016-0.635-0.016c-3.689-0.008-7.346,0.491-10.893,1.422c-0.392,5.369-0.695,10.74-0.828,16.113	c-0.005,0.191-0.01,0.382-0.014,0.573c-0.149,6.693-0.021,13.391,0.605,20.099c0.186,1.992-2.92,1.972-3.104,0	c-0.601-6.444-0.744-12.879-0.623-19.309c0.004-0.19,0.009-0.379,0.013-0.569c0.113-5.319,0.398-10.635,0.777-15.949	c-3.403,1.165-6.665,2.743-9.73,4.648L356.652,470.415z M400.159,480.053c3.425-8.905,6.834-17.871,11.024-26.449	c1.001-2.049,2.033-4.1,3.046-6.163c-0.477-0.627-0.968-1.243-1.475-1.847c-1.4,2.621-2.775,5.255-4.105,7.915	c-4.575,9.145-8.729,18.476-12.884,27.816c-2.412,5.422-5.22,11.14-7.785,17.027h5.402	C395.574,492.228,397.824,486.125,400.159,480.053z M371.947,498.353h5.354c3.193-15.905,8.722-31.496,14.289-46.476	c2.239-6.025,4.629-11.988,7.157-17.889c-0.221-0.124-0.448-0.236-0.671-0.356c-0.221-0.119-0.443-0.238-0.665-0.353	c-2.081-1.08-4.235-2.012-6.444-2.779c-0.763,2.262-1.503,4.531-2.211,6.809c-0.077,0.247-0.151,0.495-0.226,0.742	c-2.097,6.822-3.896,13.728-5.116,20.797c-0.34,1.968-3.331,1.129-2.993-0.825c1.08-6.257,2.614-12.387,4.405-18.443	c0.071-0.241,0.146-0.48,0.218-0.72c0.931-3.11,1.923-6.203,2.963-9.282c-2.497-0.682-5.048-1.16-7.634-1.392	c-0.873,4.471-1.757,8.945-2.61,13.421c-0.042,0.219-0.082,0.437-0.123,0.656C374.096,460.927,371.144,479.638,371.947,498.353z M392.536,480.984c4.643-10.367,9.225-20.748,14.361-30.886c1.185-2.339,2.418-4.648,3.665-6.95c-0.69-0.721-1.402-1.42-2.133-2.099	c-2.244,3.622-4.493,7.242-6.88,10.774c-1.114,1.648-3.802,0.093-2.68-1.567c2.495-3.692,4.842-7.479,7.188-11.267	c-1.484-1.213-3.033-2.346-4.641-3.385c-2.41,5.641-4.691,11.34-6.831,17.096c-5.465,14.704-10.928,30.027-14.119,45.651h4.179	C387.213,492.352,390.057,486.521,392.536,480.984z M423.64,475.655c0.053-3.673-0.315-7.352-1.16-10.954	c-0.039-0.165-0.087-0.327-0.127-0.492c-4.44,5.065-8.289,10.509-10.529,16.821c-0.664,1.873-3.663,1.061-2.993-0.825	c2.625-7.396,7.274-13.615,12.531-19.415c-1.243-3.689-2.971-7.199-5.096-10.46c-4.591,9.344-8.584,18.856-12.348,28.566	c-2.502,6.453-4.904,12.943-7.242,19.456h8.248C410.616,490.405,417.152,482.935,423.64,475.655z M452.995,496.38	c-3.485-6.652-6.956-13.31-10.652-19.845c-0.32,1.794-0.443,3.608-0.397,5.416c1.44,2.897,3.201,5.663,4.583,8.574	c1.228,2.587,2.397,5.201,3.539,7.827h3.968C453.689,497.695,453.34,497.039,452.995,496.38z M454.068,458.039	c-1.041,0.787-2.033,1.637-2.97,2.543c0.704,2.143,1.412,4.285,2.181,6.407c0.454,1.253-1.542,1.788-1.991,0.549	c-0.633-1.745-1.222-3.505-1.804-5.267c-0.354,0.395-0.704,0.792-1.038,1.203c4.308,11.457,7.888,23.165,11.458,34.878h0.634	C457.487,485.094,455.474,471.605,454.068,458.039z M446.99,465.42c-0.81,1.175-1.534,2.406-2.169,3.682	c1.446,2.73,2.886,5.463,4.211,8.253c0.568,1.195-1.213,2.242-1.783,1.042c-1.107-2.33-2.29-4.621-3.489-6.904	c-0.268,0.691-0.51,1.393-0.722,2.106c4.338,7.548,8.345,15.277,12.392,22.987c0.31,0.591,0.628,1.178,0.942,1.768h1.392	C454.403,487.295,451.014,476.247,446.99,465.42z M472.787,451.699c-0.141-0.002-0.281-0.011-0.422-0.011	c-2.454-0.005-4.886,0.327-7.245,0.946c-0.595,8.145-0.92,16.294-0.157,24.466c0.124,1.325-1.942,1.312-2.065,0	c-0.743-7.958-0.454-15.896,0.111-23.828c-2.46,0.842-4.819,1.997-7.008,3.417c1.42,14.023,3.469,27.967,6.644,41.664h4.517	C466.558,482.763,469.78,467.213,472.787,451.699z M487.969,486.301c2.278-5.922,4.545-11.886,7.332-17.591	c0.666-1.363,1.352-2.727,2.026-4.099c-0.317-0.417-0.644-0.827-0.981-1.228c-0.931,1.743-1.845,3.495-2.73,5.265	c-3.043,6.082-5.806,12.288-8.569,18.5c-1.588,3.569-3.433,7.332-5.124,11.205h3.583C484.95,494.32,486.431,490.3,487.969,486.301z M482.27,467.561c1.489-4.007,3.079-7.973,4.76-11.898c-1.654-0.927-3.389-1.701-5.175-2.32c-2.081,6.169-3.912,12.41-5.024,18.854	c-0.226,1.309-2.215,0.751-1.991-0.549c1.116-6.466,2.955-12.729,5.045-18.918c-1.661-0.453-3.358-0.771-5.078-0.926	c-3.021,15.476-6.254,31.01-5.607,46.548h3.59C474.919,487.816,478.581,477.486,482.27,467.561z M482.899,486.92	c3.088-6.895,6.135-13.799,9.551-20.542c0.788-1.555,1.608-3.091,2.438-4.622c-0.459-0.479-0.932-0.945-1.419-1.396	c-1.493,2.409-2.988,4.816-4.576,7.165c-0.741,1.096-2.529,0.062-1.783-1.042c1.66-2.456,3.22-4.974,4.78-7.493	c-0.987-0.807-2.017-1.561-3.087-2.251c-1.603,3.752-3.12,7.542-4.543,11.371c-3.621,9.742-7.239,19.893-9.364,30.243h2.806	C479.397,494.404,481.266,490.566,482.899,486.92z M503.586,483.376c0.036-2.443-0.21-4.889-0.771-7.285	c-0.026-0.11-0.058-0.218-0.085-0.327c-2.953,3.369-5.513,6.989-7.003,11.187c-0.442,1.245-2.436,0.706-1.991-0.549	c1.746-4.919,4.838-9.055,8.335-12.912c-0.826-2.453-1.976-4.788-3.39-6.957c-3.053,6.215-5.709,12.541-8.212,18.999	c-1.649,4.253-3.232,8.529-4.773,12.821h5.536C494.997,493.113,499.304,488.18,503.586,483.376z"/><path id="color_x5F_3_1_" fill="#7dcfb6" d="M200.846,469.827l12.815,3.756l1.249,0.366c1.115-3.042,2.558-7.474,4.195-12.666	c-6.193-12.625-10.146-26.562-10.852-40.219c-5.524,15.757-8.727,34.701-8.908,48.323L200.846,469.827z M203.365,317.296	c9.871,28.255,20.946,60.298,24.941,88.771c0.213,1.517,0.441,3.027,0.68,4.532l3.803-35.859l-28.853-62.837L203.365,317.296z M237.706,405.31c4.228-9.345,3.706-10.424-0.049-19.969l-2.132-4.643l-4.414,41.618c0.036,0.179,0.07,0.359,0.106,0.538	C233.615,415.652,235.869,409.372,237.706,405.31z M200.783,309.895l0.067-0.627c-0.072,0.061-0.148,0.121-0.222,0.182	C200.679,309.598,200.731,309.747,200.783,309.895z"/><path id="color_x5F_2" fill="#f79256" d="M363.017,118.688v13.339h2.053V123.4c0-2.679,1.884-5.027,4.599-5.713l63.972-16.188	c3.108,1.074,5.42,3.92,5.42,7.407v152.232c0,3.599-2.404,6.533-5.616,7.618l-63.822-16.619c-2.681-0.709-4.553-3.045-4.553-5.702	v-11.266h-2.053v15.945c0,2.86,3.082,5.375,5.898,6.137l67.031,17.888c3.374-1.168,5.898-4.326,5.898-8.199V103.088	c0-3.754-2.427-6.817-5.692-7.973l-67.189,17.423c-1.094,0.283-2.222,0.832-3.199,1.56c-0.188,0.14-0.368,0.288-0.543,0.44	C363.932,115.666,363.017,117.123,363.017,118.688z M200.627,309.45c0.074-0.061,0.15-0.121,0.222-0.182l0.878-8.278	c-0.3-1.671-0.589-3.344-0.872-5.016h-6.375v-4.785h5.597c-0.725-4.58-1.385-9.164-1.96-13.753	c-8.292-1.257-16.503-3.042-24.555-5.371c1.851-2.581,3.758-5.225,5.489-7.953c2.227-3.507,4.165-7.15,5.327-10.971	c3.762,1.647,7.761,3.34,11.82,5.044c-0.258-3.502-0.462-7.008-0.612-10.518l7.11,8.936c1.481,1.861,3.429,3.32,5.636,4.302	c0.036,0.011,0.071,0.016,0.107,0.028c0.404,0.125,0.779,0.207,1.14,0.27c-3.388-5.958-2.699-11.489-0.182-15.61	c2.17-3.555,7.082-5.24,10.41-2.737c0.223,0.167,0.436,0.33,0.657,0.496c0.006-0.04,0.015-0.076,0.021-0.116	c-0.109-0.01-1.487-1.705-1.596-1.716c-1.603-2.498-3.267-5.034-4.955-7.585c-0.139-0.211-0.276-0.419-0.415-0.63	c-5.861-8.843-12.059-17.898-17.61-26.548c-1.951-3.039-4.779-5.102-7.887-7.058c-1.751-1.241-3.589-2.389-5.48-3.404l-0.733,8.702	l-2.158-0.182c-4.143-4.43-8.758-8.356-14.16-10.912l0.153-1.819c-6.04,0.537-11.689,3.76-15.946,11.144	c-15.823,27.446-7.666,75.361,1.642,111.623c0.543,0.262,1.112,0.502,1.693,0.731C166.774,321.007,190.759,317.57,200.627,309.45z"/><path id="color_x5F_1" fill="#1d4e89" d="M321.1,108.755c15.253,0,30.038,2.025,44.121,5.785c0.175-0.153,0.355-0.301,0.543-0.44	c-14.388-3.848-29.372-5.844-44.664-5.844c-45.876,0-89.006,17.865-121.445,50.304c-1.053,1.053-2.066,2.135-3.088,3.21v0.842	C227.813,129.481,272.074,108.755,321.1,108.755z M174.666,369.844c5.051,8.203,10.819,16.023,17.279,23.375l0.087-0.825	c-6.437-7.384-12.255-15.318-17.367-23.73L174.666,369.844L174.666,369.844z M167.555,355.77c-0.169,0.106-0.347,0.202-0.53,0.293	c0.633,1.278,1.287,2.546,1.952,3.809v-1.341C168.5,357.612,168.015,356.698,167.555,355.77z M350.517,449.257	c0.171-0.029,0.342-0.06,0.513-0.09l-0.056-0.527c-0.174,0.031-0.349,0.057-0.522,0.087	C350.474,448.903,350.496,449.08,350.517,449.257z M342.465,450.445c-0.061-0.167-0.123-0.334-0.184-0.501	c-1.043,0.129-2.088,0.249-3.137,0.36c0.06,0.163,0.119,0.327,0.178,0.491C340.371,450.684,341.42,450.573,342.465,450.445z M388.53,438.05c0.076-0.247,0.15-0.495,0.226-0.742c-1.23,0.531-2.468,1.048-3.713,1.551c-0.072,0.24-0.146,0.48-0.218,0.72	C386.067,439.084,387.301,438.574,388.53,438.05z M347.551,449.732c-0.058-0.165-0.115-0.33-0.173-0.495	c-1.039,0.161-2.084,0.303-3.129,0.445c0.058,0.166,0.116,0.332,0.174,0.497C345.468,450.039,346.511,449.892,347.551,449.732z M442.545,401.448c32.438-32.438,50.304-75.569,50.304-121.445c0-22.209-4.199-43.77-12.2-63.791	c-0.172,0.087-0.35,0.167-0.534,0.24c7.885,19.66,12.233,41.106,12.233,63.551c0,67.022-38.708,125.165-94.937,153.274	c0.223,0.116,0.444,0.234,0.665,0.353C414.318,425.474,429.32,414.673,442.545,401.448z M377.639,442.262	c0.041-0.219,0.082-0.437,0.123-0.656c-1.082,0.381-2.169,0.751-3.261,1.111c-0.04,0.215-0.08,0.43-0.121,0.645	C375.471,443.007,376.556,442.638,377.639,442.262z M337.04,451.018c0.111-0.184,0.234-0.361,0.347-0.544	c-5.363,0.508-10.793,0.779-16.287,0.779c-1.799,0-3.59-0.036-5.375-0.092l0.052,0.494c1.77,0.057,3.543,0.098,5.323,0.098	C326.456,451.753,331.772,451.499,337.04,451.018z M364.962,446.119c0.004-0.191,0.009-0.382,0.014-0.573	c-1.037,0.275-2.079,0.538-3.123,0.794c-0.004,0.19-0.009,0.379-0.013,0.569C362.884,446.656,363.925,446.392,364.962,446.119z M441.845,103.088V266.94c0,3.873-2.524,7.031-5.898,8.199l0.777,0.203c0.421,0.11,0.84,0.178,1.257,0.227	c0.25,0.029,0.499,0.052,0.747,0.06c4.887,0.163,9.186-3.68,9.186-8.738v-101.84c10.471,11.543,19.393,24.515,26.434,38.586	c0.18-0.088,0.369-0.166,0.563-0.238c-7.051-14.123-16.099-27.314-26.997-39.222v-61.116c0-5.566-5.373-9.619-10.85-8.185	l-0.91,0.238C439.417,96.272,441.845,99.334,441.845,103.088z M230.706,477.554l12.499-4.702l1.218-0.458	c-4.611-15.246-9.006-30.176-12.339-45.445c20.952,12.741,44.384,20.807,68.996,23.647c0.009-0.17,0.024-0.339,0.044-0.507	c-25.127-2.933-48.601-11.341-69.218-23.975c-0.234-1.085-0.467-2.17-0.689-3.258c-0.037-0.179-0.07-0.359-0.106-0.538	l-5.374,50.667c1.131,1.746,2.291,3.464,3.504,5.122L230.706,477.554z M193.016,383.118l7.766-73.223	c-0.052-0.148-0.104-0.298-0.155-0.445c-9.868,8.121-33.853,11.557-47.594,6.133c0.166,0.791,0.341,1.58,0.518,2.368	c0.56,3.417,1.432,6.746,2.557,9.999c0.358,1.236,0.73,2.467,1.115,3.693h0.28c2.404,5.866,5.583,11.489,9.186,16.938	c0.745,1.127,1.508,2.246,2.286,3.358c1.829,2.616,3.738,5.195,5.689,7.743C180.812,367.708,187.357,375.438,193.016,383.118z M203.365,317.296l-7.416,69.92c4.502,6.511,8.196,13.019,10.296,19.672c-3.902-3.536-7.64-7.247-11.203-11.124l-0.085,0.798	c1.531,1.654,3.095,3.284,4.697,4.886c2.253,2.254,4.564,4.429,6.918,6.541c0.95,3.298,1.507,6.633,1.561,10.025	c0.016,1.014,0.067,2.032,0.119,3.05c0.706,13.657,4.659,27.594,10.852,40.219c1.176,2.397,2.43,4.747,3.76,7.039l6.122-57.723	c-0.239-1.506-0.467-3.016-0.68-4.532C224.311,377.594,213.236,345.551,203.365,317.296z"/></svg>