<svg xmlns="http://www.w3.org/2000/svg" xmlns:xlink="http://www.w3.org/1999/xlink" id="Layer_1" x="0" y="0" enable-background="new 0 0 595.276 595.276" version="1.1" viewBox="0 0 595.276 595.276" xml:space="preserve"><path id="color_x5F_6" fill="#263238" d="M535.932,541.943c0,1.968-1.595,3.562-3.562,3.562H81.715	c-1.968,0-3.563-1.595-3.563-3.562s1.595-3.563,3.563-3.563h19.897h5.757h3.489h2.574h3.201h1.129h3.153h7.183h3.049h5.906h3.159	h4.67h3.339h5.19h3.283h9.064h39.485h0.639h76.105v-32.409h59.521h3.209h19.346v-5.314v-0.755v-28.267h56.1h1.282h25.377v-21.277	v-1.007v-11.787h3.518h5.533h2.069h0.967h0.808h5.273h3.398h2.127h3.281h9.16h3.057h7.359h3.097h5.502h3.177h4.625h3.149h9.201	h7.459v34.07v0.266v34.07v32.409h2.785C534.337,538.381,535.932,539.976,535.932,541.943z"/><path id="color_x5F_5" fill="#FFD2BB" d="M275.758,345.722c0.016,0.014,0.03,0.03,0.047,0.043c2.525,2.155,4.605,4.755,6.147,7.654	c2.425,2.739,3.357,7.106,3.098,10.661c-0.04,0.545-0.867,0.604-0.973,0.128c-0.472-2.115-1.024-4.222-1.935-6.166	c-0.016-0.035-0.036-0.068-0.052-0.103c-0.083,0.119-0.167,0.237-0.253,0.348c1.277,2.555,1.753,5.687,1.558,8.358	c-0.04,0.545-0.867,0.604-0.973,0.128c-0.472-2.115-1.024-4.223-1.935-6.166c-0.113-0.241-0.236-0.477-0.365-0.709	c-0.004,0.003-0.008,0.005-0.011,0.008c0.926,2.335,1.266,4.999,1.097,7.318c-0.04,0.545-0.867,0.604-0.973,0.128	c-0.472-2.115-1.024-4.222-1.935-6.166c-0.05-0.106-0.106-0.208-0.159-0.312c-0.112,0.04-0.226,0.079-0.342,0.116	c0.716,2.142,0.971,4.491,0.82,6.563c-0.04,0.545-0.867,0.604-0.973,0.128c-0.472-2.115-1.024-4.222-1.935-6.166	c-3.603-2.737-6.545-5.561-6.2-10.183c0.003-0.037,0.001-0.072,0.005-0.109L275.758,345.722z M302.564,490.656l5.488-1.077	c1.29-0.253,2.469-0.901,3.374-1.854l2.629-2.767l-0.148-2.522l-12.841,1.784L302.564,490.656z M174.831,505.738l-1.592,6.412	l5.378,1.536c1.264,0.361,2.609,0.32,3.848-0.117l3.599-1.269l1.015-2.313L174.831,505.738z M252.315,249.012	c0.09,2.503,0.388,5.06,0.834,7.56c0.294,0.207,0.59,0.41,0.881,0.622l2.091-0.221l-0.955-9.037l-0.424-4.014l2.44-0.467	c5.827-1.116,9.646-6.745,8.53-12.573l-3.595-18.767l-1.577-8.234l-15.6,2.989l0.091,5.761l-2.613,2.046l-0.069,12.076l-1.973,0.378	l-0.268-1.401c-0.373-1.948-2.273-3.237-4.221-2.864c-1.948,0.373-3.237,2.273-2.864,4.221l0.474,2.471	c0.262,1.365,1.273,2.404,2.525,2.776c0.225,1.174,0.596,2.281,1.067,3.326l0.125,1.186l0.88,8.333	C243.027,245.643,247.769,246.945,252.315,249.012z M320.673,305.164c0.023,0.03,0.049,0.055,0.072,0.084	c2.91,3.607,6.988,3.654,11.487,3.186c1.994,0.795,3.837,1.955,5.629,3.175c0.403,0.275,0.966-0.334,0.623-0.759	c-1.307-1.614-3.099-3.153-5.087-4.226c0.059-0.107,0.116-0.213,0.17-0.319c0.11,0.04,0.221,0.076,0.329,0.119	c1.994,0.795,3.837,1.955,5.629,3.175c0.403,0.275,0.966-0.334,0.623-0.759c-1.462-1.807-3.533-3.518-5.806-4.588	c0.001-0.004,0.002-0.009,0.003-0.013c0.252,0.082,0.503,0.169,0.751,0.268c1.994,0.795,3.837,1.955,5.629,3.175	c0.403,0.275,0.966-0.334,0.623-0.759c-1.685-2.081-4.175-4.041-6.854-5.031c-0.013-0.14-0.033-0.284-0.053-0.427	c0.036,0.014,0.073,0.025,0.109,0.039c1.994,0.795,3.837,1.955,5.629,3.175c0.403,0.275,0.966-0.334,0.623-0.759	c-2.242-2.77-5.91-5.319-9.552-5.658c-3.108-1.06-6.403-1.535-9.719-1.38c-0.021,0.001-0.042,0.001-0.063,0.002L320.673,305.164z"/><path id="color_x5F_4" fill="#1d4e89" d="M311.426,487.725l2.629-2.767l0.703-0.74l4.45,4.679c2.36,2.442,6.366,2.953,9.756,3.154	l6.538,0.388c2.825,0.168,5.414,1.63,7.016,3.963l1.133,1.65c0.381,0.554,0.045,1.315-0.621,1.408l-42.149,5.857	c-0.835,0.116-1.574-0.522-1.603-1.365c-0.195-5.588,2.047-13.054,2.047-13.054l1.24-0.243l5.488-1.077	C309.342,489.326,310.521,488.678,311.426,487.725z M182.465,513.57c-1.24,0.437-2.584,0.478-3.848,0.117l-5.378-1.536l-1.215-0.347	c0,0-5.391,5.63-7.758,10.695c-0.357,0.764,0.011,1.668,0.807,1.944l9.274,3.218l30.897,10.72h0.639	c0.374-0.139,0.644-0.515,0.586-0.96l-0.259-1.984c-0.366-2.806-2.007-5.286-4.446-6.72l-5.647-3.319	c-2.927-1.721-6.263-3.998-7.255-7.246l-1.836-6.191l-0.962,0.339L182.465,513.57z M173.396,505.24	c0.224-3.601,0.65-7.236,1.253-10.868c1.053-6.349,2.68-12.685,4.851-18.821c0.086-0.244,0.165-0.492,0.253-0.735	c3.633-10.039,8.731-19.508,15.194-27.532c7.516-9.332,10.652-20.74,12.276-32.93c0.047-0.356,0.1-0.71,0.145-1.068	c2.326-18.506,1.383-38.717,7.006-56.2c-0.809-0.671-1.527-1.372-2.123-2.106c-1.801-2.221,3.495-20.54,3.971-24.016	c1.149-8.389,2.04-16.814,2.613-25.261c0.573-8.446,0.833-16.914,0.724-25.379c-0.072-5.586-1.627-11.118-1.264-16.698	c0.064-0.991,0.188-1.936,0.378-2.834c0.843-4.001,2.981-7.069,6.902-9.075c2.254-1.153,4.729-2.185,7.324-3.023	c1.015,0.47,2.017,1.006,2.998,1.591c0.004,0.394-0.011,0.789,0.001,1.183l4.287,1.876c4.013,3.401,7.035,7.754,7.624,12.464	c0.194,1.098,0.351,2.192,0.525,3.288c5.359,8.474,10.911,17.075,15.946,25.335c0.516,0.045,1.063,0.084,1.599,0.125	c0.555-13.961-0.169-27.912-2.716-41.792c0.571,0.554,1.124,1.141,1.648,1.78c8.2,10.009,8.522,26.181,7.757,40.426	c1.099,0.054,2.215,0.105,3.354,0.152c12.789,0.527,27.932,0.626,39.827,1.315c-0.118,3.678-0.438,7.328-1.005,10.893	c-13.595,4.474-27.692,7.438-41.938,8.723c-0.589,0.053-1.18,0.089-1.77,0.136c-0.609,6.138-1.461,12.251-2.545,18.325	c-0.172,0.963-0.37,1.922-0.552,2.883c1.399,1.426,2.754,2.823,4.035,4.173l-6.338,6.997c-0.049,0.244-0.107,0.57-0.172,0.968	c-0.573,3.485-1.746,12.133-3.164,12.818c-0.513,0.248-1.049,0.476-1.599,0.693l42.181,41.134	c7.129,6.952,11.15,16.491,11.133,26.448c-0.025,15.064,0.138,37.662,1.145,51.634l-1.252,0.174l-12.841,1.784l-1.504,0.209	c-5.218-12.008-8.378-25.562-8.9-38.997c-0.012-0.309-0.015-0.617-0.024-0.926c-0.166-5.571,0.11-11.117,0.901-16.515l-46.349-35.89	c-8.053,20.605-17.1,41.559-27.768,58.788c-7.082,11.437-13.037,23.201-18.566,35.261c-0.107,0.234-0.216,0.468-0.323,0.702	c-3.53,7.73-6.89,15.581-10.26,23.548l-1.194-0.414l-12.248-4.25L173.396,505.24z M250.645,313.201	c-0.816,17.664-3.501,35.118-7.249,52.403c3.976,0.095,7.867-0.195,11.417-0.887c3.836-15.941,7.176-32.003,9.198-48.092	c-3.56,0.149-7.124,0.203-10.688,0.133L250.645,313.201z"/><path id="color_x5F_3" fill="#00b2ca" d="M237.086,235.662l0.125,1.186c-3.865-5.148-6.963-10.872-9.133-16.934	c-0.757-2.116-1.41-4.323-1.308-6.568c0.102-2.245,1.077-4.555,2.97-5.765c-1.296-5.379,0.875-10.588,5.645-13.391	s10.525-3.316,16.058-3.336c1.35-0.005,2.726,0.012,4.015-0.389c1.289-0.401,2.503-1.305,2.902-2.594	c5.038,2.472,8.744,7.694,8.697,13.306c-0.035,4.12-1.929,8.145-4.941,10.94l-1.577-8.234l-15.6,2.989l0.091,5.761l-2.613,2.046	l-0.069,12.076l-1.973,0.378l-0.268-1.401c-0.373-1.948-2.273-3.237-4.221-2.864c-1.948,0.373-3.237,2.273-2.864,4.221l0.474,2.471	c0.262,1.365,1.273,2.404,2.525,2.776C236.244,233.511,236.615,234.618,237.086,235.662z"/><path id="color_x5F_2" fill="#f79256" d="M107.37,538.381h-5.757c-1.413-3.211-2.85-6.411-4.354-9.58	c-2.069-4.36-4.707-8.502-6.863-12.841c-0.069-2.709,0.115-5.425,0.594-8.111c5.535,9.787,10.733,19.759,15.952,29.72	C107.084,537.84,107.227,538.11,107.37,538.381z M108.547,480.149c-1.559,1.179-3.045,2.452-4.448,3.809	c1.054,3.21,2.114,6.418,3.266,9.595c0.68,1.877-2.309,2.678-2.982,0.822c-0.948-2.613-1.83-5.249-2.702-7.887	c-0.529,0.591-1.055,1.187-1.554,1.802c6.19,16.46,11.375,33.265,16.506,50.091h1.129	C113.465,519.214,110.578,499.736,108.547,480.149z M97.949,491.203c-1.213,1.76-2.298,3.604-3.248,5.514	c2.166,4.088,4.322,8.182,6.307,12.36c0.85,1.79-1.817,3.357-2.67,1.561c-1.658-3.49-3.43-6.921-5.225-10.34	c-0.401,1.035-0.764,2.086-1.081,3.153c6.496,11.304,12.498,22.879,18.558,34.425c0.089,0.169,0.18,0.336,0.269,0.505h2.574	C108.609,522.537,103.715,506.719,97.949,491.203z M136.581,470.654c-0.211-0.004-0.421-0.016-0.632-0.016	c-3.675-0.008-7.317,0.49-10.85,1.417c-0.891,12.198-1.377,24.402-0.235,36.64c0.185,1.984-2.909,1.965-3.092,0	c-1.112-11.918-0.68-23.806,0.166-35.685c-3.685,1.261-7.216,2.99-10.495,5.117c2.053,20.271,4.997,40.43,9.474,60.255h7.183	C127.557,515.751,132.217,493.177,136.581,470.654z M159.319,522.474c3.411-8.87,6.807-17.8,10.98-26.345	c0.997-2.041,2.025-4.084,3.034-6.139c-0.475-0.625-0.964-1.238-1.469-1.839c-1.394,2.611-2.764,5.235-4.089,7.884	c-4.557,9.109-8.694,18.403-12.833,27.706c-2.083,4.683-4.458,9.595-6.72,14.639h5.19	C155.332,533.061,157.289,527.754,159.319,522.474z M150.784,494.409c2.23-6.001,4.611-11.94,7.129-17.818	c-2.478-1.389-5.076-2.547-7.75-3.474c-3.117,9.239-5.858,18.586-7.523,28.236c-0.338,1.96-3.317,1.124-2.982-0.822	c1.671-9.683,4.425-19.063,7.556-28.332c-2.487-0.679-5.029-1.155-7.604-1.387c-4.385,22.466-9.06,45.014-8.461,67.57h5.906	C140.291,523.344,145.51,508.599,150.784,494.409z M151.726,523.402c4.625-10.326,9.188-20.666,14.304-30.763	c1.18-2.329,2.408-4.63,3.651-6.922c-0.687-0.718-1.396-1.415-2.125-2.09c-2.235,3.608-4.475,7.213-6.853,10.731	c-1.109,1.642-3.787,0.092-2.67-1.561c2.485-3.678,4.822-7.45,7.159-11.222c-1.478-1.208-3.021-2.337-4.623-3.372	c-2.4,5.619-4.673,11.295-6.804,17.029c-5.172,13.916-10.323,28.392-13.552,43.15h4.67	C147.162,533.223,149.578,528.198,151.726,523.402z M174.347,527.66l-9.274-3.218c-0.797-0.276-1.164-1.181-0.807-1.944	c2.367-5.066,7.758-10.695,7.758-10.695l1.215,0.347l1.592-6.412l-1.434-0.498c0.224-3.601,0.65-7.236,1.253-10.868	c-4.268,8.826-8.038,17.797-11.587,26.951c-2.194,5.66-4.302,11.352-6.367,17.059h9.064	C168.487,534.718,171.38,531.156,174.347,527.66z M443.989,302.926c0.031-1.234,0.046-2.473,0.046-3.715v-0.29	c0-0.255-0.207-0.462-0.462-0.462s-0.462,0.207-0.462,0.462v0.29c0,1.234-0.015,2.465-0.046,3.692	c-0.006,0.255,0.196,0.467,0.45,0.474c0.004,0,0.008,0,0.012,0C443.777,303.376,443.982,303.177,443.989,302.926z M442.742,288.775	c0.087,1.224,0.16,2.453,0.216,3.686c0.011,0.247,0.215,0.441,0.461,0.441c0.006,0,0.014,0,0.021,0	c0.255-0.012,0.452-0.227,0.44-0.482c-0.056-1.241-0.128-2.478-0.216-3.71c-0.019-0.255-0.257-0.45-0.493-0.427	C442.916,288.299,442.724,288.52,442.742,288.775z M442.923,313.542c0.235,0,0.436-0.179,0.459-0.418	c0.116-1.231,0.217-2.465,0.302-3.704c0.017-0.254-0.175-0.475-0.429-0.493c-0.255-0.012-0.474,0.175-0.492,0.429	c-0.085,1.231-0.184,2.457-0.3,3.68c-0.023,0.254,0.162,0.479,0.417,0.503C442.893,313.542,442.907,313.542,442.923,313.542z M442.066,278.158c-0.253,0.036-0.429,0.269-0.392,0.522c0.171,1.216,0.328,2.437,0.47,3.663c0.028,0.235,0.227,0.409,0.458,0.409	c0.018,0,0.036-0.001,0.054-0.003c0.253-0.029,0.435-0.258,0.406-0.512c-0.143-1.233-0.3-2.462-0.474-3.685	C442.553,278.298,442.322,278.119,442.066,278.158z M435.945,252.986c0.049,0,0.099-0.008,0.148-0.024	c0.242-0.082,0.372-0.344,0.29-0.585c-0.397-1.176-0.808-2.344-1.233-3.506c-0.088-0.239-0.352-0.362-0.593-0.275	c-0.24,0.088-0.363,0.353-0.275,0.592c0.423,1.154,0.831,2.316,1.226,3.484C435.572,252.865,435.752,252.986,435.945,252.986z M438.861,262.744c0.038,0,0.078-0.005,0.116-0.015c0.247-0.065,0.395-0.317,0.33-0.563c-0.313-1.2-0.64-2.395-0.983-3.584	c-0.071-0.245-0.329-0.386-0.572-0.316c-0.245,0.071-0.386,0.326-0.316,0.572c0.341,1.181,0.667,2.368,0.978,3.56	C438.468,262.606,438.655,262.744,438.861,262.744z M441.537,323.635c0.026,0.004,0.051,0.006,0.077,0.006	c0.221,0,0.417-0.161,0.455-0.386c0.203-1.221,0.389-2.445,0.56-3.674c0.035-0.253-0.141-0.486-0.393-0.521	c-0.245-0.029-0.487,0.141-0.521,0.393c-0.17,1.222-0.355,2.439-0.556,3.651C441.116,323.355,441.286,323.593,441.537,323.635z M434.376,348.976c-0.423,1.162-0.859,2.316-1.311,3.463c-0.094,0.237,0.023,0.506,0.26,0.599c0.056,0.023,0.113,0.032,0.17,0.032	c0.184,0,0.358-0.111,0.429-0.292c0.456-1.156,0.896-2.318,1.32-3.487c0.088-0.24-0.036-0.504-0.276-0.592	C434.727,348.614,434.463,348.737,434.376,348.976z M438.088,338.987c-0.249-0.076-0.501,0.071-0.571,0.317	c-0.339,1.185-0.693,2.364-1.061,3.537c-0.077,0.243,0.059,0.502,0.302,0.578c0.046,0.015,0.092,0.022,0.138,0.022	c0.197,0,0.379-0.126,0.44-0.324c0.372-1.181,0.727-2.367,1.068-3.559C438.475,339.313,438.333,339.058,438.088,338.987z M439.495,333.612c0.036,0.009,0.072,0.013,0.107,0.013c0.209,0,0.399-0.142,0.449-0.354c0.287-1.204,0.558-2.413,0.815-3.627	c0.052-0.25-0.106-0.494-0.356-0.547c-0.251-0.047-0.494,0.107-0.547,0.356c-0.255,1.207-0.525,2.407-0.81,3.603	C439.094,333.304,439.247,333.553,439.495,333.612z M441.167,272.674c0.251-0.047,0.416-0.288,0.369-0.539	c-0.229-1.22-0.472-2.434-0.73-3.644c-0.054-0.249-0.297-0.411-0.548-0.355c-0.249,0.053-0.409,0.298-0.355,0.548	c0.256,1.201,0.499,2.409,0.726,3.621c0.042,0.222,0.235,0.377,0.453,0.377C441.11,272.683,441.139,272.68,441.167,272.674z M165.985,236.166c-0.231-0.108-0.505-0.011-0.616,0.219c-0.533,1.121-1.052,2.248-1.558,3.384c-0.103,0.233,0.001,0.506,0.234,0.61	c0.061,0.027,0.124,0.04,0.187,0.04c0.177,0,0.346-0.102,0.422-0.274c0.502-1.128,1.018-2.249,1.548-3.362	C166.313,236.551,166.216,236.276,165.985,236.166z M159.137,345.322c-0.242,0.081-0.372,0.343-0.291,0.584	c0.395,1.176,0.805,2.346,1.23,3.507c0.068,0.187,0.245,0.303,0.434,0.303c0.053,0,0.106-0.009,0.158-0.028	c0.24-0.088,0.363-0.353,0.275-0.592c-0.422-1.155-0.829-2.315-1.222-3.484C159.641,345.371,159.38,345.242,159.137,345.322z M151.284,295.642c-0.028,1.186-0.043,2.376-0.043,3.569v0.146c0,0.255,0.207,0.462,0.462,0.462c0.255,0,0.462-0.207,0.462-0.462	v-0.146c0-1.185,0.014-2.368,0.043-3.546c0.006-0.255-0.196-0.467-0.451-0.473C151.497,295.177,151.29,295.387,151.284,295.642z M152.062,309.997c0.011,0,0.022,0,0.032-0.001c0.254-0.018,0.446-0.239,0.428-0.493c-0.085-1.225-0.156-2.454-0.211-3.687	c-0.012-0.255-0.231-0.462-0.482-0.441c-0.255,0.011-0.452,0.227-0.441,0.482c0.055,1.241,0.127,2.477,0.212,3.709	C151.619,309.811,151.822,309.997,152.062,309.997z M152.043,289.641c0.241,0,0.444-0.187,0.46-0.431	c0.083-1.231,0.182-2.458,0.297-3.681c0.023-0.254-0.163-0.479-0.417-0.503c-0.251-0.024-0.479,0.163-0.503,0.417	c-0.115,1.23-0.214,2.465-0.299,3.704c-0.017,0.254,0.175,0.474,0.43,0.492C152.021,289.641,152.032,289.641,152.043,289.641z M161.896,245.519c-0.237-0.092-0.505,0.023-0.598,0.261c-0.453,1.155-0.892,2.318-1.317,3.488	c-0.086,0.239,0.037,0.505,0.277,0.592c0.052,0.018,0.105,0.027,0.157,0.027c0.189,0,0.366-0.116,0.434-0.304	c0.422-1.162,0.857-2.317,1.308-3.465C162.251,245.88,162.134,245.612,161.896,245.519z M332.843,157.075	c-0.253-0.061-0.498,0.091-0.559,0.338c-0.061,0.247,0.09,0.498,0.337,0.559c1.197,0.295,2.388,0.606,3.573,0.931	c0.042,0.011,0.082,0.016,0.123,0.016c0.203,0,0.389-0.134,0.446-0.34c0.068-0.246-0.078-0.5-0.323-0.568	C335.246,157.685,334.047,157.372,332.843,157.075z M322.845,154.977c-0.245-0.045-0.49,0.125-0.533,0.376	c-0.044,0.251,0.124,0.49,0.376,0.534c1.215,0.211,2.425,0.437,3.63,0.678c0.03,0.006,0.06,0.009,0.091,0.009	c0.216,0,0.408-0.152,0.452-0.371c0.051-0.25-0.112-0.493-0.362-0.543C325.286,155.416,324.069,155.189,322.845,154.977z M153.125,320.125c0.021,0,0.043-0.002,0.065-0.004c0.253-0.035,0.429-0.269,0.393-0.521c-0.17-1.216-0.326-2.437-0.467-3.663	c-0.029-0.253-0.258-0.437-0.511-0.406c-0.253,0.029-0.435,0.258-0.406,0.511c0.142,1.233,0.298,2.462,0.47,3.686	C152.7,319.958,152.898,320.125,153.125,320.125z M342.647,437.588c-1.169,0.381-2.344,0.746-3.526,1.097	c-0.244,0.073-0.383,0.329-0.311,0.575c0.06,0.2,0.244,0.33,0.443,0.33c0.043,0,0.088-0.006,0.132-0.019	c1.19-0.353,2.372-0.721,3.548-1.104c0.243-0.079,0.375-0.34,0.297-0.582C343.15,437.642,342.889,437.51,342.647,437.588z M346.051,161.96c0.19,0,0.369-0.119,0.436-0.309c0.085-0.24-0.042-0.504-0.282-0.588c-1.172-0.412-2.349-0.809-3.534-1.191	c-0.241-0.078-0.502,0.055-0.581,0.297c-0.078,0.243,0.054,0.503,0.298,0.581c1.176,0.381,2.347,0.775,3.511,1.184	C345.948,161.952,346.001,161.96,346.051,161.96z M162.684,354.851c-0.235,0.098-0.347,0.369-0.248,0.604	c0.475,1.141,0.964,2.275,1.467,3.401c0.077,0.171,0.245,0.273,0.422,0.273c0.063,0,0.127-0.013,0.188-0.04	c0.233-0.105,0.337-0.378,0.233-0.61c-0.5-1.119-0.986-2.246-1.458-3.379C163.19,354.864,162.919,354.756,162.684,354.851z M155.745,264.953c-0.247-0.061-0.497,0.094-0.556,0.343c-0.285,1.203-0.556,2.412-0.812,3.626	c-0.052,0.249,0.107,0.495,0.357,0.547c0.032,0.007,0.064,0.01,0.096,0.01c0.214,0,0.406-0.149,0.451-0.367	c0.254-1.207,0.523-2.408,0.806-3.604C156.147,265.26,155.994,265.012,155.745,264.953z M432.359,243.473	c0.06,0,0.12-0.011,0.178-0.036c0.235-0.098,0.346-0.368,0.248-0.604c-0.475-1.14-0.966-2.274-1.47-3.399	c-0.105-0.234-0.378-0.337-0.61-0.233c-0.233,0.105-0.337,0.377-0.233,0.611c0.501,1.118,0.988,2.244,1.461,3.377	C432.007,243.366,432.178,243.473,432.359,243.473z M288.939,444.429c-0.248-0.022-0.473,0.18-0.488,0.434	c-0.015,0.254,0.179,0.474,0.434,0.488c0.59,0.034,1.184,0.054,1.777,0.082c-0.012-0.309-0.015-0.617-0.024-0.926	C290.071,444.48,289.503,444.462,288.939,444.429z M352.185,434.112c-1.14,0.462-2.287,0.908-3.441,1.342	c-0.239,0.089-0.36,0.355-0.27,0.594c0.069,0.185,0.245,0.299,0.432,0.299c0.054,0,0.109-0.009,0.162-0.03	c1.161-0.436,2.315-0.886,3.462-1.349c0.236-0.096,0.351-0.365,0.255-0.602C352.69,434.131,352.419,434.018,352.185,434.112z M355.557,165.684c0.179,0,0.348-0.104,0.424-0.278c0.101-0.234-0.006-0.506-0.24-0.607c-1.14-0.493-2.286-0.972-3.44-1.437	c-0.234-0.095-0.506,0.019-0.601,0.256c-0.096,0.237,0.019,0.506,0.256,0.601c1.146,0.462,2.285,0.937,3.416,1.428	C355.434,165.672,355.496,165.684,355.557,165.684z M361.432,429.987c-1.101,0.538-2.211,1.063-3.328,1.574	c-0.232,0.106-0.334,0.381-0.228,0.612c0.078,0.17,0.245,0.27,0.42,0.27c0.064,0,0.13-0.013,0.192-0.041	c1.125-0.514,2.241-1.043,3.35-1.585c0.229-0.112,0.324-0.389,0.212-0.618C361.937,429.969,361.659,429.877,361.432,429.987z M312.724,153.582c-0.249-0.019-0.48,0.158-0.506,0.413c-0.026,0.253,0.158,0.48,0.412,0.506c1.227,0.126,2.45,0.266,3.668,0.423	c0.02,0.002,0.04,0.004,0.06,0.004c0.228,0,0.427-0.17,0.457-0.403c0.032-0.252-0.146-0.484-0.4-0.517	C315.19,153.85,313.96,153.709,312.724,153.582z M153.713,274.932c-0.255-0.048-0.49,0.129-0.53,0.38	c-0.201,1.22-0.385,2.445-0.556,3.674c-0.035,0.253,0.141,0.486,0.394,0.52c0.021,0.003,0.043,0.005,0.064,0.005	c0.227,0,0.425-0.167,0.457-0.399c0.169-1.222,0.353-2.439,0.552-3.651C154.135,275.21,153.964,274.973,153.713,274.932z M205.202,411.546c-0.196-0.163-0.488-0.133-0.65,0.062c-0.162,0.197-0.134,0.488,0.063,0.65c0.86,0.71,1.732,1.406,2.609,2.095	c0.047-0.356,0.1-0.71,0.145-1.068C206.642,412.71,205.916,412.135,205.202,411.546z M154.891,330.154	c0.032,0,0.064-0.004,0.096-0.01c0.249-0.053,0.409-0.298,0.356-0.547c-0.256-1.202-0.496-2.41-0.722-3.622	c-0.047-0.251-0.288-0.416-0.538-0.369c-0.251,0.046-0.416,0.288-0.37,0.538c0.227,1.219,0.47,2.434,0.726,3.644	C154.486,330.006,154.678,330.154,154.891,330.154z M156.912,339.7c0.058,0.203,0.243,0.335,0.443,0.335	c0.042,0,0.085-0.005,0.128-0.018c0.245-0.07,0.387-0.326,0.316-0.571c-0.339-1.182-0.664-2.369-0.974-3.563	c-0.064-0.247-0.316-0.393-0.563-0.331c-0.247,0.065-0.395,0.317-0.331,0.564C156.244,337.316,156.571,338.511,156.912,339.7z M158.474,255.141c-0.245-0.078-0.503,0.059-0.579,0.303c-0.37,1.18-0.724,2.368-1.065,3.561c-0.07,0.245,0.072,0.501,0.318,0.571	c0.042,0.012,0.085,0.018,0.127,0.018c0.201,0,0.386-0.132,0.444-0.335c0.338-1.185,0.69-2.365,1.057-3.538	C158.853,255.476,158.718,255.217,158.474,255.141z M177.181,381.62c-0.21,0.145-0.263,0.433-0.118,0.643	c0.703,1.019,1.419,2.028,2.146,3.028c0.091,0.125,0.231,0.19,0.374,0.19c0.094,0,0.189-0.029,0.271-0.088	c0.206-0.151,0.252-0.439,0.101-0.645c-0.723-0.994-1.434-1.996-2.133-3.01C177.678,381.528,177.39,381.476,177.181,381.62z M189.819,397.56c-0.188,0.172-0.201,0.464-0.028,0.652c0.838,0.913,1.687,1.815,2.547,2.705c0.091,0.094,0.211,0.141,0.332,0.141	c0.115,0,0.231-0.043,0.321-0.13c0.183-0.177,0.188-0.469,0.011-0.653c-0.855-0.885-1.698-1.779-2.53-2.687	C190.299,397.4,190.006,397.388,189.819,397.56z M183.221,389.808c-0.199,0.159-0.232,0.449-0.073,0.648	c0.772,0.969,1.557,1.926,2.353,2.873c0.091,0.109,0.222,0.165,0.354,0.165c0.105,0,0.21-0.035,0.297-0.108	c0.195-0.164,0.221-0.455,0.056-0.65c-0.791-0.942-1.571-1.893-2.338-2.855C183.711,389.681,183.421,389.649,183.221,389.808z M188.506,202.318c-0.19-0.168-0.482-0.15-0.652,0.041c-0.819,0.928-1.627,1.867-2.424,2.817c-0.164,0.195-0.138,0.487,0.057,0.651	c0.087,0.072,0.192,0.108,0.296,0.108c0.132,0,0.263-0.056,0.354-0.165c0.791-0.943,1.595-1.877,2.409-2.8	C188.716,202.779,188.698,202.487,188.506,202.318z M195.531,194.944c-0.179-0.182-0.472-0.184-0.653-0.005	c-0.882,0.869-1.753,1.75-2.613,2.641c-0.177,0.183-0.172,0.476,0.012,0.653c0.09,0.087,0.205,0.129,0.321,0.129	c0.121,0,0.242-0.047,0.332-0.141c0.855-0.886,1.72-1.76,2.596-2.624C195.709,195.418,195.711,195.126,195.531,194.944z M196.94,404.838c-0.176,0.185-0.168,0.477,0.018,0.653c0.899,0.852,1.809,1.692,2.729,2.522c0.088,0.08,0.199,0.119,0.309,0.119	c0.126,0,0.252-0.051,0.343-0.152c0.17-0.189,0.156-0.482-0.034-0.652c-0.915-0.824-1.819-1.66-2.713-2.507	C197.408,404.647,197.116,404.653,196.94,404.838z M203.048,188.077c-0.165-0.193-0.457-0.215-0.651-0.05	c-0.939,0.805-1.869,1.623-2.788,2.452c-0.189,0.17-0.204,0.463-0.033,0.652c0.091,0.101,0.216,0.152,0.343,0.152	c0.111,0,0.221-0.039,0.309-0.119c0.914-0.824,1.837-1.636,2.771-2.437C203.192,188.562,203.214,188.271,203.048,188.077z M170.718,227.128c-0.222-0.124-0.504-0.047-0.629,0.175c-0.611,1.08-1.207,2.168-1.79,3.264c-0.12,0.225-0.034,0.505,0.191,0.625	c0.069,0.037,0.143,0.054,0.217,0.054c0.165,0,0.325-0.089,0.408-0.245c0.58-1.09,1.173-2.171,1.779-3.244	C171.018,227.536,170.94,227.254,170.718,227.128z M171.726,373.037c-0.219,0.131-0.292,0.414-0.162,0.633	c0.63,1.065,1.274,2.12,1.93,3.167c0.088,0.14,0.238,0.216,0.392,0.216c0.084,0,0.169-0.022,0.245-0.07	c0.216-0.135,0.281-0.42,0.146-0.637c-0.652-1.04-1.291-2.09-1.918-3.148C172.229,372.981,171.946,372.908,171.726,373.037z M176.068,218.448c-0.213-0.142-0.5-0.083-0.64,0.13c-0.684,1.035-1.355,2.078-2.013,3.13c-0.135,0.216-0.07,0.501,0.147,0.636	c0.076,0.048,0.161,0.07,0.244,0.07c0.154,0,0.304-0.077,0.392-0.217c0.654-1.046,1.32-2.082,2-3.11	C176.339,218.875,176.281,218.589,176.068,218.448z M364.774,170.063c0.167,0,0.327-0.091,0.409-0.249	c0.118-0.226,0.03-0.505-0.197-0.623c-1.101-0.571-2.21-1.129-3.328-1.673c-0.226-0.11-0.505-0.017-0.617,0.213	c-0.112,0.229-0.016,0.506,0.213,0.617c1.11,0.541,2.212,1.095,3.306,1.663C364.63,170.047,364.702,170.063,364.774,170.063z M182.008,210.165c-0.203-0.155-0.492-0.116-0.648,0.086c-0.754,0.984-1.495,1.977-2.224,2.981c-0.15,0.206-0.104,0.495,0.102,0.645	c0.082,0.06,0.177,0.088,0.271,0.088c0.143,0,0.284-0.066,0.374-0.19c0.725-0.997,1.462-1.984,2.211-2.962	C182.249,210.61,182.211,210.32,182.008,210.165z M292.321,152.909c-0.255,0.009-0.455,0.223-0.445,0.477	c0.009,0.249,0.214,0.446,0.461,0.446c0.006,0,0.011,0,0.017,0c1.226-0.043,2.455-0.072,3.688-0.086	c0.255-0.003,0.46-0.212,0.457-0.467c-0.003-0.255-0.199-0.419-0.467-0.457C294.791,152.836,293.554,152.865,292.321,152.909z M265.639,156.322c-1.211,0.27-2.417,0.555-3.616,0.855c-0.248,0.062-0.398,0.313-0.336,0.56c0.052,0.21,0.24,0.35,0.447,0.35	c0.037,0,0.075-0.005,0.112-0.014c1.192-0.298,2.39-0.581,3.594-0.85c0.249-0.055,0.406-0.302,0.35-0.551	C266.135,156.423,265.89,156.267,265.639,156.322z M272.014,155.05c-0.251,0.044-0.419,0.284-0.374,0.535	c0.039,0.224,0.234,0.381,0.454,0.381c0.027,0,0.054-0.002,0.081-0.007c1.209-0.213,2.424-0.412,3.644-0.595	c0.253-0.038,0.426-0.273,0.388-0.525c-0.038-0.252-0.269-0.421-0.525-0.388C274.454,154.635,273.232,154.834,272.014,155.05z M255.752,158.894c-1.189,0.354-2.372,0.723-3.548,1.107c-0.242,0.079-0.375,0.34-0.296,0.582c0.064,0.195,0.245,0.318,0.439,0.318	c0.047,0,0.096-0.007,0.143-0.023c1.168-0.381,2.343-0.748,3.524-1.1c0.244-0.073,0.384-0.33,0.311-0.574	C256.254,158.961,255.997,158.821,255.752,158.894z M282.131,153.626c-0.254,0.027-0.438,0.254-0.411,0.507	c0.025,0.237,0.225,0.414,0.459,0.414c0.016,0,0.032-0.001,0.049-0.003c1.221-0.129,2.446-0.242,3.677-0.34	c0.254-0.02,0.444-0.243,0.424-0.497c-0.021-0.254-0.237-0.442-0.497-0.423C284.593,153.382,283.359,153.497,282.131,153.626z M302.534,152.894c-0.005,0-0.011,0-0.015,0c-0.248,0-0.454,0.197-0.462,0.446c-0.008,0.255,0.192,0.469,0.446,0.477	c1.234,0.041,2.464,0.096,3.689,0.167c0.009,0,0.018,0.001,0.027,0.001c0.244,0,0.446-0.189,0.461-0.435	c0.014-0.254-0.179-0.473-0.434-0.487C305.012,152.991,303.775,152.935,302.534,152.894z M236.655,166.081	c-1.124,0.516-2.24,1.045-3.348,1.588c-0.229,0.112-0.323,0.389-0.212,0.618c0.08,0.163,0.244,0.258,0.415,0.258	c0.068,0,0.138-0.015,0.203-0.047c1.101-0.54,2.21-1.066,3.326-1.578c0.232-0.106,0.334-0.38,0.227-0.612	C237.161,166.077,236.887,165.976,236.655,166.081z M227.544,170.654c-1.085,0.593-2.162,1.2-3.231,1.819	c-0.221,0.128-0.296,0.41-0.168,0.631c0.086,0.147,0.241,0.23,0.4,0.23c0.078,0,0.158-0.02,0.231-0.062	c1.062-0.616,2.132-1.218,3.21-1.808c0.224-0.122,0.306-0.403,0.184-0.626C228.048,170.613,227.767,170.531,227.544,170.654z M218.769,175.853c-1.042,0.667-2.075,1.347-3.098,2.041c-0.211,0.143-0.267,0.43-0.124,0.641c0.089,0.132,0.235,0.203,0.383,0.203	c0.089,0,0.179-0.026,0.258-0.079c1.017-0.689,2.044-1.364,3.079-2.028c0.215-0.137,0.277-0.423,0.14-0.638	C219.27,175.778,218.983,175.714,218.769,175.853z M246.07,162.156c-1.161,0.437-2.315,0.888-3.461,1.353	c-0.236,0.096-0.35,0.365-0.254,0.602c0.073,0.18,0.246,0.288,0.428,0.288c0.058,0,0.117-0.011,0.174-0.034	c1.139-0.463,2.285-0.911,3.439-1.345c0.238-0.09,0.359-0.356,0.269-0.595C246.575,162.186,246.31,162.066,246.07,162.156z M210.374,181.654c-0.994,0.739-1.977,1.49-2.951,2.253c-0.201,0.157-0.236,0.447-0.079,0.648c0.091,0.116,0.227,0.177,0.364,0.177	c0.1,0,0.2-0.032,0.285-0.098c0.967-0.758,1.944-1.504,2.932-2.238c0.205-0.152,0.247-0.441,0.095-0.646	C210.867,181.544,210.578,181.501,210.374,181.654z M373.656,175.076c0.155,0,0.307-0.078,0.394-0.221	c0.133-0.217,0.064-0.502-0.153-0.635c-1.058-0.647-2.124-1.281-3.199-1.901c-0.22-0.126-0.503-0.051-0.63,0.169	c-0.128,0.221-0.052,0.503,0.169,0.631c1.068,0.616,2.129,1.246,3.179,1.889C373.49,175.054,373.572,175.076,373.656,175.076z M230.586,428.343c-0.227-0.118-0.506-0.031-0.623,0.197c-0.118,0.226-0.03,0.505,0.196,0.622c1.101,0.573,2.209,1.132,3.325,1.677	c0.065,0.032,0.134,0.047,0.202,0.047c0.171,0,0.335-0.096,0.415-0.259c0.112-0.229,0.017-0.506-0.212-0.618	C232.781,429.468,231.68,428.913,230.586,428.343z M430.56,358.411c-0.503,1.128-1.02,2.249-1.551,3.361	c-0.11,0.231-0.013,0.506,0.217,0.616c0.065,0.031,0.133,0.045,0.199,0.045c0.172,0,0.337-0.096,0.417-0.262	c0.535-1.12,1.055-2.247,1.562-3.383c0.104-0.234-0.001-0.506-0.234-0.611C430.938,358.075,430.665,358.178,430.56,358.411z M249.242,436.439c-0.241-0.087-0.504,0.041-0.589,0.281c-0.085,0.241,0.042,0.505,0.282,0.59c1.171,0.413,2.349,0.812,3.532,1.195	c0.047,0.015,0.096,0.023,0.142,0.023c0.195,0,0.376-0.124,0.439-0.319c0.079-0.243-0.054-0.503-0.297-0.582	C251.575,437.245,250.405,436.85,249.242,436.439z M382.164,180.694c0.144,0,0.286-0.068,0.376-0.194	c0.148-0.208,0.099-0.496-0.108-0.644c-1.01-0.719-2.029-1.425-3.058-2.118c-0.211-0.141-0.497-0.088-0.641,0.125	c-0.142,0.211-0.086,0.498,0.125,0.641c1.022,0.689,2.036,1.391,3.038,2.105C381.977,180.666,382.071,180.694,382.164,180.694z M423.241,225.325c0.08,0,0.161-0.021,0.235-0.065c0.219-0.13,0.292-0.414,0.161-0.633c-0.631-1.064-1.275-2.119-1.932-3.165	c-0.137-0.216-0.421-0.28-0.637-0.146c-0.216,0.135-0.281,0.42-0.146,0.636c0.653,1.04,1.293,2.089,1.921,3.146	C422.929,225.244,423.084,225.325,423.241,225.325z M166.885,364.099c-0.228,0.115-0.32,0.392-0.206,0.62	c0.554,1.106,1.121,2.203,1.702,3.293c0.083,0.156,0.243,0.244,0.408,0.244c0.073,0,0.147-0.017,0.217-0.054	c0.225-0.12,0.31-0.4,0.19-0.625c-0.577-1.082-1.141-2.173-1.692-3.271C167.391,364.076,167.114,363.985,166.885,364.099z M378.966,419.845c-1.017,0.687-2.044,1.363-3.08,2.024c-0.216,0.138-0.279,0.423-0.142,0.638c0.088,0.138,0.238,0.214,0.39,0.214	c0.086,0,0.171-0.023,0.249-0.072c1.043-0.667,2.076-1.346,3.101-2.038c0.211-0.142,0.267-0.429,0.124-0.641	C379.464,419.757,379.177,419.701,378.966,419.845z M402.245,400.305c-0.855,0.885-1.722,1.759-2.599,2.623	c-0.182,0.179-0.184,0.472-0.005,0.653c0.09,0.092,0.21,0.138,0.329,0.138c0.117,0,0.234-0.044,0.324-0.133	c0.883-0.869,1.755-1.749,2.615-2.639c0.178-0.184,0.172-0.476-0.011-0.653C402.714,400.117,402.42,400.121,402.245,400.305z M415.307,384.765c-0.725,0.996-1.464,1.982-2.213,2.959c-0.155,0.203-0.117,0.492,0.085,0.648c0.084,0.065,0.183,0.096,0.281,0.096	c0.138,0,0.275-0.062,0.366-0.18c0.755-0.984,1.497-1.976,2.228-2.979c0.15-0.206,0.105-0.494-0.102-0.645	C415.746,384.513,415.456,384.558,415.307,384.765z M417.751,216.764c0.091,0,0.182-0.027,0.262-0.082	c0.21-0.145,0.262-0.432,0.117-0.642c-0.703-1.019-1.42-2.027-2.149-3.026c-0.152-0.206-0.441-0.251-0.646-0.101	c-0.206,0.15-0.251,0.439-0.101,0.645c0.725,0.993,1.437,1.995,2.137,3.006C417.46,216.694,417.605,216.764,417.751,216.764z M411.675,208.601c0.101,0,0.203-0.033,0.289-0.101c0.198-0.159,0.232-0.45,0.072-0.649c-0.773-0.967-1.558-1.924-2.355-2.871	c-0.165-0.195-0.456-0.219-0.651-0.055c-0.195,0.164-0.22,0.456-0.056,0.651c0.793,0.94,1.573,1.891,2.34,2.852	C411.405,208.542,411.539,208.601,411.675,208.601z M370.374,425.223c-1.063,0.615-2.134,1.217-3.213,1.804	c-0.224,0.123-0.307,0.403-0.185,0.627c0.084,0.154,0.243,0.241,0.406,0.241c0.075,0,0.151-0.018,0.221-0.056	c1.086-0.593,2.164-1.198,3.232-1.817c0.221-0.127,0.297-0.41,0.169-0.63C370.877,425.171,370.592,425.094,370.374,425.223z M409.044,392.764c-0.792,0.942-1.595,1.875-2.412,2.798c-0.17,0.19-0.152,0.483,0.04,0.651c0.087,0.079,0.197,0.116,0.306,0.116	c0.127,0,0.254-0.052,0.345-0.156c0.822-0.928,1.63-1.866,2.428-2.816c0.164-0.195,0.139-0.486-0.057-0.65	C409.499,392.543,409.208,392.569,409.044,392.764z M405.047,200.877c0.112,0,0.224-0.041,0.313-0.122	c0.188-0.173,0.199-0.465,0.026-0.653c-0.839-0.91-1.688-1.811-2.55-2.701c-0.178-0.183-0.47-0.188-0.653-0.011	c-0.183,0.178-0.188,0.47-0.011,0.653c0.856,0.884,1.7,1.779,2.535,2.685C404.799,200.827,404.922,200.877,405.047,200.877z M268.817,441.83c-0.25-0.052-0.494,0.112-0.544,0.362s0.112,0.493,0.362,0.544c1.212,0.243,2.429,0.473,3.652,0.685	c0.027,0.005,0.054,0.007,0.08,0.007c0.22,0,0.415-0.158,0.454-0.382c0.044-0.251-0.124-0.491-0.376-0.534	C271.231,442.298,270.021,442.071,268.817,441.83z M426.093,367.549c-0.581,1.089-1.175,2.17-1.782,3.242	c-0.125,0.222-0.047,0.503,0.175,0.63c0.072,0.041,0.15,0.06,0.227,0.06c0.161,0,0.317-0.084,0.402-0.234	c0.611-1.08,1.209-2.166,1.793-3.262c0.12-0.226,0.034-0.505-0.19-0.625C426.494,367.24,426.214,367.323,426.093,367.549z M397.895,193.627c0.123,0,0.244-0.049,0.335-0.145c0.175-0.185,0.167-0.478-0.018-0.653c-0.9-0.85-1.812-1.691-2.733-2.519	c-0.187-0.17-0.482-0.155-0.652,0.034c-0.17,0.19-0.155,0.482,0.035,0.652c0.915,0.823,1.82,1.658,2.715,2.503	C397.667,193.585,397.781,193.627,397.895,193.627z M428.119,234.242c0.07,0,0.141-0.016,0.207-0.049	c0.228-0.115,0.319-0.392,0.205-0.62c-0.555-1.105-1.124-2.201-1.706-3.29c-0.122-0.226-0.404-0.309-0.625-0.189	c-0.226,0.12-0.31,0.4-0.19,0.625c0.578,1.081,1.144,2.172,1.696,3.269C427.788,234.149,427.95,234.242,428.119,234.242z M258.94,439.481c-0.245-0.066-0.5,0.077-0.568,0.323c-0.068,0.246,0.077,0.501,0.322,0.568c1.193,0.328,2.391,0.641,3.595,0.94	c0.037,0.009,0.074,0.013,0.111,0.013c0.207,0,0.395-0.141,0.448-0.351c0.061-0.247-0.09-0.498-0.337-0.559	C261.316,440.119,260.125,439.807,258.94,439.481z M278.832,443.479c-0.248-0.031-0.484,0.147-0.517,0.399	c-0.032,0.253,0.146,0.485,0.399,0.518c1.226,0.158,2.456,0.301,3.691,0.428c0.016,0.002,0.032,0.003,0.048,0.003	c0.234,0,0.434-0.177,0.459-0.414c0.026-0.254-0.158-0.481-0.412-0.507C281.273,443.779,280.051,443.637,278.832,443.479z M387.169,413.878c-0.969,0.757-1.946,1.502-2.935,2.235c-0.205,0.152-0.248,0.441-0.096,0.646c0.09,0.122,0.23,0.187,0.371,0.187	c0.096,0,0.192-0.03,0.275-0.091c0.994-0.737,1.979-1.487,2.953-2.249c0.201-0.157,0.237-0.447,0.079-0.648	C387.658,413.754,387.367,413.72,387.169,413.878z M420.999,376.347c-0.655,1.045-1.322,2.081-2.003,3.108	c-0.141,0.213-0.082,0.5,0.13,0.64c0.078,0.052,0.167,0.077,0.255,0.077c0.15,0,0.296-0.073,0.385-0.206	c0.685-1.035,1.357-2.077,2.016-3.128c0.135-0.216,0.07-0.501-0.146-0.637S421.135,376.13,420.999,376.347z M332.888,440.385	c-1.191,0.297-2.39,0.579-3.594,0.846c-0.249,0.055-0.406,0.302-0.351,0.551c0.048,0.216,0.239,0.362,0.451,0.362	c0.033,0,0.067-0.004,0.1-0.011c1.211-0.269,2.417-0.553,3.617-0.851c0.247-0.061,0.398-0.312,0.336-0.56	C333.386,440.473,333.136,440.323,332.888,440.385z M390.255,186.888c0.133,0,0.265-0.057,0.357-0.169	c0.161-0.197,0.134-0.488-0.064-0.65c-0.957-0.787-1.925-1.562-2.901-2.324c-0.202-0.156-0.492-0.123-0.648,0.08	c-0.157,0.201-0.121,0.491,0.08,0.648c0.971,0.758,1.932,1.528,2.883,2.31C390.047,186.854,390.151,186.888,390.255,186.888z M319.314,443.08c-0.252,0.037-0.427,0.272-0.389,0.524c0.033,0.23,0.231,0.394,0.456,0.394c0.023,0,0.046-0.002,0.068-0.005	c1.228-0.182,2.451-0.382,3.668-0.595c0.252-0.044,0.419-0.283,0.375-0.534c-0.043-0.253-0.298-0.427-0.534-0.375	C321.748,442.701,320.533,442.898,319.314,443.08z M239.768,432.719c-0.233-0.102-0.505,0.006-0.607,0.24	c-0.101,0.234,0.006,0.506,0.24,0.608c1.138,0.493,2.284,0.973,3.437,1.439c0.057,0.023,0.115,0.033,0.173,0.033	c0.183,0,0.355-0.109,0.428-0.289c0.096-0.236-0.019-0.506-0.255-0.602C242.038,433.686,240.899,433.209,239.768,432.719z M394.941,407.354c-0.914,0.823-1.839,1.635-2.774,2.435c-0.194,0.166-0.216,0.457-0.05,0.651c0.091,0.107,0.221,0.161,0.351,0.161	c0.106,0,0.213-0.036,0.3-0.111c0.941-0.805,1.87-1.623,2.79-2.45c0.19-0.171,0.206-0.463,0.035-0.652	C395.422,407.198,395.129,407.182,394.941,407.354z M442.75,420.323c-0.063,2.728,0.169,5.44,0.651,8.107	c2.199,3.117,4.665,6.073,6.941,9.136h5.533C451.567,431.766,447.224,425.994,442.75,420.323z M468.39,437.566h2.127	c-1.202-3.286-2.376-6.583-3.501-9.898c-0.096-0.282-0.191-0.565-0.286-0.847c-4.056-12.034-7.626-24.244-10.854-36.552	c-1.36,1.403-2.635,2.888-3.815,4.443c1.531,3.012,3.069,6.02,4.692,8.984c0.959,1.751-1.873,2.999-2.821,1.267	c-1.335-2.438-2.609-4.908-3.874-7.383c-0.433,0.665-0.861,1.334-1.261,2.018c5.552,9.859,10.713,19.924,15.724,30.068	c0.119,0.241,0.24,0.481,0.359,0.722C466.058,432.777,467.226,435.17,468.39,437.566z M459.719,437.566h5.273	c-0.738-1.517-1.481-3.032-2.225-4.546c-0.12-0.244-0.238-0.488-0.358-0.732c-4.892-9.94-9.924-19.806-15.321-29.478	c-0.93,1.925-1.721,3.912-2.369,5.945c2.764,3.71,5.52,7.426,8.119,11.253c1.113,1.639-1.283,3.595-2.4,1.95	c-2.171-3.196-4.446-6.317-6.741-9.422c-0.239,1.084-0.436,2.179-0.587,3.281c5.414,6.768,10.626,13.691,15.792,20.651	c0.149,0.201,0.299,0.401,0.448,0.602C459.472,437.235,459.596,437.4,459.719,437.566z M473.798,437.566h9.16	c-1.33-10.173-1.727-20.479-1.686-30.841c0.002-0.505,0.006-1.01,0.01-1.516c0.075-9.511,0.486-19.065,0.85-28.603	c-0.209,0.029-0.418,0.049-0.627,0.08c-3.633,0.553-7.157,1.6-10.506,3.056c0.924,11.488,2.222,22.925,4.873,34.181	c0.08,0.338,0.155,0.676,0.237,1.013c0.085,0.351,0.159,0.703,0.247,1.053c0.333,1.326-1.004,1.955-2.031,1.601	c-0.233-0.081-0.446-0.218-0.624-0.404c-0.18-0.188-0.325-0.424-0.4-0.725c-2.917-11.609-4.304-23.423-5.281-35.293	c-3.449,1.809-6.676,4.056-9.592,6.659c3.147,12.116,6.626,24.137,10.559,35.996c0.097,0.292,0.19,0.586,0.288,0.878	C470.716,429.014,472.227,433.301,473.798,437.566z M512.511,424.351c2.018-9.286,4.012-18.63,6.832-27.712	c0.674-2.17,1.378-4.345,2.062-6.53c-0.565-0.545-1.142-1.076-1.732-1.594c-0.98,2.793-1.933,5.595-2.838,8.416	c-3.114,9.697-5.785,19.514-8.456,29.339c-0.989,3.638-2.117,7.428-3.229,11.294h4.625	C510.655,433.154,511.556,428.747,512.511,424.351z M486.015,437.566h7.359c1.215-13.382,3.763-26.72,6.42-39.648	c1.289-6.271,2.735-12.504,4.327-18.698c-2.649-0.99-5.38-1.735-8.152-2.244c-0.012-0.002-0.024-0.005-0.037-0.008	c-0.01,0.057-0.019,0.115-0.029,0.172c-1.656,9.549-2.926,19.149-3.098,28.881c-0.035,1.989-3.107,1.617-3.072-0.357	c0.104-5.845,0.608-11.641,1.349-17.408c0.107-0.835,0.221-1.669,0.338-2.503c0.433-3.088,0.922-6.168,1.458-9.242	c-2.562-0.291-5.146-0.374-7.727-0.21c-0.311,7.844-0.651,15.702-0.807,23.538c-0.011,0.534-0.02,1.068-0.029,1.602	C484.114,413.588,484.406,425.676,486.015,437.566z M505.149,426.426c2.995-10.911,5.928-21.826,9.443-32.586	c0.811-2.482,1.674-4.943,2.552-7.398c-0.789-0.605-1.596-1.185-2.419-1.742c-1.659,3.907-3.322,7.812-5.135,11.651	c-0.846,1.792-3.729,0.669-2.877-1.135c1.895-4.014,3.629-8.098,5.363-12.183c-1.645-0.969-3.342-1.849-5.083-2.627	c-1.515,5.919-2.895,11.875-4.126,17.868c-2.63,12.799-5.177,26.025-6.395,39.291h5.502	C503.057,433.759,504.161,430.023,505.149,426.426z M534.957,416.454c-0.506-3.624-1.428-7.189-2.806-10.606	c-0.063-0.157-0.135-0.309-0.2-0.465c-3.601,5.661-6.563,11.604-7.808,18.158c-0.37,1.944-3.444,1.601-3.072-0.357	c1.459-7.68,5.091-14.508,9.385-21.016c-1.784-3.443-4.019-6.635-6.607-9.522c-3.099,9.896-5.584,19.866-7.814,29.996	c-1.093,4.963-2.115,9.941-3.111,14.924h9.201C526.051,430.333,530.507,423.323,534.957,416.454z"/><path id="color_x5F_1" fill="#7dcfb6" d="M99.01,376.234c-9.763-24.69-14.884-51.248-14.884-78.597	c0-39.831,10.846-77.99,31.119-111.126c0.203,0.14,0.413,0.271,0.633,0.393c-19.741,32.283-31.13,70.202-31.13,110.733	c0,27.662,5.307,54.106,14.95,78.374C99.461,376.076,99.232,376.151,99.01,376.234z M297.638,84.748	c83.293,0,155.554,48.089,190.511,117.954c0.224-0.109,0.458-0.206,0.7-0.295c-10.168-20.367-23.669-39.179-40.234-55.744	c-40.327-40.327-93.945-62.536-150.976-62.536c-57.031,0-110.649,22.209-150.976,62.536c-7.949,7.949-15.183,16.422-21.693,25.328	c0.206,0.144,0.402,0.297,0.59,0.458C164.308,119.333,227.005,84.748,297.638,84.748z M106.756,391.827	c-0.21,0.132-0.431,0.251-0.659,0.364c10.205,20.626,23.817,39.673,40.565,56.421c10.154,10.154,21.156,19.148,32.838,26.938	c0.086-0.244,0.165-0.492,0.253-0.735C148.731,454.104,123.425,425.471,106.756,391.827z M272.75,509.71	c0.011-0.211,0.03-0.421,0.055-0.631c-26.423-3.084-51.371-11.048-73.95-22.928c-0.107,0.234-0.216,0.468-0.323,0.702	C221.53,498.93,246.604,506.694,272.75,509.71z M484.315,401.44c0.009-0.534,0.018-1.068,0.029-1.602	c-0.993,1.807-2.017,3.596-3.06,5.371c-0.004,0.505-0.008,1.011-0.01,1.516C482.315,404.978,483.325,403.214,484.315,401.44z M459.35,437.07c-0.149-0.201-0.299-0.401-0.448-0.602c-0.317,0.368-0.638,0.732-0.957,1.098h0.967	C459.056,437.399,459.206,437.236,459.35,437.07z M469.276,424.702c-0.098-0.292-0.191-0.586-0.288-0.878	c-0.743,1.007-1.497,2.004-2.258,2.997c0.095,0.283,0.191,0.565,0.286,0.847C467.776,426.683,468.536,425.698,469.276,424.702z M464.88,430.389c-0.119-0.241-0.24-0.481-0.359-0.722c-0.697,0.88-1.401,1.753-2.112,2.621c0.12,0.244,0.238,0.488,0.358,0.732	C463.483,432.15,464.18,431.268,464.88,430.389z M474.326,417.59c0.601-0.881,1.197-1.765,1.784-2.654	c-0.082-0.337-0.158-0.675-0.237-1.013c-0.716,1.094-1.436,2.184-2.171,3.263C473.88,417.372,474.093,417.51,474.326,417.59z M364.064,500.658v-0.755c-7.352,2.42-14.877,4.454-22.555,6.069h3.209C351.263,504.507,357.716,502.728,364.064,500.658z M495.903,377.14c0.01-0.057,0.019-0.115,0.029-0.172c0.012,0.002,0.024,0.005,0.037,0.008	c9.956-24.899,15.181-51.716,15.181-79.339c0-27.61-5.22-54.414-15.166-79.303c-0.213,0.109-0.435,0.208-0.663,0.298	c9.803,24.441,15.208,51.102,15.208,79.004c0,31.41-6.844,61.25-19.109,88.116c-0.117,0.834-0.23,1.668-0.338,2.503	C492.798,384.598,494.401,380.89,495.903,377.14z M446.824,450.359v-1.007c-8.26,8.123-17.172,15.583-26.66,22.284h1.282	C430.363,465.263,438.844,458.159,446.824,450.359z M265.464,349.535c1.343,0.61,2.689,1.214,4.046,1.792	c0.003-0.037,0.001-0.072,0.005-0.109l6.244-5.497c0.016,0.014,0.03,0.03,0.047,0.043c0.009-0.009,0.019-0.018,0.028-0.027	c-1.19-1.327-2.49-2.725-3.86-4.168l-6.338,6.997C265.586,348.811,265.529,349.137,265.464,349.535z M243.397,365.604	c3.976,0.095,7.867-0.195,11.417-0.887c3.836-15.941,7.176-32.003,9.198-48.092c-3.56,0.149-7.124,0.203-10.688,0.133l-2.679-3.557	C249.83,330.865,247.144,348.319,243.397,365.604z M235.898,251.468l4.287,1.876c4.013,3.401,7.035,7.754,7.624,12.464	c0.194,1.098,0.351,2.192,0.525,3.288c5.359,8.474,10.911,17.075,15.946,25.335c0.516,0.045,1.063,0.084,1.599,0.125	c0.555-13.961-0.169-27.912-2.716-41.792c-2.338-2.268-5.062-3.826-7.998-4.828l0.955,9.037l-2.091,0.221	c-0.291-0.212-0.587-0.414-0.881-0.622c-0.445-2.5-0.743-5.057-0.834-7.56c-4.546-2.067-9.288-3.37-14.224-3.831	c-0.663-0.062-1.329-0.111-2-0.143c-0.086,0.93-0.135,1.864-0.171,2.797c-1.02,0.258-2.031,0.539-3.021,0.858	c1.015,0.47,2.017,1.006,2.998,1.591C235.901,250.679,235.886,251.074,235.898,251.468z M320.746,305.248	c-0.024-0.029-0.049-0.054-0.072-0.084l0.795-8.281c0.021-0.001,0.042-0.001,0.063-0.002c0.001-0.013,0.002-0.025,0.002-0.037	c-1.811-0.157-3.757-0.29-5.786-0.407c-0.118,3.678-0.438,7.328-1.005,10.893C316.755,306.668,318.757,305.976,320.746,305.248z"/></svg>