<?xml version="1.0" standalone="no"?>
<svg version="1.1" id="Layer_1" xmlns="http://www.w3.org/2000/svg" xmlns:xlink="http://www.w3.org/1999/xlink" x="0px" y="0px" viewBox="0 0 595.276 595.276" enable-background="new 0 0 595.276 595.276" xml:space="preserve">
<path id="color_x5F_5" fill="#FFD2BB" d="M197.853,525.108l-6.09,0.323l0.122-7.132l14.053,0.033l-0.512,2.728l-3.513,2.57
	C200.703,524.515,199.284,525.032,197.853,525.108z M231.876,525.525l6.026-0.323c1.416-0.076,2.737-0.593,3.781-1.478l3.03-2.571
	l0-2.73l-14.053-0.033L231.876,525.525z M239.23,239.649l0.59-3.925l2.461-0.143c5.829-0.616,10.054-5.84,9.438-11.669
	l-2.107-19.938l-0.747-7.068l-4.551,0.481l0.091,5.172l-3.722,2.586l-0.789,9.237l-0.577,0.048
	c-0.782-0.859-1.903-1.402-3.156-1.378c-2.305,0.044-4.138,1.948-4.094,4.253l0.047,2.451c0.044,2.305,1.948,4.138,4.253,4.094
	c0.608-0.012,1.18-0.159,1.696-0.403l-3.598,7.894l-13.596-1.334l-0.127,0.845l-0.65,4.319
	C226.731,234.846,233.434,236.412,239.23,239.649z M302.383,263.44c1.136-0.643,2.001-1.423,2.674-2.307
	c1.753-2.302,2.157-5.328,2.319-8.62c0.58-0.984,1.259-1.909,1.987-2.799c0.64-0.782,1.316-1.539,2.008-2.28
	c0.333-0.357-0.183-1.006-0.655-0.731c-1.59,0.926-3.162,2.252-4.452,3.792c-0.166,0.198-0.345,0.387-0.5,0.592
	c-0.097-0.075-0.193-0.147-0.289-0.217c0.037-0.068,0.075-0.136,0.112-0.205c0.019-0.034,0.036-0.069,0.056-0.103
	c0.777-1.32,1.73-2.533,2.748-3.697c0.408-0.467,0.824-0.929,1.248-1.383c0.333-0.357-0.183-1.006-0.655-0.731
	c-1.273,0.742-2.544,1.732-3.663,2.887c-0.646,0.667-1.242,1.389-1.756,2.152c-0.004-0.002-0.008-0.003-0.013-0.005
	c0.119-0.237,0.244-0.472,0.379-0.701c0.264-0.448,0.549-0.883,0.849-1.309c0.937-1.333,2.026-2.57,3.147-3.77
	c0.333-0.357-0.183-1.006-0.655-0.731c-2.084,1.214-4.164,3.092-5.571,5.277c-0.155,0.241-0.308,0.482-0.446,0.73
	c-0.141-0.008-0.285-0.011-0.43-0.012c0.019-0.033,0.036-0.068,0.055-0.101c0.099-0.167,0.213-0.325,0.317-0.489
	c0.002-0.003,0.005-0.007,0.007-0.01c1.043-1.645,2.329-3.142,3.672-4.58c0.333-0.357-0.183-1.006-0.655-0.731
	c-1.219,0.71-2.432,1.653-3.515,2.745c-0.993,1.001-1.872,2.129-2.532,3.338c-0.439,0.804-0.786,1.64-1.001,2.496
	c-0.167,0.32-0.325,0.644-0.479,0.97c-1.215,2.576-2.009,5.346-2.339,8.206c-0.011,0.094-0.026,0.187-0.036,0.282l-0.298,0.69
	l-0.001,0.002l0.289,0.432l1.326,1.983l0.751,1.122l1.924,2.876l0.304,0.455L302.383,263.44z"></path>
<path id="color_x5F_4" fill="#7dcfb6" d="M535.932,541.943c0,1.968-1.595,3.562-3.562,3.562H81.715
	c-1.968,0-3.563-1.595-3.563-3.562s1.595-3.563,3.563-3.563h19.897h5.757h3.489h2.574h3.201h1.129h3.153h7.183h3.049h5.906h3.159
	h4.67h3.339h5.19h3.283h9.064h286.102h5.757h3.49h2.574h3.201h1.129h3.153h7.183h3.049h5.906h3.159h4.67h3.339h5.19h3.283h9.064
	h16.361C534.337,538.381,535.932,539.976,535.932,541.943z M303.931,249.084c-0.135,0.23-0.26,0.464-0.379,0.701
	c0.004,0.002,0.008,0.004,0.013,0.005c0.514-0.763,1.11-1.484,1.756-2.152l-0.541,0.136
	C304.481,248.201,304.195,248.636,303.931,249.084z M301.197,248.677c-0.104,0.164-0.219,0.322-0.317,0.489
	c-0.02,0.033-0.036,0.068-0.055,0.101c0.145,0.002,0.29,0.004,0.43,0.012c0.138-0.248,0.291-0.489,0.446-0.73l-0.495,0.125
	L301.197,248.677z M297.173,251.934c0.215-0.856,0.562-1.692,1.001-2.496l-6.665,1.678l-11.149,2.807
	c-0.804,0.202-1.291,1.018-1.089,1.821c0.172,0.681,0.783,1.134,1.454,1.134c0.121,0,0.244-0.015,0.367-0.046l11.093-2.793
	l4.51-1.135C296.848,252.578,297.006,252.254,297.173,251.934z M330.737,244.333l5.769-1.452l0.353,1.677l9.749-5.613l-11.185-1.202
	l0.464,2.201l-5.808,1.462l-9.719,2.447l-11.969,3.014c-1.017,1.164-1.97,2.377-2.748,3.697c-0.02,0.034-0.037,0.069-0.056,0.103
	l0.677-0.171c1.29-1.54,2.862-2.866,4.452-3.792c0.472-0.275,0.988,0.374,0.655,0.731c-0.692,0.741-1.368,1.498-2.008,2.28
	l11.674-2.939L330.737,244.333z"></path>
<path id="color_x5F_3" fill="#000000" d="M220.87,230.007l-0.127,0.845c-2.566-7.422-5.133-14.844-7.699-22.267
	c-0.628-1.816-1.262-3.662-1.351-5.581s0.441-3.955,1.837-5.275c-1.34-1.313-1.453-3.462-0.782-5.213s2.052-3.137,3.525-4.299
	c6.077-4.789,14.455-6.51,21.927-4.505c2.742-1.662,6.49-1.419,9.322,0.084c1.754,0.931,3.431,2.162,4.394,3.9
	c0.568,1.025,0.862,2.185,1.002,3.349c0.537,4.492-1.154,8.893-3.305,12.928l-0.747-7.068l-4.551,0.481l0.091,5.172l-3.722,2.586
	l-0.789,9.237l-0.577,0.048c-0.782-0.859-1.903-1.402-3.156-1.378c-2.305,0.044-4.138,1.948-4.094,4.253l0.047,2.451
	c0.044,2.305,1.948,4.138,4.253,4.094c0.608-0.012,1.18-0.159,1.696-0.403l-3.598,7.894L220.87,230.007z"></path>
<path id="color_x5F_2" fill="#fbd1a2" d="M239.123,173.334c-0.159,0-0.314-0.082-0.4-0.23c-0.128-0.221-0.053-0.503,0.168-0.631
	c1.068-0.619,2.145-1.225,3.231-1.819c0.223-0.124,0.504-0.041,0.626,0.184c0.123,0.224,0.041,0.504-0.184,0.626
	c-1.078,0.59-2.149,1.192-3.21,1.808C239.281,173.314,239.202,173.334,239.123,173.334z M248.089,168.545
	c0.068,0,0.138-0.015,0.203-0.047c1.101-0.54,2.21-1.066,3.326-1.578c0.232-0.106,0.334-0.38,0.227-0.612
	c-0.106-0.232-0.38-0.332-0.612-0.227c-1.124,0.516-2.24,1.045-3.348,1.588c-0.229,0.112-0.323,0.389-0.212,0.618
	C247.754,168.45,247.918,168.545,248.089,168.545z M257.361,164.399c0.058,0,0.117-0.011,0.174-0.034
	c1.139-0.463,2.285-0.911,3.439-1.345c0.238-0.09,0.359-0.356,0.269-0.595c-0.09-0.239-0.355-0.359-0.595-0.269
	c-1.161,0.437-2.315,0.888-3.461,1.353c-0.236,0.096-0.35,0.365-0.254,0.602C257.006,164.29,257.179,164.399,257.361,164.399z
	 M276.713,158.087c0.037,0,0.075-0.005,0.112-0.014c1.192-0.298,2.39-0.581,3.594-0.85c0.249-0.055,0.406-0.302,0.35-0.551
	c-0.056-0.249-0.301-0.405-0.551-0.35c-1.211,0.27-2.417,0.555-3.616,0.855c-0.248,0.062-0.398,0.313-0.336,0.56
	C276.318,157.947,276.506,158.087,276.713,158.087z M266.926,160.902c0.047,0,0.096-0.007,0.143-0.023
	c1.168-0.381,2.343-0.748,3.524-1.1c0.244-0.073,0.384-0.33,0.311-0.574c-0.073-0.244-0.33-0.384-0.574-0.311
	c-1.189,0.354-2.372,0.723-3.548,1.107c-0.242,0.079-0.375,0.34-0.296,0.582C266.551,160.778,266.732,160.902,266.926,160.902z
	 M207.509,198.221c0.855-0.886,1.72-1.76,2.596-2.624c0.182-0.179,0.184-0.471,0.004-0.653c-0.179-0.182-0.472-0.184-0.653-0.005
	c-0.882,0.869-1.753,1.75-2.613,2.641c-0.177,0.183-0.172,0.476,0.012,0.653c0.09,0.087,0.205,0.129,0.321,0.129
	C207.297,198.362,207.418,198.315,207.509,198.221z M200.716,205.77c0.791-0.943,1.595-1.877,2.409-2.8
	c0.169-0.191,0.151-0.483-0.041-0.652c-0.19-0.168-0.482-0.15-0.652,0.041c-0.819,0.928-1.627,1.867-2.424,2.817
	c-0.164,0.195-0.138,0.487,0.057,0.651c0.087,0.072,0.192,0.108,0.296,0.108C200.494,205.935,200.625,205.879,200.716,205.77z
	 M286.753,155.959c1.209-0.213,2.424-0.412,3.644-0.595c0.252-0.038,0.426-0.273,0.388-0.525c-0.038-0.252-0.269-0.421-0.525-0.388
	c-1.227,0.185-2.45,0.385-3.667,0.6c-0.251,0.044-0.419,0.284-0.374,0.535c0.039,0.224,0.234,0.381,0.454,0.381
	C286.699,155.966,286.726,155.964,286.753,155.959z M222.571,184.633c0.967-0.758,1.944-1.504,2.932-2.238
	c0.205-0.152,0.247-0.441,0.095-0.646c-0.152-0.205-0.441-0.248-0.646-0.095c-0.994,0.739-1.977,1.49-2.951,2.253
	c-0.201,0.157-0.236,0.447-0.079,0.648c0.091,0.116,0.227,0.177,0.364,0.177C222.386,184.731,222.486,184.699,222.571,184.633z
	 M230.767,178.658c1.017-0.689,2.044-1.364,3.079-2.028c0.215-0.137,0.277-0.423,0.14-0.638c-0.137-0.215-0.424-0.279-0.638-0.14
	c-1.042,0.667-2.075,1.347-3.098,2.041c-0.211,0.143-0.267,0.43-0.124,0.641c0.089,0.132,0.235,0.203,0.383,0.203
	C230.597,178.738,230.687,178.712,230.767,178.658z M435.578,376.347c-0.655,1.045-1.322,2.081-2.003,3.108
	c-0.141,0.213-0.082,0.5,0.13,0.64c0.078,0.052,0.167,0.077,0.255,0.077c0.15,0,0.296-0.073,0.385-0.206
	c0.685-1.035,1.357-2.077,2.016-3.128c0.135-0.216,0.069-0.501-0.146-0.637S435.713,376.13,435.578,376.347z M194.461,213.774
	c0.725-0.997,1.462-1.984,2.211-2.962c0.155-0.202,0.117-0.492-0.086-0.648c-0.203-0.155-0.492-0.116-0.648,0.086
	c-0.754,0.984-1.495,1.977-2.224,2.981c-0.15,0.206-0.104,0.495,0.102,0.645c0.082,0.06,0.177,0.088,0.271,0.088
	C194.231,213.964,194.371,213.898,194.461,213.774z M440.672,367.549c-0.581,1.089-1.175,2.17-1.782,3.242
	c-0.125,0.222-0.047,0.503,0.175,0.63c0.072,0.041,0.15,0.06,0.227,0.06c0.161,0,0.317-0.084,0.402-0.234
	c0.611-1.08,1.209-2.166,1.793-3.262c0.12-0.226,0.034-0.505-0.19-0.625C441.072,367.24,440.792,367.323,440.672,367.549z
	 M429.885,384.765c-0.725,0.996-1.464,1.982-2.213,2.959c-0.155,0.203-0.117,0.492,0.085,0.648c0.084,0.065,0.183,0.096,0.281,0.096
	c0.138,0,0.275-0.062,0.366-0.18c0.755-0.984,1.497-1.976,2.228-2.979c0.15-0.206,0.105-0.494-0.102-0.645
	C430.324,384.513,430.035,384.558,429.885,384.765z M423.622,392.764c-0.792,0.942-1.595,1.875-2.412,2.798
	c-0.17,0.19-0.151,0.483,0.04,0.651c0.087,0.079,0.197,0.116,0.306,0.116c0.127,0,0.254-0.052,0.345-0.156
	c0.822-0.928,1.63-1.866,2.428-2.816c0.164-0.195,0.139-0.486-0.057-0.65C424.078,392.543,423.786,392.569,423.622,392.764z
	 M416.823,400.305c-0.855,0.885-1.722,1.759-2.599,2.623c-0.182,0.179-0.184,0.472-0.005,0.653c0.09,0.092,0.21,0.138,0.329,0.138
	c0.117,0,0.234-0.044,0.324-0.133c0.883-0.869,1.755-1.749,2.615-2.639c0.178-0.184,0.172-0.476-0.011-0.653
	C417.292,400.117,416.999,400.121,416.823,400.305z M409.519,407.354c-0.914,0.823-1.839,1.635-2.774,2.435
	c-0.194,0.166-0.216,0.457-0.05,0.651c0.091,0.107,0.221,0.161,0.351,0.161c0.106,0,0.213-0.036,0.3-0.111
	c0.941-0.805,1.87-1.623,2.79-2.45c0.19-0.171,0.206-0.463,0.035-0.652C410,407.198,409.707,407.182,409.519,407.354z
	 M452.095,339.304c-0.339,1.185-0.693,2.364-1.061,3.537c-0.077,0.243,0.059,0.502,0.302,0.578c0.046,0.015,0.092,0.022,0.138,0.022
	c0.197,0,0.379-0.126,0.44-0.324c0.372-1.181,0.727-2.367,1.068-3.559c0.07-0.245-0.071-0.5-0.317-0.571
	C452.417,338.912,452.164,339.059,452.095,339.304z M456.814,319.059c-0.245-0.029-0.487,0.141-0.521,0.393
	c-0.17,1.222-0.355,2.439-0.556,3.651c-0.042,0.252,0.128,0.49,0.38,0.531c0.026,0.004,0.051,0.006,0.077,0.006
	c0.221,0,0.417-0.161,0.455-0.386c0.203-1.221,0.389-2.445,0.56-3.674C457.242,319.327,457.066,319.094,456.814,319.059z
	 M448.955,348.976c-0.423,1.162-0.859,2.316-1.311,3.463c-0.094,0.237,0.023,0.506,0.26,0.599c0.056,0.023,0.113,0.032,0.17,0.032
	c0.184,0,0.358-0.111,0.429-0.292c0.456-1.156,0.896-2.318,1.32-3.487c0.088-0.24-0.036-0.504-0.276-0.592
	C449.305,348.614,449.041,348.737,448.955,348.976z M445.139,358.411c-0.503,1.128-1.02,2.249-1.551,3.361
	c-0.11,0.231-0.013,0.506,0.217,0.616c0.065,0.031,0.133,0.045,0.199,0.045c0.172,0,0.337-0.096,0.417-0.262
	c0.535-1.12,1.055-2.247,1.562-3.383c0.104-0.234-0.001-0.506-0.234-0.611C445.516,358.075,445.243,358.178,445.139,358.411z
	 M454.542,329.453c-0.255,1.207-0.525,2.407-0.81,3.603c-0.06,0.248,0.094,0.497,0.342,0.556c0.036,0.009,0.072,0.013,0.107,0.013
	c0.209,0,0.399-0.142,0.449-0.354c0.287-1.204,0.558-2.413,0.815-3.627c0.052-0.25-0.106-0.494-0.356-0.547
	C454.838,329.05,454.595,329.204,454.542,329.453z M166.776,316.042c0.142,1.233,0.298,2.462,0.47,3.686
	c0.032,0.231,0.23,0.398,0.457,0.398c0.021,0,0.043-0.002,0.065-0.004c0.253-0.035,0.429-0.269,0.393-0.521
	c-0.17-1.216-0.326-2.437-0.467-3.663c-0.029-0.253-0.258-0.437-0.511-0.406C166.929,315.56,166.747,315.789,166.776,316.042z
	 M293.41,443.479c-0.248-0.031-0.484,0.147-0.517,0.399c-0.032,0.253,0.146,0.485,0.399,0.518c1.226,0.158,2.456,0.301,3.691,0.428
	c0.016,0.002,0.032,0.003,0.048,0.003c0.234,0,0.434-0.177,0.459-0.414c0.026-0.254-0.158-0.481-0.412-0.507
	C295.851,443.779,294.629,443.637,293.41,443.479z M169.469,330.154c0.032,0,0.064-0.004,0.096-0.01
	c0.249-0.053,0.409-0.298,0.356-0.547c-0.256-1.202-0.496-2.41-0.722-3.622c-0.046-0.251-0.288-0.416-0.538-0.369
	c-0.251,0.046-0.416,0.288-0.37,0.538c0.227,1.219,0.47,2.434,0.726,3.644C169.064,330.006,169.256,330.154,169.469,330.154z
	 M175.088,349.717c0.053,0,0.106-0.009,0.158-0.028c0.24-0.088,0.363-0.353,0.276-0.592c-0.422-1.155-0.829-2.315-1.222-3.484
	c-0.081-0.242-0.342-0.371-0.585-0.29c-0.242,0.081-0.372,0.343-0.291,0.584c0.395,1.176,0.805,2.346,1.23,3.507
	C174.723,349.601,174.899,349.717,175.088,349.717z M171.934,340.035c0.042,0,0.085-0.005,0.128-0.018
	c0.245-0.07,0.386-0.326,0.316-0.571c-0.339-1.182-0.664-2.369-0.974-3.563c-0.064-0.247-0.316-0.393-0.563-0.331
	c-0.247,0.065-0.395,0.317-0.331,0.564c0.312,1.2,0.639,2.395,0.98,3.584C171.549,339.903,171.733,340.035,171.934,340.035z
	 M273.518,439.481c-0.245-0.066-0.5,0.077-0.568,0.323c-0.068,0.246,0.077,0.501,0.322,0.568c1.193,0.328,2.391,0.641,3.595,0.94
	c0.037,0.009,0.075,0.013,0.111,0.013c0.207,0,0.395-0.141,0.448-0.351c0.061-0.247-0.09-0.498-0.337-0.559
	C275.894,440.119,274.703,439.807,273.518,439.481z M178.902,359.129c0.063,0,0.127-0.013,0.188-0.04
	c0.233-0.105,0.337-0.378,0.233-0.61c-0.5-1.119-0.986-2.246-1.458-3.379c-0.097-0.236-0.368-0.344-0.604-0.249
	c-0.235,0.098-0.347,0.369-0.249,0.604c0.475,1.141,0.964,2.275,1.467,3.401C178.557,359.028,178.726,359.129,178.902,359.129z
	 M263.82,436.439c-0.241-0.087-0.504,0.041-0.589,0.281c-0.085,0.241,0.042,0.505,0.282,0.59c1.171,0.413,2.349,0.812,3.532,1.195
	c0.047,0.015,0.096,0.023,0.142,0.023c0.195,0,0.376-0.124,0.439-0.319c0.079-0.243-0.054-0.503-0.297-0.582
	C266.153,437.245,264.983,436.85,263.82,436.439z M166.408,305.376c-0.255,0.011-0.452,0.227-0.441,0.482
	c0.055,1.241,0.127,2.477,0.212,3.709c0.017,0.244,0.22,0.43,0.461,0.43c0.011,0,0.022,0,0.032-0.001
	c0.254-0.018,0.446-0.239,0.428-0.493c-0.085-1.225-0.156-2.454-0.211-3.687C166.878,305.562,166.659,305.354,166.408,305.376z
	 M283.395,441.83c-0.25-0.052-0.494,0.112-0.544,0.362s0.112,0.493,0.362,0.544c1.212,0.243,2.429,0.473,3.652,0.685
	c0.027,0.005,0.054,0.007,0.08,0.007c0.22,0,0.415-0.158,0.454-0.382c0.044-0.251-0.124-0.491-0.376-0.534
	C285.809,442.298,284.599,442.071,283.395,441.83z M171.854,259.593c0.201,0,0.386-0.132,0.444-0.335
	c0.338-1.185,0.69-2.365,1.057-3.538c0.076-0.244-0.059-0.502-0.303-0.579c-0.245-0.078-0.503,0.059-0.579,0.303
	c-0.37,1.18-0.724,2.368-1.065,3.561c-0.07,0.245,0.072,0.501,0.318,0.571C171.769,259.587,171.812,259.593,171.854,259.593z
	 M188.385,222.415c0.154,0,0.304-0.077,0.392-0.217c0.654-1.046,1.32-2.082,2-3.11c0.141-0.213,0.083-0.499-0.13-0.64
	c-0.213-0.142-0.5-0.083-0.64,0.13c-0.684,1.035-1.355,2.078-2.013,3.13c-0.135,0.216-0.069,0.501,0.147,0.636
	C188.217,222.393,188.302,222.415,188.385,222.415z M174.994,249.887c0.189,0,0.366-0.116,0.434-0.304
	c0.422-1.162,0.857-2.317,1.308-3.465c0.093-0.238-0.024-0.505-0.261-0.598c-0.237-0.092-0.505,0.023-0.598,0.261
	c-0.453,1.155-0.893,2.318-1.317,3.488c-0.087,0.239,0.037,0.505,0.277,0.592C174.888,249.878,174.941,249.887,174.994,249.887z
	 M178.812,240.418c0.177,0,0.346-0.102,0.422-0.274c0.502-1.128,1.018-2.249,1.548-3.362c0.11-0.23,0.012-0.506-0.219-0.616
	c-0.231-0.108-0.505-0.011-0.615,0.219c-0.533,1.121-1.052,2.248-1.558,3.384c-0.103,0.233,0.001,0.506,0.234,0.61
	C178.686,240.406,178.749,240.418,178.812,240.418z M183.368,368.256c0.073,0,0.147-0.017,0.217-0.054
	c0.225-0.12,0.31-0.4,0.19-0.625c-0.577-1.082-1.141-2.173-1.692-3.271c-0.114-0.229-0.391-0.32-0.62-0.207
	c-0.228,0.115-0.32,0.392-0.206,0.62c0.554,1.106,1.121,2.203,1.702,3.293C183.043,368.167,183.203,368.256,183.368,368.256z
	 M183.284,231.246c0.165,0,0.325-0.089,0.408-0.245c0.58-1.09,1.173-2.171,1.779-3.244c0.126-0.222,0.047-0.504-0.174-0.63
	c-0.222-0.124-0.504-0.047-0.629,0.175c-0.611,1.08-1.207,2.168-1.79,3.264c-0.12,0.225-0.034,0.505,0.191,0.625
	C183.136,231.229,183.211,231.246,183.284,231.246z M169.409,269.479c0.214,0,0.406-0.149,0.451-0.367
	c0.254-1.207,0.523-2.408,0.806-3.604c0.059-0.248-0.094-0.497-0.343-0.556c-0.247-0.061-0.497,0.094-0.556,0.343
	c-0.285,1.203-0.556,2.412-0.812,3.626c-0.052,0.249,0.107,0.495,0.357,0.547C169.345,269.475,169.377,269.479,169.409,269.479z
	 M194.161,385.481c0.094,0,0.189-0.029,0.271-0.088c0.206-0.151,0.252-0.439,0.101-0.645c-0.723-0.994-1.434-1.996-2.133-3.01
	c-0.145-0.21-0.433-0.263-0.642-0.118c-0.21,0.145-0.263,0.433-0.118,0.643c0.703,1.019,1.419,2.028,2.146,3.028
	C193.878,385.415,194.019,385.481,194.161,385.481z M188.463,377.054c0.084,0,0.169-0.022,0.245-0.07
	c0.216-0.135,0.281-0.42,0.146-0.637c-0.652-1.04-1.291-2.09-1.918-3.148c-0.129-0.218-0.412-0.291-0.633-0.162
	c-0.219,0.131-0.292,0.414-0.162,0.633c0.63,1.065,1.274,2.12,1.93,3.167C188.159,376.977,188.31,377.054,188.463,377.054z
	 M167.663,279.511c0.227,0,0.425-0.167,0.457-0.399c0.169-1.222,0.353-2.439,0.552-3.651c0.042-0.252-0.129-0.489-0.381-0.53
	c-0.255-0.048-0.49,0.129-0.53,0.38c-0.201,1.22-0.385,2.445-0.556,3.674c-0.035,0.253,0.141,0.486,0.394,0.52
	C167.62,279.51,167.642,279.511,167.663,279.511z M254.346,432.719c-0.233-0.102-0.505,0.006-0.607,0.24
	c-0.101,0.234,0.006,0.506,0.24,0.608c1.138,0.493,2.284,0.973,3.437,1.439c0.057,0.023,0.115,0.033,0.173,0.033
	c0.183,0,0.355-0.109,0.428-0.289c0.096-0.236-0.019-0.506-0.255-0.602C256.616,433.686,255.477,433.209,254.346,432.719z
	 M200.433,393.494c0.105,0,0.21-0.035,0.297-0.108c0.195-0.164,0.221-0.455,0.056-0.65c-0.791-0.942-1.571-1.893-2.338-2.855
	c-0.159-0.2-0.45-0.233-0.649-0.073c-0.199,0.159-0.232,0.449-0.073,0.648c0.772,0.969,1.557,1.926,2.353,2.873
	C200.171,393.438,200.302,393.494,200.433,393.494z M313.667,444.677c-0.255,0.003-0.46,0.211-0.457,0.466
	c0.003,0.253,0.209,0.457,0.462,0.457c0.002,0,0.003,0,0.004,0c1.241-0.013,2.478-0.04,3.711-0.082
	c0.254-0.009,0.454-0.223,0.445-0.478c-0.01-0.254-0.227-0.447-0.478-0.446C316.129,444.637,314.901,444.664,313.667,444.677z
	 M303.463,445.351c1.233,0.072,2.47,0.131,3.712,0.172c0.005,0,0.01,0,0.016,0c0.248,0,0.453-0.197,0.461-0.446
	c0.008-0.254-0.191-0.468-0.446-0.477c-1.233-0.041-2.463-0.098-3.688-0.17c-0.248-0.022-0.473,0.18-0.488,0.434
	C303.014,445.117,303.208,445.336,303.463,445.351z M366.535,164.218c1.146,0.462,2.285,0.937,3.416,1.428
	c0.06,0.026,0.123,0.038,0.184,0.038c0.179,0,0.348-0.104,0.424-0.278c0.101-0.234-0.006-0.506-0.24-0.607
	c-1.14-0.493-2.286-0.972-3.44-1.437c-0.234-0.095-0.506,0.019-0.601,0.256C366.183,163.854,366.298,164.123,366.535,164.218z
	 M446.511,243.189c0.074,0.177,0.245,0.284,0.426,0.284c0.06,0,0.12-0.011,0.178-0.036c0.235-0.098,0.346-0.368,0.248-0.604
	c-0.475-1.14-0.966-2.274-1.47-3.399c-0.105-0.234-0.378-0.337-0.61-0.233c-0.233,0.105-0.337,0.377-0.233,0.611
	C445.551,240.93,446.038,242.056,446.511,243.189z M333.892,443.08c-0.253,0.037-0.427,0.272-0.389,0.524
	c0.033,0.23,0.231,0.394,0.456,0.394c0.023,0,0.046-0.002,0.069-0.005c1.228-0.182,2.451-0.382,3.668-0.595
	c0.252-0.044,0.419-0.283,0.375-0.534c-0.043-0.253-0.298-0.427-0.534-0.375C336.326,442.701,335.111,442.898,333.892,443.08z
	 M347.466,440.385c-1.191,0.297-2.39,0.579-3.594,0.846c-0.249,0.055-0.406,0.302-0.351,0.551c0.048,0.216,0.239,0.362,0.451,0.362
	c0.033,0,0.067-0.004,0.1-0.011c1.211-0.269,2.417-0.553,3.617-0.851c0.247-0.061,0.398-0.312,0.336-0.56
	C347.964,440.473,347.714,440.323,347.466,440.385z M323.805,444.23c-0.254,0.02-0.445,0.242-0.424,0.496
	c0.019,0.242,0.221,0.426,0.459,0.426c0.013,0,0.025-0.001,0.037-0.002c1.239-0.097,2.472-0.21,3.701-0.339
	c0.253-0.026,0.438-0.253,0.411-0.507c-0.026-0.253-0.259-0.443-0.507-0.411C326.261,444.02,325.035,444.133,323.805,444.23z
	 M431.949,216.565c0.089,0.13,0.234,0.199,0.38,0.199c0.091,0,0.182-0.027,0.262-0.082c0.21-0.145,0.262-0.432,0.117-0.642
	c-0.703-1.019-1.42-2.027-2.149-3.026c-0.152-0.206-0.441-0.251-0.646-0.101c-0.206,0.15-0.251,0.439-0.101,0.645
	C430.538,214.551,431.249,215.553,431.949,216.565z M396.474,180.609c0.081,0.058,0.175,0.086,0.268,0.086
	c0.144,0,0.286-0.068,0.376-0.194c0.148-0.208,0.099-0.496-0.108-0.644c-1.01-0.719-2.029-1.425-3.058-2.118
	c-0.211-0.141-0.497-0.088-0.641,0.125c-0.142,0.211-0.086,0.498,0.125,0.641C394.458,179.193,395.471,179.894,396.474,180.609z
	 M442.285,233.987c0.081,0.161,0.244,0.254,0.412,0.254c0.07,0,0.141-0.016,0.207-0.049c0.228-0.115,0.319-0.392,0.205-0.62
	c-0.555-1.105-1.124-2.201-1.706-3.29c-0.122-0.226-0.404-0.309-0.625-0.189c-0.226,0.12-0.31,0.4-0.19,0.625
	C441.167,231.799,441.733,232.89,442.285,233.987z M375.834,168.349c1.11,0.541,2.212,1.095,3.306,1.663
	c0.069,0.035,0.141,0.052,0.213,0.052c0.167,0,0.327-0.091,0.409-0.249c0.118-0.226,0.03-0.505-0.197-0.623
	c-1.101-0.571-2.21-1.129-3.328-1.673c-0.226-0.11-0.505-0.017-0.617,0.213C375.509,167.961,375.604,168.237,375.834,168.349z
	 M437.422,225.099c0.086,0.145,0.24,0.226,0.397,0.226c0.08,0,0.161-0.021,0.235-0.065c0.219-0.13,0.292-0.414,0.161-0.633
	c-0.631-1.064-1.275-2.119-1.932-3.165c-0.137-0.216-0.421-0.28-0.637-0.146c-0.216,0.135-0.281,0.42-0.146,0.636
	C436.154,222.992,436.794,224.041,437.422,225.099z M384.953,425.223c-1.063,0.615-2.134,1.217-3.213,1.804
	c-0.224,0.123-0.307,0.403-0.185,0.627c0.084,0.154,0.243,0.241,0.406,0.241c0.075,0,0.151-0.018,0.221-0.056
	c1.086-0.593,2.164-1.198,3.232-1.817c0.221-0.127,0.297-0.41,0.169-0.63C385.455,425.171,385.17,425.094,384.953,425.223z
	 M457.749,288.281c-0.254,0.018-0.446,0.239-0.428,0.493c0.087,1.224,0.16,2.453,0.216,3.686c0.011,0.247,0.215,0.441,0.461,0.441
	c0.006,0,0.014,0,0.021,0c0.255-0.012,0.452-0.227,0.44-0.482c-0.056-1.241-0.128-2.478-0.216-3.71
	C458.223,288.453,457.985,288.259,457.749,288.281z M327.209,154.501c1.227,0.126,2.45,0.266,3.668,0.423
	c0.02,0.002,0.04,0.004,0.06,0.004c0.228,0,0.427-0.17,0.457-0.403c0.032-0.252-0.146-0.484-0.4-0.517
	c-1.226-0.157-2.456-0.299-3.691-0.426c-0.249-0.019-0.48,0.158-0.506,0.413C326.771,154.248,326.955,154.475,327.209,154.501z
	 M393.544,419.845c-1.017,0.687-2.044,1.363-3.08,2.024c-0.216,0.138-0.279,0.423-0.142,0.638c0.088,0.138,0.238,0.214,0.39,0.214
	c0.086,0,0.171-0.023,0.249-0.072c1.043-0.667,2.076-1.346,3.101-2.038c0.211-0.142,0.267-0.429,0.124-0.641
	C394.042,419.757,393.755,419.701,393.544,419.845z M401.747,413.878c-0.969,0.757-1.946,1.502-2.935,2.235
	c-0.205,0.152-0.248,0.441-0.096,0.646c0.09,0.122,0.23,0.187,0.371,0.187c0.096,0,0.192-0.03,0.275-0.091
	c0.994-0.737,1.979-1.487,2.953-2.249c0.201-0.157,0.237-0.447,0.079-0.648C402.236,413.754,401.945,413.72,401.747,413.878z
	 M317.081,153.817c1.234,0.041,2.464,0.096,3.689,0.167c0.009,0,0.018,0.001,0.027,0.001c0.244,0,0.446-0.189,0.461-0.435
	c0.014-0.254-0.179-0.473-0.434-0.487c-1.234-0.072-2.471-0.128-3.712-0.168c-0.005,0-0.011,0-0.015,0
	c-0.248,0-0.454,0.197-0.462,0.446C316.627,153.596,316.827,153.809,317.081,153.817z M357.226,437.588
	c-1.169,0.381-2.344,0.746-3.526,1.097c-0.244,0.073-0.383,0.329-0.311,0.575c0.06,0.2,0.244,0.33,0.443,0.33
	c0.043,0,0.088-0.006,0.132-0.019c1.19-0.353,2.372-0.721,3.548-1.104c0.243-0.079,0.375-0.34,0.297-0.582
	C357.728,437.642,357.467,437.51,357.226,437.588z M384.814,173.119c1.068,0.616,2.129,1.246,3.179,1.889
	c0.075,0.046,0.158,0.068,0.241,0.068c0.155,0,0.307-0.078,0.394-0.221c0.133-0.217,0.064-0.502-0.153-0.635
	c-1.058-0.647-2.124-1.281-3.199-1.901c-0.22-0.126-0.503-0.051-0.63,0.169C384.517,172.71,384.593,172.992,384.814,173.119z
	 M356.965,160.75c1.176,0.381,2.347,0.775,3.511,1.184c0.05,0.018,0.103,0.026,0.153,0.026c0.19,0,0.369-0.119,0.436-0.309
	c0.085-0.24-0.042-0.504-0.282-0.588c-1.172-0.412-2.349-0.809-3.534-1.191c-0.241-0.078-0.502,0.055-0.581,0.297
	C356.589,160.411,356.722,160.672,356.965,160.75z M376.01,429.987c-1.101,0.538-2.211,1.063-3.328,1.574
	c-0.232,0.106-0.334,0.381-0.228,0.612c0.078,0.17,0.245,0.27,0.42,0.27c0.064,0,0.13-0.013,0.192-0.041
	c1.125-0.514,2.241-1.043,3.35-1.585c0.229-0.112,0.324-0.389,0.212-0.618C376.515,429.969,376.237,429.877,376.01,429.987z
	 M366.763,434.112c-1.14,0.462-2.287,0.908-3.441,1.342c-0.239,0.089-0.36,0.355-0.27,0.594c0.069,0.185,0.245,0.299,0.432,0.299
	c0.054,0,0.109-0.009,0.162-0.03c1.161-0.436,2.315-0.886,3.462-1.349c0.236-0.096,0.351-0.365,0.255-0.602
	C367.268,434.131,366.998,434.018,366.763,434.112z M457.64,282.236c-0.143-1.233-0.3-2.462-0.474-3.685
	c-0.035-0.253-0.266-0.432-0.522-0.393c-0.253,0.036-0.429,0.269-0.392,0.522c0.171,1.216,0.328,2.437,0.47,3.663
	c0.028,0.235,0.227,0.409,0.458,0.409c0.018,0,0.036-0.001,0.054-0.003C457.487,282.719,457.669,282.49,457.64,282.236z
	 M454.836,268.137c-0.249,0.053-0.409,0.298-0.355,0.548c0.256,1.201,0.499,2.409,0.726,3.621c0.042,0.222,0.235,0.377,0.453,0.377
	c0.029,0,0.058-0.003,0.086-0.008c0.251-0.047,0.416-0.288,0.369-0.539c-0.229-1.22-0.472-2.434-0.73-3.644
	C455.33,268.243,455.087,268.081,454.836,268.137z M457.159,311.578c-0.041,0.486-0.073,0.974-0.119,1.458
	c-0.023,0.254,0.162,0.479,0.417,0.503c0.014,0.002,0.029,0.002,0.044,0.002c0.235,0,0.436-0.179,0.459-0.418
	c0.082-0.868,0.147-1.742,0.213-2.614c19.128-20.367,30.865-47.753,30.865-77.832c0-62.743-51.045-113.788-113.788-113.788
	s-113.788,51.045-113.788,113.788c0,16.709,3.621,32.587,10.118,46.894c2.609-2.315,5.25-4.595,7.93-6.829
	c-5.181-12.334-8.048-25.871-8.048-40.065c0-31.53,14.136-59.817,36.4-78.868c0.918-0.027,1.836-0.054,2.759-0.064
	c0.255-0.003,0.46-0.212,0.457-0.467c-0.003-0.255-0.199-0.419-0.467-0.457c-0.544,0.006-1.084,0.026-1.626,0.038
	c17.989-14.961,41.094-23.971,66.265-23.971c57.229,0,103.788,46.559,103.788,103.788c0,57.229-46.56,103.788-103.788,103.788
	c-36.814,0-69.209-19.269-87.639-48.248c-1.685,2.86-3.541,5.876-5.842,9.257c20.569,29.583,54.798,48.99,93.48,48.99
	C407.385,346.466,436.447,333.072,457.159,311.578z M295.64,264.506c0.25,0.372,0.496,0.74,0.748,1.114l-0.751-1.122
	C295.638,264.501,295.639,264.504,295.64,264.506z M375.25,318.437c47.287,0,85.759-38.471,85.759-85.758
	c0-47.288-38.472-85.759-85.759-85.759c-13.126,0-25.567,2.973-36.7,8.267c-0.376-0.068-0.749-0.145-1.127-0.21
	c-0.245-0.045-0.49,0.125-0.533,0.376c-0.039,0.224,0.094,0.429,0.301,0.505c-28.24,14.048-47.699,43.198-47.699,76.821
	c0,6.33,0.71,12.495,2.018,18.438l6.665-1.678c0.66-1.209,1.539-2.337,2.532-3.338c-0.783-4.36-1.215-8.84-1.215-13.422
	c0-41.773,33.985-75.759,75.759-75.759s75.759,33.985,75.759,75.759c0,5.451-0.591,10.764-1.69,15.891
	c-0.06-0.003-0.122,0.005-0.183,0.027c-0.24,0.088-0.363,0.353-0.275,0.592c0.066,0.179,0.125,0.361,0.19,0.54
	c-7.758,33.586-37.89,58.708-73.8,58.708c-31.712,0-58.918-19.594-70.193-47.303c-0.673,0.883-1.538,1.664-2.674,2.307l-3.767,5.512
	l-0.304-0.455c0.228,0.342,0.463,0.694,0.68,1.023c-0.236,0.337-0.453,0.661-0.679,0.991
	C312.317,298.874,341.536,318.437,375.25,318.437z M292.185,254.04c0.618,2.402,1.355,4.755,2.171,7.071
	c0.329-2.86,1.123-5.63,2.339-8.206L292.185,254.04z M301.204,248.667c-0.002,0.003-0.005,0.007-0.007,0.01l0.009-0.002
	C301.205,248.672,301.204,248.669,301.204,248.667z M329.238,232.678c0-25.371,20.641-46.012,46.012-46.012
	s46.012,20.641,46.012,46.012s-20.641,46.012-46.012,46.012c-21.345,0-39.339-14.612-44.512-34.357l-9.7,2.442
	c6.267,24.083,28.195,41.915,54.212,41.915c30.885,0,56.012-25.127,56.012-56.012c0-8.886-2.089-17.289-5.788-24.76
	c0.138,0.171,0.281,0.338,0.418,0.51c0.091,0.114,0.226,0.174,0.361,0.174c0.101,0,0.203-0.033,0.289-0.101
	c0.198-0.159,0.232-0.45,0.072-0.649c-0.773-0.967-1.558-1.924-2.355-2.871c-0.112-0.132-0.282-0.179-0.441-0.148
	c-9.677-16.813-27.816-28.166-48.568-28.166c-30.885,0-56.012,25.127-56.012,56.012c0,3.826,0.388,7.562,1.122,11.174l9.719-2.447
	C329.534,238.578,329.238,235.662,329.238,232.678z M375.25,256.918c13.387,0,24.24-10.853,24.24-24.24s-10.853-24.24-24.24-24.24
	s-24.24,10.853-24.24,24.24S361.863,256.918,375.25,256.918z M197.572,367.948c1.591,20.631,8.019,41.468,6.758,61.345
	c-0.011,0.172-0.027,0.344-0.04,0.516c-0.514,7.317-2.073,14.503-5.338,21.498c-3.208,6.872-5.644,14.172-7.338,21.638
	c-0.062,0.273-0.113,0.549-0.173,0.822c-0.487,2.221-0.919,4.454-1.276,6.695c-0.036,0.225-0.062,0.451-0.096,0.677
	c-1.931,12.587-1.84,25.373,0.171,37.156l1.646,0.004l14.053,0.033l1.37,0.003c1.849-10.607,3.722-21.056,5.898-31.432
	c0.022-0.106,0.042-0.212,0.065-0.318c0.033-0.156,0.067-0.311,0.1-0.467c0.01-0.049,0.021-0.097,0.031-0.146
	c2.755-13.024,6.002-25.936,10.31-38.9c1.133-3.409,2.189-6.853,3.202-10.316c0.08,4.947-0.425,9.825-1.76,14.612
	c-2.557,9.169-3.598,19.098-3.313,29.169c0.006,0.225,0.023,0.452,0.031,0.677c0.108,3.159,0.347,6.331,0.709,9.496
	c0.034,0.293,0.082,0.585,0.117,0.879c1.114,9.154,3.252,18.241,6.316,26.798l1.646,0.004l14.053,0.033l1.37,0.003
	c-0.08-5.956-0.136-11.86-0.136-17.732c0-0.252,0.002-0.503,0.002-0.755c0.004-4.442,0.037-8.868,0.136-13.277
	c0.005-0.204,0.011-0.409,0.016-0.613c0.31-13.029,1.133-25.947,3.007-38.918c0.576-3.99,1.056-8.021,1.457-12.084
	c0.017-0.168,0.036-0.335,0.052-0.503c0.9-9.271,1.364-18.712,1.542-28.221c0.271-14.506-0.147-29.172-0.802-43.667
	C236.007,371.363,214.903,370.976,197.572,367.948z"></path>
<path id="color_x5F_1" fill="#1d4e89" d="M113.588,376.234c-9.763-24.69-14.884-51.248-14.884-78.597
	c0-39.831,10.846-77.99,31.119-111.126c0.203,0.14,0.413,0.271,0.633,0.393c-19.741,32.283-31.13,70.202-31.13,110.733
	c0,27.662,5.307,54.106,14.95,78.374C114.039,376.076,113.81,376.151,113.588,376.234z M312.216,84.748
	c83.293,0,155.554,48.089,190.511,117.954c0.224-0.109,0.458-0.206,0.7-0.295c-10.168-20.367-23.669-39.179-40.234-55.744
	c-40.327-40.327-93.945-62.536-150.976-62.536c-57.031,0-110.649,22.209-150.975,62.536c-7.949,7.949-15.183,16.422-21.693,25.328
	c0.206,0.144,0.402,0.297,0.59,0.458C178.886,119.333,241.583,84.748,312.216,84.748z M222.581,490.709
	c-3.115-1.452-6.179-2.994-9.21-4.591c-0.033,0.156-0.067,0.311-0.1,0.467c-0.022,0.106-0.042,0.212-0.065,0.318
	c3.127,1.64,6.291,3.205,9.492,4.684C222.663,491.295,222.614,491.002,222.581,490.709z M121.334,391.827
	c-0.21,0.132-0.431,0.251-0.659,0.364c10.205,20.626,23.817,39.673,40.565,56.421c9.387,9.387,19.498,17.783,30.201,25.154
	c0.06-0.274,0.111-0.549,0.173-0.822C161.836,452.393,137.511,424.479,121.334,391.827z M287.329,509.71
	c0.011-0.211,0.03-0.421,0.055-0.631c-14.291-1.668-28.145-4.776-41.435-9.141c0,0.252-0.002,0.503-0.002,0.755
	C259.321,505.042,273.167,508.077,287.329,509.71z M312.216,510.528c-2.72,0-5.427-0.054-8.122-0.156
	c-0.003,0.203-0.01,0.406-0.025,0.609c2.708,0.101,5.423,0.168,8.147,0.168c57.031,0,110.649-22.209,150.976-62.537
	c40.326-40.326,62.536-93.945,62.536-150.976c0-27.61-5.22-54.414-15.166-79.303c-0.213,0.109-0.435,0.208-0.663,0.298
	c9.803,24.441,15.208,51.102,15.208,79.004C525.106,415.025,429.604,510.528,312.216,510.528z M457.19,537.569
	c-5.22-9.962-10.418-19.934-15.952-29.72c-0.479,2.686-0.663,5.403-0.594,8.111c2.156,4.339,4.794,8.48,6.863,12.841
	c1.504,3.169,2.941,6.369,4.354,9.58h5.757C457.476,538.11,457.332,537.84,457.19,537.569z M458.796,480.149
	c-1.559,1.179-3.045,2.452-4.448,3.809c1.054,3.21,2.114,6.418,3.266,9.595c0.68,1.877-2.309,2.678-2.982,0.822
	c-0.948-2.613-1.83-5.249-2.702-7.887c-0.529,0.591-1.055,1.187-1.554,1.802c6.19,16.46,11.375,33.265,16.506,50.091h1.129
	C463.714,519.214,460.827,499.736,458.796,480.149z M448.197,491.203c-1.213,1.76-2.298,3.604-3.248,5.514
	c2.166,4.088,4.322,8.182,6.307,12.36c0.85,1.79-1.817,3.357-2.67,1.561c-1.658-3.49-3.43-6.921-5.225-10.34
	c-0.401,1.035-0.764,2.086-1.081,3.153c6.496,11.304,12.498,22.879,18.558,34.425c0.089,0.169,0.18,0.336,0.269,0.505h2.574
	C458.858,522.537,453.964,506.719,448.197,491.203z M486.83,470.654c-0.211-0.004-0.421-0.016-0.632-0.016
	c-3.675-0.008-7.317,0.49-10.85,1.417c-0.891,12.198-1.377,24.402-0.235,36.64c0.185,1.984-2.909,1.965-3.092,0
	c-1.112-11.918-0.68-23.806,0.166-35.685c-3.685,1.261-7.216,2.99-10.495,5.117c2.053,20.271,4.997,40.43,9.474,60.255h7.183
	C477.806,515.751,482.466,493.177,486.83,470.654z M509.568,522.474c3.411-8.87,6.807-17.8,10.98-26.345
	c0.997-2.041,2.025-4.084,3.034-6.139c-0.475-0.625-0.964-1.238-1.469-1.839c-1.394,2.611-2.764,5.235-4.089,7.884
	c-4.557,9.109-8.694,18.403-12.833,27.706c-2.083,4.683-4.458,9.595-6.72,14.639h5.19
	C505.581,533.061,507.537,527.754,509.568,522.474z M501.033,494.409c2.23-6.001,4.611-11.94,7.129-17.818
	c-2.478-1.389-5.076-2.547-7.75-3.474c-3.117,9.239-5.858,18.586-7.523,28.236c-0.338,1.96-3.317,1.124-2.982-0.822
	c1.671-9.683,4.425-19.063,7.556-28.332c-2.487-0.679-5.029-1.155-7.604-1.387c-4.385,22.466-9.06,45.014-8.461,67.57h5.906
	C490.54,523.344,495.759,508.599,501.033,494.409z M501.975,523.402c4.625-10.326,9.188-20.666,14.304-30.763
	c1.18-2.329,2.408-4.63,3.651-6.922c-0.687-0.718-1.396-1.415-2.125-2.09c-2.235,3.608-4.475,7.213-6.853,10.731
	c-1.109,1.642-3.787,0.092-2.67-1.561c2.485-3.678,4.822-7.45,7.159-11.222c-1.478-1.208-3.021-2.337-4.623-3.372
	c-2.401,5.619-4.673,11.295-6.804,17.029c-5.172,13.916-10.323,28.392-13.552,43.15h4.67
	C497.411,533.223,499.827,528.198,501.975,523.402z M532.956,518.094c0.053-3.658-0.314-7.322-1.155-10.91
	c-0.039-0.164-0.086-0.326-0.127-0.49c-4.423,5.045-8.256,10.467-10.487,16.754c-0.662,1.865-3.648,1.057-2.982-0.822
	c2.614-7.367,7.245-13.561,12.482-19.338c-1.238-3.674-2.96-7.171-5.076-10.418c-4.573,9.307-8.55,18.781-12.299,28.453
	c-2.194,5.66-4.302,11.352-6.367,17.059h9.064C521.263,531.325,527.128,524.632,532.956,518.094z M106.942,537.569
	c-5.22-9.962-10.418-19.934-15.952-29.72c-0.479,2.686-0.663,5.403-0.594,8.111c2.156,4.339,4.794,8.48,6.863,12.841
	c1.504,3.169,2.941,6.369,4.354,9.58h5.757C107.227,538.11,107.084,537.84,106.942,537.569z M108.547,480.149
	c-1.559,1.179-3.045,2.452-4.448,3.809c1.054,3.21,2.114,6.418,3.266,9.595c0.68,1.877-2.309,2.678-2.982,0.822
	c-0.948-2.613-1.83-5.249-2.702-7.887c-0.529,0.591-1.055,1.187-1.554,1.802c6.19,16.46,11.375,33.265,16.506,50.091h1.129
	C113.465,519.214,110.578,499.736,108.547,480.149z M97.949,491.203c-1.213,1.76-2.298,3.604-3.248,5.514
	c2.166,4.088,4.322,8.182,6.307,12.36c0.85,1.79-1.817,3.357-2.67,1.561c-1.658-3.49-3.43-6.921-5.225-10.34
	c-0.401,1.035-0.764,2.086-1.081,3.153c6.496,11.304,12.498,22.879,18.558,34.425c0.089,0.169,0.18,0.336,0.269,0.505h2.574
	C108.609,522.537,103.715,506.719,97.949,491.203z M136.581,470.654c-0.211-0.004-0.421-0.016-0.632-0.016
	c-3.675-0.008-7.317,0.49-10.85,1.417c-0.891,12.198-1.377,24.402-0.235,36.64c0.185,1.984-2.909,1.965-3.092,0
	c-1.112-11.918-0.68-23.806,0.166-35.685c-3.685,1.261-7.216,2.99-10.495,5.117c2.053,20.271,4.997,40.43,9.474,60.255h7.183
	C127.557,515.751,132.217,493.177,136.581,470.654z M159.319,522.474c3.411-8.87,6.807-17.8,10.98-26.345
	c0.997-2.041,2.025-4.084,3.034-6.139c-0.475-0.625-0.964-1.238-1.469-1.839c-1.394,2.611-2.764,5.235-4.089,7.884
	c-4.557,9.109-8.694,18.403-12.833,27.706c-2.083,4.683-4.458,9.595-6.72,14.639h5.19
	C155.332,533.061,157.289,527.754,159.319,522.474z M150.784,494.409c2.23-6.001,4.611-11.94,7.129-17.818
	c-2.478-1.389-5.076-2.547-7.75-3.474c-3.117,9.239-5.858,18.586-7.523,28.236c-0.338,1.96-3.317,1.124-2.982-0.822
	c1.671-9.683,4.425-19.063,7.556-28.332c-2.487-0.679-5.029-1.155-7.604-1.387c-4.385,22.466-9.06,45.014-8.461,67.57h5.906
	C140.291,523.344,145.51,508.599,150.784,494.409z M151.726,523.402c4.625-10.326,9.188-20.666,14.304-30.763
	c1.18-2.329,2.408-4.63,3.651-6.922c-0.687-0.718-1.396-1.415-2.125-2.09c-2.235,3.608-4.475,7.213-6.853,10.731
	c-1.109,1.642-3.787,0.092-2.67-1.561c2.485-3.678,4.822-7.45,7.159-11.222c-1.478-1.208-3.021-2.337-4.623-3.372
	c-2.4,5.619-4.673,11.295-6.804,17.029c-5.172,13.916-10.323,28.392-13.552,43.15h4.67
	C147.162,533.223,149.578,528.198,151.726,523.402z M182.707,518.094c0.053-3.658-0.314-7.322-1.155-10.91
	c-0.039-0.164-0.086-0.326-0.127-0.49c-4.423,5.045-8.256,10.467-10.487,16.754c-0.662,1.865-3.648,1.057-2.982-0.822
	c2.614-7.367,7.245-13.561,12.482-19.338c-1.238-3.674-2.96-7.171-5.076-10.418c-4.573,9.307-8.55,18.781-12.299,28.453
	c-2.194,5.66-4.302,11.352-6.367,17.059h9.064C171.014,531.325,176.879,524.632,182.707,518.094z M237.903,525.201l-6.026,0.323
	l-1.362,0.073c0,0-1.296,3.43-2.201,7.503c-0.682-0.339-1.413-0.599-2.19-0.76l-6.811-1.408c-3.531-0.73-7.633-1.886-9.481-4.864
	l-3.466-5.695l-0.939,0.687l-3.513,2.57c-1.21,0.885-2.629,1.401-4.06,1.477l-6.09,0.323l-1.376,0.073c0,0-3.804,6.709-5.34,12.508
	l47.627,0.112l0,0l42.476,0.1l-0.269-0.466c-1.59-2.747-4.308-4.71-7.363-5.319l-7.073-1.409c-3.667-0.73-7.984-1.887-10.389-4.867
	l-4.533-5.698l-0.81,0.688l-3.03,2.571C240.64,524.609,239.319,525.125,237.903,525.201z M287.611,288.218
	c-1.685,2.86-3.541,5.876-5.842,9.257c-1.051,1.544-2.193,3.163-3.452,4.877c-1.644,2.237-5.308,5.373-8.113,7.592
	c-0.842,1.381-1.996,2.538-3.46,3.233c-4.798,2.278-12.881-7.145-16.855-10.668c-0.314-0.278-0.613-0.571-0.923-0.854
	c-0.538,20.855,1.621,43.326,4.268,59.88c-0.614,0.392-1.242,0.762-1.877,1.122c-15.351,8.706-36.455,8.319-53.787,5.291
	c-1.359-0.237-2.697-0.489-4.005-0.756c-0.152-12.196-0.746-23.878-1.199-35.222c-8.168-10.045-14.689-14.904-24.575-27.982
	c-1.798-2.379-3.923-7.287-5.24-10.662c-0.057-0.097-0.128-0.183-0.18-0.283c-0.187-0.358-0.3-0.74-0.361-1.137
	c-0.004-0.011-0.009-0.025-0.013-0.036l0.008-0.002c-0.695-4.831,7.271-12.295,10.374-16.081
	c1.963-2.395,20.488-19.119,33.949-31.16c-0.003,0.074,0,0.148-0.002,0.222c2.05-1.944,4.408-3.449,7.163-4.408
	c0.167-0.058,0.345-0.095,0.513-0.149c0.503-1.644,1.196-3.23,2.094-4.697c1.324-0.221,2.66-0.356,3.998-0.422
	c6.637-0.325,13.34,1.24,19.136,4.477c1.546,0.864,3.03,1.842,4.428,2.939c0.406,1.666,0.685,3.436,0.896,5.207
	c2.453,2.213,4.638,4.818,6.37,7.861c0.161,0.284,0.321,0.57,0.478,0.86c0.454,0.836,0.823,1.713,1.128,2.611
	c4.789,8.174,9.617,17.163,13.375,25.589c1.871-1.737,3.765-3.449,5.675-5.144c2.609-2.315,5.25-4.595,7.93-6.829
	c4.622-3.852,9.346-7.581,14.167-11.181c0.11,0.167,0.232,0.348,0.345,0.519l-0.001,0.002l0.289,0.432
	c0.433,0.651,0.874,1.312,1.33,1.991c0.25,0.372,0.496,0.74,0.748,1.114l1.924,2.876c0.228,0.342,0.463,0.694,0.68,1.023
	c-0.236,0.337-0.453,0.661-0.679,0.991C293.92,276.916,291.145,282.22,287.611,288.218z M192.497,290.241
	c-2.108,1.069-4.188,2.073-6.218,2.993c1.933,3.791,3.79,7.619,5.579,11.48C191.931,299.856,192.128,295.036,192.497,290.241z"></path>
</svg>