<?xml version="1.0" standalone="no"?>
<svg version="1.1" id="Layer_1" xmlns="http://www.w3.org/2000/svg" xmlns:xlink="http://www.w3.org/1999/xlink" x="0px" y="0px" viewBox="0 0 595.276 595.276" enable-background="new 0 0 595.276 595.276" xml:space="preserve">
<path id="color_x5F_7" fill="#263238" d="M532.37,538.381h-93.5v-68.826v-0.911v-88.939v-0.915c0-0.085-0.006-0.164-0.007-0.248
	c-0.011-0.8-0.076-1.544-0.182-2.194h11.344v-4.766h-5.604h-1.099h-33.168l9.901-42.679h-1.888h-63.559h-1.888l-5.598,24.133
	l-2.624,11.311l-0.982,4.235h-30.07l-0.696,3h-4.054h-29.484H256.79h-47.25v4.766h7.208c-0.117,0.719-0.189,1.547-0.189,2.442
	v98.353v0.897v60.34h-41.591h-5.514h-16.539h-5.708H81.715c-1.968,0-3.563,1.595-3.563,3.563s1.595,3.562,3.563,3.562H532.37
	c1.968,0,3.562-1.595,3.562-3.562S534.337,538.381,532.37,538.381z M436.393,376.349c-0.117,0.719-0.189,1.547-0.189,2.442v2.963
	v0.439v88.208v0.891v67.089h-55.107v-21.687v-0.433V496.5v-0.729v-69.553v-0.583v-46.844c0-0.895-0.072-1.723-0.189-2.442H436.393z
	 M309.799,376.349h68.82c-0.117,0.719-0.189,1.547-0.189,2.442v117.76v0.722v18.06v2.147v20.902h-51.086
	c0.27-0.157,0.417-0.316,0.417-0.479c0-5.996-4.861-10.857-10.857-10.857h-7.918l2.211,6.665l4.224,4.781l-11.248-2.582
	l-6.223-8.864h-6.453l-1.839,5.533l-1.81-0.415l1.85-18.933l0.012,0.019c0.087-1.357,0.667-2.699,1.733-3.74v-6.4v-0.67v-66.046
	v-0.302v-1.99h15.901c1.105-2.684,2.39-5.294,3.818-7.833c-8.589,0.05-18.614-0.465-28.071-2.342
	c-2.12-0.421-4.151-1.035-6.091-1.805v-31.104v-12.225c0-0.895-0.072-1.723-0.189-2.442h2.4H309.799z M281.556,434.1h3.054h0.192
	v0.05v0.955v66.305v0.673v24.962h-7.803v-26.426v-0.685V434.1H281.556z M219.225,479.508v-0.864v-99.853
	c0-0.895-0.072-1.723-0.189-2.442h36.541h18.945c-0.117,0.719-0.189,1.547-0.189,2.442v11.813v30.324
	c-3.892-1.942-7.331-4.569-10.182-7.708h-11.633c-5.766,0-10.44,4.674-10.44,10.44s4.674,10.44,10.44,10.44h21.815v65.254v0.699
	v26.991h-14.992c-5.996,0-10.857,4.861-10.857,10.857c0,0.163,0.146,0.323,0.417,0.479h-29.675V479.508z M259.244,363.503h-8.933
	c-6.09,0-11.027-4.937-11.027-11.027V329.49c0-6.09,4.937-11.027,11.027-11.027h6.653c1.696,6.336,3.385,10.717,4.984,16.064
	c0.746,3.102,1.48,6.26,2.181,9.557C264.348,349.38,261.95,355.276,259.244,363.503z"></path>
<path id="color_x5F_6" fill="#C5CAE9" d="M374.701,251.561c0.189,0.103,0.381,0.199,0.573,0.297
	C375.083,251.76,374.89,251.664,374.701,251.561z M388.773,254.408c0.296-0.03,0.59-0.069,0.883-0.11
	C389.362,254.338,389.069,254.378,388.773,254.408z M389.953,254.26c0.337-0.05,0.67-0.11,1.003-0.175
	C390.623,254.15,390.289,254.21,389.953,254.26z M392.202,253.813c-0.36,0.09-0.723,0.172-1.09,0.245
	C391.478,253.985,391.841,253.902,392.202,253.813z M384.711,254.468c0.539,0.037,1.082,0.061,1.63,0.061
	C385.793,254.529,385.25,254.504,384.711,254.468z M386.341,205.96c-13.412,0-24.285,10.873-24.285,24.285
	c0,9.194,5.11,17.194,12.645,21.317c-0.006-0.023-0.012-0.044-0.018-0.067c-0.695-2.671-1.542-5.7-1.695-8.603
	c-1.105-1.284-1.748-2.979-1.398-4.615c0.435-2.037,2.266-3.598,2.55-5.661c0.259-1.883-0.823-3.649-1.51-5.421
	c-1.992-5.14-0.452-11.446,3.685-15.089c4.156-3.659,10.927-3.903,16.248-3.64c6.005,0.297,6.93,6.046,5.769,11.113
	c-0.489,2.133-1.088,4.3-0.851,6.476c0.347,3.188,2.447,5.986,2.769,9.177c0.359,3.565-1.684,6.964-4.621,9.096
	c1.99,3.37,0.947,5.743-0.089,8.393c-1.063,0.435-2.163,0.798-3.294,1.082c10.557-2.638,18.379-12.183,18.379-23.558
	C410.626,216.832,399.753,205.96,386.341,205.96z M382.819,254.272c0.519,0.075,1.044,0.13,1.573,0.173
	c-1.186-0.094-2.347-0.273-3.479-0.532C381.539,254.056,382.174,254.178,382.819,254.272z M380.764,253.878
	c-1.928-0.454-3.767-1.136-5.488-2.019C376.997,252.742,378.836,253.425,380.764,253.878z M387.569,254.498
	c0.216-0.011,0.43-0.031,0.645-0.048C387.999,254.466,387.785,254.487,387.569,254.498z M408.844,262.378h-45.005
	c-0.984,0-1.782,0.798-1.782,1.782c0,0.984,0.798,1.782,1.782,1.782h45.005c0.984,0,1.782-0.798,1.782-1.782
	C410.626,263.176,409.828,262.378,408.844,262.378z M408.844,270.202h-45.005c-0.984,0-1.782,0.798-1.782,1.782
	c0,0.984,0.798,1.782,1.782,1.782h45.005c0.984,0,1.782-0.798,1.782-1.782C410.626,271,409.828,270.202,408.844,270.202z
	 M408.844,278.026h-45.005c-0.984,0-1.782,0.798-1.782,1.782s0.798,1.782,1.782,1.782h45.005c0.984,0,1.782-0.798,1.782-1.782
	S409.828,278.026,408.844,278.026z M408.844,285.85h-45.005c-0.984,0-1.782,0.798-1.782,1.782s0.798,1.782,1.782,1.782h45.005
	c0.984,0,1.782-0.798,1.782-1.782S409.828,285.85,408.844,285.85z M447.457,210.161h17.928c0.984,0,1.782-0.798,1.782-1.782
	s-0.798-1.782-1.782-1.782h-17.928c-0.984,0-1.782,0.798-1.782,1.782S446.473,210.161,447.457,210.161z M515.385,214.764h-67.928
	c-0.984,0-1.782,0.798-1.782,1.782s0.798,1.782,1.782,1.782h67.928c0.984,0,1.782-0.798,1.782-1.782
	S516.369,214.764,515.385,214.764z M445.676,231.775c0,0.984,0.798,1.782,1.782,1.782h17.928c0.984,0,1.782-0.798,1.782-1.782
	s-0.798-1.782-1.782-1.782h-17.928C446.473,229.993,445.676,230.791,445.676,231.775z M515.385,238.16h-67.928
	c-0.984,0-1.782,0.798-1.782,1.782c0,0.984,0.798,1.782,1.782,1.782h67.928c0.984,0,1.782-0.798,1.782-1.782
	C517.167,238.958,516.369,238.16,515.385,238.16z M445.676,255.172c0,0.984,0.798,1.782,1.782,1.782h17.928
	c0.984,0,1.782-0.798,1.782-1.782c0-0.984-0.798-1.782-1.782-1.782h-17.928C446.473,253.39,445.676,254.188,445.676,255.172z
	 M515.385,261.557h-67.928c-0.984,0-1.782,0.798-1.782,1.782c0,0.984,0.798,1.782,1.782,1.782h67.928
	c0.984,0,1.782-0.798,1.782-1.782C517.167,262.355,516.369,261.557,515.385,261.557z M445.676,278.568
	c0,0.984,0.798,1.782,1.782,1.782h17.928c0.984,0,1.782-0.798,1.782-1.782c0-0.984-0.798-1.782-1.782-1.782h-17.928
	C446.473,276.786,445.676,277.584,445.676,278.568z M515.385,284.953h-67.928c-0.984,0-1.782,0.798-1.782,1.782v0
	c0,0.984,0.798,1.782,1.782,1.782h67.928c0.984,0,1.782-0.798,1.782-1.782v0C517.167,285.751,516.369,284.953,515.385,284.953z"></path>
<path id="color_x5F_5" fill="#FFD2BB" d="M297.449,493.705l10.612,2.887l-3.298,9.567l3.646,19.146l-5.287,0.126l-9.637-9.187
	l0.894-9.561l0,0v0l1.676-1.608L297.449,493.705z M348.514,496.855l-0.673,2.223l3.905,8.773l12.902,3.287l4.547-2.7l-6.287-7.461
	l-0.496-0.589l-5.776-6.854l-1.812-9.956l-10.666,2.683L348.514,496.855z M286.633,274.682h3.969c3.756,0,8.828-5.023,8.828-11.237
	l2.425-26.905c-2.777,5.586-7.649,10.317-12.93,13.9c-4.621,3.136-9.71,5.229-15.001,6.325l-2.9,2.308c0,1.14,0.13,2.249,0.362,3.32
	l-0.141-0.015l-0.953,14.141l-0.039,0.579c4.394,2.6,8.147,6.592,11.516,11.097l1.755,0.185l0.423-6.273l0.512-7.593
	C285.171,274.613,285.893,274.682,286.633,274.682z M295.671,347.516c-6.384-1.738-12.549-3.355-17.177-4.115
	c-2.376-14.412-3.369-24.107-5.745-38.518c-6.967-4.825-12.762-5.401-17.435-0.793c1.877,11.597,4.31,20.779,6.634,30.438
	c0.746,3.102,1.48,6.26,2.181,9.557c0.758,3.564,1.479,7.289,2.13,11.315c10.115,3.265,19.244,3.898,29.288,4.184
	c3.446,0.098,7.01,0.158,10.749,0.266c3.825,0.111,7.847,0.28,12.143,0.596c0.413,1.263,1.411,2.262,2.693,2.663
	c3.334,1.041,6.687-0.127,10.204-1.724c1.713,0.097,3.409,0.436,5.088,0.864c0.43,0.673,1.045,1.224,1.798,1.561
	c1.989,0.888,4.085,0.923,6.274,0.539l2.624-11.311c-0.588-0.031-1.172-0.032-1.743,0.032c-2.761-0.342-5.565-0.259-8.318,0.242
	c-2.157-1.123-4.727-1.901-7.206-1.973c-4.7-1.757-9.968-3.925-15.094-5.99c-4.037-1.626-7.976-3.183-11.489-4.431
	c0.411,2.983,0.86,5.998,1.339,9.035C301.67,349.162,298.648,348.326,295.671,347.516z M387.57,232.987h1.711
	c1.619,0,3.805-2.165,3.805-4.844l1.045-11.598c-1.197,2.408-3.297,4.447-5.573,5.992c-1.992,1.352-4.186,2.254-6.466,2.726
	l-1.25,0.995c0,0.492,0.056,0.969,0.156,1.431l-0.061-0.006l-0.411,6.095l-0.017,0.25c1.894,1.121,3.512,2.841,4.964,4.783
	l0.756,0.08l0.182-2.704l0.221-3.273C386.94,232.957,387.252,232.987,387.57,232.987z M381.585,246.005
	c-3.003-2.08-5.501-2.328-7.516-0.342c0.362,2.238,0.773,4.264,1.206,6.196c0,0,0,0,0,0c1.721,0.883,3.56,1.565,5.488,2.019
	c0.049,0.012,0.099,0.023,0.148,0.034c0.627,0.143,1.262,0.266,1.906,0.359C382.457,251.685,382.095,249.097,381.585,246.005z"></path>
<path id="color_x5F_4" fill="#7dcfb6" d="M525.44,192.321h-15.523h-0.865h-82.163h-1.27h-80.217v107.012h73.305l-6.12,26.895
	l24.264-26.895h88.589v-66.374v-2.489V192.321z M447.457,206.597h17.928c0.984,0,1.782,0.798,1.782,1.782s-0.798,1.782-1.782,1.782
	h-17.928c-0.984,0-1.782-0.798-1.782-1.782S446.473,206.597,447.457,206.597z M465.385,229.993c0.984,0,1.782,0.798,1.782,1.782
	s-0.798,1.782-1.782,1.782h-17.928c-0.984,0-1.782-0.798-1.782-1.782s0.798-1.782,1.782-1.782H465.385z M465.385,253.39
	c0.984,0,1.782,0.798,1.782,1.782c0,0.984-0.798,1.782-1.782,1.782h-17.928c-0.984,0-1.782-0.798-1.782-1.782
	c0-0.984,0.798-1.782,1.782-1.782H465.385z M465.385,276.786c0.984,0,1.782,0.798,1.782,1.782c0,0.984-0.798,1.782-1.782,1.782
	h-17.928c-0.984,0-1.782-0.798-1.782-1.782c0-0.984,0.798-1.782,1.782-1.782H465.385z M408.844,289.414h-45.005
	c-0.984,0-1.782-0.798-1.782-1.782s0.798-1.782,1.782-1.782h45.005c0.984,0,1.782,0.798,1.782,1.782
	S409.828,289.414,408.844,289.414z M408.844,281.59h-45.005c-0.984,0-1.782-0.798-1.782-1.782s0.798-1.782,1.782-1.782h45.005
	c0.984,0,1.782,0.798,1.782,1.782S409.828,281.59,408.844,281.59z M408.844,273.766h-45.005c-0.984,0-1.782-0.798-1.782-1.782
	c0-0.984,0.798-1.782,1.782-1.782h45.005c0.984,0,1.782,0.798,1.782,1.782C410.626,272.968,409.828,273.766,408.844,273.766z
	 M408.844,265.942h-45.005c-0.984,0-1.782-0.798-1.782-1.782c0-0.984,0.798-1.782,1.782-1.782h45.005
	c0.984,0,1.782,0.798,1.782,1.782C410.626,265.144,409.828,265.942,408.844,265.942z M392.247,253.802
	c-0.015,0.004-0.03,0.007-0.045,0.01c-0.36,0.089-0.723,0.172-1.09,0.245c-0.052,0.01-0.105,0.018-0.157,0.028
	c-0.332,0.064-0.666,0.124-1.003,0.175c-0.098,0.015-0.198,0.024-0.297,0.038c-0.293,0.04-0.586,0.08-0.883,0.11
	c-0.185,0.019-0.373,0.028-0.559,0.042c-0.215,0.016-0.428,0.037-0.645,0.048c-0.407,0.02-0.816,0.031-1.228,0.031
	c-0.548,0-1.091-0.025-1.63-0.061c-0.107-0.007-0.213-0.016-0.32-0.024c-1.186-0.094-2.347-0.273-3.479-0.532
	c-0.049-0.011-0.099-0.023-0.148-0.034c-1.929-0.453-3.767-1.136-5.488-2.019c0,0,0,0,0,0c-0.001,0-0.001-0.001-0.002-0.001
	c-0.192-0.098-0.384-0.194-0.573-0.297c0,0,0,0,0,0l0,0c-7.534-4.123-12.645-12.122-12.645-21.317
	c0-13.412,10.873-24.285,24.285-24.285c13.412,0,24.285,10.873,24.285,24.285C410.626,241.619,402.804,251.164,392.247,253.802z
	 M517.167,286.735c0,0.984-0.798,1.782-1.782,1.782h-67.928c-0.984,0-1.782-0.798-1.782-1.782v0c0-0.984,0.798-1.782,1.782-1.782
	h67.928C516.369,284.953,517.167,285.751,517.167,286.735L517.167,286.735z M515.385,265.121h-67.928
	c-0.984,0-1.782-0.798-1.782-1.782c0-0.984,0.798-1.782,1.782-1.782h67.928c0.984,0,1.782,0.798,1.782,1.782
	C517.167,264.323,516.369,265.121,515.385,265.121z M515.385,241.724h-67.928c-0.984,0-1.782-0.798-1.782-1.782
	c0-0.984,0.798-1.782,1.782-1.782h67.928c0.984,0,1.782,0.798,1.782,1.782C517.167,240.926,516.369,241.724,515.385,241.724z
	 M515.385,218.328h-67.928c-0.984,0-1.782-0.798-1.782-1.782s0.798-1.782,1.782-1.782h67.928c0.984,0,1.782,0.798,1.782,1.782
	S516.369,218.328,515.385,218.328z"></path>
<path id="color_x5F_3" fill="#00b2ca" d="M252.803,297.658c-2.565-2.979-4.055-6.91-3.244-10.707
	c1.01-4.726,5.258-8.346,5.916-13.133c0.601-4.368-1.91-8.465-3.503-12.576c-4.621-11.923-1.048-26.553,8.55-35.004
	c9.641-8.489,25.35-9.055,37.694-8.444c13.93,0.69,16.078,14.026,13.384,25.781c-1.134,4.949-2.523,9.976-1.974,15.023
	c0.805,7.395,5.678,13.888,6.424,21.289c0.834,8.27-3.906,16.157-10.72,21.102c-1.145-1.94-2.719-4.02-4.839-6.29
	c-2.089-2.236-5.091-4.802-8.478-7.292c-2.54-1.868-5.301-3.69-8.067-5.299l0.512-7.593c0.712,0.1,1.434,0.169,2.174,0.169h3.969
	c3.756,0,8.828-5.023,8.828-11.237l2.425-26.905c-2.777,5.586-7.649,10.317-12.93,13.9c-4.621,3.136-9.71,5.229-15.001,6.325
	l-2.9,2.308c0,1.14,0.13,2.249,0.362,3.32l-0.141-0.015l-0.953,14.141c-1.712-0.298-3.463-0.45-5.166-0.28
	c-1.079,0.108-2.138,0.333-3.151,0.743c-4.332,1.754-6.896,6.285-8.211,10.771C252.849,290.878,252.622,294.231,252.803,297.658z
	 M373.402,238.621c0.567-1.933,1.672-3.887,3.539-4.643c0.437-0.177,0.893-0.274,1.358-0.32c0.734-0.073,1.489-0.008,2.227,0.121
	l0.411-6.095l0.061,0.006c-0.1-0.462-0.156-0.94-0.156-1.431l1.25-0.995c2.281-0.472,4.474-1.375,6.466-2.726
	c2.276-1.545,4.377-3.584,5.573-5.992l-1.045,11.598c0,2.679-2.186,4.844-3.805,4.844h-1.711c-0.319,0-0.63-0.03-0.937-0.073
	l-0.221,3.273c1.192,0.694,2.382,1.479,3.477,2.284c1.46,1.073,2.754,2.179,3.654,3.143c0.914,0.979,1.592,1.875,2.086,2.711
	c2.937-2.132,4.98-5.531,4.621-9.096c-0.322-3.19-2.422-5.989-2.769-9.177c-0.237-2.176,0.362-4.343,0.851-6.476
	c1.161-5.067,0.235-10.816-5.769-11.113c-5.321-0.263-12.092-0.019-16.248,3.64c-4.137,3.643-5.677,9.949-3.685,15.089
	c0.687,1.772,1.769,3.538,1.51,5.421c-0.284,2.064-2.115,3.624-2.55,5.661c-0.35,1.636,0.293,3.331,1.398,4.615
	C372.91,241.414,373.007,239.969,373.402,238.621z"></path>
<path id="color_x5F_2" fill="#f79256" d="M438.87,378.791c0-0.085-0.006-0.164-0.007-0.248c0.082,0.007,0.163,0.027,0.233,0.079
	c0.206,0.151,0.252,0.439,0.102,0.645c-0.108,0.148-0.22,0.292-0.328,0.439V378.791z M425.981,191.359
	c-0.178-0.183-0.47-0.188-0.653-0.011c-0.183,0.178-0.188,0.47-0.011,0.653c0.102,0.105,0.2,0.214,0.301,0.319h1.27
	C426.585,192.001,426.288,191.676,425.981,191.359z M444.927,370.796c0.135-0.216,0.069-0.501-0.146-0.637
	c-0.216-0.135-0.501-0.07-0.637,0.146c-0.269,0.43-0.55,0.851-0.823,1.277h1.099C444.587,371.319,444.761,371.06,444.927,370.796z
	 M460.041,337.399c0.197,0,0.379-0.126,0.44-0.324c0.372-1.181,0.727-2.367,1.068-3.559c0.07-0.245-0.071-0.5-0.317-0.571
	c-0.249-0.076-0.501,0.071-0.571,0.317c-0.339,1.185-0.693,2.364-1.061,3.537c-0.077,0.243,0.059,0.502,0.302,0.578
	C459.949,337.393,459.995,337.399,460.041,337.399z M185.828,348.809c-0.235,0.098-0.347,0.369-0.249,0.604
	c0.475,1.141,0.964,2.275,1.467,3.401c0.077,0.171,0.245,0.273,0.422,0.273c0.063,0,0.127-0.013,0.188-0.04
	c0.233-0.105,0.337-0.378,0.233-0.611c-0.5-1.119-0.986-2.246-1.458-3.379C186.335,348.822,186.064,348.715,185.828,348.809z
	 M190.03,358.057c-0.228,0.115-0.32,0.392-0.206,0.62c0.554,1.106,1.121,2.203,1.702,3.293c0.083,0.156,0.243,0.244,0.408,0.244
	c0.073,0,0.147-0.017,0.217-0.054c0.225-0.12,0.31-0.4,0.19-0.625c-0.577-1.082-1.141-2.173-1.692-3.271
	C190.536,358.035,190.259,357.944,190.03,358.057z M183.56,243.845c0.189,0,0.366-0.116,0.434-0.304
	c0.422-1.162,0.857-2.317,1.308-3.465c0.093-0.238-0.024-0.505-0.261-0.598c-0.237-0.092-0.505,0.023-0.598,0.261
	c-0.453,1.155-0.893,2.318-1.317,3.488c-0.087,0.239,0.037,0.505,0.277,0.592C183.455,243.836,183.508,243.845,183.56,243.845z
	 M187.378,234.377c0.177,0,0.346-0.102,0.422-0.274c0.502-1.128,1.018-2.249,1.548-3.362c0.109-0.23,0.012-0.506-0.219-0.616
	c-0.231-0.108-0.505-0.011-0.615,0.219c-0.533,1.121-1.052,2.249-1.558,3.384c-0.103,0.233,0.001,0.506,0.234,0.61
	C187.252,234.364,187.316,234.377,187.378,234.377z M182.282,339.281c-0.242,0.081-0.372,0.343-0.291,0.584
	c0.395,1.176,0.805,2.346,1.23,3.507c0.068,0.187,0.245,0.303,0.434,0.303c0.053,0,0.106-0.009,0.158-0.028
	c0.24-0.088,0.363-0.353,0.276-0.593c-0.422-1.154-0.829-2.315-1.222-3.484C182.785,339.329,182.524,339.2,182.282,339.281z
	 M175.025,279.403c-0.115,1.23-0.214,2.465-0.298,3.704c-0.017,0.254,0.175,0.474,0.43,0.492c0.01,0,0.021,0.001,0.032,0.001
	c0.241,0,0.444-0.187,0.46-0.431c0.083-1.231,0.182-2.458,0.297-3.681c0.023-0.254-0.163-0.479-0.417-0.503
	C175.276,278.962,175.049,279.149,175.025,279.403z M174.429,289.6c-0.029,1.186-0.043,2.376-0.043,3.569v0.146
	c0,0.255,0.207,0.462,0.462,0.462c0.255,0,0.462-0.207,0.462-0.462v-0.146c0-1.185,0.014-2.368,0.043-3.546
	c0.006-0.255-0.196-0.467-0.451-0.473C174.642,289.135,174.435,289.345,174.429,289.6z M194.87,366.995
	c-0.219,0.131-0.292,0.414-0.162,0.633c0.63,1.065,1.274,2.12,1.93,3.167c0.088,0.14,0.238,0.216,0.392,0.216
	c0.084,0,0.169-0.023,0.245-0.07c0.216-0.135,0.281-0.42,0.146-0.637c-0.652-1.04-1.291-2.09-1.918-3.148
	C195.374,366.939,195.091,366.866,194.87,366.995z M206.366,383.767c-0.199,0.159-0.232,0.449-0.073,0.648
	c0.773,0.969,1.557,1.926,2.353,2.873c0.091,0.109,0.222,0.165,0.354,0.165c0.105,0,0.21-0.035,0.297-0.108
	c0.195-0.164,0.221-0.456,0.056-0.65c-0.791-0.942-1.571-1.893-2.338-2.855C206.856,383.639,206.566,383.607,206.366,383.767z
	 M203.028,207.732c0.725-0.997,1.462-1.984,2.211-2.962c0.155-0.202,0.117-0.492-0.086-0.648c-0.202-0.155-0.492-0.116-0.648,0.086
	c-0.754,0.984-1.495,1.977-2.224,2.981c-0.15,0.206-0.104,0.495,0.102,0.645c0.082,0.06,0.177,0.088,0.271,0.088
	C202.797,207.923,202.938,207.857,203.028,207.732z M191.85,225.205c0.165,0,0.325-0.089,0.408-0.245
	c0.58-1.09,1.173-2.171,1.779-3.244c0.126-0.222,0.047-0.504-0.174-0.63c-0.222-0.124-0.504-0.047-0.629,0.175
	c-0.611,1.08-1.207,2.168-1.79,3.264c-0.12,0.225-0.034,0.505,0.191,0.625C191.703,225.188,191.777,225.205,191.85,225.205z
	 M209.283,199.728c0.791-0.943,1.595-1.877,2.409-2.8c0.169-0.191,0.151-0.483-0.041-0.652c-0.19-0.168-0.482-0.15-0.652,0.041
	c-0.819,0.929-1.627,1.867-2.424,2.817c-0.164,0.195-0.138,0.487,0.057,0.651c0.087,0.072,0.192,0.108,0.296,0.108
	C209.061,199.893,209.192,199.837,209.283,199.728z M200.325,375.578c-0.21,0.145-0.263,0.433-0.118,0.643
	c0.703,1.019,1.419,2.028,2.146,3.028c0.091,0.125,0.231,0.19,0.374,0.19c0.094,0,0.189-0.029,0.271-0.088
	c0.206-0.151,0.252-0.439,0.101-0.645c-0.723-0.994-1.434-1.996-2.133-3.01C200.822,375.486,200.534,375.434,200.325,375.578z
	 M175.668,303.462c-0.085-1.225-0.156-2.454-0.211-3.687c-0.012-0.255-0.231-0.462-0.482-0.441
	c-0.255,0.011-0.452,0.227-0.441,0.482c0.055,1.241,0.127,2.478,0.212,3.709c0.017,0.244,0.22,0.43,0.46,0.43
	c0.011,0,0.022,0,0.032-0.001C175.494,303.937,175.686,303.716,175.668,303.462z M196.951,216.373c0.154,0,0.304-0.077,0.392-0.217
	c0.654-1.046,1.32-2.082,2-3.11c0.141-0.213,0.083-0.499-0.13-0.64c-0.213-0.142-0.5-0.083-0.64,0.13
	c-0.684,1.035-1.355,2.078-2.013,3.13c-0.135,0.216-0.069,0.501,0.147,0.636C196.783,216.351,196.868,216.373,196.951,216.373z
	 M372.051,430.306c0.054,0,0.109-0.009,0.162-0.03c1.161-0.436,2.315-0.886,3.462-1.349c0.236-0.096,0.351-0.365,0.255-0.602
	c-0.096-0.236-0.367-0.349-0.602-0.255c-1.14,0.462-2.287,0.908-3.441,1.342c-0.239,0.089-0.36,0.355-0.27,0.594
	C371.689,430.192,371.865,430.306,372.051,430.306z M220.737,398.779c-0.185-0.173-0.477-0.167-0.652,0.018
	c-0.176,0.185-0.168,0.477,0.018,0.653c0.899,0.852,1.809,1.692,2.729,2.522c0.088,0.08,0.199,0.119,0.309,0.119
	c0.126,0,0.252-0.051,0.343-0.152c0.17-0.189,0.156-0.482-0.034-0.652C222.535,400.462,221.631,399.625,220.737,398.779z
	 M352.539,436.102c0.033,0,0.067-0.004,0.1-0.011c1.211-0.269,2.417-0.553,3.617-0.851c0.247-0.061,0.398-0.312,0.336-0.56
	c-0.062-0.248-0.312-0.398-0.56-0.336c-1.191,0.297-2.39,0.579-3.594,0.846c-0.249,0.055-0.406,0.302-0.351,0.551
	C352.136,435.956,352.327,436.102,352.539,436.102z M281.839,434.33c0.983,0.271,1.972,0.524,2.962,0.774v-0.955
	c-0.064-0.016-0.128-0.034-0.192-0.05h-3.054C281.614,434.208,281.712,434.295,281.839,434.33z M362.397,433.548
	c0.043,0,0.088-0.006,0.132-0.019c1.19-0.353,2.372-0.721,3.548-1.104c0.242-0.079,0.375-0.34,0.297-0.582
	c-0.079-0.243-0.34-0.374-0.582-0.297c-1.169,0.381-2.344,0.746-3.526,1.097c-0.244,0.073-0.383,0.329-0.311,0.575
	C362.014,433.418,362.198,433.548,362.397,433.548z M215.815,395.016c0.115,0,0.231-0.043,0.321-0.13
	c0.183-0.177,0.188-0.469,0.011-0.653c-0.855-0.885-1.698-1.779-2.53-2.687c-0.173-0.188-0.466-0.2-0.653-0.028
	c-0.188,0.172-0.201,0.464-0.028,0.652c0.838,0.913,1.687,1.815,2.547,2.705C215.574,394.969,215.694,395.016,215.815,395.016z
	 M305.645,437.864c-1.227-0.127-2.45-0.269-3.668-0.427c-0.248-0.031-0.484,0.147-0.517,0.399c-0.032,0.253,0.146,0.485,0.399,0.518
	c1.226,0.158,2.456,0.301,3.691,0.428c0.016,0.002,0.032,0.003,0.048,0.003c0.01,0,0.018-0.005,0.028-0.005
	c0.089-0.268,0.167-0.54,0.259-0.807C305.818,437.917,305.739,437.874,305.645,437.864z M291.779,436.693
	c1.212,0.243,2.429,0.473,3.652,0.685c0.027,0.005,0.054,0.007,0.08,0.007c0.22,0,0.415-0.158,0.455-0.382
	c0.044-0.251-0.124-0.491-0.376-0.534c-1.215-0.213-2.425-0.44-3.629-0.682c-0.228-0.048-0.444,0.089-0.519,0.302v0.302
	C291.495,436.539,291.614,436.66,291.779,436.693z M180.293,253.534c0.042,0.012,0.085,0.018,0.127,0.018
	c0.201,0,0.386-0.132,0.444-0.335c0.338-1.185,0.69-2.365,1.057-3.538c0.076-0.244-0.059-0.502-0.303-0.579
	c-0.245-0.078-0.503,0.059-0.579,0.303c-0.37,1.181-0.724,2.368-1.065,3.561C179.906,253.208,180.048,253.464,180.293,253.534z
	 M346.637,436.822c-0.035-0.202-0.204-0.347-0.391-0.374l0.155,0.853C346.57,437.209,346.672,437.022,346.637,436.822z
	 M176.269,314.084c0.021,0,0.043-0.002,0.065-0.004c0.253-0.035,0.429-0.269,0.393-0.521c-0.17-1.216-0.326-2.437-0.467-3.663
	c-0.029-0.253-0.258-0.437-0.511-0.406c-0.253,0.029-0.435,0.258-0.406,0.511c0.142,1.233,0.298,2.462,0.47,3.686
	C175.845,313.917,176.042,314.084,176.269,314.084z M176.858,320.103c0.227,1.219,0.47,2.434,0.726,3.644
	c0.046,0.217,0.238,0.366,0.451,0.366c0.032,0,0.064-0.004,0.096-0.01c0.249-0.053,0.409-0.299,0.356-0.547
	c-0.256-1.202-0.496-2.41-0.721-3.622c-0.047-0.251-0.288-0.416-0.538-0.369C176.977,319.61,176.812,319.852,176.858,320.103z
	 M178.89,258.911c-0.247-0.061-0.497,0.094-0.556,0.343c-0.285,1.203-0.556,2.412-0.812,3.626c-0.052,0.249,0.107,0.495,0.357,0.547
	c0.032,0.007,0.064,0.01,0.096,0.01c0.214,0,0.406-0.149,0.451-0.367c0.254-1.207,0.523-2.408,0.806-3.604
	C179.292,259.219,179.139,258.97,178.89,258.911z M236.407,411.687c-0.207-0.147-0.495-0.098-0.644,0.108
	c-0.148,0.208-0.1,0.496,0.108,0.644c1.009,0.719,2.028,1.427,3.055,2.121c0.079,0.054,0.17,0.079,0.258,0.079
	c0.148,0,0.294-0.071,0.383-0.203c0.143-0.212,0.087-0.499-0.124-0.641C238.422,413.104,237.41,412.402,236.407,411.687z
	 M179.407,329.51c-0.247,0.065-0.395,0.317-0.331,0.564c0.312,1.2,0.639,2.395,0.98,3.584c0.058,0.203,0.243,0.335,0.443,0.335
	c0.042,0,0.085-0.005,0.128-0.018c0.245-0.07,0.386-0.326,0.316-0.571c-0.339-1.182-0.664-2.369-0.974-3.563
	C179.907,329.594,179.654,329.448,179.407,329.51z M228.346,405.504c-0.196-0.163-0.488-0.133-0.65,0.062
	c-0.162,0.197-0.134,0.488,0.063,0.65c0.955,0.788,1.922,1.565,2.899,2.328c0.085,0.067,0.185,0.098,0.284,0.098
	c0.137,0,0.273-0.061,0.364-0.178c0.157-0.2,0.121-0.491-0.079-0.648C230.257,407.058,229.297,406.287,228.346,405.504z
	 M452.571,356.391c0.172,0,0.337-0.096,0.417-0.262c0.535-1.12,1.055-2.247,1.562-3.383c0.104-0.234-0.001-0.506-0.234-0.611
	c-0.233-0.102-0.506,0.001-0.611,0.234c-0.503,1.128-1.02,2.249-1.551,3.361c-0.11,0.231-0.013,0.506,0.217,0.616
	C452.436,356.377,452.504,356.391,452.571,356.391z M349.463,150.523c0.03,0.006,0.06,0.009,0.091,0.009
	c0.216,0,0.408-0.151,0.452-0.371c0.051-0.25-0.112-0.493-0.362-0.543c-1.212-0.243-2.43-0.47-3.654-0.682
	c-0.245-0.045-0.49,0.125-0.533,0.376c-0.044,0.251,0.124,0.49,0.376,0.534C347.047,150.055,348.258,150.282,349.463,150.523z
	 M359.339,152.861c0.042,0.011,0.082,0.016,0.123,0.016c0.203,0,0.389-0.134,0.446-0.34c0.068-0.246-0.078-0.5-0.323-0.568
	c-1.194-0.327-2.393-0.639-3.597-0.937c-0.253-0.061-0.498,0.091-0.559,0.338c-0.061,0.247,0.09,0.498,0.337,0.559
	C356.963,152.225,358.154,152.536,359.339,152.861z M456.639,347.029c0.184,0,0.358-0.111,0.429-0.292
	c0.456-1.156,0.896-2.318,1.32-3.487c0.088-0.24-0.036-0.504-0.276-0.592c-0.241-0.086-0.505,0.037-0.592,0.276
	c-0.423,1.162-0.859,2.316-1.311,3.463c-0.094,0.237,0.023,0.506,0.26,0.599C456.525,347.019,456.582,347.029,456.639,347.029z
	 M369.043,155.892c0.05,0.018,0.103,0.026,0.153,0.026c0.19,0,0.369-0.119,0.436-0.309c0.085-0.24-0.042-0.504-0.282-0.588
	c-1.172-0.412-2.349-0.809-3.534-1.191c-0.241-0.078-0.502,0.055-0.581,0.297c-0.078,0.243,0.054,0.503,0.298,0.581
	C366.708,155.088,367.878,155.483,369.043,155.892z M464.859,313.411c-0.17,1.222-0.355,2.439-0.556,3.651
	c-0.042,0.252,0.128,0.49,0.38,0.531c0.026,0.004,0.051,0.006,0.077,0.006c0.221,0,0.417-0.161,0.454-0.386
	c0.203-1.221,0.389-2.445,0.56-3.674c0.035-0.253-0.141-0.486-0.393-0.521C465.135,312.989,464.893,313.158,464.859,313.411z
	 M462.748,327.583c0.209,0,0.399-0.142,0.449-0.354c0.287-1.204,0.558-2.413,0.815-3.627c0.052-0.25-0.106-0.494-0.356-0.548
	c-0.251-0.047-0.494,0.107-0.547,0.356c-0.255,1.207-0.525,2.407-0.81,3.603c-0.06,0.248,0.094,0.497,0.342,0.556
	C462.676,327.58,462.712,327.583,462.748,327.583z M466.023,307.498c0.014,0.002,0.029,0.002,0.044,0.002
	c0.235,0,0.436-0.179,0.459-0.418c0.116-1.231,0.217-2.465,0.302-3.704c0.017-0.254-0.175-0.475-0.429-0.493
	c-0.255-0.012-0.474,0.175-0.492,0.429c-0.085,1.231-0.184,2.457-0.3,3.68C465.583,307.249,465.769,307.474,466.023,307.498z
	 M405.309,174.653c0.144,0,0.286-0.068,0.376-0.194c0.148-0.208,0.099-0.496-0.108-0.644c-1.01-0.719-2.029-1.425-3.058-2.118
	c-0.211-0.141-0.497-0.088-0.641,0.125c-0.143,0.211-0.087,0.498,0.125,0.641c1.022,0.689,2.036,1.391,3.038,2.105
	C405.122,174.625,405.216,174.653,405.309,174.653z M413.4,180.846c0.134,0,0.265-0.057,0.357-0.169
	c0.161-0.197,0.133-0.488-0.064-0.65c-0.957-0.787-1.925-1.562-2.901-2.324c-0.202-0.156-0.492-0.123-0.648,0.08
	c-0.157,0.201-0.121,0.491,0.08,0.648c0.971,0.758,1.932,1.528,2.883,2.31C413.192,180.812,413.296,180.846,413.4,180.846z
	 M421.039,187.585c0.123,0,0.244-0.049,0.335-0.145c0.175-0.185,0.167-0.478-0.018-0.653c-0.9-0.85-1.812-1.691-2.733-2.519
	c-0.187-0.17-0.482-0.155-0.652,0.034c-0.17,0.19-0.155,0.482,0.035,0.652c0.915,0.823,1.82,1.658,2.715,2.503
	C420.811,187.543,420.926,187.585,421.039,187.585z M378.518,159.604c0.06,0.026,0.123,0.038,0.184,0.038
	c0.179,0,0.348-0.104,0.424-0.278c0.101-0.234-0.006-0.506-0.24-0.607c-1.14-0.493-2.286-0.972-3.44-1.437
	c-0.234-0.095-0.506,0.019-0.601,0.256c-0.096,0.237,0.019,0.506,0.256,0.601C376.248,158.638,377.387,159.114,378.518,159.604z
	 M396.559,168.967c0.075,0.046,0.158,0.068,0.241,0.068c0.155,0,0.307-0.078,0.394-0.221c0.133-0.217,0.064-0.502-0.153-0.635
	c-1.058-0.647-2.124-1.281-3.199-1.901c-0.22-0.126-0.503-0.051-0.63,0.169c-0.128,0.221-0.052,0.503,0.169,0.631
	C394.448,167.694,395.509,168.324,396.559,168.967z M387.706,163.97c0.069,0.035,0.141,0.052,0.213,0.052
	c0.167,0,0.327-0.091,0.41-0.249c0.118-0.226,0.03-0.505-0.197-0.623c-1.101-0.571-2.21-1.129-3.328-1.673
	c-0.226-0.11-0.505-0.017-0.617,0.213c-0.112,0.229-0.016,0.506,0.213,0.617C385.51,162.848,386.612,163.402,387.706,163.97z
	 M265.927,158.357c0.058,0,0.117-0.011,0.174-0.034c1.139-0.463,2.285-0.911,3.439-1.345c0.238-0.09,0.359-0.356,0.269-0.595
	c-0.09-0.239-0.355-0.359-0.595-0.269c-1.161,0.437-2.315,0.888-3.461,1.353c-0.236,0.096-0.35,0.365-0.254,0.602
	C265.573,158.248,265.745,158.357,265.927,158.357z M247.921,167.23c1.062-0.616,2.132-1.218,3.21-1.808
	c0.224-0.122,0.306-0.403,0.184-0.626c-0.122-0.224-0.403-0.307-0.626-0.183c-1.085,0.593-2.162,1.2-3.231,1.819
	c-0.221,0.128-0.296,0.41-0.168,0.631c0.086,0.147,0.241,0.23,0.4,0.23C247.768,167.292,247.848,167.273,247.921,167.23z
	 M256.655,162.504c0.068,0,0.138-0.015,0.203-0.047c1.101-0.54,2.21-1.066,3.326-1.578c0.232-0.106,0.334-0.381,0.227-0.612
	c-0.106-0.232-0.38-0.332-0.612-0.227c-1.124,0.516-2.24,1.045-3.348,1.588c-0.229,0.112-0.323,0.389-0.212,0.618
	C256.32,162.409,256.484,162.504,256.655,162.504z M275.493,154.86c0.047,0,0.096-0.007,0.143-0.023
	c1.168-0.381,2.343-0.748,3.524-1.1c0.244-0.073,0.384-0.33,0.311-0.574c-0.073-0.244-0.33-0.384-0.574-0.311
	c-1.189,0.354-2.372,0.723-3.548,1.107c-0.242,0.079-0.375,0.34-0.296,0.582C275.117,154.737,275.298,154.86,275.493,154.86z
	 M216.075,192.18c0.855-0.886,1.72-1.76,2.596-2.624c0.182-0.179,0.184-0.471,0.004-0.653c-0.179-0.182-0.472-0.183-0.653-0.004
	c-0.882,0.869-1.753,1.75-2.613,2.641c-0.177,0.183-0.172,0.476,0.012,0.653c0.09,0.087,0.205,0.129,0.321,0.129
	C215.864,192.321,215.984,192.273,216.075,192.18z M223.372,185.123c0.914-0.824,1.837-1.636,2.771-2.437
	c0.193-0.166,0.216-0.457,0.05-0.651c-0.165-0.193-0.457-0.215-0.651-0.05c-0.939,0.805-1.869,1.623-2.788,2.452
	c-0.189,0.17-0.204,0.463-0.033,0.652c0.091,0.101,0.216,0.152,0.343,0.152C223.174,185.242,223.284,185.203,223.372,185.123z
	 M239.333,172.617c1.017-0.689,2.044-1.365,3.079-2.028c0.215-0.138,0.277-0.423,0.14-0.638c-0.137-0.215-0.424-0.279-0.638-0.14
	c-1.042,0.667-2.075,1.347-3.098,2.041c-0.211,0.143-0.267,0.43-0.124,0.641c0.089,0.132,0.235,0.203,0.383,0.203
	C239.164,172.696,239.254,172.67,239.333,172.617z M231.137,178.591c0.967-0.758,1.944-1.504,2.932-2.238
	c0.205-0.152,0.247-0.441,0.095-0.646c-0.152-0.205-0.441-0.248-0.646-0.095c-0.994,0.739-1.977,1.49-2.951,2.252
	c-0.201,0.157-0.236,0.447-0.079,0.648c0.091,0.116,0.227,0.177,0.364,0.177C230.952,178.69,231.052,178.658,231.137,178.591z
	 M339.443,148.882c0.02,0.002,0.04,0.004,0.06,0.004c0.228,0,0.427-0.17,0.457-0.403c0.032-0.253-0.146-0.484-0.4-0.517
	c-1.226-0.157-2.456-0.299-3.691-0.426c-0.249-0.019-0.48,0.158-0.506,0.413c-0.026,0.253,0.158,0.48,0.412,0.506
	C337.002,148.585,338.225,148.726,339.443,148.882z M315.499,147.79c1.226-0.043,2.455-0.072,3.688-0.086
	c0.255-0.003,0.46-0.212,0.457-0.467c-0.003-0.255-0.199-0.419-0.467-0.457c-1.242,0.014-2.478,0.042-3.711,0.087
	c-0.255,0.009-0.455,0.223-0.445,0.477c0.009,0.249,0.214,0.446,0.461,0.446C315.488,147.791,315.493,147.791,315.499,147.79z
	 M329.337,147.943c0.009,0,0.018,0.001,0.027,0.001c0.244,0,0.446-0.189,0.461-0.435c0.014-0.254-0.179-0.473-0.434-0.487
	c-1.234-0.072-2.471-0.128-3.712-0.168c-0.005,0-0.011,0-0.015,0c-0.248,0-0.454,0.197-0.462,0.446
	c-0.008,0.255,0.192,0.469,0.446,0.477C326.882,147.816,328.112,147.872,329.337,147.943z M447.858,365.438
	c0.161,0,0.317-0.084,0.402-0.234c0.611-1.08,1.209-2.166,1.793-3.262c0.12-0.225,0.034-0.505-0.19-0.625
	c-0.225-0.118-0.504-0.035-0.625,0.19c-0.581,1.089-1.175,2.17-1.782,3.242c-0.125,0.222-0.047,0.503,0.175,0.63
	C447.703,365.419,447.781,365.438,447.858,365.438z M295.32,149.917c1.209-0.213,2.424-0.412,3.644-0.595
	c0.253-0.038,0.426-0.273,0.388-0.525c-0.038-0.252-0.269-0.421-0.525-0.388c-1.227,0.185-2.45,0.385-3.667,0.6
	c-0.251,0.044-0.419,0.284-0.374,0.535c0.039,0.224,0.234,0.381,0.454,0.381C295.266,149.924,295.292,149.922,295.32,149.917z
	 M285.279,152.045c0.037,0,0.075-0.004,0.112-0.014c1.192-0.298,2.39-0.581,3.594-0.85c0.249-0.055,0.406-0.302,0.35-0.551
	c-0.056-0.249-0.301-0.405-0.551-0.35c-1.211,0.27-2.417,0.555-3.616,0.855c-0.248,0.062-0.398,0.313-0.336,0.56
	C284.884,151.905,285.072,152.045,285.279,152.045z M305.372,148.502c1.221-0.129,2.446-0.242,3.677-0.34
	c0.254-0.02,0.444-0.243,0.424-0.497c-0.021-0.254-0.237-0.442-0.497-0.423c-1.238,0.099-2.471,0.213-3.7,0.343
	c-0.254,0.027-0.438,0.254-0.411,0.507c0.025,0.237,0.225,0.414,0.459,0.414C305.34,148.505,305.356,148.504,305.372,148.502z
	 M176.857,268.89c-0.255-0.048-0.49,0.129-0.53,0.38c-0.201,1.22-0.385,2.445-0.556,3.674c-0.035,0.253,0.141,0.486,0.394,0.52
	c0.021,0.003,0.043,0.005,0.064,0.005c0.227,0,0.425-0.167,0.457-0.399c0.169-1.222,0.353-2.439,0.552-3.651
	C177.279,269.168,177.109,268.931,176.857,268.89z M415.612,404.56c0.106,0,0.213-0.036,0.3-0.111c0.941-0.805,1.87-1.623,2.79-2.45
	c0.19-0.171,0.206-0.463,0.035-0.652c-0.171-0.191-0.464-0.206-0.652-0.035c-0.914,0.823-1.839,1.635-2.774,2.435
	c-0.194,0.166-0.216,0.457-0.05,0.651C415.352,404.505,415.482,404.56,415.612,404.56z M436.203,382.193v-0.439
	C436.13,381.894,436.127,382.059,436.203,382.193z M381.441,426.401c0.064,0,0.13-0.013,0.192-0.041
	c1.125-0.514,2.241-1.043,3.35-1.585c0.229-0.112,0.324-0.389,0.212-0.618c-0.113-0.23-0.391-0.322-0.618-0.212
	c-1.101,0.538-2.211,1.063-3.328,1.574c-0.061,0.028-0.111,0.068-0.153,0.115v0.583
	C381.184,426.325,381.304,426.401,381.441,426.401z M407.654,410.904c0.096,0,0.192-0.03,0.275-0.091
	c0.994-0.737,1.979-1.487,2.953-2.249c0.201-0.157,0.237-0.447,0.079-0.648c-0.158-0.204-0.449-0.237-0.648-0.079
	c-0.969,0.757-1.946,1.502-2.935,2.235c-0.205,0.152-0.248,0.441-0.096,0.646C407.373,410.839,407.513,410.904,407.654,410.904z
	 M430.122,390.287c0.127,0,0.254-0.052,0.345-0.156c0.822-0.928,1.631-1.866,2.428-2.816c0.164-0.195,0.139-0.486-0.057-0.65
	c-0.195-0.164-0.486-0.138-0.65,0.057c-0.792,0.942-1.595,1.875-2.412,2.798c-0.17,0.19-0.152,0.483,0.04,0.651
	C429.904,390.249,430.013,390.287,430.122,390.287z M390.527,421.853c0.075,0,0.151-0.018,0.221-0.056
	c1.086-0.593,2.164-1.198,3.232-1.817c0.221-0.127,0.297-0.41,0.169-0.63c-0.128-0.221-0.413-0.298-0.63-0.169
	c-1.063,0.615-2.134,1.217-3.213,1.804c-0.224,0.123-0.307,0.403-0.185,0.627C390.206,421.766,390.364,421.853,390.527,421.853z
	 M399.279,416.678c0.086,0,0.171-0.023,0.249-0.072c1.043-0.666,2.076-1.346,3.101-2.038c0.211-0.142,0.267-0.429,0.124-0.641
	c-0.143-0.211-0.43-0.267-0.641-0.124c-1.017,0.687-2.044,1.363-3.08,2.024c-0.216,0.138-0.279,0.423-0.142,0.638
	C398.977,416.603,399.127,416.678,399.279,416.678z M423.114,397.676c0.117,0,0.234-0.044,0.324-0.133
	c0.883-0.869,1.755-1.749,2.615-2.639c0.178-0.184,0.172-0.476-0.011-0.653c-0.184-0.177-0.477-0.172-0.653,0.011
	c-0.855,0.885-1.722,1.759-2.599,2.623c-0.182,0.179-0.184,0.472-0.005,0.653C422.875,397.63,422.995,397.676,423.114,397.676z
	 M305.626,438.78c-1.493,4.492-2.562,9.126-3.141,13.851l-5.036,41.074l10.612,2.887l18.466-53.563
	c0.569,1.612,1.196,3.254,1.897,4.958l15.735,38.273l10.666-2.683l-8.424-46.275l-0.155-0.853l-5.765-31.67l-0.194-0.194
	l0.082-0.184l-27.621-16.771c-9.816,4.185-23.197,5.108-35.749,3.386v31.104c1.94,0.771,3.972,1.385,6.091,1.805
	c9.458,1.877,19.482,2.392,28.071,2.342c-1.428,2.538-2.713,5.149-3.818,7.833c-0.526,1.276-1.007,2.569-1.458,3.873
	C305.793,438.24,305.715,438.511,305.626,438.78z M255.431,384.795c-1.529,10.65,1.94,20.963,8.719,28.425
	c2.851,3.138,6.29,5.766,10.182,7.708v-30.324C267.425,389.437,260.872,387.469,255.431,384.795z"></path>
<path id="color_x5F_1" fill="#1d4e89" d="M152.915,538.381h-5.708c-3.302-3.447-6.248-7.233-8.737-11.308
	c0.8,0.228,1.606,0.438,2.427,0.609c2.407,0.502,3.436-3.192,1.019-3.696c-2.127-0.444-4.176-1.102-6.189-1.858
	c-1.793-3.585-3.27-7.328-4.387-11.177c2.17,1.342,4.321,2.714,6.424,4.163c2.036,1.403,3.955-1.918,1.935-3.31
	c-3.144-2.166-6.389-4.167-9.654-6.137c-1.329-6.622-1.596-13.445-0.86-20.158c1.827,1.642,3.667,3.27,5.516,4.888
	c1.849,1.619,4.571-1.082,2.711-2.711c-2.542-2.225-5.078-4.456-7.566-6.739c1.032-5.739,2.8-11.345,5.306-16.611
	c5.651,3.607,10.582,8.256,14.578,13.6c-1.901,2.616-3.68,5.317-5.293,8.13c-1.229,2.144,2.082,4.077,3.31,1.935
	c1.327-2.314,2.784-4.537,4.312-6.71c2.91,4.542,5.163,9.501,6.65,14.701c-3.011,3.465-5.802,7.125-8.621,10.759
	c-1.494,1.926,1.2,4.658,2.711,2.711c2.308-2.975,4.596-5.97,7.002-8.86c1.116,5.924,1.07,12.068,0.07,18.092
	c-1.701,1.13-3.389,2.282-5.046,3.478c-1.982,1.43-0.071,4.757,1.935,3.31c0.644-0.465,1.296-0.917,1.948-1.37
	C157.385,529.099,155.415,533.92,152.915,538.381z M181.953,530.737c-0.615,0.147-1.229,0.293-1.841,0.451
	c-1.907,0.492-2.36-2.529-0.475-3.015c1.576-0.407,3.161-0.772,4.75-1.117c2.487-4.178,4.302-8.721,5.192-13.438
	c-2.621,1.446-5.186,3.004-7.76,4.541c-1.685,1.006-2.891-1.801-1.224-2.796c3.144-1.878,6.275-3.783,9.512-5.48
	c0.404-4.287,0.171-8.618-0.671-12.83c-1.763,1.168-3.488,2.395-5.143,3.726c-1.532,1.232-3.427-1.161-1.894-2.394
	c2.011-1.619,4.114-3.106,6.282-4.495c-1.414-5.122-3.724-9.998-6.869-14.311c-3.384,3.179-6.32,6.824-8.749,10.781
	c1.183,2.414,2.417,4.804,3.658,7.19c0.908,1.747-1.893,2.961-2.796,1.225c-0.902-1.736-1.794-3.477-2.674-5.224
	c-2.492,4.765-4.271,9.902-5.205,15.199c1.85,2.408,3.677,4.832,5.381,7.349c1.095,1.618-1.29,3.525-2.394,1.894
	c-1.14-1.684-2.337-3.325-3.557-4.949c-0.287,3.178-0.277,6.382,0.014,9.56c1.274,1.145,2.603,2.227,4.051,3.172
	c1.647,1.074-0.187,3.516-1.827,2.446c-0.559-0.365-1.096-0.755-1.623-1.155c0.689,3.884,1.831,7.681,3.364,11.314h5.514
	C177.542,536.092,179.909,533.533,181.953,530.737z M122.842,369.969c-9.643-24.268-14.95-50.712-14.95-78.374
	c0-40.531,11.39-78.45,31.13-110.733c-0.22-0.122-0.43-0.253-0.633-0.393c-20.273,33.136-31.119,71.295-31.119,111.126
	c0,27.349,5.121,53.907,14.884,78.597C122.377,370.109,122.606,370.035,122.842,369.969z M471.759,140.621
	c-40.327-40.327-93.945-62.536-150.976-62.536s-110.649,22.209-150.975,62.536c-7.949,7.949-15.183,16.422-21.693,25.328
	c0.206,0.144,0.402,0.297,0.59,0.458c38.748-53.115,101.445-87.701,172.078-87.701c81.555,0,152.528,46.108,188.269,113.615h0.865
	C500.013,173.506,487.222,156.084,471.759,140.621z M276.999,500.619c2.588,0.536,5.189,1.023,7.803,1.464v-0.673
	c-2.617-0.448-5.22-0.935-7.803-1.477V500.619z M274.332,499.354c-19.506-4.359-38.014-11.391-55.107-20.71v0.864
	c17.302,9.378,35.816,16.288,55.107,20.545V499.354z M129.901,385.786c-0.21,0.132-0.431,0.251-0.659,0.364
	c10.205,20.626,23.817,39.673,40.565,56.421c14.099,14.099,29.825,25.977,46.752,35.47v-0.897
	C179.299,456.13,148.953,424.24,129.901,385.786z M295.95,503.038c-1.51-0.176-3.008-0.392-4.508-0.6v0.67
	c1.481,0.202,2.965,0.389,4.453,0.561C295.906,503.458,295.926,503.248,295.95,503.038z M381.096,496.5
	c19.466-5.701,37.995-14.169,55.107-25.209v-0.891c-16.882,10.935-35.404,19.539-55.107,25.37V496.5z M471.759,442.571
	c40.326-40.326,62.536-93.945,62.536-150.975c0-21.005-3.029-41.541-8.855-61.125v2.489c5.351,18.635,8.233,38.304,8.233,58.636
	c0,73.735-37.686,138.828-94.803,177.049v0.911C450.572,461.755,461.589,452.741,471.759,442.571z M362.909,500.976
	c5.231-1.041,10.407-2.279,15.521-3.704v-0.722c-5.259,1.481-10.602,2.76-16.017,3.838L362.909,500.976z M303.122,525.431
	l-9.637-9.187l0.894-9.561l0,0l-2.904,2.788c-0.012,0.012-0.02,0.026-0.032,0.038c-1.066,1.041-1.646,2.383-1.733,3.74l-0.012-0.019
	l-1.85,18.933l1.81,0.415l1.839-5.533l2.074-6.237l4.379,6.237l6.223,8.864l11.248,2.582l-4.224-4.781l-2.211-6.665l-0.577-1.739
	L303.122,525.431z M369.196,508.437l-4.547,2.701l-12.902-3.287l-3.905-8.773l-1.159,3.83c-8.492,1.035-17.134,1.579-25.9,1.579
	c-2.72,0-5.427-0.054-8.122-0.156c-0.003,0.203-0.01,0.407-0.025,0.609c2.708,0.101,5.423,0.168,8.147,0.168
	c8.679,0,17.278-0.522,25.764-1.536c-0.227,1.234-0.066,2.46,0.442,3.517l-0.019-0.011l7.664,17.411l1.781-0.525l-2.356-12.178
	l16.642,7.97l7.731-2.277v-2.147l-2.685-0.935L369.196,508.437z M381.096,516.261v0.433l0.674-0.198L381.096,516.261z
	 M308.693,371.582c-0.881-3.948-1.682-7.863-2.397-11.734c-3.739-0.108-7.303-0.168-10.749-0.266
	c-10.044-0.285-19.173-0.919-29.288-4.184c-0.651-4.026-1.372-7.751-2.13-11.315c0.22,5.296-2.178,11.192-4.884,19.419
	c-0.811,2.467-1.649,5.146-2.453,8.079h22.419H308.693z M276.999,378.791v12.225c12.551,1.722,25.932,0.799,35.749-3.386
	c-1.086-3.793-2.05-7.549-2.948-11.28h-30.59h-2.4C276.927,377.067,276.999,377.895,276.999,378.791z M255.431,384.795
	c5.441,2.673,11.995,4.642,18.901,5.808v-11.813c0-0.895,0.072-1.723,0.189-2.442h-18.945c-0.565,2.412-1.092,4.979-1.555,7.728
	C254.482,384.322,254.953,384.561,255.431,384.795z M255.313,304.089c4.673-4.608,10.468-4.032,17.435,0.793
	c2.376,14.412,3.369,24.107,5.745,38.518c4.628,0.76,10.794,2.377,17.177,4.115c2.976,0.81,5.998,1.646,8.937,2.435
	c-0.479-3.037-0.928-6.052-1.339-9.035c-0.257-1.862-0.506-3.718-0.742-5.558c-1.854-14.474,10.655-21.073,2.804-34.37
	c-1.145-1.94-2.719-4.02-4.839-6.29c-2.089-2.236-5.091-4.802-8.478-7.292c-2.54-1.868-5.301-3.69-8.067-5.299l-0.423,6.273
	l-1.755-0.185c-3.37-4.505-7.123-8.497-11.516-11.097l0.039-0.579c-1.712-0.298-3.463-0.45-5.166-0.28
	c-1.079,0.108-2.138,0.333-3.151,0.743c-4.332,1.754-6.896,6.285-8.211,10.771c-0.916,3.126-1.143,6.479-0.962,9.905
	c0.357,6.735,2.32,13.762,3.933,19.958c0.076,0.291,0.151,0.565,0.227,0.848c1.696,6.336,3.385,10.717,4.984,16.064
	C259.624,324.868,257.19,315.687,255.313,304.089z M395.63,244.327c-0.494-0.836-1.172-1.733-2.086-2.711
	c-0.9-0.964-2.195-2.07-3.654-3.143c-1.095-0.805-2.285-1.591-3.477-2.284l-0.182,2.704l-0.756-0.08
	c-1.452-1.942-3.07-3.663-4.964-4.783l0.017-0.25c-0.738-0.128-1.493-0.194-2.227-0.121c-0.465,0.046-0.922,0.143-1.358,0.32
	c-1.867,0.756-2.973,2.709-3.539,4.643c-0.395,1.347-0.493,2.793-0.414,4.27c0.154,2.903,1,5.932,1.695,8.603
	c0.006,0.023,0.012,0.044,0.018,0.067l0,0c0,0,0,0,0,0c0.189,0.103,0.381,0.199,0.573,0.297c0.001,0,0.001,0.001,0.002,0.001
	c-0.433-1.932-0.844-3.958-1.206-6.196c2.014-1.986,4.512-1.738,7.516,0.342c0.51,3.092,0.872,5.68,1.233,8.266
	c0.519,0.075,1.044,0.13,1.573,0.173c0.106,0.009,0.213,0.017,0.32,0.024c0.539,0.037,1.082,0.061,1.63,0.061
	c0.412,0,0.821-0.011,1.228-0.031c0.216-0.011,0.43-0.031,0.645-0.048c0.186-0.014,0.374-0.024,0.559-0.042
	c0.296-0.03,0.59-0.069,0.883-0.11c0.099-0.014,0.199-0.023,0.297-0.038c0.337-0.05,0.67-0.11,1.003-0.175
	c0.052-0.01,0.105-0.018,0.157-0.028c0.366-0.073,0.73-0.155,1.09-0.245c0.015-0.004,0.03-0.007,0.045-0.01
	c1.131-0.284,2.232-0.647,3.294-1.082C396.578,250.07,397.62,247.697,395.63,244.327z"></path>
</svg>